<svg width="148" height="113" viewBox="0 0 148 113" fill="none" xmlns="http://www.w3.org/2000/svg">
<g style="mix-blend-mode:hard-light" clip-path="url(#clip0_2133_426)">
<path d="M77.9183 75.0728H0.0309585C-0.000265084 74.9475 -0.0158769 53.6392 0.0231526 53.4278C0.0621822 53.4278 0.101212 53.4121 0.148047 53.4121C0.2183 53.4121 0.280748 53.4121 0.351001 53.4121C11.8101 53.4121 23.2691 53.4121 34.736 53.4121C40.8559 53.4121 46.9757 53.4121 53.0955 53.4121C53.681 53.4121 54.2664 53.3965 54.844 53.3965C55.0002 53.3965 55.1563 53.4121 55.3046 53.4121C55.4139 53.4121 55.5231 53.3965 55.6324 53.3965C58.8797 53.3965 62.1269 53.3965 65.3664 53.4043C66.1626 53.4043 66.9588 53.4043 67.7472 53.4043C67.9814 53.4043 68.2156 53.3965 68.4497 53.3965C68.7151 53.3965 68.9805 53.4043 69.2459 53.4043C72.0405 53.4043 74.835 53.4043 77.6295 53.4043C77.7153 53.4043 77.7934 53.4043 77.8949 53.4043C77.8949 53.4983 77.9105 53.5687 77.9105 53.647C77.9105 55.6353 77.9105 57.6237 77.9105 59.6199C77.9105 64.6847 77.9105 69.7496 77.9105 74.8223C77.9105 74.9005 77.9105 74.9788 77.9105 75.0728H77.9183ZM27.9917 54.1402C27.9917 54.1402 27.9683 54.1089 27.9605 54.1089C27.9449 54.1089 27.9293 54.101 27.9137 54.101C18.8744 54.101 9.84298 54.101 0.803743 54.101C0.780326 54.101 0.756908 54.101 0.741296 54.1089C0.741296 54.1089 0.73349 54.1089 0.725684 54.1089C0.725684 54.1089 0.717878 54.1089 0.694461 54.1402V54.3515C0.694461 60.16 0.694461 65.9686 0.694461 71.7771C0.694461 71.8162 0.694461 71.8554 0.694461 71.8945C0.694461 71.9258 0.710073 71.9493 0.725684 72.0041C0.77252 71.9258 0.803743 71.871 0.834967 71.8241C1.28771 71.0334 1.72484 70.2271 2.19319 69.4443C3.27822 67.6203 4.37885 65.8042 5.51851 64.0193C5.6356 63.8315 5.72927 63.6279 5.83075 63.4322C5.90881 63.2913 5.89319 63.1426 5.83855 62.9939C5.78391 62.8451 5.73708 62.6964 5.67463 62.5555C5.55754 62.2737 5.59657 62.0075 5.77611 61.7648C5.87758 61.6239 5.97125 61.483 6.08834 61.3499C6.5645 60.8176 7.04847 60.301 7.52463 59.7686C8.09446 59.1346 8.6721 58.4926 9.23412 57.8429C9.75712 57.2323 10.2723 56.6217 10.8812 56.0894C11.2871 55.7293 11.7398 55.4475 12.2784 55.3457C12.7312 55.2596 12.8561 55.2831 13.0668 55.7606C13.1761 55.9954 13.2386 56.2538 13.3088 56.5043C13.4415 57.0131 13.3634 57.5063 13.1527 57.9838C12.9263 58.4848 12.6063 58.9154 12.255 59.3303C11.3495 60.3792 10.444 61.4282 9.54636 62.485C8.42231 63.8002 7.33729 65.1544 6.30691 66.54C5.78391 67.2446 5.27653 67.9648 4.80817 68.7163C4.77695 68.7632 4.73011 68.8024 4.74573 68.8885C4.80037 68.8572 4.8472 68.8415 4.88623 68.818C5.14383 68.6771 5.40142 68.5284 5.66682 68.4031C6.22104 68.1213 6.79868 67.8865 7.40754 67.7534C8.16471 67.5812 8.9375 67.5499 9.71028 67.6595C10.3348 67.7456 10.928 67.9569 11.5134 68.1839C11.9662 68.3562 12.3955 68.5832 12.8248 68.8102C13.0122 68.912 13.1995 69.0059 13.3869 69.0998C13.7615 69.2877 14.1675 69.319 14.5734 69.3347C14.7451 69.3347 14.8544 69.4208 14.9324 69.5617C15.0417 69.7496 15.0886 69.9531 15.1432 70.1567C15.3071 70.8299 15.2213 71.464 14.831 72.0432C14.7373 72.1763 14.628 72.3094 14.5031 72.419C14.2611 72.6382 13.9723 72.6695 13.6757 72.5599C13.4025 72.4581 13.1293 72.3485 12.8639 72.2155C12.1769 71.871 11.4978 71.5109 10.8187 71.1587C10.2489 70.8612 9.65564 70.6029 9.03898 70.4072C8.03201 70.0862 7.00944 69.9375 5.94784 70.0627C5.16725 70.1567 4.4491 70.4306 3.79341 70.8612C3.16893 71.2683 2.65374 71.8006 2.19319 72.3877C1.97463 72.6695 1.76387 72.9591 1.5375 73.2331C1.4126 73.3819 1.2721 73.5149 1.1394 73.6559C1.02231 73.7733 0.873997 73.8046 0.725684 73.8359C0.717878 73.8594 0.710073 73.875 0.710073 73.8907C0.710073 73.9846 0.710073 74.0786 0.710073 74.1725C0.710073 74.3917 0.710072 74.3917 0.936444 74.3917C5.14383 74.3917 9.35121 74.3917 13.5586 74.3917C13.6991 74.3917 13.7772 74.3447 13.8552 74.2351C15.5647 71.7849 17.243 69.3034 18.851 66.7905C18.8822 66.7436 18.9056 66.6966 18.9447 66.6183C18.7886 66.6183 18.6637 66.6183 18.5388 66.6183C18.1407 66.6183 17.7504 66.6183 17.3523 66.6183C17.1649 66.6183 16.9932 66.5635 16.8215 66.4852C16.4312 66.2817 16.3453 65.8355 16.6341 65.5067C16.6966 65.4284 16.7668 65.358 16.8449 65.2953C17.1415 65.0292 17.4459 64.763 17.7426 64.4969C17.8596 64.3873 18.0002 64.309 18.1563 64.2933C18.3358 64.2698 18.5232 64.262 18.7027 64.2698C19.1242 64.2933 19.5457 64.3246 19.9672 64.3638C20.0999 64.3794 20.178 64.3246 20.2561 64.2229C21.4035 62.7042 22.5588 61.1855 23.7063 59.6669C24.9552 58.0151 26.212 56.3712 27.5156 54.7586C27.6795 54.5551 27.8434 54.3515 28.0073 54.1402H27.9917ZM26.212 66.0782C25.9544 66.0625 25.7124 66.0625 25.4782 66.0938C24.9162 66.1878 24.362 66.2895 23.8078 66.3991C23.1677 66.5244 22.5198 66.634 21.8563 66.6261C21.4972 66.6261 21.1459 66.6261 20.7869 66.6105C20.6073 66.6026 20.5059 66.6574 20.4122 66.814C19.5223 68.2153 18.6246 69.6087 17.7348 71.0099C17.0556 72.0746 16.3687 73.1392 15.6896 74.2038C15.6584 74.2586 15.6272 74.3134 15.5881 74.3917H36.4221C36.4221 74.3212 36.4299 74.2665 36.4299 74.2038C36.4299 73.421 36.4299 72.646 36.4299 71.8632C36.4299 71.6597 36.4299 71.6832 36.2582 71.6127C35.0092 71.1587 33.9945 70.3915 33.2139 69.319C32.5894 68.4501 32.1991 67.4794 32.0118 66.4304C31.9181 65.8981 31.8869 65.358 31.9025 64.8178C31.9259 63.8784 32.1523 63.0095 32.7143 62.2502C32.7924 62.1406 32.847 62.0232 32.9016 61.8979C32.9953 61.6787 33.0656 61.4439 33.167 61.2325C33.4324 60.6454 33.7447 60.0896 34.135 59.5729C34.4472 59.1502 34.7907 58.751 35.181 58.4065C35.5556 58.0777 35.9459 57.7646 36.3362 57.4515C36.4143 57.3889 36.4533 57.3341 36.4533 57.2323C36.4533 56.2538 36.4533 55.2674 36.4533 54.2889C36.4533 54.2419 36.4533 54.195 36.4455 54.1323H29.3656C29.3577 54.2889 29.3578 54.4298 29.3343 54.5707C29.2797 54.923 29.2016 55.2752 29.1548 55.6275C29.0221 56.5199 28.8894 57.4124 28.7801 58.3048C28.7021 58.9545 28.6474 59.6042 28.624 60.254C28.585 61.1777 28.585 62.1014 28.5772 63.0252C28.5772 63.5653 28.6006 64.1055 28.6084 64.6456C28.6084 64.7552 28.6474 64.8178 28.7567 64.8491C28.8426 64.8726 28.9206 64.9196 28.9909 64.9666C29.3265 65.1857 29.2797 65.6163 29.0533 65.8198C28.9753 65.8903 28.8816 65.9451 28.7879 65.9842C28.7021 66.0234 28.663 66.0703 28.6708 66.1564C28.6786 66.2426 28.6708 66.3365 28.6786 66.4226C28.7099 67.4559 28.8894 68.4579 29.2719 69.4208C29.3187 69.5304 29.3578 69.64 29.389 69.7496C29.4514 69.9688 29.4046 70.1645 29.2485 70.321C29.0845 70.4776 28.8894 70.5324 28.663 70.4541C28.6084 70.4385 28.5616 70.415 28.5069 70.3915C28.3664 70.3367 28.2337 70.321 28.0854 70.3445C27.9917 70.3602 27.8824 70.3445 27.7966 70.3132C27.6092 70.2349 27.4219 70.141 27.2502 70.0392C27.1253 69.9688 27.0316 69.8514 26.977 69.7104C26.8911 69.4834 26.7974 69.2564 26.7272 69.0216C26.5398 68.3483 26.4227 67.6595 26.3291 66.9706C26.29 66.6809 26.2588 66.3835 26.2198 66.0703L26.212 66.0782ZM60.2769 70.7751C60.2769 70.7751 60.2613 70.7516 60.2535 70.7359C60.2769 70.6968 60.2926 70.6577 60.3238 70.6342C60.4799 70.4776 60.636 70.321 60.7999 70.1645C61.0341 69.9453 61.2761 69.7261 61.5025 69.4991C61.6508 69.3582 61.7679 69.2016 61.8537 69.0137C61.9474 68.8024 61.8537 68.6145 61.6352 68.5675C61.5649 68.5519 61.4869 68.5519 61.4244 68.5754C61.2605 68.6458 61.0966 68.7163 60.9483 68.8102C60.2613 69.2329 59.6369 69.7496 59.0202 70.2662C58.7236 70.5168 58.5206 70.8142 58.4035 71.1821C58.3411 71.37 58.2396 71.5344 58.0913 71.6675C57.9508 71.7849 57.8103 71.9023 57.662 72.0198C57.3731 72.2468 57.0765 72.4581 56.7955 72.7008C56.655 72.8182 56.5301 72.9748 56.4286 73.1314C56.2959 73.3427 56.3662 73.5697 56.5613 73.7185C56.6706 73.7968 56.7955 73.8281 56.9282 73.8594C57.2483 73.922 57.5683 73.8829 57.8883 73.8516C58.6065 73.7733 59.3168 73.6559 60.0272 73.5306C61.401 73.2801 62.7592 72.9826 64.1096 72.6225C66.2407 72.0511 68.3483 71.4013 70.4246 70.6577C70.9008 70.4854 71.3691 70.2897 71.8141 70.0471C72.2434 69.8044 72.6415 69.5304 73.0162 69.2094C73.6094 68.7084 74.2105 68.2074 74.8584 67.7769C75.2955 67.4872 75.7404 67.1898 76.1542 66.8688C76.5679 66.5557 76.8801 66.1486 77.1065 65.6789C77.1377 65.6241 77.1455 65.5537 77.1455 65.4832C77.1455 64.8178 77.1455 64.1446 77.1455 63.4792C77.1455 63.4166 77.1299 63.3461 77.0987 63.2913C76.9348 62.986 76.7084 62.7277 76.4274 62.5163C75.9434 62.1719 75.4126 61.9449 74.8428 61.804C74.1715 61.6396 73.5002 61.5222 72.8054 61.4595C71.939 61.3891 71.0725 61.3499 70.2061 61.3421C69.847 61.3421 69.4801 61.3421 69.121 61.3578C68.5356 61.3734 67.958 61.3969 67.3725 61.4204C66.7012 61.4517 66.0299 61.4752 65.3586 61.3734C65.0386 61.3264 64.7263 61.2482 64.4531 61.0681C64.1487 60.8724 64.0082 60.5123 64.1018 60.1679C64.1565 59.9565 64.258 59.7686 64.4063 59.5964C64.6639 59.2989 64.9761 59.0641 65.3118 58.8606C66.0845 58.3987 66.9198 58.0777 67.7784 57.8038C68.5122 57.5689 69.2459 57.3654 69.9875 57.1697C71.174 56.8565 72.3683 56.5512 73.5782 56.3634C73.8124 56.3321 74.0544 56.3242 74.2886 56.3007C74.5071 56.2851 74.7179 56.4495 74.7257 56.6687C74.7257 56.7548 74.7335 56.8487 74.7257 56.9348C74.7101 57.0914 74.7179 57.248 74.7881 57.3889C74.9052 57.6394 75.1238 57.7411 75.3814 57.6394C75.4829 57.6002 75.5765 57.5219 75.6624 57.4358C75.7326 57.3654 75.7795 57.2714 75.8341 57.1932C75.9746 56.974 76.1073 56.747 76.2634 56.5356C76.5132 56.2146 76.7864 55.9093 77.0518 55.604C77.1143 55.5336 77.1455 55.4553 77.1455 55.3614C77.1455 55.0248 77.1455 54.6803 77.1455 54.3437C77.1455 54.3124 77.1455 54.2889 77.1455 54.2576C77.1455 54.195 77.1065 54.1558 77.044 54.148C77.0128 54.148 76.9738 54.148 76.9426 54.148C75.3736 54.148 73.8046 54.148 72.2434 54.148C72.1653 54.148 72.0795 54.1636 72.0014 54.1871C71.0569 54.4768 70.1202 54.8134 69.2147 55.2048C68.6059 55.4631 67.997 55.7293 67.4115 56.0268C66.631 56.4182 65.8816 56.8722 65.1634 57.3732C64.336 57.9525 63.5945 58.6101 62.97 59.4085C62.7046 59.753 62.4782 60.1209 62.3143 60.528C62.1582 60.935 62.0567 61.3578 62.1504 61.804C62.2206 62.1641 62.4548 62.3989 62.8217 62.4459C62.9778 62.4694 63.1417 62.4772 63.3056 62.485C63.6491 62.5007 63.9457 62.6024 64.1799 62.8686C64.336 63.0408 64.4843 63.2209 64.6483 63.3931C64.7731 63.534 64.898 63.6749 65.0464 63.7923C65.304 64.0037 65.6162 64.1055 65.9362 64.1837C66.5295 64.3246 67.1305 64.3794 67.7394 64.3794C68.3951 64.3794 69.0508 64.3403 69.7065 64.3246C70.4949 64.309 71.2833 64.2933 72.0717 64.3794C72.5791 64.4342 73.0864 64.5282 73.5704 64.6847C73.9061 64.7943 74.2027 64.9822 74.4447 65.2484C74.671 65.5067 74.7725 65.9764 74.5618 66.3365C74.4212 66.5713 74.2339 66.7749 74.0153 66.9393C73.625 67.2446 73.1957 67.4951 72.743 67.7064C71.658 68.2231 70.5261 68.5832 69.3786 68.9276C68.0438 69.319 66.6778 69.6243 65.3118 69.9062C63.7272 70.2349 62.1269 70.5011 60.5267 70.7438C60.4409 70.7594 60.355 70.7594 60.2691 70.7751H60.2769ZM43.182 74.3447C43.2835 74.3447 43.3381 74.3526 43.3928 74.3526C43.8455 74.3526 44.3061 74.3526 44.7588 74.3526C44.8993 74.3526 44.9774 74.3056 45.0554 74.1882C45.9219 72.8339 46.7883 71.4874 47.6548 70.141C48.3729 69.0137 49.0989 67.8943 49.817 66.767C49.8951 66.6418 49.9888 66.587 50.1449 66.587C50.4649 66.6026 50.7772 66.587 51.0972 66.5948C51.7139 66.6026 52.3305 66.54 52.9316 66.4226C53.5561 66.3052 54.1883 66.1799 54.8128 66.0703C55.0158 66.0312 55.2343 66.0312 55.4451 66.0234C55.5778 66.0234 55.6168 66.0547 55.6402 66.1799C55.648 66.2112 55.6559 66.2426 55.6559 66.2817C55.7339 67.1037 55.8744 67.9178 56.0618 68.7163C56.1398 69.045 56.2335 69.3738 56.374 69.687C56.4364 69.8357 56.5301 69.9609 56.6706 70.0392C56.8345 70.1332 57.0063 70.2114 57.178 70.2897C57.2873 70.3445 57.4044 70.3524 57.5215 70.321C57.6464 70.2897 57.7634 70.321 57.8805 70.3602C57.9586 70.3915 58.0366 70.4228 58.1147 70.4463C58.4191 70.5167 58.708 70.321 58.7704 70.0079C58.7938 69.867 58.7704 69.7418 58.7158 69.6165C58.6143 69.3425 58.505 69.0685 58.4191 68.7867C58.2396 68.1918 58.1147 67.5733 58.0757 66.9471C58.0601 66.6731 58.0601 66.3991 58.0523 66.1251C58.0523 66.039 58.0835 65.9764 58.1693 65.9451C58.2396 65.9138 58.3021 65.8825 58.3645 65.8433C58.6377 65.6711 58.6845 65.2797 58.4582 65.0448C58.3645 64.9509 58.263 64.8804 58.1381 64.8491C58.0288 64.8178 57.9742 64.7552 57.9742 64.6378C57.9742 64.1446 57.9508 63.6593 57.943 63.1661C57.9352 62.1093 57.943 61.0603 58.0054 60.0113C58.0445 59.3772 58.0835 58.7431 58.1537 58.1091C58.2552 57.1305 58.4113 56.1677 58.5909 55.197C58.6377 54.923 58.6845 54.649 58.7236 54.375C58.7548 54.1636 58.7236 54.1402 58.5206 54.1402C58.263 54.1402 57.9976 54.1402 57.74 54.1402C57.42 54.1402 57.42 54.1402 57.2248 54.3828C56.413 55.4005 55.6012 56.4182 54.805 57.4515C53.5326 59.1032 52.2759 60.7628 51.0191 62.4146C50.5508 63.0252 50.0902 63.6358 49.6297 64.2542C49.5516 64.356 49.4658 64.3951 49.3409 64.3716C49.2784 64.3638 49.2082 64.356 49.1457 64.356C48.7632 64.3246 48.3807 64.3012 47.9983 64.262C47.6314 64.2229 47.3113 64.3168 47.0381 64.583C46.8196 64.8022 46.5776 64.9979 46.3434 65.2092C46.2341 65.311 46.117 65.4128 46.0156 65.5224C45.9687 65.5693 45.9297 65.6398 45.9063 65.7024C45.7892 66.0625 45.9297 66.36 46.2888 66.4931C46.5229 66.5792 46.7649 66.6105 47.0069 66.6027C47.3894 66.6027 47.7719 66.587 48.1544 66.5792C48.209 66.5792 48.2559 66.5948 48.3417 66.6105C46.6869 69.2329 44.9383 71.7536 43.1898 74.3291L43.182 74.3447ZM36.5002 58.6962C36.5782 58.6492 36.6251 58.6101 36.6797 58.5788C36.8983 58.4535 37.109 58.3204 37.3276 58.203C38.1862 57.7803 39.1073 57.5767 40.0597 57.5219C40.731 57.4828 41.4023 57.5219 42.0658 57.655C42.5341 57.749 42.9947 57.8742 43.4396 58.0621C43.6894 58.1717 43.9392 58.2735 44.1968 58.3752C44.4466 58.4692 44.6573 58.3987 44.8291 58.2187C44.8915 58.156 44.9383 58.0777 44.9696 57.9916C45.0554 57.7881 45.1101 57.5689 45.1023 57.3419C45.1023 57.1227 45.1023 56.8957 45.071 56.6765C45.0008 56.1285 44.7276 55.7528 44.1734 55.604C43.7909 55.5023 43.4084 55.4788 43.0181 55.4475C42.6122 55.424 42.2063 55.4083 41.8004 55.4475C41.4335 55.4866 41.0666 55.5101 40.7075 55.5727C39.6303 55.7606 38.5999 56.1129 37.6398 56.6452C37.2886 56.8409 36.9529 57.0523 36.6094 57.2558C36.5158 57.3106 36.4767 57.3732 36.4767 57.4828C36.4767 57.8272 36.4767 58.1717 36.4767 58.5161C36.4767 58.5553 36.4845 58.6022 36.4924 58.6805L36.5002 58.6962ZM36.4377 68.5127C36.4377 68.4579 36.4533 68.4266 36.4533 68.4031C36.4533 65.2092 36.4533 62.0153 36.4533 58.8214C36.4533 58.8214 36.4533 58.8136 36.4455 58.8058C36.4455 58.8058 36.4377 58.8058 36.4221 58.7979C36.4065 58.8058 36.3753 58.8214 36.3597 58.8371C36.063 59.0641 35.7898 59.3224 35.5478 59.6042C35.298 59.8939 35.0639 60.207 34.8843 60.5436C34.4706 61.3343 34.2599 62.1797 34.1896 63.0721C34.1506 63.6279 34.1896 64.1837 34.2911 64.7317C34.416 65.3971 34.6267 66.039 34.939 66.6418C35.298 67.3307 35.7898 67.9178 36.3518 68.4423C36.3675 68.4579 36.3987 68.4736 36.4377 68.5049V68.5127ZM21.7938 64.4812C22.512 64.536 23.2223 64.5908 23.9326 64.6534C24.643 64.7161 25.3455 64.7395 26.0637 64.7239C26.0715 64.0976 26.0637 63.4949 26.0949 62.8843C26.1261 62.2737 26.1651 61.6631 26.2432 61.0525C26.3134 60.4497 26.4149 59.8469 26.532 59.252C26.6413 58.6492 26.7896 58.0621 26.9145 57.4515C26.6881 57.6081 21.9812 64.0741 21.7938 64.4812ZM36.4924 68.6145C36.4924 68.7006 36.4845 68.7554 36.4845 68.818C36.4845 69.3895 36.4845 69.9688 36.4845 70.5402C36.4845 70.8612 36.4845 71.1743 36.4845 71.4953C36.4845 71.6362 36.4924 71.6518 36.6172 71.6831C37.1715 71.8319 37.7335 71.9337 38.3111 71.9415C38.7795 71.9493 39.24 71.918 39.7006 71.8397C40.5826 71.6988 41.4101 71.417 42.2141 71.0412C42.8151 70.7594 43.3694 70.3915 43.8923 69.9923C44.1499 69.7966 44.3841 69.5695 44.6183 69.3503C44.7666 69.2094 44.8681 69.0372 44.9227 68.8415C44.9618 68.7084 44.9227 68.591 44.8369 68.5284C44.7276 68.4501 44.6261 68.4814 44.5324 68.5519C44.3841 68.6536 44.2358 68.7476 44.0875 68.8493C43.4942 69.2486 42.862 69.5695 42.175 69.7731C41.254 70.0549 40.3094 70.1097 39.3571 69.9453C38.3424 69.7652 37.4291 69.3503 36.6172 68.7084C36.586 68.6849 36.547 68.6615 36.4845 68.6223L36.4924 68.6145Z" fill="#BE171A"/>
<path d="M36.4531 54.1484H76.677C76.9502 54.1484 77.1765 54.3755 77.1765 54.6494V74.3765H36.4531V54.1484Z" fill="#1D1F1C"/>
<path d="M60.2777 70.7755C60.3636 70.7677 60.4494 70.7599 60.5353 70.7442C62.1355 70.5015 63.7357 70.2354 65.3203 69.9066C66.6863 69.6248 68.0446 69.3273 69.3872 68.9281C70.5346 68.5915 71.6665 68.2235 72.7515 67.7069C73.1965 67.4955 73.6258 67.245 74.0239 66.9397C74.2346 66.7753 74.4298 66.5718 74.5703 66.3369C74.7889 65.9768 74.6796 65.4993 74.4532 65.2488C74.2112 64.9827 73.9224 64.7948 73.579 64.6852C73.095 64.5286 72.5876 64.4347 72.0802 64.3799C71.2918 64.2938 70.5034 64.3094 69.715 64.3251C69.0593 64.3329 68.4036 64.3799 67.7479 64.3799C67.1391 64.3799 66.538 64.3251 65.9448 64.1842C65.6247 64.1059 65.3125 64.0041 65.0549 63.7928C64.9066 63.6754 64.7895 63.5266 64.6568 63.3935C64.5007 63.2213 64.3446 63.0413 64.1884 62.869C63.9543 62.6029 63.6498 62.5011 63.3142 62.4855C63.1503 62.4855 62.9941 62.4698 62.8302 62.4463C62.4633 62.3994 62.2292 62.1645 62.1589 61.8044C62.073 61.3582 62.1667 60.9433 62.3228 60.5284C62.4789 60.1214 62.7053 59.7456 62.9785 59.409C63.603 58.6105 64.3446 57.9451 65.172 57.3737C65.8901 56.8727 66.6395 56.4264 67.4201 56.0272C68.0133 55.7297 68.6144 55.4636 69.2233 55.2052C70.1365 54.8138 71.0654 54.4851 72.01 54.1876C72.088 54.1641 72.1739 54.1484 72.2519 54.1484C73.8209 54.1484 75.3899 54.1484 76.9511 54.1484C76.9823 54.1484 77.0214 54.1484 77.0526 54.1484C77.115 54.1484 77.1541 54.1876 77.1541 54.258C77.1541 54.2893 77.1541 54.3128 77.1541 54.3441C77.1541 54.6808 77.1541 55.0252 77.1541 55.3618C77.1541 55.4557 77.1228 55.5262 77.0604 55.6045C76.795 55.9098 76.5218 56.2151 76.272 56.536C76.1081 56.7396 75.9832 56.9744 75.8427 57.1936C75.788 57.2797 75.7412 57.3737 75.6709 57.4363C75.5929 57.5146 75.4992 57.5928 75.3899 57.6398C75.1323 57.7416 74.9138 57.6398 74.7967 57.3893C74.7264 57.2406 74.7186 57.0918 74.7342 56.9353C74.742 56.8492 74.7342 56.7552 74.7342 56.6691C74.7264 56.4499 74.5157 56.2855 74.2971 56.3012C74.0629 56.3168 73.8209 56.3247 73.5868 56.3638C72.369 56.5439 71.1825 56.8492 69.996 57.1701C69.2545 57.3658 68.5129 57.5772 67.787 57.8042C66.9361 58.0704 66.0931 58.3913 65.3203 58.861C64.9846 59.0645 64.6724 59.2994 64.4148 59.5969C64.2665 59.7613 64.165 59.957 64.1104 60.1683C64.0167 60.5206 64.1572 60.8729 64.4617 61.0686C64.7349 61.2486 65.0549 61.3191 65.3671 61.3739C66.0384 61.4756 66.7098 61.46 67.3811 61.4208C67.9665 61.3895 68.5441 61.3739 69.1296 61.3582C69.4887 61.3504 69.8555 61.3347 70.2146 61.3426C71.0811 61.3582 71.9475 61.3895 72.814 61.46C73.5009 61.5148 74.18 61.64 74.8513 61.8044C75.4211 61.9453 75.9598 62.1645 76.4359 62.5168C76.7169 62.7203 76.9433 62.9786 77.1072 63.2918C77.1384 63.3466 77.1541 63.417 77.1541 63.4796C77.1541 64.145 77.1541 64.8183 77.1541 65.4837C77.1541 65.5463 77.1384 65.6167 77.115 65.6794C76.8887 66.1491 76.5764 66.5561 76.1627 66.8693C75.7412 67.1902 75.3041 67.4799 74.8669 67.7773C74.219 68.2079 73.618 68.7011 73.0247 69.2099C72.6501 69.5308 72.2519 69.8048 71.8226 70.0475C71.3777 70.298 70.9171 70.4859 70.4332 70.6581C68.3568 71.4018 66.2492 72.0515 64.1182 72.623C62.7678 72.9831 61.4095 73.2805 60.0357 73.531C59.3254 73.6641 58.615 73.7815 57.8969 73.852C57.5768 73.8833 57.2568 73.9225 56.9368 73.8598C56.8041 73.8363 56.6792 73.805 56.5699 73.7189C56.3669 73.5702 56.3045 73.3432 56.4372 73.1318C56.5387 72.9752 56.6635 72.8265 56.8041 72.7013C57.0851 72.4664 57.3817 72.2472 57.6705 72.0202C57.811 71.9106 57.9593 71.7932 58.0998 71.6679C58.2482 71.5349 58.3496 71.3705 58.4121 71.1826C58.5292 70.8147 58.7399 70.5172 59.0287 70.2667C59.6454 69.7422 60.2621 69.2334 60.9568 68.8106C61.1051 68.7167 61.269 68.6463 61.433 68.5758C61.4954 68.5523 61.5735 68.5523 61.6437 68.568C61.8623 68.6228 61.956 68.8107 61.8623 69.0142C61.7842 69.2021 61.6593 69.3586 61.511 69.4995C61.2768 69.7265 61.0427 69.9379 60.8085 70.1649C60.6446 70.3215 60.4884 70.4781 60.3323 70.6346C60.3011 70.6659 60.2855 70.7051 60.2621 70.7364C60.2621 70.752 60.2777 70.7599 60.2855 70.7755H60.2777Z" fill="#C09249"/>
<path d="M43.1816 74.3452C44.938 71.7775 46.6865 69.2568 48.3335 66.6266C48.2477 66.6109 48.2008 66.5953 48.1462 66.5953C47.7637 66.5953 47.3812 66.6109 46.9987 66.6187C46.7489 66.6187 46.507 66.5953 46.2806 66.5091C45.9215 66.3761 45.781 66.0786 45.8981 65.7185C45.9215 65.6559 45.9605 65.5854 46.0074 65.5384C46.1088 65.4289 46.2181 65.3271 46.3352 65.2253C46.5694 65.014 46.8114 64.8182 47.0299 64.5991C47.3032 64.3329 47.6154 64.239 47.9901 64.2781C48.3726 64.3172 48.7551 64.3407 49.1375 64.372C49.2078 64.372 49.2702 64.3799 49.3327 64.3877C49.4576 64.4112 49.5434 64.372 49.6215 64.2703C50.0821 63.6518 50.5426 63.0413 51.011 62.4307C52.2755 60.7711 53.5323 59.1115 54.7968 57.4676C55.593 56.4343 56.4048 55.4244 57.2167 54.3989C57.4118 54.1562 57.4118 54.1562 57.7318 54.1562C57.9894 54.1562 58.2548 54.1562 58.5124 54.1562C58.7232 54.1562 58.7466 54.1719 58.7154 54.3911C58.6764 54.6651 58.6373 54.9391 58.5827 55.2131C58.4032 56.1759 58.247 57.1466 58.1456 58.1251C58.0831 58.7592 58.0363 59.3933 57.9972 60.0274C57.9348 61.0764 57.9192 62.1332 57.9348 63.1822C57.9348 63.6753 57.9582 64.1607 57.966 64.6539C57.966 64.7791 58.0207 64.8417 58.1299 64.8652C58.2548 64.8965 58.3641 64.967 58.45 65.0609C58.6764 65.2958 58.6373 65.6793 58.3563 65.8594C58.2939 65.8985 58.2314 65.9299 58.1612 65.9612C58.0753 65.9925 58.0441 66.0551 58.0441 66.1412C58.0519 66.4152 58.0441 66.6892 58.0675 66.9632C58.1065 67.5894 58.2314 68.2 58.411 68.8028C58.4968 69.0846 58.6061 69.3586 58.7076 69.6326C58.7544 69.7578 58.7856 69.8831 58.7622 70.024C58.6998 70.3371 58.4188 70.5328 58.1065 70.4624C58.0285 70.4467 57.9504 70.4076 57.8723 70.3763C57.7553 70.3293 57.646 70.298 57.5133 70.3371C57.3962 70.3684 57.2791 70.3606 57.1698 70.3058C56.9981 70.2275 56.8264 70.1492 56.6624 70.0553C56.5219 69.977 56.4283 69.8518 56.3658 69.703C56.2253 69.3899 56.1316 69.069 56.0536 68.7324C55.8662 67.926 55.7257 67.1197 55.6477 66.2978C55.6477 66.2665 55.6399 66.2273 55.6321 66.196C55.6008 66.0708 55.5618 66.0316 55.4369 66.0394C55.2261 66.0473 55.0154 66.0473 54.8046 66.0864C54.1723 66.196 53.5479 66.3213 52.9234 66.4387C52.3145 66.5561 51.7057 66.6187 51.089 66.6109C50.769 66.6109 50.4567 66.6109 50.1367 66.6031C49.9806 66.6031 49.8947 66.65 49.8088 66.7831C49.0907 67.9104 48.3648 69.0377 47.6466 70.1571C46.7802 71.5035 45.9137 72.8578 45.0472 74.2043C44.9692 74.3217 44.8911 74.3686 44.7506 74.3686C44.2979 74.3686 43.8373 74.3686 43.3846 74.3686C43.3299 74.3686 43.2753 74.3686 43.1738 74.3608L43.1816 74.3452ZM56.3268 57.4284L56.2799 57.4128C56.2799 57.4128 56.2097 57.4832 56.1785 57.5224C55.9911 57.7729 55.796 58.0155 55.6086 58.2661C54.5392 59.7299 53.4698 61.2016 52.4082 62.6655C52.0179 63.2056 51.6354 63.7536 51.2529 64.3016C51.2139 64.3642 51.1437 64.419 51.1671 64.513C51.1905 64.513 51.2217 64.5286 51.2451 64.5364C51.4559 64.5521 51.6667 64.5599 51.8774 64.5756C52.0882 64.5912 52.2989 64.5991 52.5097 64.6147C53.0327 64.6539 53.5479 64.7087 54.0709 64.7321C54.4924 64.7556 54.9139 64.74 55.3354 64.74C55.4681 64.74 55.4915 64.7243 55.4915 64.5834C55.4915 64.3799 55.4915 64.1842 55.4915 63.9806C55.4915 63.5657 55.4915 63.1587 55.5072 62.7438C55.5306 62.2663 55.5774 61.7887 55.6243 61.3112C55.6945 60.5597 55.8116 59.8082 55.9677 59.0645C56.0692 58.5713 56.1941 58.086 56.3034 57.6007C56.319 57.5459 56.319 57.4911 56.3268 57.4284Z" fill="#C09249"/>
<path d="M36.5 58.6963C36.4922 58.6181 36.4844 58.5789 36.4844 58.5319C36.4844 58.1875 36.4844 57.8431 36.4844 57.4986C36.4844 57.389 36.5234 57.3186 36.6171 57.2716C36.9605 57.0681 37.2962 56.8489 37.6475 56.661C38.6076 56.1287 39.638 55.7764 40.7152 55.5885C41.0742 55.5259 41.4411 55.5024 41.808 55.4633C42.2139 55.4242 42.6198 55.4398 43.0257 55.4633C43.416 55.4868 43.7985 55.5103 44.181 55.6199C44.7352 55.7686 45.0084 56.1522 45.0787 56.6923C45.1099 56.9115 45.1099 57.1385 45.1099 57.3577C45.1099 57.5847 45.0631 57.8039 44.9772 58.0075C44.946 58.0857 44.8991 58.1719 44.8367 58.2345C44.6572 58.4145 44.4464 58.4928 44.2044 58.391C43.9546 58.2893 43.697 58.1875 43.4472 58.0779C43.0023 57.89 42.5418 57.7648 42.0734 57.6708C41.4099 57.5456 40.7386 57.4986 40.0673 57.5378C39.115 57.5926 38.2017 57.7961 37.3352 58.2188C37.1088 58.3284 36.8981 58.4693 36.6873 58.5946C36.6327 58.6259 36.5859 58.6572 36.5078 58.712L36.5 58.6963Z" fill="#C09249"/>
<path d="M36.4922 68.614C36.5546 68.6532 36.5937 68.6688 36.6249 68.7001C37.4367 69.342 38.3422 69.7569 39.3648 69.937C40.3171 70.1092 41.2538 70.0466 42.1827 69.7648C42.8696 69.5612 43.5019 69.2403 44.0951 68.841C44.2435 68.7393 44.3918 68.6453 44.5401 68.5436C44.6416 68.4731 44.743 68.4496 44.8445 68.5201C44.9382 68.5827 44.9694 68.7001 44.9304 68.8332C44.8757 69.0289 44.7743 69.209 44.6259 69.342C44.3918 69.5612 44.1576 69.7882 43.9 69.984C43.377 70.391 42.8228 70.7511 42.2217 71.0329C41.4177 71.4087 40.5825 71.6905 39.7082 71.8314C39.2477 71.9097 38.7793 71.941 38.3188 71.9332C37.7411 71.9253 37.1791 71.8236 36.6249 71.6748C36.5 71.6435 36.4922 71.6279 36.4922 71.487C36.4922 71.166 36.4922 70.8529 36.4922 70.5319C36.4922 69.9605 36.4922 69.3812 36.4922 68.8097C36.4922 68.7471 36.4922 68.6923 36.5 68.6062L36.4922 68.614Z" fill="#C09249"/>
<path d="M56.3269 57.4278C56.3269 57.4826 56.3191 57.5452 56.3035 57.6C56.1942 58.0853 56.0771 58.5785 55.9678 59.0639C55.8117 59.8075 55.6946 60.5512 55.6244 61.3106C55.5775 61.7881 55.5307 62.2656 55.5073 62.7431C55.4839 63.158 55.4917 63.5651 55.4917 63.98C55.4917 64.1835 55.4917 64.3792 55.4917 64.5827C55.4917 64.7236 55.4682 64.7393 55.3355 64.7393C54.914 64.7393 54.4925 64.755 54.071 64.7315C53.548 64.708 53.0328 64.6532 52.5098 64.6141C52.299 64.5984 52.0883 64.5906 51.8775 64.5749C51.6668 64.5593 51.456 64.5514 51.2453 64.5358C51.2218 64.5358 51.1906 64.5201 51.1672 64.5123C51.1438 64.4183 51.2062 64.3635 51.2531 64.3009C51.6355 63.7529 52.018 63.205 52.4083 62.6648C53.4699 61.1931 54.5393 59.7293 55.6088 58.2654C55.7961 58.0149 55.9834 57.7722 56.1786 57.5217C56.2098 57.4826 56.241 57.4513 56.2801 57.4121L56.3269 57.4278Z" fill="#1D1F1C"/>
<path d="M148.001 112.718C147.649 113.031 147.321 112.969 147.017 112.969C143.379 112.977 139.742 112.984 136.104 112.984C118.486 112.984 100.868 112.984 83.2506 112.969C82.9305 112.969 82.587 113.063 82.2046 112.765C82.4856 112.632 82.7041 112.522 82.9227 112.421C84.4136 111.747 85.8187 110.918 87.1145 109.916C89.3079 108.217 91.0252 106.111 92.3913 103.7C93.3982 101.939 94.0461 100.052 94.4833 98.0795C94.9828 95.825 95.0765 93.5548 94.8033 91.2689C94.5847 89.4371 94.0852 87.6758 93.3436 85.9927C91.7902 82.4387 90.229 78.8847 88.6757 75.3307C87.255 72.082 85.8499 68.8333 84.4214 65.5846C83.1959 62.79 81.9548 59.9953 80.7292 57.2006C79.5427 54.4999 78.3641 51.7914 77.1697 49.0828C75.9052 46.2177 74.6406 43.3526 73.3761 40.4874C72.7282 39.0236 72.6814 37.5597 73.337 36.0802C74.6328 33.1446 75.9208 30.2012 77.2166 27.2656C78.4889 24.3848 79.7535 21.4962 81.0259 18.6155C82.6963 14.8501 84.3746 11.0926 86.0451 7.33503C86.9427 5.32319 87.8248 3.29569 88.7225 1.28384C88.902 0.876774 89.1128 0.477536 89.3548 -0.0078125C89.4719 0.187892 89.5577 0.305315 89.6124 0.430566C91.0487 3.78103 92.4849 7.1315 93.929 10.4741C95.3185 13.6915 96.7157 16.9089 98.0974 20.1263C99.2839 22.874 100.455 25.6295 101.641 28.3772C102.937 31.3832 104.241 34.3814 105.529 37.3796C107.098 41.0354 108.667 44.6912 110.236 48.3469C111.485 51.2434 112.741 54.132 113.982 57.0284C115.231 59.9249 116.465 62.8213 117.714 65.7177C118.76 68.1445 119.813 70.5634 120.852 72.9823C122.069 75.8004 123.264 78.6342 124.489 81.4524C125.996 84.9203 127.463 88.4038 129.048 91.8404C130.336 94.6351 131.991 97.2262 133.833 99.6921C135.175 101.5 136.635 103.191 138.22 104.788C139.765 106.338 141.405 107.779 143.145 109.094C144.574 110.174 146.026 111.223 147.462 112.288C147.634 112.413 147.798 112.538 148.001 112.703V112.718Z" fill="#BE171A"/>
<path d="M48.5447 92.3496C48.5447 92.561 48.5447 92.7723 48.5447 92.9837C48.412 96.3733 49.1692 99.5672 50.7459 102.542C52.0886 105.078 53.9386 107.231 56.3116 108.867C58.0601 110.073 59.8711 111.176 61.6508 112.327C61.8772 112.476 62.0957 112.625 62.3221 112.773C62.3143 112.82 62.3065 112.867 62.2987 112.914C62.1035 112.938 61.9006 112.985 61.7054 112.985C60.9014 112.993 60.0974 113 59.2856 112.993C50.0278 112.993 40.77 112.993 31.5122 112.985C31.239 112.985 30.958 112.993 30.6848 112.969C30.4194 112.946 30.1618 112.875 29.7559 112.797C30.3413 112.343 30.8019 111.959 31.278 111.607C33.7056 109.791 36.1255 107.975 38.5609 106.174C39.7474 105.297 40.9027 104.374 41.9331 103.317C43.3694 101.845 44.6339 100.248 45.6721 98.4713C46.5386 96.9917 47.2801 95.4496 47.9124 93.8526C48.1075 93.3594 48.2559 92.8506 48.4198 92.3496H48.5447Z" fill="#BE171A"/>
<path d="M0 53.4043V75.0727H77.9108V54.148H77.9186V53.4043H0ZM77.1692 74.3291H0.741561V54.1401H77.177V74.3291H77.1692Z" fill="#C09249"/>
<path d="M0.976562 88.4426V88.1452C1.39028 88.0982 1.70251 87.9416 1.90547 87.6755C2.10842 87.4093 2.46749 86.6891 2.96707 85.4992L6.3158 77.6006H6.63584L10.6325 86.7283C10.8979 87.331 11.1086 87.7068 11.2726 87.8477C11.4365 87.9886 11.7019 88.0904 12.0766 88.1373V88.4348H7.99407V88.1373C8.46243 88.0982 8.76686 88.0434 8.89956 87.9808C9.03226 87.9181 9.10251 87.7772 9.10251 87.5424C9.10251 87.4641 9.07909 87.3232 9.02445 87.1275C8.96981 86.9318 8.89956 86.7204 8.80589 86.5012L8.1658 84.9513H3.935C3.52129 86.0081 3.2715 86.65 3.18563 86.877C3.10757 87.1118 3.06074 87.2919 3.06074 87.425C3.06074 87.699 3.17002 87.8868 3.38859 87.9886C3.52129 88.0512 3.77888 88.0982 4.15357 88.1295V88.427H0.976562V88.4426ZM7.8926 84.3093L6.0504 79.8786L4.2004 84.3093H7.88479H7.8926Z" fill="white"/>
<path d="M19.1797 88.1448C19.7729 88.0821 20.1554 87.9804 20.3272 87.8316C20.4989 87.6829 20.5926 87.3072 20.5926 86.7044V79.5416C20.5926 78.9701 20.5067 78.5944 20.335 78.4222C20.1632 78.2499 19.7807 78.1403 19.1797 78.0934V77.7959H23.7071V78.0934C23.1139 78.1247 22.7236 78.2186 22.5206 78.383C22.3177 78.5474 22.2162 78.8918 22.2162 79.432V87.1662C22.2162 87.3463 22.2474 87.4872 22.3099 87.589C22.3723 87.6907 22.505 87.7534 22.708 87.7847C22.825 87.8003 22.9577 87.8082 23.0904 87.816C23.2231 87.816 23.4729 87.8238 23.8398 87.8238C25.2683 87.8238 26.2362 87.7064 26.7358 87.4715C27.2354 87.2367 27.7272 86.6339 28.1955 85.6632H28.6014L27.813 88.4501H19.1797V88.1526V88.1448Z" fill="white"/>
<path d="M31.1074 88.1448C31.7007 88.0821 32.0832 87.9804 32.2549 87.8316C32.4266 87.6829 32.5203 87.3072 32.5203 86.7044V79.5416C32.5203 78.9701 32.4344 78.5944 32.2627 78.4222C32.091 78.2499 31.7085 78.1403 31.1074 78.0934V77.7959H39.6315L39.6861 80.0974H39.2802C39.1475 79.385 38.9367 78.931 38.6713 78.7196C38.3981 78.5083 37.7971 78.4065 36.8526 78.4065H34.6669C34.4327 78.4065 34.2844 78.4456 34.2298 78.5239C34.1751 78.6022 34.1439 78.7431 34.1439 78.9545V82.5476H36.6184C37.3053 82.5476 37.7424 82.4458 37.9298 82.2423C38.1171 82.0388 38.2654 81.6239 38.3825 81.0055H38.7572V84.7239H38.3825C38.2654 84.0976 38.1093 83.6905 37.922 83.487C37.7346 83.2835 37.2975 83.1817 36.6184 83.1817H34.1439V87.1662C34.1439 87.4872 34.2454 87.6751 34.4484 87.7299C34.6513 87.7847 35.2524 87.816 36.2593 87.816C37.3443 87.816 38.1484 87.6986 38.6713 87.4559C39.1943 87.2132 39.6549 86.6418 40.0686 85.7259H40.5135L39.7876 88.4422H31.1074V88.1448Z" fill="white"/>
<path d="M47.3831 77.7959V78.0699C46.985 78.0699 46.704 78.1012 46.5635 78.1482C46.3059 78.2343 46.181 78.4065 46.181 78.6648C46.181 78.7979 46.2278 78.9858 46.3215 79.2206C46.4152 79.4633 46.5791 79.8547 46.8289 80.4105L49.3424 86.0155L51.6217 79.9487C51.7232 79.6825 51.8013 79.4555 51.8481 79.2676C51.9027 79.0797 51.9262 78.931 51.9262 78.8136C51.9262 78.5004 51.7935 78.2891 51.5281 78.1717C51.3719 78.109 51.1143 78.0699 50.7553 78.0621V77.7881H54.0416V78.0621C53.6981 78.109 53.4483 78.203 53.2922 78.3361C53.0502 78.5396 52.8004 78.9545 52.5662 79.5729L49.0146 88.6301H48.7726L44.8072 79.7843C44.4715 79.0328 44.2061 78.5631 44.0032 78.383C43.8002 78.203 43.5114 78.0934 43.1211 78.0699V77.7959H47.3987H47.3831Z" fill="white"/>
<path d="M56.7422 88.1448C57.3354 88.0821 57.7179 87.9804 57.8897 87.8316C58.0614 87.6829 58.1551 87.3072 58.1551 86.7044V79.5416C58.1551 78.9701 58.0692 78.5944 57.8975 78.4222C57.7257 78.2499 57.3432 78.1403 56.7422 78.0934V77.7959H65.2662L65.3209 80.0974H64.915C64.7823 79.385 64.5715 78.931 64.3061 78.7196C64.0329 78.5083 63.4319 78.4065 62.4873 78.4065H60.3017C60.0675 78.4065 59.9192 78.4456 59.8646 78.5239C59.8099 78.6022 59.7787 78.7431 59.7787 78.9545V82.5476H62.2532C62.9401 82.5476 63.3772 82.4458 63.5645 82.2423C63.7519 82.0388 63.9002 81.6239 64.0173 81.0055H64.392V84.7239H64.0173C63.9002 84.0976 63.7441 83.6905 63.5567 83.487C63.3694 83.2835 62.9323 83.1817 62.2532 83.1817H59.7787V87.1662C59.7787 87.4872 59.8802 87.6751 60.0831 87.7299C60.2861 87.7847 60.8871 87.816 61.8941 87.816C62.9791 87.816 63.7831 87.6986 64.3061 87.4559C64.8291 87.2132 65.2897 86.6418 65.7034 85.7259H66.1483L65.4224 88.4422H56.7422V88.1448Z" fill="white"/>
<path d="M68.6699 88.1448C69.2632 88.0821 69.6457 87.9804 69.8174 87.8316C69.9891 87.6829 70.0828 87.3072 70.0828 86.7044V79.5416C70.0828 78.9701 69.9969 78.5944 69.8252 78.4222C69.6535 78.2499 69.271 78.1403 68.6699 78.0934V77.7959H73.1973V78.0934C72.6041 78.1247 72.2138 78.2186 72.0108 78.383C71.8079 78.5474 71.7064 78.8918 71.7064 79.432V87.1662C71.7064 87.3463 71.7376 87.4872 71.8001 87.589C71.8625 87.6907 71.9952 87.7534 72.1982 87.7847C72.3153 87.8003 72.448 87.8082 72.5807 87.816C72.7134 87.816 72.9632 87.8238 73.33 87.8238C74.7585 87.8238 75.7265 87.7064 76.226 87.4715C76.7256 87.2367 77.2174 86.6339 77.6857 85.6632H78.0917L77.3033 88.4501H68.6699V88.1526V88.1448Z" fill="white"/>
</g>
<defs>
<clipPath id="clip0_2133_426">
<rect width="148" height="113" fill="white"/>
</clipPath>
</defs>
</svg>
