<svg width="195" height="142" viewBox="0 0 195 142" fill="none" xmlns="http://www.w3.org/2000/svg">
<g clip-path="url(#clip0_2097_2599)">
<path d="M194.994 70.4441H28.5594C28.4858 70.1691 28.4674 24.9684 28.541 24.5162C28.6208 24.504 28.7128 24.4856 28.8049 24.4795C28.946 24.4734 29.0872 24.4795 29.2344 24.4795C53.7253 24.4795 78.2161 24.4795 102.707 24.4795C115.784 24.4795 128.855 24.4795 141.932 24.4795C143.177 24.4795 144.423 24.449 145.675 24.4429C146.006 24.4429 146.338 24.4795 146.669 24.4795C146.902 24.4795 147.141 24.449 147.375 24.449C154.309 24.4551 161.249 24.4612 168.184 24.4734C169.883 24.4734 171.583 24.4795 173.277 24.4795C173.774 24.4795 174.277 24.4551 174.774 24.4551C175.345 24.4551 175.909 24.4734 176.48 24.4734C182.457 24.4734 188.428 24.4734 194.405 24.4734C194.583 24.4734 194.755 24.4734 194.976 24.4734C194.988 24.669 195.006 24.8278 195.006 24.9867C195.006 29.2092 195.006 33.4317 195.006 37.6542C195.006 48.4028 195.006 59.1576 195.006 69.9063C195.006 70.0713 195.006 70.2302 195.006 70.4441H194.994ZM88.2984 26.0316C88.2554 25.9828 88.2493 25.9705 88.237 25.9705C88.2002 25.9644 88.1695 25.9522 88.1327 25.9522C68.8211 25.9522 49.5095 25.9522 30.1979 25.9522C30.1488 25.9522 30.1058 25.9644 30.0567 25.9705C30.0445 25.9705 30.0322 25.9767 30.0261 25.9828C30.0138 25.9889 30.0076 26.0011 29.9524 26.05V26.4961C29.9524 38.8213 29.9524 51.1404 29.9524 63.4657C29.9524 63.5512 29.9463 63.6307 29.9524 63.7162C29.9586 63.7773 29.9831 63.8323 30.0199 63.9423C30.1181 63.7773 30.1795 63.6673 30.247 63.5573C31.2104 61.8769 32.1493 60.172 33.1495 58.5099C35.4691 54.6419 37.8133 50.7921 40.2618 47.0035C40.5195 46.6063 40.7097 46.1725 40.9245 45.7508C41.0841 45.4453 41.0595 45.1336 40.9429 44.822C40.8263 44.5103 40.722 44.1987 40.5931 43.8932C40.3477 43.2943 40.4336 42.7321 40.8018 42.2127C41.0166 41.9133 41.2252 41.6078 41.4707 41.3389C42.4893 40.2145 43.5203 39.1024 44.5389 37.978C45.7601 36.6276 46.9935 35.2771 48.184 33.8961C49.3008 32.6067 50.4054 31.3052 51.6941 30.1808C52.5593 29.4231 53.5228 28.8181 54.6764 28.5981C55.646 28.4148 55.916 28.4637 56.3701 29.472C56.5972 29.973 56.7444 30.5169 56.8856 31.0546C57.1617 32.1423 57.0083 33.1873 56.5419 34.2016C56.0633 35.2588 55.3821 36.1815 54.6273 37.0492C52.7005 39.2796 50.7675 41.51 48.8345 43.7404C46.4228 46.5269 44.1155 49.3989 41.9125 52.3503C40.7956 53.8536 39.7095 55.3751 38.7154 56.9578C38.654 57.0556 38.5435 57.1472 38.5865 57.3183C38.7031 57.2572 38.7951 57.2145 38.8872 57.1656C39.4395 56.8661 39.9918 56.5606 40.5502 56.2795C41.7407 55.6807 42.9741 55.1857 44.275 54.8985C45.9012 54.538 47.5397 54.4769 49.1904 54.7091C50.5282 54.8985 51.7923 55.3324 53.0441 55.8151C54.0076 56.1879 54.928 56.6523 55.8362 57.1472C56.2351 57.3611 56.634 57.5689 57.039 57.7644C57.8367 58.1616 58.702 58.2288 59.5672 58.2594C59.9293 58.2716 60.1625 58.4366 60.3404 58.736C60.5736 59.1332 60.6779 59.5671 60.7823 60.0009C61.1259 61.4308 60.9541 62.7752 60.1134 64.0034C59.917 64.2906 59.6777 64.5656 59.42 64.8039C58.9045 65.2744 58.2908 65.3355 57.6526 65.1033C57.0635 64.8895 56.4744 64.6511 55.916 64.3762C54.4494 63.6429 53.0012 62.8852 51.5468 62.1335C50.3195 61.498 49.0615 60.9542 47.7422 60.5387C45.5883 59.8604 43.3975 59.5365 41.1393 59.8115C39.4702 60.0131 37.9422 60.5875 36.5369 61.498C35.1991 62.3658 34.1007 63.4901 33.1189 64.7367C32.6525 65.3355 32.2045 65.9466 31.7259 66.5332C31.4681 66.851 31.1613 67.1382 30.8729 67.4315C30.6274 67.682 30.3022 67.7432 29.9831 67.8165C29.9647 67.8654 29.9401 67.902 29.9401 67.9326C29.9401 68.1342 29.9401 68.3359 29.9401 68.5375C29.9401 69.002 29.9463 69.0081 30.4188 69.0081C39.4088 69.0081 48.3988 69.0081 57.3888 69.0142C57.6833 69.0142 57.8613 68.9103 58.027 68.6781C61.6843 63.4779 65.2619 58.2227 68.7045 52.8759C68.7659 52.7781 68.815 52.6803 68.907 52.5153C68.5756 52.5153 68.3118 52.5092 68.0418 52.5092C67.2011 52.5092 66.3542 52.5276 65.5135 52.5153C65.1208 52.5153 64.7403 52.4053 64.3844 52.2281C63.5498 51.8004 63.3657 50.8532 63.9794 50.1444C64.1205 49.9855 64.2678 49.8266 64.4273 49.6861C65.0655 49.1178 65.7099 48.5617 66.3481 47.9995C66.6058 47.7735 66.8881 47.6024 67.2256 47.5596C67.6122 47.5168 68.0049 47.4924 68.3915 47.5107C69.2936 47.5596 70.1895 47.6268 71.0916 47.7123C71.38 47.7368 71.5457 47.639 71.7175 47.419C74.1721 44.1987 76.6329 40.9784 79.0875 37.758C81.763 34.2566 84.4385 30.7613 87.2184 27.3393C87.5681 26.9055 87.9118 26.4716 88.2677 26.0316H88.2984ZM84.506 51.3543C83.9599 51.3176 83.4444 51.3176 82.9473 51.3971C81.7569 51.5926 80.5664 51.8126 79.382 52.0509C78.0075 52.3259 76.6267 52.552 75.2215 52.5276C74.4606 52.5153 73.6996 52.5276 72.9448 52.4909C72.5644 52.4726 72.3496 52.5948 72.1409 52.9125C70.2386 55.8823 68.324 58.846 66.4094 61.8097C64.9551 64.0706 63.4946 66.3255 62.0402 68.5864C61.9666 68.6964 61.9114 68.8186 61.8193 68.9775H106.34C106.346 68.8309 106.358 68.7086 106.358 68.5803C106.358 66.9243 106.358 65.2683 106.358 63.6123C106.358 63.1785 106.377 63.2274 105.99 63.0868C103.321 62.1274 101.154 60.502 99.4853 58.2105C98.1475 56.3712 97.3191 54.3119 96.9141 52.0754C96.7054 50.9388 96.6502 49.7961 96.6809 48.6473C96.73 46.6613 97.2148 44.8159 98.4175 43.1904C98.5832 42.9643 98.7059 42.7016 98.8102 42.4388C99.0066 41.9683 99.16 41.4856 99.3687 41.0211C99.9271 39.7746 100.608 38.6013 101.431 37.5075C102.099 36.6153 102.824 35.766 103.664 35.0327C104.468 34.33 105.303 33.67 106.137 32.9978C106.297 32.8695 106.383 32.7473 106.383 32.5334C106.377 30.4497 106.383 28.372 106.377 26.2883C106.377 26.1844 106.364 26.0805 106.352 25.9583H91.2316C91.2132 26.2883 91.2132 26.5938 91.1641 26.8933C91.0475 27.6388 90.888 28.3781 90.7775 29.1298C90.4953 31.0241 90.2068 32.9184 89.9798 34.8188C89.8141 36.1937 89.7037 37.5747 89.6484 38.9557C89.5748 40.9173 89.5564 42.8788 89.5502 44.8403C89.5441 45.9891 89.5993 47.1318 89.6177 48.2806C89.6177 48.5128 89.6975 48.6473 89.9307 48.7206C90.1087 48.7756 90.2743 48.8734 90.4339 48.9773C91.1519 49.4356 91.0537 50.3644 90.575 50.7799C90.4094 50.9266 90.213 51.0427 90.0105 51.1343C89.8325 51.2138 89.7466 51.3115 89.765 51.5071C89.7834 51.6965 89.7773 51.8859 89.7834 52.0754C89.8509 54.2691 90.2253 56.4017 91.0475 58.4427C91.1396 58.6749 91.2316 58.9071 91.2991 59.1454C91.4341 59.6037 91.3298 60.0193 90.9923 60.3492C90.6425 60.6853 90.2253 60.8075 89.7466 60.6303C89.6362 60.5875 89.5257 60.5448 89.4152 60.502C89.1207 60.3859 88.8323 60.3492 88.5132 60.4042C88.3107 60.4409 88.0775 60.4164 87.8872 60.337C87.4822 60.172 87.0956 59.9643 86.709 59.7504C86.4329 59.5976 86.2365 59.3593 86.1261 59.0538C85.9481 58.5649 85.7395 58.0822 85.5983 57.5872C85.1995 56.1634 84.954 54.703 84.7392 53.2425C84.6533 52.6253 84.5858 52.002 84.506 51.3299V51.3543ZM157.303 61.3208C157.303 61.3208 157.273 61.2658 157.254 61.2353C157.303 61.1619 157.34 61.0764 157.402 61.0153C157.739 60.6792 158.077 60.3492 158.42 60.0254C158.917 59.5548 159.427 59.0904 159.924 58.6138C160.231 58.3144 160.494 57.9783 160.666 57.5811C160.863 57.1411 160.666 56.7378 160.194 56.6278C160.053 56.5973 159.875 56.5973 159.746 56.6523C159.396 56.7989 159.046 56.9517 158.727 57.1472C157.254 58.0455 155.929 59.1332 154.61 60.2453C153.984 60.777 153.542 61.4064 153.29 62.1824C153.161 62.5857 152.947 62.9402 152.621 63.2151C152.327 63.4657 152.02 63.7162 151.713 63.9545C151.093 64.4373 150.455 64.8895 149.86 65.3967C149.559 65.6533 149.289 65.9711 149.081 66.3071C148.798 66.7532 148.939 67.2421 149.369 67.5537C149.608 67.7248 149.878 67.792 150.161 67.847C150.848 67.9815 151.535 67.8959 152.216 67.8226C153.75 67.6637 155.272 67.4132 156.788 67.1382C159.721 66.6066 162.63 65.9711 165.508 65.2072C170.061 63.9912 174.566 62.6163 179.008 61.0336C180.027 60.6731 181.021 60.2576 181.972 59.7321C182.887 59.2249 183.746 58.6321 184.55 57.96C185.82 56.8906 187.102 55.8395 188.489 54.9291C189.428 54.3119 190.367 53.6886 191.263 53.0042C192.14 52.3381 192.809 51.4704 193.3 50.4866C193.362 50.3644 193.392 50.2177 193.392 50.0772C193.392 48.6595 193.392 47.2418 193.392 45.818C193.392 45.6836 193.356 45.5308 193.294 45.4147C192.944 44.7609 192.46 44.217 191.852 43.7771C190.827 43.0377 189.674 42.5671 188.459 42.2677C187.029 41.9133 185.587 41.6628 184.114 41.5406C182.267 41.3878 180.42 41.3083 178.566 41.2839C177.793 41.2717 177.02 41.29 176.253 41.3145C175.007 41.3511 173.762 41.3939 172.516 41.455C171.08 41.5222 169.644 41.5711 168.214 41.3511C167.533 41.2472 166.864 41.0945 166.269 40.7095C165.625 40.2879 165.324 39.5301 165.52 38.7907C165.643 38.3386 165.864 37.9353 166.171 37.5808C166.723 36.9453 167.386 36.4504 168.098 36.0226C169.748 35.0388 171.534 34.3605 173.363 33.7861C174.928 33.2972 176.505 32.8573 178.088 32.4356C180.622 31.7635 183.169 31.1157 185.771 30.7308C186.274 30.6574 186.783 30.6391 187.293 30.6024C187.759 30.5719 188.207 30.9141 188.225 31.3846C188.232 31.574 188.25 31.7635 188.225 31.9468C188.189 32.2829 188.207 32.6067 188.354 32.9184C188.606 33.45 189.066 33.6639 189.612 33.4439C189.833 33.3522 190.036 33.1873 190.207 33.0162C190.355 32.8695 190.453 32.674 190.57 32.4967C190.876 32.0323 191.153 31.5435 191.496 31.1096C192.03 30.4313 192.607 29.7897 193.178 29.1359C193.313 28.9831 193.374 28.8303 193.374 28.6287C193.374 27.9076 193.374 27.1866 193.38 26.4655C193.38 26.4044 193.38 26.3494 193.38 26.2883C193.374 26.1478 193.3 26.0683 193.159 26.0622C193.086 26.0622 193.018 26.0561 192.944 26.0561C189.594 26.0561 186.243 26.0561 182.899 26.0561C182.721 26.0561 182.543 26.0805 182.377 26.1355C180.358 26.7588 178.364 27.4554 176.419 28.2865C175.124 28.8426 173.823 29.4047 172.565 30.0341C170.902 30.8713 169.3 31.8246 167.766 32.8817C165.999 34.1039 164.403 35.5093 163.078 37.202C162.507 37.9291 162.016 38.7174 161.685 39.5851C161.347 40.4529 161.139 41.345 161.329 42.2922C161.482 43.0621 161.986 43.5571 162.765 43.6549C163.109 43.6976 163.452 43.716 163.796 43.7282C164.526 43.7648 165.171 43.9787 165.668 44.5348C165.999 44.9075 166.324 45.2803 166.662 45.6469C166.932 45.9402 167.202 46.2519 167.509 46.5024C168.061 46.9485 168.73 47.1746 169.417 47.3335C170.681 47.6329 171.976 47.749 173.265 47.7551C174.664 47.7551 176.063 47.6635 177.462 47.6451C179.149 47.6207 180.831 47.584 182.512 47.7612C183.605 47.8773 184.672 48.0729 185.716 48.409C186.44 48.6412 187.066 49.0384 187.581 49.6067C188.066 50.1444 188.287 51.1588 187.827 51.9226C187.52 52.4298 187.121 52.8453 186.661 53.2058C185.826 53.8536 184.906 54.3791 183.948 54.8313C181.635 55.919 179.205 56.7012 176.756 57.4161C173.897 58.2533 170.988 58.8888 168.073 59.4876C164.68 60.1904 161.262 60.7464 157.844 61.2719C157.659 61.3025 157.475 61.3147 157.291 61.3331L157.303 61.3208ZM120.761 68.892C120.981 68.9042 121.098 68.9164 121.215 68.9164C122.19 68.9164 123.16 68.9042 124.136 68.9164C124.43 68.9164 124.608 68.8125 124.768 68.562C126.609 65.6961 128.468 62.8302 130.315 59.9704C131.855 57.5872 133.402 55.1979 134.936 52.8086C135.108 52.5398 135.304 52.4237 135.629 52.4359C136.304 52.4603 136.985 52.4481 137.661 52.4603C138.986 52.4848 140.293 52.3381 141.588 52.0937C142.926 51.8432 144.27 51.5804 145.613 51.3482C146.055 51.2749 146.509 51.2688 146.963 51.2504C147.24 51.2382 147.326 51.3238 147.387 51.5804C147.405 51.6476 147.411 51.7209 147.418 51.7882C147.589 53.5297 147.884 55.2529 148.289 56.9578C148.455 57.6605 148.657 58.351 148.952 59.0171C149.093 59.3287 149.289 59.5976 149.59 59.7565C149.946 59.9459 150.308 60.117 150.676 60.2881C150.909 60.3981 151.161 60.4164 151.406 60.3553C151.676 60.282 151.922 60.3431 152.167 60.447C152.333 60.5142 152.499 60.5875 152.67 60.6242C153.327 60.777 153.941 60.3615 154.07 59.6954C154.125 59.4021 154.057 59.1332 153.959 58.8643C153.738 58.2777 153.505 57.6911 153.321 57.0984C152.934 55.8273 152.67 54.5319 152.585 53.1997C152.548 52.6192 152.548 52.0387 152.529 51.4643C152.529 51.2749 152.603 51.1527 152.781 51.0793C152.922 51.0182 153.063 50.951 153.192 50.8716C153.781 50.4988 153.873 49.68 153.388 49.185C153.192 48.9834 152.965 48.8367 152.695 48.7634C152.456 48.7023 152.345 48.5678 152.345 48.3051C152.333 47.2663 152.29 46.2274 152.284 45.1825C152.265 42.946 152.284 40.7156 152.425 38.4791C152.511 37.1348 152.603 35.7904 152.744 34.4522C152.965 32.3806 153.302 30.3275 153.683 28.2804C153.793 27.6999 153.885 27.1132 153.965 26.5327C154.027 26.0744 153.978 26.0378 153.53 26.0378C152.971 26.0378 152.413 26.0378 151.854 26.0378C151.173 26.0378 151.167 26.0378 150.756 26.5511C149.031 28.7203 147.283 30.8713 145.589 33.0589C142.87 36.5604 140.189 40.0801 137.495 43.5937C136.501 44.8892 135.507 46.1908 134.525 47.4985C134.359 47.7185 134.175 47.7979 133.917 47.7551C133.776 47.7307 133.635 47.7246 133.494 47.7123C132.678 47.6451 131.862 47.5901 131.045 47.5107C130.254 47.4313 129.579 47.6207 128.996 48.189C128.523 48.6534 128.002 49.0689 127.511 49.5089C127.271 49.7228 127.032 49.9366 126.811 50.1688C126.707 50.2788 126.621 50.4194 126.578 50.5599C126.333 51.3238 126.633 51.9532 127.394 52.2404C127.885 52.4237 128.407 52.4848 128.934 52.4787C129.751 52.4665 130.573 52.4481 131.389 52.4359C131.499 52.4359 131.61 52.4726 131.788 52.5092C128.259 58.0822 124.516 63.429 120.773 68.8859L120.761 68.892ZM106.487 35.6926C106.653 35.5888 106.763 35.5154 106.874 35.4543C107.334 35.1854 107.788 34.8982 108.267 34.666C110.108 33.7678 112.065 33.3339 114.102 33.2239C115.545 33.1445 116.974 33.2361 118.392 33.505C119.398 33.7006 120.38 33.9633 121.325 34.3666C121.859 34.5927 122.393 34.8188 122.939 35.0327C123.467 35.2404 123.921 35.0877 124.301 34.6966C124.43 34.5622 124.535 34.3972 124.602 34.22C124.78 33.78 124.897 33.3217 124.89 32.8389C124.884 32.3684 124.878 31.8918 124.817 31.4274C124.67 30.2663 124.08 29.4658 122.896 29.142C122.086 28.922 121.258 28.867 120.429 28.8181C119.564 28.7631 118.699 28.7265 117.833 28.8181C117.054 28.8976 116.269 28.9464 115.502 29.0748C113.194 29.472 110.997 30.2236 108.942 31.3541C108.193 31.7635 107.475 32.2218 106.739 32.6556C106.548 32.7656 106.456 32.9123 106.462 33.1445C106.475 33.8778 106.462 34.611 106.462 35.3443C106.462 35.436 106.481 35.5276 106.499 35.6926H106.487ZM106.352 56.5178C106.364 56.3956 106.377 56.3406 106.377 56.2856C106.377 49.5089 106.364 42.7382 106.358 35.9615C106.358 35.9493 106.346 35.9432 106.34 35.9371C106.334 35.931 106.321 35.9248 106.291 35.9187C106.254 35.9432 106.199 35.9676 106.156 36.0043C105.524 36.4931 104.947 37.0309 104.425 37.6358C103.885 38.253 103.4 38.913 103.014 39.634C102.124 41.3083 101.67 43.111 101.535 44.9992C101.449 46.1847 101.529 47.3579 101.75 48.5312C102.013 49.9489 102.468 51.3054 103.136 52.5764C103.904 54.0308 104.953 55.2835 106.162 56.4017C106.205 56.4384 106.254 56.4689 106.346 56.5301L106.352 56.5178ZM75.0619 47.969C76.6022 48.0912 78.1118 48.2012 79.6275 48.3295C81.1371 48.4517 82.6467 48.5128 84.1808 48.4762C84.1992 47.1502 84.1869 45.8608 84.2483 44.5776C84.3097 43.2821 84.4078 41.9805 84.5613 40.6912C84.7147 39.414 84.9356 38.143 85.1749 36.8781C85.4142 35.6071 85.7149 34.3483 85.9972 33.0589C85.5124 33.3889 75.4547 47.1135 75.0619 47.9751V47.969ZM106.469 56.7439C106.462 56.9272 106.45 57.0495 106.45 57.1778C106.45 58.3938 106.45 59.6098 106.45 60.832C106.45 61.5042 106.45 62.1824 106.45 62.8546C106.45 63.1601 106.475 63.1907 106.739 63.2579C107.923 63.5757 109.126 63.7834 110.353 63.8018C111.353 63.8201 112.341 63.7468 113.329 63.5879C115.207 63.2885 116.987 62.6896 118.705 61.883C119.987 61.2842 121.172 60.5081 122.295 59.6526C122.841 59.2371 123.338 58.7605 123.847 58.296C124.166 58.0027 124.381 57.6361 124.498 57.2145C124.577 56.9334 124.504 56.6767 124.314 56.5423C124.087 56.3834 123.872 56.4384 123.657 56.5851C123.344 56.7989 123.025 57.0067 122.712 57.2145C121.442 58.0577 120.092 58.736 118.625 59.176C116.649 59.7687 114.642 59.8909 112.611 59.5365C110.445 59.1576 108.494 58.2777 106.763 56.9211C106.696 56.8661 106.616 56.8234 106.481 56.7439H106.469Z" fill="#C0221F"/>
<path d="M106.389 26.0439H193.006C193.22 26.0439 193.398 26.2212 193.398 26.435V68.9654H106.389V26.0439Z" fill="#1D1F1C"/>
<path d="M157.303 61.3209C157.487 61.3026 157.671 61.2904 157.855 61.2598C161.279 60.7404 164.697 60.1782 168.084 59.4755C170.999 58.8766 173.908 58.2411 176.768 57.404C179.216 56.689 181.646 55.9068 183.96 54.8191C184.917 54.367 185.837 53.8475 186.672 53.1937C187.132 52.8393 187.531 52.4176 187.838 51.9105C188.298 51.1466 188.077 50.1384 187.592 49.5945C187.077 49.0262 186.451 48.629 185.727 48.3968C184.684 48.0607 183.61 47.8652 182.524 47.7491C180.842 47.5719 179.155 47.6024 177.473 47.633C176.074 47.6574 174.675 47.7491 173.276 47.743C171.981 47.743 170.692 47.6269 169.428 47.3213C168.741 47.1563 168.072 46.9364 167.52 46.4903C167.207 46.2397 166.943 45.9281 166.673 45.6348C166.335 45.2681 166.01 44.8954 165.679 44.5226C165.182 43.9666 164.531 43.7466 163.807 43.716C163.464 43.6977 163.12 43.6855 162.776 43.6427C161.997 43.5449 161.494 43.05 161.34 42.28C161.156 41.339 161.359 40.4468 161.696 39.573C162.034 38.7053 162.519 37.917 163.089 37.1898C164.415 35.4972 166.01 34.0917 167.778 32.8696C169.312 31.8063 170.913 30.8592 172.576 30.022C173.834 29.3865 175.135 28.8243 176.43 28.2743C178.375 27.4433 180.37 26.7406 182.389 26.1234C182.554 26.0745 182.738 26.0439 182.91 26.0439C186.261 26.0439 189.611 26.0439 192.956 26.0439C193.029 26.0439 193.097 26.0439 193.17 26.0501C193.312 26.0623 193.385 26.1417 193.391 26.2762C193.391 26.3373 193.398 26.3923 193.391 26.4534C193.391 27.1744 193.379 27.8955 193.385 28.6165C193.385 28.8182 193.324 28.971 193.189 29.1237C192.618 29.7715 192.041 30.4192 191.507 31.0975C191.164 31.5313 190.888 32.0202 190.581 32.4846C190.464 32.6618 190.366 32.8635 190.219 33.004C190.047 33.1751 189.844 33.3401 189.624 33.4318C189.077 33.6517 188.611 33.4379 188.366 32.9062C188.218 32.5946 188.2 32.2768 188.237 31.9346C188.255 31.7513 188.237 31.5619 188.237 31.3725C188.212 30.9019 187.764 30.5597 187.304 30.5903C186.795 30.627 186.285 30.6392 185.782 30.7186C183.18 31.1036 180.64 31.7513 178.099 32.4235C176.516 32.8451 174.939 33.279 173.374 33.774C171.552 34.3484 169.76 35.0205 168.109 36.0105C167.391 36.4382 166.728 36.9332 166.182 37.5687C165.875 37.9231 165.654 38.3264 165.532 38.7786C165.335 39.518 165.636 40.2757 166.28 40.6974C166.869 41.0823 167.538 41.2351 168.226 41.339C169.655 41.5651 171.085 41.5162 172.527 41.4429C173.773 41.3818 175.019 41.339 176.264 41.3023C177.038 41.2779 177.811 41.2595 178.578 41.2718C180.431 41.2962 182.278 41.3756 184.125 41.5284C185.598 41.6506 187.04 41.9012 188.47 42.2556C189.685 42.555 190.832 43.0255 191.863 43.7649C192.471 44.2049 192.95 44.7487 193.305 45.4026C193.367 45.5248 193.404 45.6715 193.404 45.8059C193.41 47.2236 193.41 48.6412 193.404 50.065C193.404 50.1995 193.373 50.3522 193.312 50.4744C192.821 51.4644 192.152 52.326 191.274 52.992C190.378 53.6703 189.439 54.2936 188.501 54.9169C187.114 55.8335 185.825 56.8846 184.561 57.9478C183.763 58.62 182.904 59.2127 181.984 59.7199C181.039 60.2454 180.044 60.6548 179.02 61.0215C174.577 62.6041 170.073 63.9791 165.519 65.1951C162.641 65.965 159.733 66.6005 156.799 67.126C155.284 67.401 153.762 67.6516 152.228 67.8105C151.547 67.8838 150.859 67.9693 150.172 67.8349C149.89 67.7799 149.62 67.7127 149.38 67.5416C148.951 67.2299 148.81 66.7472 149.092 66.295C149.301 65.9589 149.571 65.6412 149.871 65.3845C150.466 64.8773 151.105 64.4251 151.724 63.9424C152.031 63.7041 152.338 63.4535 152.633 63.203C152.958 62.928 153.167 62.5736 153.302 62.1703C153.553 61.3942 153.995 60.7648 154.621 60.2332C155.934 59.1272 157.266 58.0334 158.738 57.1351C159.058 56.9395 159.407 56.7807 159.757 56.6401C159.886 56.5851 160.064 56.5851 160.205 56.6157C160.678 56.7257 160.874 57.1229 160.678 57.5689C160.506 57.9661 160.242 58.3022 159.935 58.6017C159.438 59.0783 158.929 59.5366 158.432 60.0132C158.088 60.3371 157.751 60.6732 157.413 61.0032C157.352 61.0643 157.315 61.1498 157.266 61.2231C157.284 61.2537 157.296 61.2781 157.315 61.3087L157.303 61.3209Z" fill="#C09249"/>
<path d="M120.76 68.892C124.504 63.4352 128.247 58.0884 131.775 52.5154C131.591 52.4788 131.487 52.4421 131.376 52.4421C130.56 52.4543 129.738 52.4726 128.922 52.4849C128.394 52.491 127.879 52.436 127.382 52.2465C126.621 51.9593 126.314 51.3299 126.565 50.5661C126.608 50.4256 126.694 50.285 126.799 50.175C127.02 49.9428 127.259 49.7289 127.498 49.5151C127.995 49.0751 128.511 48.6596 128.983 48.1952C129.56 47.6208 130.241 47.4374 131.033 47.5169C131.849 47.5963 132.665 47.6513 133.481 47.7185C133.622 47.7308 133.764 47.7369 133.905 47.7613C134.169 47.8041 134.353 47.7246 134.512 47.5047C135.494 46.197 136.488 44.9015 137.482 43.5999C140.176 40.0863 142.864 36.5604 145.576 33.0651C147.276 30.8775 149.019 28.7204 150.743 26.5572C151.154 26.0378 151.161 26.0439 151.842 26.0439C152.4 26.0439 152.959 26.0439 153.517 26.0439C153.965 26.0439 154.014 26.0806 153.953 26.5389C153.879 27.1255 153.781 27.7061 153.67 28.2866C153.29 30.3336 152.952 32.3868 152.732 34.4584C152.59 35.7966 152.498 37.1409 152.412 38.4853C152.271 40.7157 152.253 42.9522 152.271 45.1887C152.284 46.2275 152.32 47.2663 152.333 48.3113C152.333 48.5679 152.443 48.7024 152.682 48.7696C152.952 48.8429 153.18 48.9896 153.376 49.1912C153.861 49.6862 153.769 50.505 153.18 50.8778C153.051 50.9572 152.91 51.0305 152.768 51.0855C152.59 51.1588 152.511 51.2811 152.517 51.4705C152.535 52.051 152.535 52.6315 152.572 53.2059C152.658 54.5319 152.922 55.8335 153.308 57.1045C153.492 57.7034 153.726 58.2839 153.947 58.8705C154.051 59.1394 154.112 59.4083 154.057 59.7016C153.934 60.3615 153.315 60.7832 152.658 60.6304C152.486 60.5876 152.32 60.5204 152.155 60.4532C151.909 60.3493 151.664 60.2882 151.394 60.3615C151.148 60.4287 150.897 60.4043 150.664 60.2943C150.301 60.1232 149.933 59.9582 149.577 59.7627C149.277 59.5977 149.08 59.3349 148.939 59.0233C148.645 58.3572 148.442 57.6728 148.276 56.964C147.871 55.2591 147.577 53.5359 147.405 51.7944C147.399 51.721 147.387 51.6538 147.374 51.5866C147.313 51.3238 147.227 51.2444 146.951 51.2566C146.503 51.2749 146.043 51.2811 145.601 51.3544C144.257 51.5866 142.919 51.8494 141.575 52.0999C140.281 52.3443 138.973 52.4849 137.648 52.4665C136.973 52.4543 136.292 52.4665 135.617 52.4421C135.292 52.4299 135.095 52.546 134.923 52.8148C133.389 55.2041 131.843 57.5934 130.303 59.9766C128.449 62.8425 126.596 65.7023 124.755 68.5682C124.596 68.8187 124.424 68.9226 124.123 68.9226C123.147 68.9104 122.178 68.9226 121.202 68.9226C121.086 68.9226 120.969 68.9104 120.748 68.8982L120.76 68.892ZM148.847 32.9979L148.743 32.9612C148.669 33.0346 148.596 33.1079 148.534 33.1873C148.129 33.7129 147.712 34.2323 147.319 34.7639C145.036 37.8742 142.747 40.9846 140.477 44.101C139.642 45.2498 138.826 46.417 138.01 47.578C137.918 47.7063 137.777 47.8224 137.832 48.0302C137.887 48.0485 137.943 48.073 137.998 48.073C138.446 48.1035 138.9 48.1218 139.348 48.1524C139.796 48.1768 140.25 48.2013 140.698 48.2379C141.809 48.3235 142.919 48.4396 144.03 48.4946C144.932 48.5374 145.834 48.5129 146.736 48.5129C147.025 48.5129 147.061 48.4763 147.068 48.1829C147.074 47.7552 147.068 47.3336 147.068 46.9058C147.074 46.032 147.055 45.152 147.098 44.2843C147.153 43.27 147.252 42.2556 147.35 41.2473C147.503 39.6463 147.755 38.0575 148.092 36.481C148.313 35.4422 148.571 34.4034 148.804 33.3707C148.829 33.2546 148.835 33.1323 148.853 33.0101L148.847 32.9979Z" fill="#C09249"/>
<path d="M106.488 35.6926C106.47 35.5276 106.451 35.4359 106.451 35.3442C106.451 34.611 106.457 33.8777 106.451 33.1444C106.451 32.9122 106.537 32.7716 106.727 32.6555C107.464 32.2217 108.182 31.7634 108.93 31.354C110.986 30.2296 113.177 29.4719 115.49 29.0747C116.257 28.9403 117.043 28.8975 117.822 28.818C118.687 28.7264 119.553 28.763 120.418 28.818C121.246 28.8669 122.069 28.9219 122.885 29.1419C124.069 29.4658 124.658 30.2663 124.805 31.4273C124.867 31.8917 124.873 32.3683 124.879 32.8389C124.885 33.3155 124.775 33.7799 124.591 34.2199C124.523 34.391 124.413 34.5621 124.29 34.6965C123.916 35.0876 123.455 35.2404 122.928 35.0326C122.388 34.8187 121.848 34.5987 121.314 34.3665C120.369 33.9632 119.387 33.7005 118.381 33.5049C116.963 33.2299 115.533 33.1444 114.091 33.2238C112.054 33.3338 110.096 33.7677 108.255 34.666C107.777 34.8982 107.329 35.1915 106.862 35.4542C106.752 35.5153 106.648 35.5887 106.476 35.6926H106.488Z" fill="#C09249"/>
<path d="M106.468 56.744C106.597 56.8234 106.677 56.8662 106.75 56.9212C108.481 58.2778 110.426 59.1577 112.599 59.5366C114.63 59.891 116.636 59.7688 118.612 59.1761C120.079 58.7361 121.429 58.0639 122.699 57.2145C123.012 57.0068 123.331 56.799 123.644 56.5851C123.859 56.4385 124.074 56.3835 124.301 56.5424C124.497 56.6768 124.565 56.9334 124.485 57.2145C124.368 57.6362 124.154 58.0028 123.835 58.2961C123.331 58.7605 122.828 59.2372 122.282 59.6527C121.159 60.5082 119.981 61.2842 118.692 61.8831C116.98 62.6897 115.194 63.2824 113.317 63.588C112.329 63.7468 111.341 63.8202 110.34 63.8018C109.113 63.7774 107.91 63.5757 106.726 63.258C106.462 63.1847 106.438 63.1602 106.438 62.8547C106.438 62.1825 106.438 61.5103 106.438 60.8321C106.438 59.616 106.438 58.4 106.438 57.1779C106.438 57.0556 106.45 56.9273 106.456 56.744H106.468Z" fill="#C09249"/>
<path d="M148.848 32.9976C148.829 33.1198 148.823 33.242 148.799 33.3581C148.559 34.397 148.308 35.4297 148.087 36.4685C147.749 38.045 147.498 39.6277 147.344 41.2348C147.246 42.2492 147.148 43.2574 147.093 44.2718C147.05 45.1456 147.068 46.0195 147.062 46.8933C147.062 47.3211 147.068 47.7427 147.062 48.1704C147.062 48.4638 147.019 48.5004 146.731 48.5004C145.829 48.5004 144.926 48.5249 144.024 48.4821C142.914 48.4271 141.803 48.311 140.692 48.2254C140.244 48.1888 139.79 48.1704 139.342 48.1399C138.894 48.1154 138.44 48.091 137.992 48.0604C137.937 48.0604 137.882 48.0299 137.827 48.0177C137.771 47.8099 137.919 47.6938 138.004 47.5655C138.821 46.4044 139.637 45.2373 140.471 44.0885C142.748 40.9721 145.031 37.8617 147.314 34.7514C147.706 34.2198 148.117 33.7003 148.529 33.1748C148.59 33.0954 148.67 33.0221 148.737 32.9487L148.842 32.9854L148.848 32.9976Z" fill="#1D1F1C"/>
<path d="M30.2779 73.8169C30.2779 73.8902 30.2656 73.9574 30.2656 74.0308C30.2656 73.9574 30.2779 73.8841 30.284 73.8169H30.2779Z" fill="#BE171A"/>
<path d="M45.8345 112.265C47.6141 112.241 49.2648 111.697 50.9401 111.178C53.8917 110.267 56.2972 108.556 58.1873 106.191C61.1635 102.458 62.5074 98.0701 62.9308 93.3955C63.2867 89.4785 62.9554 85.5738 61.8447 81.7913C61.0592 79.0965 60.0037 76.4872 58.4082 74.1285C58.3959 74.1102 58.3837 74.0918 58.3653 74.0674C58.218 73.8596 57.9971 73.6213 57.8927 73.383C57.8927 73.383 57.8927 73.3769 57.8927 73.3708C56.917 72.002 55.1681 69.7349 54.9349 69.4355C54.9288 69.4294 54.9227 69.4233 54.9165 69.411C54.9104 69.3988 54.9104 69.3988 54.9104 69.3988C53.4438 68.0117 51.9219 66.7162 50.1362 65.7446C48.688 64.9502 47.1538 64.4431 45.5768 63.9542C44.374 63.5815 43.1528 63.6242 41.9562 63.4409C40.6123 63.2331 39.2009 63.6853 37.8141 63.9114C36.3658 64.1375 35.1876 64.8647 33.9235 65.4635C33.4878 65.6713 32.1255 66.8201 31.7757 67.2295C31.7757 67.2234 31.7757 67.2112 31.7757 67.2051L31.5241 67.474C31.1498 67.8834 30.9044 68.3967 30.8307 68.9405C30.6098 70.5599 30.4257 72.1792 30.2784 73.8107C30.2723 73.878 30.2662 73.9513 30.26 74.0246C29.7139 79.9275 29.6157 85.8671 29.9532 91.7884L32.2053 116.421C32.5551 120.276 34.5372 123.784 37.63 126.13C37.6484 126.143 37.6668 126.155 37.6852 126.173C42.4717 129.821 47.1784 133.567 51.7808 137.453C53.677 139.054 55.5486 140.71 57.8866 141.694C59.0403 142.177 60.1571 142.079 60.7401 141.358C61.8263 140.008 62.5013 138.45 62.5565 136.72C62.6179 134.942 62.0901 133.219 61.4642 131.593C60.1019 128.037 58.0646 124.853 55.524 122.006C52.5724 118.694 49.2832 115.754 45.5706 113.298C45.3313 113.145 44.9754 112.999 45.0797 112.632C45.1717 112.284 45.5277 112.259 45.8345 112.259V112.265ZM44.3188 98.834C41.453 98.8706 38.7652 98.0946 36.1265 97.0619C35.5006 96.8174 35.2981 96.4752 35.3226 95.8581C35.3472 95.2226 35.3226 94.5932 35.3165 93.9515C35.2858 90.1812 34.9483 86.4415 34.2733 82.7323C34.1444 81.999 34.3101 81.4796 35.0158 81.1619C36.6236 80.4286 38.2314 79.7931 40.0294 79.5303C43.9567 78.962 46.5647 80.8625 48.7002 83.7711C49.7557 85.2072 50.486 86.8326 50.8971 88.5497C51.4924 91.0612 51.6703 93.6338 50.5289 96.0414C49.7619 97.6607 48.2891 98.5712 46.4972 98.8218C45.7793 98.9195 45.0429 98.834 44.3188 98.834Z" fill="#BE171A"/>
<path d="M98.2886 97.5692C99.1538 94.6606 100.577 92.0696 102.486 89.7109C104.542 87.1689 107.211 85.5068 110.212 84.4191C112.66 83.533 115.244 83.3069 117.827 83.9791C119.901 84.5229 121.693 85.5984 123.332 86.9489C123.823 87.3522 124.166 87.505 124.314 86.6983C124.332 86.6006 124.455 86.5211 124.504 86.4173C125.473 84.5963 126.314 84.4313 127.578 86.4173C128.535 87.9205 128.959 89.5948 129.339 91.2875C129.732 93.0229 130.033 94.7767 130.37 96.5243C130.389 96.616 130.395 96.7015 130.401 96.7932C130.892 101.547 130.99 106.32 130.702 111.08C130.548 113.567 130.076 116.048 129.303 118.443C129.155 118.908 128.861 119.354 128.535 119.72C127.946 120.38 127.05 120.258 126.437 119.555C125.805 118.834 125.449 117.961 125.074 117.117C124.829 116.567 124.688 116.622 124.252 116.848C123.191 117.392 122.135 117.936 121.049 118.431C119.607 119.097 118.079 119.433 116.551 119.72C110.991 120.778 106.008 119.397 101.731 115.779C100.332 114.6 99.4606 112.895 98.7734 111.172C97.6565 108.379 97.0981 105.489 97.3742 102.476C97.3865 102.329 97.4233 102.146 97.2515 102.085C97.0122 102.006 96.8097 102.116 96.6072 102.268C95.613 103.02 94.5392 103.607 93.3303 103.961C91.4095 104.523 89.4888 105.043 87.5129 105.403C84.5428 105.941 81.5604 106.094 78.5597 106.149C76.6512 106.179 74.7366 106.112 72.822 106.1C72.0672 106.1 71.8463 106.424 72.2023 107.09C73.3743 109.271 74.9085 111.184 77.4183 111.746C79.247 112.155 81.1616 112.18 82.9902 111.288C84.6594 110.475 86.2487 109.412 88.3106 109.662C89.9859 109.864 92.2687 112.559 91.2254 114.612C89.3968 118.217 86.4758 119.959 82.5791 120.185C76.7433 120.527 72.1777 118.052 68.4958 113.671C66.5812 111.392 65.1084 108.856 64.2555 106.057C63.47 103.478 63.2 100.82 63.6541 98.0581C64.0223 95.8094 64.4948 93.6401 65.6055 91.6724C67.6551 88.0488 70.5638 85.3723 74.5464 83.8935C76.0621 83.3314 77.5717 82.9586 79.1856 82.8058C85.2362 82.2375 89.8079 84.8651 93.6187 89.2465C95.3553 91.2447 96.6072 93.4812 97.3742 96.0232C97.5276 96.5365 97.4295 97.3859 98.2886 97.5754V97.5692ZM116.336 111.502C117.999 111.63 119.766 111.373 121.534 111.123C122.068 111.049 122.184 110.781 122.141 110.328C122.006 108.96 121.742 107.609 121.595 106.234C121.245 102.989 121.159 99.763 121.638 96.5304C121.742 95.8338 121.638 95.2472 120.975 94.9355C119.558 94.2634 118.03 93.9089 116.477 93.9212C114.415 93.9395 112.544 94.7095 110.924 95.9499C109.457 97.0743 108.273 98.4797 107.53 100.191C106.751 101.987 106.696 103.882 106.775 105.8C106.855 107.719 107.782 109.07 109.359 110.084C111.464 111.44 113.802 111.599 116.33 111.495L116.336 111.502ZM72.8711 97.5204C73.092 97.7281 72.3986 98.6753 73.4296 98.3086C75.0189 97.7403 76.5776 97.2026 78.2651 96.8787C81.1493 96.3166 84.058 96.2066 86.9606 95.9377C87.8872 95.8521 88.734 96.3104 89.6422 96.2677C89.8877 96.2554 90.2313 96.4571 90.3663 96.1332C90.4768 95.8766 90.2375 95.6933 90.0902 95.4672C89.2618 94.1656 88.102 93.2062 86.9237 92.2652C84.4139 90.267 81.6832 89.4054 78.4554 90.4198C75.0312 91.4952 73.178 94.41 72.8711 97.5265V97.5204Z" fill="black"/>
<path d="M162.864 98.8221C162.803 93.0475 162.907 87.279 163.306 81.5227C163.453 79.3779 164.073 77.2941 164.828 75.2837C165.245 74.1655 166.276 73.6033 167.319 73.1205C167.657 72.9617 167.779 73.3344 168.019 73.4138C170.283 74.1899 171.48 75.8826 172.02 78.1007C172.615 80.5328 172.799 83.0137 172.848 85.5069C172.897 88.0123 172.854 90.5238 172.86 93.0291C172.86 93.3163 172.75 93.7074 173.1 93.8357C173.376 93.9396 173.646 93.7258 173.897 93.5424C176.174 91.9414 178.708 90.9759 181.488 91.0004C183.961 91.0187 186.299 91.7398 188.404 93.133C191.209 94.9907 193.074 97.5205 193.841 100.771C195.007 105.709 195.203 110.744 194.841 115.779C194.688 117.942 193.78 119.959 191.393 120.717C189.705 121.254 187.533 120.729 187.048 119.342C186.772 118.553 186.827 117.729 186.882 116.916C187.011 114.924 187.165 112.919 186.895 110.946C186.49 107.982 186.312 104.976 185.164 102.134C184.397 100.24 183.072 99.3598 181.12 99.1337C179.899 98.9932 178.727 98.706 177.463 99.0848C175.726 99.6103 174.664 100.759 173.836 102.262C172.093 105.422 171.756 108.77 172.265 112.296C172.492 113.867 172.541 115.48 172.388 117.087C172.277 118.254 171.823 119.14 170.676 119.586C169.295 120.13 167.859 120.374 166.405 120.112C164.723 119.806 164.392 118.321 163.993 116.983C162.852 113.152 162.846 109.204 162.87 105.257C162.882 103.112 162.87 100.967 162.87 98.8221H162.864Z" fill="black"/>
<path d="M151.892 82.8916C153.591 82.8427 155.261 83.0016 156.881 83.5516C157.635 83.8082 158.231 84.2971 158.715 84.9081C159.575 85.9897 159.433 86.998 158.28 87.884C157.144 88.7579 155.77 89.1856 154.469 89.7356C151.634 90.9455 148.731 91.9965 146.332 94.0314C144.215 95.834 142.81 97.9667 142.38 100.796C142.11 102.58 142.159 104.303 142.859 105.88C143.853 108.135 145.681 109.546 148.173 110.041C150.388 110.487 152.548 109.999 154.733 109.785C156.543 109.608 158.433 109.223 160.2 110.023C161.833 110.769 162.87 111.881 161.821 114.019C160.599 116.494 158.482 117.985 156.046 119.091C153.015 120.472 149.768 120.564 146.59 120.093C143.38 119.623 140.564 118.089 138.011 116.03C135.826 114.27 134.347 112.052 133.218 109.565C132.494 107.964 132.015 106.271 131.911 104.505C131.819 102.984 131.672 101.462 131.911 99.9343C132.408 96.8117 133.39 93.8786 135.268 91.2877C137.477 88.2385 140.343 85.9286 143.767 84.4376C145.283 83.7777 146.939 83.3194 148.658 83.1299C149.732 83.0138 150.805 82.8916 151.885 82.8794L151.892 82.8916Z" fill="black"/>
<path d="M139.538 131.068C139.488 131.484 139.783 132.15 139.194 132.645C138.912 132.883 138.611 133.103 138.224 132.944C137.893 132.81 137.801 132.529 137.715 132.174C137.077 129.608 136.567 127.029 136.672 124.365C136.684 124.035 136.672 123.711 136.801 123.387C137.335 122.067 137.335 122.055 138.494 122.892C138.74 123.069 138.961 123.051 139.145 122.892C140.28 121.878 141.317 122.385 142.317 123.106C144.484 124.67 144.459 127.622 142.759 128.905C142.146 129.369 141.446 129.602 140.648 129.522C139.495 129.4 139.488 129.412 139.544 130.61C139.544 130.701 139.544 130.793 139.544 131.068H139.538ZM141.403 126.118C141.403 125.355 140.697 124.664 139.869 124.682C138.948 124.701 139.212 125.416 139.194 125.941C139.182 126.241 139.218 126.546 139.212 126.846C139.2 127.225 139.421 127.389 139.746 127.457C140.532 127.628 141.403 126.925 141.409 126.118H141.403Z" fill="black"/>
<path d="M170.153 128.874C170.11 127.17 170.233 125.697 170.472 124.23C170.533 123.851 170.558 123.46 171.03 123.448C171.478 123.436 171.822 123.699 171.975 124.126C172.252 124.884 172.178 125.672 172.172 126.455C172.166 127.072 172.344 127.371 173.037 127.127C174.909 126.461 176.394 127.848 176.639 129.699C176.737 130.445 176.701 131.209 176.694 131.96C176.688 132.62 176.234 132.969 175.657 132.987C175.056 133.005 175.013 132.468 174.988 132.003C174.958 131.398 174.946 130.793 174.878 130.194C174.792 129.461 174.068 128.606 173.583 128.612C172.847 128.618 172.19 129.369 172.129 130.304C172.098 130.757 172.153 131.209 172.129 131.661C172.104 132.131 171.963 132.565 171.466 132.743C170.975 132.92 170.607 132.852 170.429 132.241C170.085 131.056 170.239 129.84 170.141 128.862L170.153 128.874Z" fill="black"/>
<path d="M150.442 128.783C150.252 126.625 151.78 125.501 153.516 125.312C154.866 125.165 156.701 126.075 157.106 128.025C157.339 129.149 157.21 129.29 156.124 129.638C155.081 129.968 154.038 129.937 152.982 130.005C152.761 130.017 152.479 129.944 152.369 130.255C152.246 130.603 152.547 130.768 152.731 130.909C153.351 131.361 154.019 131.147 154.627 130.891C155.179 130.652 155.676 130.658 155.959 131.184C156.265 131.765 155.793 132.101 155.363 132.4C153.897 133.414 152.203 132.675 151.24 131.453C150.442 130.445 150.442 130.231 150.442 128.783ZM155.946 128.074C154.829 126.534 154.682 126.491 153.007 126.986C152.406 127.163 152.706 127.615 152.669 127.951C152.645 128.147 152.608 128.599 152.946 128.459C153.884 128.068 154.903 128.33 155.946 128.074Z" fill="black"/>
<path d="M187.948 132.914C185.899 133.036 184.512 131.184 184.475 129.418C184.445 127.854 185.598 126.137 187.629 126.143C189.44 126.143 191.232 127.909 191.139 129.675C191.041 131.545 189.47 133.103 187.948 132.914ZM187.912 127.781C186.807 127.793 186.12 128.459 186.138 129.48C186.157 130.445 187.016 131.166 188.108 131.129C189.053 131.099 189.839 130.341 189.802 129.492C189.765 128.624 188.82 127.762 187.912 127.775V127.781Z" fill="black"/>
<path d="M183.635 129.742C183.813 131.319 182.052 133.048 180.23 132.926C178.468 132.81 177.026 131.166 177.075 129.21C177.112 127.799 178.266 126.106 180.174 126.131C182.138 126.161 183.672 127.762 183.635 129.742ZM180.389 127.787C179.377 127.799 178.567 128.526 178.579 129.412C178.585 130.42 179.469 131.196 180.573 131.178C181.506 131.16 182.212 130.439 182.212 129.498C182.212 128.526 181.414 127.774 180.389 127.787Z" fill="black"/>
<path d="M166.912 132.901C165.317 132.797 164.274 131.844 163.666 130.482C163.04 129.082 163.531 127.793 164.489 126.687C165.391 125.642 166.593 125.263 167.95 125.269C168.404 125.269 168.741 125.471 168.888 125.856C169.066 126.326 168.588 126.467 168.312 126.632C167.802 126.937 167.219 127.139 166.704 127.438C165.728 128.001 165.409 128.856 165.765 129.852C166.029 130.585 166.661 130.854 167.778 130.714C168.017 130.683 168.256 130.634 168.496 130.628C168.845 130.616 169.275 130.512 169.422 130.958C169.551 131.361 169.545 131.771 169.171 132.113C168.532 132.694 167.753 132.852 166.906 132.914L166.912 132.901Z" fill="black"/>
<path d="M159.444 132.846C158.689 132.901 158.137 132.468 157.591 132.052C157.29 131.82 157.284 131.404 157.444 131.148C157.658 130.812 157.947 131.068 158.205 131.239C158.628 131.52 159.107 131.575 159.591 131.41C160.131 131.227 160.543 130.83 160.653 130.31C160.788 129.712 160.174 129.626 159.782 129.467C158.597 128.984 157.744 128.27 157.757 126.864C157.763 125.892 158.37 125.33 159.143 124.958C159.904 124.585 160.997 124.872 161.586 125.446C161.794 125.648 161.862 125.837 161.758 126.082C161.623 126.381 161.408 126.167 161.218 126.143C160.954 126.1 160.678 126.039 160.414 126.057C159.935 126.088 159.463 126.375 159.346 126.76C159.205 127.218 159.806 127.255 160.107 127.451C160.604 127.775 161.162 127.97 161.604 128.404C162.825 129.608 162.832 130.854 161.58 132.021C160.941 132.614 160.322 132.859 159.45 132.853L159.444 132.846Z" fill="black"/>
<path d="M194.288 127.316C194.251 128.893 194.232 130.402 193.827 131.868C193.803 131.954 193.815 132.064 193.766 132.131C193.52 132.455 193.478 133.054 192.993 133.048C192.52 133.042 192.41 132.541 192.305 132.125C191.759 130.035 191.643 127.915 191.9 125.77C192.005 124.908 192.042 124.035 192.355 123.197C192.514 122.77 192.6 122.226 193.146 122.263C193.588 122.293 193.717 122.776 193.852 123.185C194.312 124.56 194.208 125.978 194.288 127.316Z" fill="black"/>
<path d="M146.228 126.742C146.676 126.809 147.093 126.699 147.473 126.516C147.756 126.375 148.044 126.332 148.345 126.326C148.897 126.308 149.517 126.528 149.621 126.968C149.744 127.475 149.112 127.646 148.658 127.805C147.044 128.361 146.737 128.813 146.786 130.488C146.798 130.94 146.817 131.392 146.848 131.844C146.891 132.486 146.418 132.706 145.952 132.761C145.485 132.81 145.111 132.535 145.019 131.997C144.78 130.573 144.552 129.162 145 127.719C145.209 127.041 145.381 126.51 146.228 126.748V126.742Z" fill="black"/>
<mask id="mask0_2097_2599" style="mask-type:luminance" maskUnits="userSpaceOnUse" x="29" y="63" width="35" height="79">
<path d="M45.8345 112.265C47.6141 112.241 49.2648 111.697 50.9401 111.178C53.8917 110.267 56.2972 108.556 58.1873 106.191C61.1635 102.458 62.5074 98.0701 62.9308 93.3955C63.2867 89.4785 62.9554 85.5738 61.8447 81.7913C61.0592 79.0965 60.0037 76.4872 58.4082 74.1285C58.3959 74.1102 58.3837 74.0918 58.3653 74.0674C58.218 73.8596 57.9971 73.6213 57.8927 73.383C57.8927 73.383 57.8927 73.3769 57.8927 73.3708C56.917 72.002 55.1681 69.7349 54.9349 69.4355C54.9288 69.4294 54.9227 69.4233 54.9165 69.411C54.9104 69.3988 54.9104 69.3988 54.9104 69.3988C53.4438 68.0117 51.9219 66.7162 50.1362 65.7446C48.688 64.9502 47.1538 64.4431 45.5768 63.9542C44.374 63.5815 43.1528 63.6242 41.9562 63.4409C40.6123 63.2331 39.2009 63.6853 37.8141 63.9114C36.3658 64.1375 35.1876 64.8647 33.9235 65.4635C33.4878 65.6713 32.1255 66.8201 31.7757 67.2295C31.7757 67.2234 31.7757 67.2112 31.7757 67.2051L31.5241 67.474C31.1498 67.8834 30.9044 68.3967 30.8307 68.9405C30.6098 70.5599 30.4257 72.1792 30.2784 73.8107C30.2723 73.878 30.2662 73.9513 30.26 74.0246C29.7139 79.9275 29.6157 85.8671 29.9532 91.7884L32.2053 116.421C32.5551 120.276 34.5372 123.784 37.63 126.13C37.6484 126.143 37.6668 126.155 37.6852 126.173C42.4717 129.821 47.1784 133.567 51.7808 137.453C53.677 139.054 55.5486 140.71 57.8866 141.694C59.0403 142.177 60.1571 142.079 60.7401 141.358C61.8263 140.008 62.5013 138.45 62.5565 136.72C62.6179 134.942 62.0901 133.219 61.4642 131.593C60.1019 128.037 58.0646 124.853 55.524 122.006C52.5724 118.694 49.2832 115.754 45.5706 113.298C45.3313 113.145 44.9754 112.999 45.0797 112.632C45.1717 112.284 45.5277 112.259 45.8345 112.259V112.265Z" fill="white"/>
</mask>
<g mask="url(#mask0_2097_2599)">
<path d="M63.2001 85.4884C62.4759 85.2195 61.7948 86.0628 61.7273 86.8267C61.6414 87.7983 62.0893 88.8004 61.4941 89.7292C61.2057 90.1753 60.6043 90.3586 60.1625 90.0592C59.7513 89.772 59.7636 89.2893 59.8004 88.8004C59.8557 88.1527 59.7084 87.4927 59.3463 86.9489C58.027 84.9629 55.4987 86.0139 55.1183 87.731C54.8789 88.8065 55.4005 89.882 55.7074 90.9453C56.1185 92.3752 55.2778 93.9151 53.8664 94.3917C53.3755 94.5567 52.9521 94.7583 52.8662 95.2288C52.8232 95.461 52.8907 95.6933 53.0196 95.8888C53.7191 96.9215 55.4005 96.3227 56.0142 97.5448C56.2535 98.0153 56.2106 98.5775 55.9896 99.0541C55.5662 99.9463 54.6887 100.435 53.848 100.893L52.5225 101.608C52.1359 101.822 51.6695 101.48 51.7677 101.046C51.8414 100.716 52.0316 100.392 52.2341 100.203C52.5041 99.9524 52.6575 99.5919 52.6514 99.2191C52.6207 98.0031 50.9332 98.2964 50.3072 99.1275C49.7243 99.8974 49.3806 100.979 48.4663 101.291C47.9324 101.474 47.3556 101.327 46.8278 101.083C46.6131 100.985 46.3676 101.126 46.343 101.358L46.2571 102.036C46.2326 102.256 46.0485 102.427 45.8276 102.433C45.4901 102.433 45.1464 102.47 44.8151 102.537C44.5082 102.598 44.2628 102.824 44.183 103.124C44.0725 103.527 44.005 103.949 43.9928 104.364C43.9805 104.652 44.1707 104.908 44.4469 104.981L45.9871 105.397C46.2694 105.47 46.4106 105.788 46.2755 106.045C45.6864 107.163 45.3858 108.428 45.4164 109.693C46.4167 110.163 47.5213 110.408 48.6258 110.408C48.8958 110.408 49.1597 110.548 49.2395 110.805C49.3622 111.19 50.0065 111.538 50.5159 111.495C52.7741 111.288 54.6089 109.07 54.5108 106.845C54.4985 106.546 54.7255 106.289 55.0262 106.295C55.6644 106.308 56.3087 106.265 56.9408 106.155C57.2599 106.1 57.4256 105.751 57.2599 105.47C56.9224 104.896 56.2351 104.499 55.6583 104.102C54.9035 103.576 54.2039 102.562 54.7501 101.816C55.1367 101.285 55.916 101.278 56.5419 101.065C57.9533 100.588 58.5793 99.0663 58.9474 97.5753C59.0272 97.2637 59.4077 97.1415 59.647 97.3554C60.3957 98.0275 61.3468 98.8586 61.9605 99.4208M56.4438 140.863C56.861 141.132 57.2783 141.401 57.6956 141.67C57.7754 141.725 57.8613 141.774 57.9595 141.798C58.2295 141.853 58.4811 141.597 58.5302 141.328C58.5547 141.187 58.5424 141.053 58.5056 140.912C58.4381 140.631 58.2172 140.405 57.9288 140.356C57.3335 140.246 56.6585 140.546 56.4008 141.102M54.2039 120.093C55.2655 121.456 55.0508 123.87 54.6703 125.556C54.5844 125.947 54.4432 126.338 54.1548 126.613C53.7805 126.962 53.2344 127.041 52.725 127.102C51.958 127.194 51.1848 127.285 50.4177 127.377C50.2643 127.395 50.1047 127.42 49.9881 127.518C49.847 127.64 49.8102 127.842 49.804 128.031C49.7795 128.673 50.0188 129.314 50.4361 129.797C50.6079 129.993 50.8841 130.048 51.1295 129.968C52.4305 129.577 53.9462 130.475 54.5967 131.716C55.1244 132.718 55.9651 136.684 53.9891 136.506C53.8971 136.5 53.8419 136.61 53.9155 136.671C54.6948 137.325 54.7071 138.755 54.1916 139.653M56.5235 122.831C55.8669 122.036 54.1426 123.362 53.3509 122.69C53.173 122.537 53.0748 122.311 52.9275 122.128C52.5655 121.688 51.9273 121.56 51.4118 121.383C51.1295 121.291 50.8043 121.37 50.6509 121.615C50.4975 121.859 50.6386 122.079 50.7491 122.287C51.3811 123.485 50.7736 125.165 49.5156 125.678C49.4297 125.715 49.3438 125.746 49.2518 125.752C48.4356 125.843 48.2024 124.523 48.4233 123.839C48.5522 123.448 48.5461 123.014 48.3251 122.666C47.8465 121.926 47.239 122.201 46.7112 122.427C45.2446 123.051 43.6184 123.301 42.0291 123.155C41.8695 123.142 41.7591 122.984 41.7959 122.831C42.0045 121.975 41.802 120.998 41.0534 120.484C40.6238 120.191 40.0593 120.13 39.5806 120.325C38.4269 120.796 38.9056 122.214 38.1631 122.861C37.4512 123.472 35.641 123.185 34.7389 123.442M47.3126 114.325C46.6376 114.392 45.5085 114.465 44.8273 114.532C44.2321 114.594 43.6062 114.667 43.1214 115.009C42.6366 115.351 42.3482 116.06 42.6673 116.561C43.2012 117.13 43.9437 117.496 44.723 117.576C45.2998 117.637 46.0792 117.679 46.1896 118.248C46.2326 118.486 46.1221 118.724 46.0117 118.944C44.8826 121.242 44.1769 123.741 43.9314 126.283C43.8639 126.962 43.8762 127.744 44.3916 128.19C45.0544 128.758 46.2142 128.459 46.8033 129.106C47.1837 129.522 47.1469 130.206 46.8278 130.671C46.5087 131.135 44.7107 131.649 44.1584 131.789M34.248 122.776C34.2848 121.78 34.4566 120.503 34.6591 119.525C34.7573 119.061 34.88 118.578 35.193 118.217C35.8128 117.502 36.899 117.515 37.8378 117.386C38.5804 117.282 39.4272 116.885 39.6972 116.256C39.8261 115.944 39.6911 115.596 39.4027 115.412C38.5926 114.911 37.4267 114.936 36.7271 114.258C36.3467 113.891 36.1687 113.365 36.046 112.852C35.6348 111.08 35.8189 109.18 35.1255 107.499C35.0028 107.206 34.8494 106.912 34.6039 106.711C34.1559 106.35 33.4932 106.363 32.9716 106.595C32.45 106.827 31.505 107.854 31.0938 108.263M45.4103 109.681C44.3303 110.194 43.6737 109.638 42.5139 109.345C42.2193 109.271 41.8757 109.088 41.9002 108.788C41.9125 108.605 42.072 108.465 42.1764 108.312C42.4648 107.884 42.3175 107.267 41.9493 106.906C41.5811 106.546 41.0472 106.399 40.5256 106.381C40.2495 106.369 39.9672 106.387 39.7095 106.485C39.1204 106.711 38.7522 107.31 38.6356 107.927C38.5497 108.373 38.5742 108.831 38.6356 109.283C38.6663 109.534 38.4515 109.742 38.1999 109.699C37.2794 109.528 36.3467 109.4 35.4262 109.503C34.3278 109.632 32.1922 111.526 31.6277 112.467M30.7318 103.631C31.8056 103.998 33.8675 104.138 34.9169 103.717C35.1623 103.619 35.4016 103.497 35.5735 103.301C35.8373 103.002 35.9048 102.58 35.9539 102.183C36.1442 100.6 36.1994 98.6569 36.1258 97.0682M30.0506 97.1415C32.8304 97.8748 36.273 100.056 39.1388 99.8057C39.3351 99.7874 39.5561 99.7508 39.6788 99.598C39.777 99.4758 39.8015 99.3108 39.8568 99.1641C40.1145 98.5531 41.0166 98.4981 41.5872 98.8464C42.1579 99.1947 42.52 99.7874 42.9925 100.252C44.1032 101.34 44.8948 102.03 46.3124 101.382M63.3412 135.59C62.8135 135.828 62.1937 135.865 61.6352 135.694C61.4818 135.645 61.3223 135.572 61.2241 135.443C61.1382 135.321 61.1136 135.168 61.0891 135.022C61.0155 134.508 60.9418 134.001 60.8682 133.488C60.8191 133.14 60.7639 132.779 60.5736 132.48C60.1932 131.875 59.377 131.697 58.659 131.71C58.5363 131.71 58.4136 131.716 58.3092 131.777C58.1865 131.844 58.1129 131.972 58.0577 132.101C57.6465 133.06 58.1313 134.209 57.7876 135.193C57.5115 135.981 56.726 136.519 55.9037 136.665C55.0814 136.812 54.6887 136.989 53.9216 136.665M37.7028 63.9788C38.3533 63.5633 39.4947 63.82 40.0715 64.2355C40.4213 64.486 40.7465 64.8404 41.1761 64.8465C41.5197 64.8588 41.7836 64.651 42.0352 64.4005C42.6366 63.7955 43.5448 63.5633 44.3548 63.8383C45.3796 64.1866 45.0667 64.9199 45.3244 65.4759C45.9074 66.7347 48.3681 65.7509 48.9817 66.9975C49.1781 67.8224 48.589 68.7574 47.7544 68.9346C47.3924 69.014 46.9997 68.9651 46.6683 69.124C45.7785 69.5457 45.9687 70.9633 46.2265 71.7638C46.3553 72.1733 46.3615 72.6193 46.2142 73.0226C45.7355 74.3242 44.4223 73.7804 43.4834 74.0187C43.1643 74.0981 42.9802 74.4281 43.0784 74.7458C43.2012 75.1492 43.2993 75.5647 43.2871 75.9802C43.2625 76.7868 42.7471 77.6545 41.7345 77.5384C41.3295 77.4895 40.9552 77.2818 40.6852 76.9762C40.1943 76.4263 40.0347 75.7358 39.9549 75.0269C39.9181 74.6908 39.599 74.4586 39.2676 74.5197C38.3226 74.6908 37.2978 74.6297 36.9174 73.8231C36.7271 73.4259 36.7762 72.9554 36.8315 72.5216C36.9419 71.6294 37.0524 70.7372 37.1628 69.8451C37.1935 69.619 37.2181 69.3746 37.1015 69.179C36.9726 68.959 36.7026 68.8613 36.451 68.8002C35.6717 68.6107 34.8309 68.5863 34.1989 68.0302C33.8675 67.7369 33.6773 67.2969 33.7877 66.8692C34.0087 66.032 35.0825 65.9892 35.7576 66.0137C36.1196 66.0259 36.4878 65.9465 36.7946 65.7509C37.6906 65.1765 36.8315 64.5532 37.7028 63.991V63.9788ZM50.6018 84.6574C50.9332 85.0729 51.2645 85.4945 51.4916 85.9712C51.5284 86.0506 51.5652 86.1362 51.602 86.2217C51.823 86.79 52.5164 87.0161 53.0503 86.7228C53.5841 86.4295 54.1426 86.2645 54.7317 86.2095C55.1735 86.1667 55.5171 85.8123 55.5478 85.3723C55.5908 84.7185 55.4865 84.028 55.5233 83.368C55.5724 82.4147 56.1615 81.3148 57.1188 81.3393C57.4195 81.3454 57.7201 81.4737 58.0147 81.4126C58.4688 81.327 58.7511 80.826 58.7449 80.3616C58.7449 80.1171 58.6774 79.8788 58.5854 79.6466C58.4627 79.3411 58.1497 79.1455 57.8245 79.2005C56.6892 79.3839 55.4067 78.6689 55.1428 77.5384C54.9464 76.689 55.2717 75.8152 55.3576 74.9536C55.4558 73.9026 54.9526 72.5582 53.6394 72.8515C53.3325 72.9188 53.0012 72.9126 52.725 72.766C52.1666 72.4727 52.3568 72.0266 52.3568 71.6233C52.3568 71.0428 51.9027 70.4928 51.332 70.3828C50.7613 70.2728 50.1354 70.6089 49.9145 71.1467C49.6384 71.8188 49.9452 72.7049 49.4543 73.2365C48.8345 73.9087 46.7849 72.8882 46.0301 73.4076C45.4839 73.7865 45.4962 74.4036 45.5208 75.0697C45.6496 79.1333 48.1595 81.5776 50.6141 84.6696L50.6018 84.6574ZM30.339 70.1689C29.3695 71.0978 29.3388 73.9515 29.6947 75.0819C29.9156 75.7847 30.3267 76.4141 30.5906 77.1046C31.0877 78.4123 31.0324 79.8483 30.9649 81.2415C30.8974 82.6347 30.8361 84.028 30.7747 85.4273C30.7379 86.1728 30.8054 87.0894 31.4804 87.4133C31.9284 86.7228 31.9897 86.1117 32.812 86.1912C33.5361 86.2645 34.1805 85.739 34.2296 85.0179L33.9964 83.4169C34.0209 83.0808 33.7386 82.5309 33.6711 82.2009C33.5668 81.7365 33.5116 81.4554 33.4502 81.2232C33.1557 80.1355 34.0087 79.0417 35.1378 79.1089C35.1439 79.1089 35.1562 79.1089 35.1623 79.1089C35.3955 79.1272 35.6532 79.1639 35.8557 79.0478C36.0828 78.9133 36.1564 78.6322 36.2055 78.3756C36.3774 77.5201 38.6847 74.8131 37.8562 74.5197C36.9603 74.2081 37.2242 74.2142 36.8008 73.6215C36.5062 73.2121 33.5668 73.8231 33.2048 73.4687C32.4377 72.7232 33.573 71.3544 33.1066 70.395C32.6464 69.4601 31.0018 69.5395 30.3513 70.1628L30.339 70.1689ZM30.2838 73.817C30.2777 73.8842 30.2715 73.9576 30.2654 74.0309C30.2654 73.9576 30.2715 73.8904 30.2777 73.817H30.2838Z" stroke="white" stroke-width="0.25" stroke-miterlimit="10"/>
</g>
<mask id="path-24-inside-1_2097_2599" fill="white">
<path d="M31.4076 99.8729C31.6837 100.9 31.5978 101.957 31.653 102.995C31.7574 104.939 31.9476 106.851 32.4017 108.74C32.4999 109.137 32.4262 109.577 32.4385 109.998C31.9108 110.279 31.3032 110.096 30.7571 110.304C27.6766 111.477 26.9095 114.404 27.112 116.91C27.2409 118.523 27.6704 120.136 28.4927 121.578C29.2659 122.935 29.9103 124.401 31.3339 125.269C31.1805 128.624 31.8678 131.942 31.7574 135.297C31.7267 136.219 31.5058 137.081 31.2357 137.924C30.8001 139.256 29.5666 139.757 28.3823 140.02C27.0322 140.313 25.5227 140.692 24.3935 139.409C23.694 138.615 23.3319 137.6 23.0312 136.61C22.5035 134.899 22.2703 133.103 21.853 131.367C21.4051 129.522 21.2578 127.646 20.9019 125.794C20.6871 124.676 20.6257 123.515 20.5459 122.391C20.4232 120.68 20.1839 118.981 20.055 117.27C19.8157 114.147 19.8096 111.013 19.4107 107.902C19.3677 107.542 19.3861 107.181 19.3739 106.815C19.2757 103.741 19.3923 100.661 19.1898 97.5875C19.0057 94.7522 19.3432 91.9229 19.3616 89.0876C19.3616 88.5132 19.337 87.9449 19.3248 87.3705C19.7114 87.3949 19.9998 87.236 20.2637 86.955C20.7607 86.4294 21.1105 85.8062 21.4235 85.1706C22.9576 82.0909 22.2764 79.0111 19.693 77.2451C19.1039 68.7635 19.3064 60.2757 19.4168 51.788C19.4782 46.7467 19.7421 41.7115 19.7236 36.6641C19.7236 36.3341 19.7114 35.998 19.7114 35.668C19.7114 35.1914 19.4291 35.0508 19.0609 35.228C17.49 36.0041 15.8086 36.4441 14.121 36.8413C13.0226 37.0979 11.8812 36.9513 10.7643 36.9757C8.44474 37.0246 6.19263 36.7802 4.14918 35.5336C2.35118 34.4337 1.16683 32.8877 0.412038 30.9322C-0.514575 28.5368 0.430448 26.4226 1.32638 24.3449C2.89119 20.7152 5.81217 18.3076 9.05839 16.2116C10.4268 15.3256 11.9241 14.7939 13.4153 14.2073C14.5322 13.7673 14.6365 13.3885 13.673 12.6796C11.3657 10.9809 11.0037 6.9967 11.6971 4.71742C11.826 4.29578 12.1573 4.29578 12.4948 4.28967C13.9492 4.25912 15.109 4.88852 16.1583 5.84178C17.9747 7.47945 18.8584 9.64263 19.6684 11.8547C19.7298 12.0258 19.7727 12.2091 19.8771 12.3497C20.055 12.588 20.2575 12.8568 20.6134 12.7774C21.0062 12.6919 20.9939 12.3497 20.9878 12.0502C20.9264 9.45319 20.8957 6.85616 20.7669 4.26523C20.73 3.53806 20.4416 2.81088 20.2146 2.10205C19.8771 1.03268 20.4171 0.0794105 21.5278 0.0244144C22.6262 -0.0244711 23.6878 0.134407 24.4426 1.12434C24.9581 1.79651 25.0747 2.48702 24.4058 2.93921C23.0865 3.83137 23.0312 5.06573 22.9146 6.47118C22.7612 8.33494 22.663 10.1987 22.5771 12.0686C22.5464 12.808 22.8042 13.1013 23.5099 13.1929C24.1358 13.2785 24.7679 13.419 25.3692 13.6207C25.9093 13.804 26.124 13.5412 26.2345 13.1318C26.6272 11.7264 26.9218 10.2904 27.3759 8.90323C27.9159 7.25946 28.1061 5.59736 28.1614 3.87414C28.2227 2.1326 29.0511 1.55208 30.751 2.16926C31.7574 2.52979 32.3526 3.34251 32.7453 4.25912C32.9724 4.78463 32.6103 5.34682 32.1378 5.52403C30.1312 6.28175 29.7262 8.09051 29.1493 9.81372C28.775 10.9136 28.327 11.9891 27.9159 13.0768C27.8607 13.2174 27.7625 13.3457 27.7441 13.4862C27.7073 13.7734 27.5477 14.1584 27.8423 14.3234C28.1061 14.4701 28.2841 14.1034 28.462 13.9262C29.8489 12.5452 31.0885 10.9931 32.9785 10.217C34.3531 9.64874 35.7461 9.36765 37.225 9.75873C38.2559 10.0337 38.1639 10.1009 38.0411 11.1459C37.8264 12.9913 36.82 14.3601 35.7399 15.735C34.1567 16.511 32.5367 17.0977 30.7264 17.0915C30.0882 17.0915 30.2662 17.611 30.4257 17.9593C30.8553 18.8698 31.0823 19.8047 31.0517 20.8191C31.0087 22.3284 30.7632 23.8377 30.7632 25.3226C30.751 32.906 30.2969 40.4832 30.3337 48.0666C30.3337 48.8915 30.2171 49.4782 29.3457 49.8142C29.0082 49.9426 28.6707 50.2603 28.3761 50.572C26.3634 52.6985 25.8111 55.2833 25.8908 58.0942C25.9215 59.2369 25.9768 60.3552 26.7009 61.3268C27.382 62.2373 28.5664 62.7872 29.5666 62.1028C29.99 61.8156 30.3582 61.8889 30.3644 62.5611C30.3705 63.2822 30.4503 64.0032 30.5055 64.7243C30.7326 67.6819 30.5853 70.6455 30.7019 73.6031C30.5791 75.1736 30.6773 76.7379 30.8491 78.29C31.0823 80.4837 30.9903 82.6836 30.9964 84.8834C30.751 84.9262 30.4994 84.969 30.2539 85.0056C30.0698 84.859 29.9532 84.8712 29.9287 85.134C28.4375 85.1584 27.1734 85.7267 26.3265 86.9366C25.0931 88.6965 25.1299 90.7436 25.6577 92.6562C26.529 95.8338 28.4191 98.3453 31.426 99.9096L31.4076 99.8729ZM11.4823 36.2058C12.5562 36.1935 13.5687 35.9552 14.5444 35.5152C16.5572 34.6109 17.7968 33.0221 18.5638 31.0178C18.6743 30.7367 18.8277 30.3151 18.4288 30.1378C18.0607 29.9729 17.9441 30.3151 17.8152 30.6084C17.3918 31.5555 16.9254 32.4843 16.2749 33.3093C14.9801 34.9408 13.1023 35.173 11.2307 35.4419C10.8625 35.4969 10.1936 35.2097 10.1998 35.7963C10.2059 36.4502 10.8932 36.1324 11.2982 36.1996C11.3596 36.2119 11.4209 36.1996 11.4823 36.1996V36.2058ZM16.4529 16.236C16.4897 15.7289 16.2136 15.35 15.6613 15.1667C15.066 14.9711 14.6303 15.2645 14.4094 15.7533C14.1394 16.3399 13.808 16.9327 13.9062 17.6232C13.9737 18.0693 14.1885 18.4298 14.6426 18.5398C15.0967 18.6498 15.5263 18.6192 15.8331 18.1548C16.2013 17.5926 16.459 17.006 16.459 16.236H16.4529ZM18.932 18.7964C18.8891 19.1814 18.9627 19.6153 19.4414 19.8536C19.8955 20.0797 20.2637 19.8352 20.6196 19.603C21.356 19.1081 21.7303 18.1426 21.583 17.3176C21.4971 16.841 21.2516 16.6577 20.7853 16.6516C19.8341 16.6332 18.9566 17.5865 18.932 18.7964ZM5.7999 27.9991C5.77535 27.5897 5.52989 27.2231 5.17397 27.278C4.49896 27.3758 4.25963 28.0052 4.1369 28.5735C4.06326 28.9157 4.33941 29.3312 4.74442 29.2824C5.45012 29.1968 5.60967 28.5613 5.7999 27.9991ZM2.28368 27.0031C2.30208 26.7403 2.21004 26.3737 1.65775 26.4287C0.964325 26.4959 0.945915 27.1131 0.88455 27.5653C0.847731 27.8647 1.0441 28.3108 1.50434 28.2741C2.16708 28.2252 2.2714 27.718 2.27754 27.0031H2.28368Z"/>
</mask>
<path d="M31.4076 99.8729C31.6837 100.9 31.5978 101.957 31.653 102.995C31.7574 104.939 31.9476 106.851 32.4017 108.74C32.4999 109.137 32.4262 109.577 32.4385 109.998C31.9108 110.279 31.3032 110.096 30.7571 110.304C27.6766 111.477 26.9095 114.404 27.112 116.91C27.2409 118.523 27.6704 120.136 28.4927 121.578C29.2659 122.935 29.9103 124.401 31.3339 125.269C31.1805 128.624 31.8678 131.942 31.7574 135.297C31.7267 136.219 31.5058 137.081 31.2357 137.924C30.8001 139.256 29.5666 139.757 28.3823 140.02C27.0322 140.313 25.5227 140.692 24.3935 139.409C23.694 138.615 23.3319 137.6 23.0312 136.61C22.5035 134.899 22.2703 133.103 21.853 131.367C21.4051 129.522 21.2578 127.646 20.9019 125.794C20.6871 124.676 20.6257 123.515 20.5459 122.391C20.4232 120.68 20.1839 118.981 20.055 117.27C19.8157 114.147 19.8096 111.013 19.4107 107.902C19.3677 107.542 19.3861 107.181 19.3739 106.815C19.2757 103.741 19.3923 100.661 19.1898 97.5875C19.0057 94.7522 19.3432 91.9229 19.3616 89.0876C19.3616 88.5132 19.337 87.9449 19.3248 87.3705C19.7114 87.3949 19.9998 87.236 20.2637 86.955C20.7607 86.4294 21.1105 85.8062 21.4235 85.1706C22.9576 82.0909 22.2764 79.0111 19.693 77.2451C19.1039 68.7635 19.3064 60.2757 19.4168 51.788C19.4782 46.7467 19.7421 41.7115 19.7236 36.6641C19.7236 36.3341 19.7114 35.998 19.7114 35.668C19.7114 35.1914 19.4291 35.0508 19.0609 35.228C17.49 36.0041 15.8086 36.4441 14.121 36.8413C13.0226 37.0979 11.8812 36.9513 10.7643 36.9757C8.44474 37.0246 6.19263 36.7802 4.14918 35.5336C2.35118 34.4337 1.16683 32.8877 0.412038 30.9322C-0.514575 28.5368 0.430448 26.4226 1.32638 24.3449C2.89119 20.7152 5.81217 18.3076 9.05839 16.2116C10.4268 15.3256 11.9241 14.7939 13.4153 14.2073C14.5322 13.7673 14.6365 13.3885 13.673 12.6796C11.3657 10.9809 11.0037 6.9967 11.6971 4.71742C11.826 4.29578 12.1573 4.29578 12.4948 4.28967C13.9492 4.25912 15.109 4.88852 16.1583 5.84178C17.9747 7.47945 18.8584 9.64263 19.6684 11.8547C19.7298 12.0258 19.7727 12.2091 19.8771 12.3497C20.055 12.588 20.2575 12.8568 20.6134 12.7774C21.0062 12.6919 20.9939 12.3497 20.9878 12.0502C20.9264 9.45319 20.8957 6.85616 20.7669 4.26523C20.73 3.53806 20.4416 2.81088 20.2146 2.10205C19.8771 1.03268 20.4171 0.0794105 21.5278 0.0244144C22.6262 -0.0244711 23.6878 0.134407 24.4426 1.12434C24.9581 1.79651 25.0747 2.48702 24.4058 2.93921C23.0865 3.83137 23.0312 5.06573 22.9146 6.47118C22.7612 8.33494 22.663 10.1987 22.5771 12.0686C22.5464 12.808 22.8042 13.1013 23.5099 13.1929C24.1358 13.2785 24.7679 13.419 25.3692 13.6207C25.9093 13.804 26.124 13.5412 26.2345 13.1318C26.6272 11.7264 26.9218 10.2904 27.3759 8.90323C27.9159 7.25946 28.1061 5.59736 28.1614 3.87414C28.2227 2.1326 29.0511 1.55208 30.751 2.16926C31.7574 2.52979 32.3526 3.34251 32.7453 4.25912C32.9724 4.78463 32.6103 5.34682 32.1378 5.52403C30.1312 6.28175 29.7262 8.09051 29.1493 9.81372C28.775 10.9136 28.327 11.9891 27.9159 13.0768C27.8607 13.2174 27.7625 13.3457 27.7441 13.4862C27.7073 13.7734 27.5477 14.1584 27.8423 14.3234C28.1061 14.4701 28.2841 14.1034 28.462 13.9262C29.8489 12.5452 31.0885 10.9931 32.9785 10.217C34.3531 9.64874 35.7461 9.36765 37.225 9.75873C38.2559 10.0337 38.1639 10.1009 38.0411 11.1459C37.8264 12.9913 36.82 14.3601 35.7399 15.735C34.1567 16.511 32.5367 17.0977 30.7264 17.0915C30.0882 17.0915 30.2662 17.611 30.4257 17.9593C30.8553 18.8698 31.0823 19.8047 31.0517 20.8191C31.0087 22.3284 30.7632 23.8377 30.7632 25.3226C30.751 32.906 30.2969 40.4832 30.3337 48.0666C30.3337 48.8915 30.2171 49.4782 29.3457 49.8142C29.0082 49.9426 28.6707 50.2603 28.3761 50.572C26.3634 52.6985 25.8111 55.2833 25.8908 58.0942C25.9215 59.2369 25.9768 60.3552 26.7009 61.3268C27.382 62.2373 28.5664 62.7872 29.5666 62.1028C29.99 61.8156 30.3582 61.8889 30.3644 62.5611C30.3705 63.2822 30.4503 64.0032 30.5055 64.7243C30.7326 67.6819 30.5853 70.6455 30.7019 73.6031C30.5791 75.1736 30.6773 76.7379 30.8491 78.29C31.0823 80.4837 30.9903 82.6836 30.9964 84.8834C30.751 84.9262 30.4994 84.969 30.2539 85.0056C30.0698 84.859 29.9532 84.8712 29.9287 85.134C28.4375 85.1584 27.1734 85.7267 26.3265 86.9366C25.0931 88.6965 25.1299 90.7436 25.6577 92.6562C26.529 95.8338 28.4191 98.3453 31.426 99.9096L31.4076 99.8729ZM11.4823 36.2058C12.5562 36.1935 13.5687 35.9552 14.5444 35.5152C16.5572 34.6109 17.7968 33.0221 18.5638 31.0178C18.6743 30.7367 18.8277 30.3151 18.4288 30.1378C18.0607 29.9729 17.9441 30.3151 17.8152 30.6084C17.3918 31.5555 16.9254 32.4843 16.2749 33.3093C14.9801 34.9408 13.1023 35.173 11.2307 35.4419C10.8625 35.4969 10.1936 35.2097 10.1998 35.7963C10.2059 36.4502 10.8932 36.1324 11.2982 36.1996C11.3596 36.2119 11.4209 36.1996 11.4823 36.1996V36.2058ZM16.4529 16.236C16.4897 15.7289 16.2136 15.35 15.6613 15.1667C15.066 14.9711 14.6303 15.2645 14.4094 15.7533C14.1394 16.3399 13.808 16.9327 13.9062 17.6232C13.9737 18.0693 14.1885 18.4298 14.6426 18.5398C15.0967 18.6498 15.5263 18.6192 15.8331 18.1548C16.2013 17.5926 16.459 17.006 16.459 16.236H16.4529ZM18.932 18.7964C18.8891 19.1814 18.9627 19.6153 19.4414 19.8536C19.8955 20.0797 20.2637 19.8352 20.6196 19.603C21.356 19.1081 21.7303 18.1426 21.583 17.3176C21.4971 16.841 21.2516 16.6577 20.7853 16.6516C19.8341 16.6332 18.9566 17.5865 18.932 18.7964ZM5.7999 27.9991C5.77535 27.5897 5.52989 27.2231 5.17397 27.278C4.49896 27.3758 4.25963 28.0052 4.1369 28.5735C4.06326 28.9157 4.33941 29.3312 4.74442 29.2824C5.45012 29.1968 5.60967 28.5613 5.7999 27.9991ZM2.28368 27.0031C2.30208 26.7403 2.21004 26.3737 1.65775 26.4287C0.964325 26.4959 0.945915 27.1131 0.88455 27.5653C0.847731 27.8647 1.0441 28.3108 1.50434 28.2741C2.16708 28.2252 2.2714 27.718 2.27754 27.0031H2.28368Z" fill="#FBD25C" stroke="black" stroke-width="2" mask="url(#path-24-inside-1_2097_2599)"/>
<path d="M30.6836 73.5727C30.567 70.6152 30.7143 67.6515 30.4872 64.6939C30.432 63.9729 30.3522 63.2518 30.3461 62.5307C30.3461 61.8586 29.9656 61.7852 29.5484 62.0724C28.5481 62.7568 27.3638 62.213 26.6826 61.2964C25.9585 60.3248 25.9033 59.2065 25.8726 58.0638C25.7928 55.2529 26.3451 52.6681 28.3579 50.5416C28.6524 50.2299 28.9899 49.9122 29.3274 49.7839C30.1988 49.4478 30.3216 48.8611 30.3154 48.0362C30.2786 40.4528 30.7327 32.8756 30.745 25.2922C30.745 23.8074 30.9904 22.298 31.0334 20.7887C31.0641 19.7743 30.837 18.8394 30.4075 17.9289C30.2479 17.5806 30.0638 17.055 30.7082 17.0612C32.5184 17.0734 34.1385 16.4806 35.7217 15.7046C35.9733 16.7556 35.7953 17.5806 34.6233 17.9533C34.433 18.0144 34.1017 18.1366 34.1814 18.4361C34.2551 18.7233 34.568 18.6683 34.8074 18.6744C35.0467 18.6805 35.2983 18.656 35.5315 18.6988C35.6971 18.7233 35.9733 18.8088 35.9917 18.9127C36.1328 19.6154 35.7401 20.2387 35.6112 20.9048C35.556 21.2042 35.0405 21.2959 34.6539 21.1981C34.5373 21.1675 34.4146 21.1492 34.298 21.1431C34.071 21.137 33.7457 21.0025 33.6414 21.2531C33.5125 21.5708 33.8439 21.7236 34.0771 21.8397C34.8012 22.2247 35.5008 22.6219 35.5621 23.5629C35.5069 24.119 35.4517 24.6751 35.3903 25.2373C35.3842 25.3289 35.378 25.4206 35.3658 25.5061C35.0896 25.72 34.7644 25.7017 34.4392 25.6833C34.0771 25.28 33.5616 25.2922 33.04 25.1211C33.2732 25.6161 33.5003 25.995 33.9728 26.1294L34.0157 26.0683L33.9851 26.1355C34.0219 26.4105 34.2182 26.4472 34.4453 26.4594C34.7705 26.8688 35.016 27.3027 34.9485 27.8465C34.5373 28.2132 34.703 28.6898 34.703 29.1359C34.6785 29.3192 34.6539 29.5025 34.6294 29.6858C34.1937 29.7836 33.7641 29.7286 33.2671 29.4903C33.4635 30.1441 33.666 30.6147 34.2551 30.7858H34.2489C34.3164 30.9446 34.3042 31.1707 34.5742 31.1585C34.5864 31.8735 34.5926 32.5823 34.6048 33.2972C34.3226 33.6089 34.4023 34.0061 34.3594 34.3727C34.1446 34.4094 33.9298 34.446 33.7151 34.4827C33.4635 34.4522 33.0953 34.3299 33.083 34.6905C33.0707 34.9532 33.3407 35.216 33.7151 35.1488L33.7519 35.1793L33.7948 35.1549C34.1385 35.9126 33.8316 36.7131 33.9667 37.4831L33.8746 38.1552C33.5248 38.2408 32.9909 37.978 32.8744 38.4669C32.8007 38.7785 33.1382 39.0596 33.5064 39.1513L33.4941 39.1391C33.7641 40.3245 33.5616 41.5283 33.6353 42.7199C33.5923 42.7627 33.5494 42.8055 33.5064 42.8482C32.9419 43.1212 32.9378 43.4878 33.4941 43.9482V44.9136C33.0523 45.8547 33.2487 46.8507 33.2364 47.8284C33.218 47.9506 33.1996 48.0729 33.175 48.1951C33.0584 48.2073 32.9296 48.2134 32.8191 48.244C32.6043 48.3051 32.2975 48.1462 32.1871 48.4517C32.0889 48.7328 32.3221 48.8856 32.5 49.0384C32.6289 49.1545 32.7823 49.2461 32.9234 49.35H32.905C32.8621 49.5211 32.9234 49.6372 33.1198 49.6678C33.1321 49.7777 33.1382 49.8938 33.1505 50.0038C32.7823 50.4377 32.8498 50.951 32.8805 51.4643C32.8375 51.9409 32.7946 52.4176 32.7516 52.8942C32.4264 52.9553 32.4816 53.2486 32.408 53.4625C31.8741 53.7986 32.1748 54.2935 32.1564 54.7335C32.1564 55.7112 32.1441 56.6889 32.138 57.6666C31.3955 58.9377 31.868 60.3309 31.7268 61.6691C31.3402 65.3355 31.3341 69.0142 31.328 72.6928C31.328 73.1205 31.3095 73.5727 30.6959 73.5911L30.6836 73.5727Z" fill="#432A1B"/>
<path d="M31.321 125.269C29.9034 124.401 29.253 122.935 28.4798 121.578C27.6636 120.136 27.2279 118.523 27.099 116.91C26.9027 114.404 27.6697 111.477 30.7441 110.304C31.2903 110.096 31.8978 110.28 32.4255 109.999C32.941 110.09 32.9349 110.475 32.9778 110.885C33.2478 113.757 33.1128 116.635 33.1558 119.507C33.1681 120.197 33.1312 120.888 33.1128 121.572C33.0085 121.517 32.8919 121.474 32.7999 121.407C32.401 121.12 32.1248 120.429 31.5664 120.686C31.0878 120.906 31.3578 121.554 31.3394 122.012C31.3026 123.094 31.321 124.181 31.321 125.269Z" fill="#432A1B"/>
<path d="M19.6675 77.2388C22.251 79.0048 22.9321 82.0784 21.398 85.1643C21.085 85.7998 20.7352 86.4231 20.2382 86.9486C19.9743 87.2236 19.6859 87.3886 19.2993 87.3642C19.2318 87.2358 19.0907 87.0953 19.1091 86.9792C19.5877 83.765 19.5938 80.5324 19.5938 77.2938C19.5938 77.2754 19.6429 77.2632 19.6675 77.2449V77.2388Z" fill="#432A1B"/>
<path d="M31.4067 99.8728C28.3998 98.3146 26.5097 95.797 25.6383 92.6195C25.1167 90.7068 25.0799 88.6597 26.3072 86.8999C27.1541 85.69 28.4182 85.1217 29.9094 85.0972C30.0566 85.1583 30.1855 85.1705 30.2346 84.9689C30.4801 84.9261 30.7317 84.8833 30.9771 84.8467C31.4312 85.8549 31.6705 86.9304 31.689 88.012C31.738 91.709 31.7135 95.412 31.7135 99.109C31.7135 99.3962 31.8055 99.7323 31.4067 99.8667V99.8728Z" fill="#432A1B"/>
<path d="M11.4818 36.2059C11.4204 36.2059 11.3591 36.212 11.2977 36.2059C10.8927 36.1387 10.2054 36.4564 10.1993 35.8026C10.1931 35.216 10.862 35.4971 11.2302 35.4482C13.1018 35.1793 14.9857 34.9471 16.2744 33.3156C16.9249 32.4906 17.3913 31.5618 17.8147 30.6146C17.9435 30.3213 18.0601 29.9791 18.4283 30.1441C18.8272 30.3213 18.6677 30.743 18.5633 31.024C17.7963 33.0222 16.5567 34.6171 14.5439 35.5215C13.5682 35.9615 12.5495 36.1998 11.4818 36.212V36.2059Z" fill="#432A1B"/>
<path d="M16.4531 16.2361C16.4531 17.006 16.1953 17.5927 15.8271 18.1548C15.5264 18.6193 15.0908 18.6498 14.6367 18.5398C14.1887 18.4298 13.9678 18.0693 13.9003 17.6232C13.7959 16.9327 14.1335 16.34 14.4035 15.7533C14.6244 15.2645 15.0601 14.9712 15.6553 15.1667C16.2076 15.35 16.4837 15.7289 16.4469 16.2361H16.4531Z" fill="#432A1B"/>
<path d="M18.9324 18.7965C18.9569 17.5866 19.8344 16.6333 20.7856 16.6516C21.2581 16.6638 21.5036 16.8411 21.5833 17.3177C21.7306 18.1426 21.3563 19.1081 20.6199 19.6031C20.2701 19.8414 19.8958 20.0858 19.4417 19.8536C18.9631 19.6153 18.8894 19.1753 18.9324 18.7965Z" fill="#432A1B"/>
<path d="M5.79956 27.999C5.60933 28.5673 5.44978 29.2028 4.74408 29.2823C4.33907 29.3311 4.05679 28.9156 4.13657 28.5734C4.26544 28.0051 4.50476 27.3757 5.17364 27.278C5.52956 27.223 5.77502 27.5896 5.79956 27.999Z" fill="#262122"/>
<path d="M2.28338 27.0033C2.27725 27.7182 2.17293 28.2254 1.51018 28.2743C1.04994 28.311 0.84744 27.8649 0.890395 27.5655C0.95176 27.1133 0.97017 26.4961 1.6636 26.4289C2.21588 26.3739 2.30793 26.7405 2.28952 27.0033H2.28338Z" fill="#242021"/>
<path d="M30.2354 84.9753C30.1924 85.1769 30.0574 85.1586 29.9102 85.1036C29.9347 84.8469 30.0513 84.8347 30.2354 84.9753Z" fill="#C52C35"/>
<path d="M56.6046 71.6414C55.3957 71.4397 54.1807 71.2381 52.9718 71.0303C52.6956 70.9814 52.4133 70.9387 52.1679 70.8042C51.9224 70.6698 51.7076 70.4437 51.6708 70.1687C51.6463 69.9609 51.7199 69.7532 51.7997 69.5576C52.0758 68.8794 52.4808 68.2072 53.1313 67.8711" stroke="white" stroke-width="0.25" stroke-miterlimit="10"/>
</g>
<defs>
<clipPath id="clip0_2097_2599">
<rect width="195" height="142" fill="white"/>
</clipPath>
</defs>
</svg>
