<svg width="327" height="317" viewBox="0 0 327 317" fill="none" xmlns="http://www.w3.org/2000/svg">
<g style="mix-blend-mode:hard-light">
<g clip-path="url(#clip0_2088_320)">
<path d="M116.418 2.01904H117.764L118.213 2.69198L117.091 3.58923L113.278 5.38373L109.464 7.62685L105.651 10.3186L102.511 13.0103L99.819 15.7021L96.9029 19.5154L94.2112 24.0016L91.2951 30.0581L89.2763 36.1145L88.3791 40.6008L87.9304 43.5168V52.4893L88.8277 58.0971L90.1736 63.2563L91.9681 68.1912L94.8841 74.2476L97.1272 77.388L98.9217 79.4068L102.062 81.8742L104.978 83.6687L109.24 85.6875L114.175 87.2577L117.54 88.3793L120.456 89.9495L122.923 91.9683L126.064 95.1087L126.512 95.333V95.7816L127.409 96.2302V96.6788L128.307 97.1275L134.812 103.633H149.392L164.197 103.408L270.521 102.735L270.969 102.96L271.194 109.913L273.437 110.586L278.82 113.054L284.204 115.97L289.587 119.559L293.176 122.25L296.092 124.718L298.335 126.737L301.476 129.653L303.046 131.447L305.513 134.139L308.429 137.952L310.448 140.644L313.364 145.13L316.28 150.289L318.972 155.897L321.664 162.851L323.683 169.58L325.253 176.983L326.599 185.731V200.087L325.253 208.611L323.458 216.686L321.215 223.415L318.748 229.247L316.953 232.836L314.262 237.771L311.57 241.809L309.327 244.949L306.859 248.09L304.616 250.557L303.046 252.352L297.887 257.511L295.419 259.53L292.728 261.773L288.69 264.689L283.755 267.829L278.372 270.745L273.212 273.213L267.156 275.456L261.324 277.25L256.389 278.372H254.594V277.699L259.529 275.007L263.118 272.988L265.81 271.194L268.726 268.951L271.418 266.483L273.885 264.016L276.353 260.875L278.596 257.511L281.063 252.8L283.082 247.417L284.204 243.155L285.101 237.771L285.325 235.304V229.023L284.652 223.415L283.531 218.256L281.512 212.2L279.717 208.386L277.25 204.349L274.783 201.657L273.661 200.535L271.642 198.741L268.502 196.722L264.24 194.703L255.716 191.787L252.127 189.768L249.211 187.077L247.641 185.731H228.35L204.573 185.955L41.2735 187.301L8.52387 187.525H0.672937L0.448625 187.077V181.918L0.224312 159.711L0 157.019V104.978L17.4964 104.754L46.4327 104.53V88.155L46.8813 81.8742L47.7785 74.9205L48.9001 69.0884L50.246 63.7049L51.5918 59.2187L53.835 53.3866L55.6295 49.3489L58.3212 44.1898L61.6859 38.8063L65.7235 33.4228L67.7423 30.9553L70.4341 27.815L75.1446 23.1044L76.9391 21.5342L79.8552 19.0668L84.1171 15.9264L87.4818 13.6833L92.8653 10.5429L98.2488 7.85116L104.305 5.38373L111.035 3.1406L114.848 2.24336L116.418 2.01904ZM4.03762 108.792L3.81331 109.016L3.589 117.764V147.822L4.03762 180.572L4.26193 183.488L4.93487 183.263L4.71056 178.777L4.48625 163.075V109.016L4.03762 108.792Z" fill="#BC222D"/>
<path d="M141.093 0H323.683V0.448625L324.132 0L325.478 0.224312L325.029 1.12156L322.337 3.589L319.87 5.60781L316.73 8.29956L314.262 10.3184L308.43 15.2532L306.187 17.0477L303.271 19.5152L301.028 21.3097L297.214 24.45L294.298 26.9175L292.055 28.712L289.139 31.1794L285.999 33.6469L282.858 36.3386L280.391 38.3574L276.578 41.4978L274.11 43.5166L271.194 45.984L268.727 48.0028L264.913 51.1432L261.997 53.6106L259.754 55.4051L256.838 57.8726L254.595 59.6671L251.679 62.1345L249.436 63.929L246.52 66.3965L244.052 68.4153L240.912 70.6584L238.445 71.7799L235.753 72.4529H149.841L148.047 71.3313L147.374 69.5368L147.598 61.013L144.458 63.0318L143.785 63.7047H143.336V64.1533L141.542 65.7235L130.102 77.1634L129.877 77.6121H129.429L128.98 78.5093L124.045 83.4442L122.475 84.3414H120.681L118.662 83.4442L115.073 81.2011L112.157 78.7336L109.465 76.2662L107.446 74.0231L104.979 70.6584L102.96 67.2937L101.165 63.4804L100.044 60.5643L98.698 55.6295L98.0251 51.3675L97.8008 48.9001V43.7409L98.4737 38.3574L99.5953 33.4225L101.39 28.4877L103.184 24.8987L104.979 21.7583L106.773 19.2909L108.568 17.0477L110.587 14.8046L113.727 11.6642L117.54 8.74818L121.802 6.05643L125.391 4.26193L128.756 2.91606L133.242 1.57019L139.747 0.224312L141.093 0Z" fill="#BC212D"/>
<path d="M250.78 195.825H252.574L254.817 196.722L258.182 198.965L260.425 200.76L262.668 202.778L265.36 205.47L267.603 208.386L270.07 212.2L272.538 217.359L274.108 222.069L275.005 225.883L275.678 231.939V236.65L275.005 242.257L273.884 246.968L272.089 251.903L269.846 256.389L267.827 259.529L265.584 262.445L261.547 266.932L258.406 269.623L255.041 272.091L251.228 274.334L247.415 276.129L242.031 277.923L235.975 279.269L232.162 279.942H51.3659L48.8984 278.82L49.3471 277.923L52.4874 275.231L54.9549 273.212L58.0952 270.521L63.0301 266.483L65.9462 264.016L68.1893 262.221L72.0026 259.081L74.9187 256.613L78.059 254.146L81.1994 251.454L84.3398 248.987L87.4802 246.295L94.8825 240.239L102.509 233.958L104.977 231.939L108.79 228.799L111.257 226.78L115.071 223.639L118.66 220.723L121.127 218.705L124.716 215.789L128.529 212.648L131.67 210.181L134.361 208.611L137.502 207.713L197.618 207.489H221.395L224.311 207.713L225.432 208.386L225.881 209.732V219.153L227.451 218.256L230.816 215.116L246.069 199.862L247.639 198.068L249.434 196.498L250.78 195.825Z" fill="#BC212D"/>
<path d="M265.585 106.772H267.155L267.38 106.997L267.604 120.456L268.052 168.234V181.02L267.828 181.244L264.688 181.468L242.257 181.693L170.252 182.366H155.896V181.917L157.691 180.571L159.261 178.552L169.355 162.402L171.823 158.364L175.187 152.981L175.411 152.756L180.571 152.532L186.627 151.635L193.356 150.513L193.805 150.738L194.702 155.448L195.6 159.71L196.721 163.075L198.516 164.196L198.964 164.421L202.105 164.869H203.675L204.123 164.421V162.178L203.451 159.037L202.778 157.018L202.105 152.981L201.88 150.738L203.226 149.616L203.451 147.822L203.226 146.251L201.656 145.13V129.877L202.553 120.904L203.899 112.156L203.675 110.81L202.553 109.24H201.432L200.983 110.137L198.964 112.38L196.497 115.521L193.805 118.885L191.562 121.801L185.281 129.877L180.795 135.709L178.776 138.401L175.636 142.438L174.29 144.233H168.009L166.663 144.681L164.196 146.7L162.626 148.495L162.401 149.392V151.186L163.523 152.308L164.42 152.532H169.579L168.009 155.224L165.766 158.589L163.299 162.178L159.71 167.337L157.242 170.926L152.756 177.655L152.307 178.552V179.45L152.756 179.898L151.41 182.366H138.624L138.4 180.347V171.374L145.129 170.029L150.513 168.234L154.775 165.991L157.691 163.972L159.934 161.953L160.383 161.28V159.934L160.158 159.037V157.916L158.588 158.589L154.775 160.607L151.186 161.953L145.802 163.075H142.213L136.605 161.953L136.83 161.505H138.176V124.493L140.419 124.045L142.662 123.82H146.251L151.186 124.493L155.896 125.839L157.691 126.512H159.261L160.383 125.39L161.056 123.596V121.801L160.383 119.558L159.261 118.212L157.915 117.539L154.999 117.091H147.821L143.335 117.764L138.849 118.885H137.951V108.118L138.176 107.894L151.859 107.67L230.368 106.997L265.585 106.772Z" fill="#231F21"/>
<path d="M271.418 109.913L274.559 111.035L280.615 113.951L284.877 116.418L289.588 119.559L293.177 122.25L296.093 124.718L298.336 126.737L301.476 129.653L303.046 131.447L305.514 134.139L308.43 137.952L310.449 140.644L313.365 145.13L316.281 150.289L318.973 155.897L321.664 162.851L323.683 169.58L325.253 176.982L326.599 185.731V200.087L325.253 208.611L323.459 216.686L321.216 223.415L318.748 229.247L316.954 232.836L314.262 237.771L311.57 241.809L309.327 244.949L306.86 248.089L304.617 250.557L303.046 252.351L297.887 257.511L295.42 259.529L292.728 261.773L288.69 264.689L283.756 267.829L278.372 270.745L273.213 273.212L267.156 275.456L261.324 277.25L256.389 278.372H254.595V277.699L259.53 275.007L263.119 272.988L265.811 271.194L268.727 268.951L271.418 266.483L273.886 264.016L276.353 260.875L278.596 257.511L281.064 252.8L283.083 247.417L284.204 243.155L285.101 237.771L285.326 235.304V229.023L284.653 223.415L283.531 218.256L281.512 212.2L279.718 208.386L277.25 204.349L274.783 201.657L273.661 200.535L271.643 198.741L268.502 196.722L264.24 194.703L255.716 191.787L252.127 189.768L249.211 187.077L248.09 185.731L248.987 185.506L261.997 185.282L270.521 185.058L271.418 184.833L271.194 158.589V111.708L271.418 109.913Z" fill="white"/>
<path d="M78.7334 108.343H98.0243L98.4729 108.567V109.016L97.3513 109.913L94.8839 113.053L92.6408 115.969L89.0518 120.68L86.1357 124.718L83.444 128.307L77.6119 136.382L74.4715 140.644L71.1068 145.354L69.9852 145.579L67.5178 145.354H64.3774L63.2559 146.027L61.0127 148.046L60.1155 148.943H59.6669L59.2182 150.289L59.4426 151.859L60.1155 152.532L61.4614 152.981H66.8449L66.3962 154.327L63.2559 159.486L61.6857 161.953L58.7696 166.44L55.1806 172.047L52.9375 175.412L49.5728 180.796L48.4512 182.814L48.2269 183.039L33.8709 183.263L32.3008 183.487L15.4773 183.712H4.48603L4.71034 183.263L4.48603 178.777L4.26172 163.075V108.791L21.0851 108.567L78.7334 108.343Z" fill="#FDFCFA"/>
<path d="M135.034 107.894H137.277L137.95 108.118V118.885L143.334 117.539L147.82 116.867H154.998L157.914 117.315L159.484 118.212L160.606 119.558L161.279 121.801V123.596L160.381 125.839L159.26 126.736H157.69L152.979 125.166L148.493 124.269L146.25 124.045H142.661L138.175 124.493L138.399 145.803V161.505L138.175 161.729H136.829L136.604 161.953L138.847 162.178L142.212 162.851H145.801L151.185 161.729L153.876 160.832L158.138 158.589L159.933 157.691L160.381 157.916V159.486L160.606 159.935V161.28L159.036 163.075L156.568 165.094L152.306 167.561L148.717 169.131L144.231 170.477L138.847 171.374H138.399L138.623 182.141L138.175 182.366L117.313 182.59L105.649 182.814L79.629 183.039H53.1602L53.6088 182.141L54.7303 181.02L56.3005 179.001L58.3193 175.636L61.4597 170.477L64.3758 165.767L66.1703 162.851L67.7405 160.383L70.4322 155.897L72.0024 153.429L72.6753 152.981L78.7318 152.757L88.8258 150.962H90.396L90.8446 151.635L91.9662 158.589L92.8634 161.953L93.7607 163.972L96.0038 165.094L98.6956 165.542H100.041L100.939 164.645L100.714 162.626L99.3685 157.916L98.6956 153.654V150.738L99.8171 150.065H100.266V148.27L100.041 147.597L98.6956 146.7L98.2469 145.354V131.447L98.6956 125.39L99.3685 119.11L100.49 111.483L100.041 109.464L99.5928 109.016V108.343L113.052 108.118L135.034 107.894Z" fill="#FDFCFA"/>
<path d="M116.419 2.01904H117.765L118.214 2.69198L117.092 3.58923L113.279 5.38373L109.465 7.62685L105.652 10.3186L102.512 13.0103L99.8199 15.7021L96.9039 19.5154L94.2121 24.0017L91.2961 30.0581L89.2772 36.1145L88.38 40.6008L87.9314 43.5168V52.4893L88.8286 58.0971L90.1745 63.2563L91.969 68.1912L94.8851 74.2476L97.1282 77.388L98.9227 79.4068L102.063 81.8742L104.979 83.6687L109.241 85.6875L114.176 87.2577L117.541 88.3793L120.457 89.9495L122.924 91.9683L126.064 95.1087L126.513 95.333V95.7816L127.41 96.2302V96.6788L128.308 97.1275L134.364 103.184V103.633L133.691 103.857L125.616 104.305L103.633 104.53L70.2107 104.754H59.668L46.8822 104.53L46.6579 103.857L46.4336 100.492V88.155L46.8822 81.8742L47.7795 74.9206L48.901 69.0884L50.2469 63.7049L51.5928 59.2187L53.8359 53.3866L55.6304 49.3489L58.3221 44.1898L61.6868 38.8063L65.7245 33.4228L67.7433 30.9553L70.435 27.815L75.1456 23.1044L76.9401 21.5342L79.8561 19.0668L84.1181 15.9264L87.4827 13.6833L92.8662 10.5429L98.2497 7.85116L104.306 5.38373L111.036 3.1406L114.849 2.24336L116.419 2.01904Z" fill="white"/>
<path d="M255.942 107.67H262.671L264.017 108.567L264.914 109.689L265.139 110.362V112.156L264.017 114.399L261.101 118.213L258.858 121.577L257.961 122.25L256.615 122.026L255.942 121.577L255.717 120.904L255.493 117.54L251.68 117.988L246.521 119.11L239.118 121.129L231.267 123.82L227.005 125.839L224.538 127.634L223.416 128.531L222.519 129.877L222.295 130.55V132.12L222.968 133.242L224.762 134.139L227.678 134.363H249.661L253.026 134.812L256.615 135.485L259.979 136.831L261.325 137.728L262.895 139.074L264.017 140.868L264.69 143.784V146.476L264.017 149.392L262.671 151.859L260.652 154.103L258.409 155.897L254.82 158.589L251.455 161.505L248.764 163.748L245.848 165.543L242.034 167.337L235.305 169.804L226.108 172.945L218.257 175.188L210.182 177.207L204.35 178.328L202.78 178.553H198.293L197.172 177.207L197.396 175.861L197.845 174.964H197.396L197.172 174.066L198.518 172.272L200.761 170.253L202.555 168.683L203.228 168.234L204.798 165.094L205.696 163.972L207.49 162.402L211.528 159.262L213.322 158.365H214.444L214.668 159.486L214.893 161.729L212.649 164.87V165.094L216.911 164.421L225.884 162.626L229.921 161.729L233.735 160.832L238.221 159.486L242.932 158.14L247.418 156.346L251.231 154.551L253.474 152.981L254.82 151.859L255.493 150.962V149.168L254.596 147.822L251.904 146.476L249.437 145.803L247.418 145.579H231.267L228.351 145.13L225.66 144.233L223.641 142.438L222.071 140.42L220.5 139.522L217.36 139.074L215.79 137.728L215.341 136.382V133.69L216.238 130.998L218.033 127.858L220.949 124.493L223.641 122.026L227.454 119.334L230.594 117.315L236.651 114.175L240.913 112.156L246.296 110.137L251.68 108.567L255.942 107.67Z" fill="#EDC27E"/>
<path d="M147.822 116.867H155L157.916 117.315L159.486 118.213L160.608 119.558L161.281 121.802V123.596L160.384 125.839L159.262 126.736H157.692L152.981 125.166L148.495 124.269L146.252 124.045H142.663L138.177 124.493L138.401 145.803V161.505L138.177 161.729H136.831L136.606 161.953L138.85 162.178L142.214 162.851H145.803L151.187 161.729L153.878 160.832L158.14 158.589L159.935 157.692L160.384 157.916V159.486L160.608 159.935V161.281L159.038 163.075L156.57 165.094L152.308 167.561L148.719 169.131L144.233 170.477L138.85 171.375H138.401L138.177 172.048V171.375L133.466 170.926L129.428 170.029L126.512 168.907L123.372 167.113L120.905 165.094L118.886 163.075L116.867 160.159L115.297 157.019L114.399 154.103L113.727 150.065V146.252L114.399 142.663L116.194 139.074L117.316 137.055L119.334 132.793L121.577 129.653L123.596 127.409L126.064 124.942L130.101 122.026L132.344 120.68L135.261 119.11L137.279 118.886L138.85 118.661L144.457 117.315L147.822 116.867Z" fill="#FDFCF9"/>
<path d="M201.879 109.016L202.776 109.24L203.898 110.81L204.122 112.156L202.552 122.699L201.879 129.877V145.13L203.449 146.251L203.673 148.943L203 150.065L202.103 150.738L202.776 155.897L203.449 158.589L204.122 160.607L204.346 162.178V164.421L203.673 165.094H202.103L198.963 164.645L196.944 163.524L196.271 162.402L195.149 159.037L193.804 151.411L193.355 150.738L185.28 152.084L180.569 152.757L175.41 152.981L169.578 162.402L166.213 167.785L163.297 172.496L160.605 176.758L158.362 180.123L156.343 181.917L155.895 182.141H151.633L152.081 180.796L152.53 179.898L152.081 179.45L152.306 178.104L154.549 174.515L157.016 170.926L160.605 165.767L165.54 158.589L168.456 154.102L169.353 152.757H164.419L162.848 152.084L162.175 151.186V149.392L162.848 147.822L164.867 145.803L166.886 144.233L169.353 144.008H174.288L177.653 139.522L180.12 136.382L183.037 132.568L185.28 129.652L188.42 125.615L190.663 122.699L198.065 113.278L200.533 110.361L201.43 109.24L201.879 109.016Z" fill="#EDC27E"/>
<path d="M43.0652 112.605L44.1867 113.054L45.084 115.072L45.5326 117.091V120.456L44.6353 123.148L42.8408 126.288L41.2707 128.531L38.8032 131.896L35.8872 135.933L32.7468 140.42L27.8119 147.822L25.3445 151.635L21.5312 158.14L20.1853 160.608L23.55 158.589L26.6904 157.019L30.055 156.122H34.317L38.5789 157.243L42.3922 159.038L45.9812 161.056L48.8973 161.954L50.4675 162.402L51.1404 164.197L51.3647 165.318V169.132L50.4675 171.375L49.5702 172.721L48.2243 173.618L46.2055 173.169L42.3922 171.151L39.4762 169.356L33.8684 166.44L30.5037 165.318L27.8119 164.87H24.8959L21.5312 165.543L17.9422 167.337L15.2504 169.805L13.4559 172.048L11.8857 174.515L10.0912 176.983L8.96969 178.104H7.62381L6.95087 177.431L6.72656 176.31L7.3995 174.067L10.3156 167.562L12.1101 163.973L14.8018 158.365L23.1014 141.766L23.3257 140.195L22.6527 138.177V136.606L23.9986 134.139L26.2417 130.999L27.8119 128.98L30.5037 125.391L32.9711 122.026L36.1115 117.764L37.0087 116.643H37.4573L37.906 115.745L39.9248 113.951L41.9436 112.829L43.0652 112.605Z" fill="#BC212D"/>
<path d="M134.812 119.334H135.933L135.709 124.269L133.242 125.166L130.999 126.288L128.531 128.082L125.839 130.774L123.821 134.139L122.923 136.382L122.25 139.073L122.026 140.644V144.681L122.475 147.597L123.596 151.186L125.166 154.102L127.185 156.794L129.653 159.262L132.569 161.28L136.158 163.075V171.15L133.466 170.926L129.428 170.029L126.512 168.907L123.372 167.113L120.905 165.094L118.886 163.075L116.867 160.159L115.297 157.018L114.399 154.102L113.727 150.065V146.251L114.399 142.662L116.194 139.073L117.316 137.055L119.334 132.793L121.577 129.652L123.596 127.409L126.064 124.942L130.101 122.026L132.344 120.68L134.812 119.334Z" fill="#BC212D"/>
<path d="M147.821 116.867H154.999L157.915 117.315L159.485 118.213L160.607 119.558L161.28 121.802V123.596L160.382 125.839L159.261 126.736H157.691L152.98 125.166L148.494 124.269L146.251 124.045H142.662L138.176 124.493L137.951 124.942V124.493L136.605 125.166H135.708V124.493L135.035 124.269H135.708V120.007L135.932 119.334L135.259 119.11L137.278 118.886L138.848 118.661L144.456 117.315L147.821 116.867Z" fill="#ECC17D"/>
<path d="M92.194 122.475H92.4184V124.045L91.0725 132.12L90.6239 135.485L90.3996 139.074L90.1752 146.476H83.2216L76.4922 146.027L76.7165 144.906L78.7353 141.99L80.9784 138.625L82.5486 136.382L84.5674 133.466L86.3619 130.774L89.0537 126.961L91.2968 123.596L92.194 122.475Z" fill="#FCFAF5"/>
<path d="M195.376 123.147H195.6L195.376 124.942L194.254 131.447L193.581 137.728L193.133 145.13H185.506L179.898 144.681L181.244 142.887L184.385 138.401L186.852 134.812L189.768 130.774L192.011 127.634L194.927 123.596L195.376 123.147Z" fill="#281F21"/>
<path d="M159.933 159.262L160.606 159.935V161.281L159.036 163.075L156.569 165.094L152.307 167.561L148.718 169.131L144.231 170.477L138.848 171.375H138.399L138.175 172.048V171.375L136.156 171.15V163.075L138.175 163.972L142.886 164.645H145.129L149.615 163.972L155.223 161.953L159.036 159.935L159.933 159.262Z" fill="#EDC27E"/>
<path d="M255.266 151.187H255.715L255.491 152.532L253.921 154.327L251.902 155.897L248.313 157.692L245.172 159.037L237.77 161.505L229.471 163.748L221.62 165.543L211.301 167.561H210.18V166.664L212.198 165.318L213.769 164.87L216.909 164.421L225.882 162.626L229.919 161.729L233.732 160.832L238.219 159.486L242.929 158.14L247.416 156.346L251.229 154.551L253.472 152.981L254.818 151.859L255.266 151.187Z" fill="#FDFBF7"/>
<path d="M213.322 158.365H214.444L214.668 159.486L213.995 160.159L210.855 161.729L208.612 163.524L206.144 165.543L204.574 167.337L203.677 169.58L201.658 171.823L199.191 174.067L198.069 174.74L197.172 174.515L197.62 173.394L199.191 171.599L202.107 169.132L203.228 168.234L204.798 165.094L205.696 163.973L207.49 162.402L211.528 159.262L213.322 158.365Z" fill="#FCFAF5"/>
<path d="M169.13 152.981H169.578L169.13 154.327L167.784 156.794L166.438 158.813L164.195 162.402L159.26 169.804L155.447 175.637L153.652 178.553L152.979 179.45H152.082L152.306 178.104L154.549 174.515L157.017 170.926L160.606 165.767L165.541 158.589L168.457 154.103L169.13 152.981Z" fill="#FCF8F2"/>
<path d="M182.815 133.017V133.69L181.245 135.709L179.001 138.849L176.758 141.765L174.964 144.233L174.515 145.13L174.067 145.354H167.562L165.991 146.027L162.851 149.168H162.402L162.627 148.046L164.87 145.803L166.889 144.233L169.356 144.008H174.291L177.656 139.522L182.59 133.241L182.815 133.017Z" fill="#FCFAF4"/>
<path d="M223.191 133.69L224.313 133.914L224.762 134.139L227.678 134.363H249.66L253.025 134.812L256.614 135.484L259.979 136.83L261.325 137.728L262.895 139.073L263.568 139.971L263.343 140.644L262.446 139.522V139.073L261.549 138.625L259.979 137.503L257.063 136.382L253.249 135.484L246.744 134.812H238.445L234.856 135.036H226.107L223.416 134.139L223.191 133.69Z" fill="#FAF1E2"/>
<path d="M180.348 144.457L185.507 144.906L191.115 145.13L193.583 145.354V146.252L192.91 146.476L187.077 146.252L179.451 145.803L179.227 145.354L179.899 144.681L180.348 144.457Z" fill="#FDFCF8"/>
<path d="M223.191 133.69L224.313 133.914L224.762 134.139L227.678 134.363L235.529 134.587L234.856 135.036H226.107L223.416 134.139L223.191 133.69Z" fill="#FEFEFD"/>
<path d="M182.815 133.017V133.69L181.245 135.709L179.001 138.849L176.758 141.765L175.637 142.887V142.214L180.123 136.382L182.59 133.241L182.815 133.017Z" fill="#FAF0E1"/>
<path d="M178.33 139.074V139.747L176.087 142.663L175.414 142.887L175.863 141.99L177.657 139.522L178.33 139.074Z" fill="#FAF2E3"/>
<path d="M259.977 137.055L261.098 137.503L262.893 139.073L263.566 139.971L263.341 140.644L262.444 139.522V139.073L261.547 138.625L259.977 137.503V137.055Z" fill="#F9EEDB"/>
<path d="M223.191 133.69L224.313 133.914L224.762 134.139L227.678 134.363V134.587L225.21 134.812L223.191 133.914V133.69Z" fill="#F7E8CE"/>
</g>
<path d="M56.3248 315.832V298.838H49.9766V296.564H65.2491V298.838H58.8746V315.832H56.3248Z" fill="white"/>
<path d="M71.9942 315.832V296.564H74.544V304.476H84.5592V296.564H87.109V315.832H84.5592V306.75H74.544V315.832H71.9942Z" fill="white"/>
<path d="M95.4576 315.832V296.564H109.39V298.838H98.0074V304.739H108.667V307H98.0074V313.558H109.836V315.832H95.4576Z" fill="white"/>
<path d="M128.058 309.641L130.464 309.431C130.577 310.395 130.84 311.188 131.252 311.81C131.673 312.423 132.321 312.923 133.197 313.308C134.074 313.685 135.059 313.874 136.155 313.874C137.127 313.874 137.986 313.729 138.731 313.44C139.475 313.151 140.027 312.756 140.387 312.257C140.755 311.749 140.939 311.197 140.939 310.601C140.939 309.996 140.763 309.471 140.413 309.024C140.063 308.568 139.484 308.187 138.678 307.88C138.161 307.679 137.018 307.368 135.248 306.947C133.478 306.518 132.238 306.115 131.528 305.738C130.608 305.256 129.92 304.66 129.465 303.95C129.018 303.232 128.794 302.43 128.794 301.545C128.794 300.573 129.07 299.666 129.622 298.825C130.174 297.975 130.98 297.331 132.041 296.892C133.101 296.454 134.279 296.235 135.576 296.235C137.004 296.235 138.262 296.468 139.348 296.932C140.444 297.388 141.285 298.062 141.872 298.956C142.459 299.85 142.774 300.862 142.818 301.992L140.374 302.176C140.242 300.958 139.795 300.038 139.033 299.416C138.279 298.794 137.162 298.483 135.681 298.483C134.139 298.483 133.013 298.768 132.304 299.337C131.603 299.898 131.252 300.577 131.252 301.374C131.252 302.067 131.502 302.636 132.001 303.083C132.492 303.53 133.771 303.99 135.839 304.463C137.916 304.927 139.34 305.335 140.111 305.685C141.232 306.202 142.06 306.859 142.595 307.657C143.129 308.445 143.397 309.357 143.397 310.391C143.397 311.416 143.103 312.384 142.516 313.295C141.929 314.198 141.083 314.903 139.979 315.411C138.884 315.911 137.649 316.161 136.273 316.161C134.529 316.161 133.066 315.906 131.883 315.398C130.709 314.89 129.784 314.128 129.11 313.111C128.444 312.086 128.093 310.93 128.058 309.641Z" fill="white"/>
<path d="M155.82 315.832V298.838H149.471V296.564H164.744V298.838H158.369V315.832H155.82Z" fill="white"/>
<path d="M184.054 296.564H186.604V307.696C186.604 309.633 186.385 311.17 185.947 312.31C185.509 313.449 184.716 314.377 183.568 315.096C182.429 315.806 180.93 316.161 179.073 316.161C177.268 316.161 175.791 315.849 174.643 315.227C173.496 314.605 172.676 313.707 172.186 312.533C171.695 311.35 171.45 309.738 171.45 307.696V296.564H173.999V307.683C173.999 309.357 174.153 310.592 174.459 311.39C174.775 312.178 175.309 312.787 176.063 313.216C176.825 313.646 177.754 313.86 178.849 313.86C180.724 313.86 182.061 313.436 182.858 312.586C183.655 311.736 184.054 310.101 184.054 307.683V296.564Z" fill="white"/>
<path d="M194.9 315.832V296.564H201.537C203.036 296.564 204.179 296.656 204.968 296.84C206.072 297.094 207.014 297.554 207.793 298.22C208.81 299.079 209.568 300.178 210.067 301.519C210.575 302.851 210.83 304.375 210.83 306.093C210.83 307.556 210.659 308.853 210.317 309.983C209.975 311.114 209.537 312.051 209.003 312.796C208.468 313.532 207.881 314.115 207.241 314.544C206.611 314.965 205.844 315.284 204.941 315.503C204.048 315.722 203.018 315.832 201.853 315.832H194.9ZM197.45 313.558H201.564C202.834 313.558 203.829 313.44 204.547 313.203C205.274 312.967 205.853 312.634 206.282 312.204C206.887 311.6 207.355 310.789 207.688 309.773C208.03 308.748 208.201 307.508 208.201 306.053C208.201 304.038 207.868 302.492 207.202 301.414C206.545 300.327 205.743 299.6 204.797 299.232C204.113 298.969 203.014 298.838 201.498 298.838H197.45V313.558Z" fill="white"/>
<path d="M218.823 315.832V296.564H221.373V315.832H218.823Z" fill="white"/>
<path d="M229.143 306.448C229.143 303.249 230.002 300.748 231.72 298.943C233.437 297.129 235.654 296.222 238.37 296.222C240.149 296.222 241.752 296.647 243.18 297.497C244.609 298.347 245.695 299.534 246.44 301.059C247.194 302.575 247.57 304.297 247.57 306.224C247.57 308.178 247.176 309.926 246.387 311.468C245.599 313.011 244.482 314.18 243.036 314.978C241.59 315.766 240.03 316.161 238.357 316.161C236.543 316.161 234.922 315.722 233.494 314.846C232.066 313.97 230.983 312.774 230.247 311.258C229.511 309.742 229.143 308.139 229.143 306.448ZM231.772 306.487C231.772 308.809 232.394 310.64 233.638 311.981C234.891 313.313 236.46 313.979 238.344 313.979C240.263 313.979 241.84 313.304 243.075 311.955C244.32 310.605 244.942 308.691 244.942 306.211C244.942 304.643 244.674 303.276 244.14 302.11C243.614 300.936 242.839 300.029 241.814 299.39C240.797 298.741 239.654 298.417 238.383 298.417C236.578 298.417 235.023 299.039 233.717 300.283C232.42 301.519 231.772 303.587 231.772 306.487Z" fill="white"/>
</g>
<defs>
<clipPath id="clip0_2088_320">
<rect width="326.599" height="279.942" fill="white"/>
</clipPath>
</defs>
</svg>
