<svg width="106" height="80" viewBox="0 0 106 80" fill="none" xmlns="http://www.w3.org/2000/svg">
<g clip-path="url(#clip0_2177_793)">
<path d="M55.3209 53.1488H0.0219801C-0.000188206 53.0601 -0.0112724 37.9745 0.0164381 37.8249C0.0441485 37.8249 0.0718589 37.8138 0.105111 37.8138C0.15499 37.8138 0.199327 37.8138 0.249206 37.8138C8.38499 37.8138 16.5208 37.8138 24.6621 37.8138C29.0071 37.8138 33.3521 37.8138 37.6971 37.8138C38.1127 37.8138 38.5284 37.8027 38.9385 37.8027C39.0493 37.8027 39.1602 37.8138 39.2655 37.8138C39.3431 37.8138 39.4207 37.8027 39.4982 37.8027C41.8038 37.8027 44.1093 37.8027 46.4092 37.8083C46.9745 37.8083 47.5398 37.8083 48.0996 37.8083C48.2658 37.8083 48.4321 37.8027 48.5984 37.8027C48.7868 37.8027 48.9752 37.8083 49.1636 37.8083C51.1477 37.8083 53.1318 37.8083 55.1158 37.8083C55.1768 37.8083 55.2322 37.8083 55.3043 37.8083C55.3043 37.8748 55.3154 37.9247 55.3154 37.9801C55.3154 39.3878 55.3154 40.7955 55.3154 42.2087C55.3154 45.7944 55.3154 49.3802 55.3154 52.9714C55.3154 53.0268 55.3154 53.0823 55.3154 53.1488H55.3209ZM19.8737 38.3292C19.8737 38.3292 19.8571 38.3071 19.8516 38.3071C19.8405 38.3071 19.8294 38.3015 19.8183 38.3015C13.4006 38.3015 6.98838 38.3015 0.570647 38.3015C0.55402 38.3015 0.537394 38.3015 0.52631 38.3071C0.52631 38.3071 0.520768 38.3071 0.515226 38.3071C0.515226 38.3071 0.509684 38.3071 0.493057 38.3292V38.4789C0.493057 42.5911 0.493057 46.7033 0.493057 50.8156C0.493057 50.8433 0.493057 50.871 0.493057 50.8987C0.493057 50.9208 0.504142 50.9375 0.515226 50.9763C0.548478 50.9209 0.570647 50.8821 0.592815 50.8488C0.914256 50.2891 1.22461 49.7182 1.55714 49.164C2.32749 47.8727 3.10892 46.5869 3.91807 45.3233C4.0012 45.1903 4.0677 45.0462 4.13975 44.9077C4.19517 44.8079 4.18409 44.7026 4.14529 44.5973C4.1065 44.492 4.07324 44.3867 4.02891 44.287C3.94578 44.0875 3.97349 43.899 4.10096 43.7272C4.173 43.6275 4.23951 43.5277 4.32264 43.4335C4.66071 43.0566 5.00431 42.6909 5.34238 42.314C5.74695 41.8651 6.15707 41.4106 6.5561 40.9506C6.92742 40.5184 7.2932 40.0861 7.72548 39.7092C8.01367 39.4543 8.33511 39.2548 8.71751 39.1827C9.03895 39.1217 9.12763 39.1384 9.27726 39.4764C9.35485 39.6427 9.39919 39.8256 9.44907 40.0029C9.54328 40.3632 9.48786 40.7123 9.33823 41.0504C9.17751 41.4051 8.95028 41.7099 8.70089 42.0036C8.058 42.7463 7.41512 43.4889 6.77778 44.2371C5.97972 45.1682 5.20937 46.1269 4.47782 47.1079C4.1065 47.6067 3.74626 48.1166 3.41374 48.6486C3.39157 48.6818 3.35832 48.7096 3.3694 48.7705C3.40819 48.7484 3.44145 48.7373 3.46916 48.7206C3.65205 48.6209 3.83493 48.5156 4.02337 48.4269C4.41685 48.2274 4.82697 48.0611 5.25925 47.9669C5.79683 47.845 6.3455 47.8228 6.89417 47.9004C7.33753 47.9614 7.75873 48.111 8.17439 48.2717C8.49583 48.3937 8.80064 48.5544 9.10546 48.7151C9.23847 48.7871 9.37148 48.8537 9.50449 48.9202C9.77051 49.0532 10.0587 49.0753 10.3469 49.0864C10.4688 49.0864 10.5464 49.1474 10.6018 49.2471C10.6794 49.3802 10.7127 49.5242 10.7515 49.6683C10.8678 50.145 10.8069 50.5939 10.5298 51.004C10.4633 51.0982 10.3857 51.1924 10.297 51.27C10.1252 51.4252 9.92014 51.4473 9.70955 51.3698C9.51557 51.2977 9.3216 51.2201 9.13317 51.1259C8.64546 50.8821 8.1633 50.6271 7.68114 50.3777C7.27657 50.1671 6.85537 49.9842 6.41755 49.8457C5.70262 49.6185 4.9766 49.5132 4.22288 49.6018C3.66867 49.6683 3.1588 49.8623 2.69327 50.1671C2.2499 50.4553 1.88412 50.8322 1.55714 51.2478C1.40196 51.4473 1.25232 51.6524 1.0916 51.8464C1.00293 51.9517 0.903172 52.0459 0.808956 52.1456C0.725825 52.2288 0.620525 52.251 0.515226 52.2731C0.509684 52.2897 0.504142 52.3008 0.504142 52.3119C0.504142 52.3784 0.504142 52.4449 0.504142 52.5114C0.504142 52.6666 0.504142 52.6666 0.664862 52.6666C3.65205 52.6666 6.63923 52.6666 9.62641 52.6666C9.72617 52.6666 9.78159 52.6334 9.83701 52.5558C11.0507 50.8211 12.2423 49.0643 13.3839 47.2852C13.4061 47.252 13.4227 47.2187 13.4505 47.1633C13.3396 47.1633 13.2509 47.1633 13.1623 47.1633C12.8796 47.1633 12.6025 47.1633 12.3199 47.1633C12.1869 47.1633 12.0649 47.1245 11.943 47.0691C11.6659 46.925 11.6049 46.6091 11.81 46.3763C11.8543 46.3209 11.9042 46.271 11.9596 46.2267C12.1702 46.0383 12.3864 45.8498 12.597 45.6614C12.6801 45.5838 12.7799 45.5284 12.8907 45.5173C13.0182 45.5007 13.1512 45.4951 13.2786 45.5007C13.5779 45.5173 13.8772 45.5395 14.1765 45.5672C14.2707 45.5783 14.3261 45.5395 14.3815 45.4674C15.1962 44.3923 16.0164 43.3171 16.8311 42.2419C17.7179 41.0726 18.6101 39.9087 19.5357 38.7671C19.652 38.623 19.7684 38.4789 19.8848 38.3292H19.8737ZM18.6101 46.7809C18.4272 46.7698 18.2554 46.7698 18.0892 46.792C17.6901 46.8585 17.2967 46.9305 16.9032 47.0081C16.4487 47.0968 15.9887 47.1744 15.5177 47.1689C15.2627 47.1689 15.0133 47.1689 14.7584 47.1578C14.6309 47.1522 14.5589 47.191 14.4924 47.3019C13.8606 48.2939 13.2232 49.2804 12.5914 50.2724C12.1093 51.0261 11.6216 51.7799 11.1394 52.5336C11.1172 52.5724 11.0951 52.6112 11.0674 52.6666H25.8592C25.8592 52.6167 25.8647 52.5779 25.8647 52.5336C25.8647 51.9794 25.8647 51.4307 25.8647 50.8765C25.8647 50.7324 25.8647 50.749 25.7428 50.6992C24.8561 50.3777 24.1356 49.8346 23.5814 49.0753C23.138 48.4602 22.8609 47.7729 22.7279 47.0303C22.6614 46.6534 22.6392 46.271 22.6503 45.8886C22.6669 45.2236 22.8277 44.6084 23.2267 44.0708C23.2821 43.9932 23.3209 43.9101 23.3597 43.8214C23.4262 43.6663 23.4761 43.5 23.5481 43.3504C23.7366 42.9347 23.9582 42.5412 24.2353 42.1754C24.457 41.8762 24.7009 41.5935 24.978 41.3497C25.244 41.1169 25.5211 40.8952 25.7982 40.6735C25.8536 40.6292 25.8813 40.5904 25.8813 40.5184C25.8813 39.8256 25.8813 39.1273 25.8813 38.4345C25.8813 38.4013 25.8813 38.368 25.8758 38.3237H20.8491C20.8436 38.4345 20.8436 38.5343 20.827 38.634C20.7882 38.8834 20.7328 39.1328 20.6995 39.3822C20.6053 40.014 20.5111 40.6458 20.4335 41.2776C20.3781 41.7376 20.3393 42.1976 20.3226 42.6576C20.2949 43.3116 20.2949 43.9655 20.2894 44.6195C20.2894 45.0019 20.306 45.3843 20.3116 45.7667C20.3116 45.8443 20.3393 45.8886 20.4169 45.9108C20.4778 45.9274 20.5332 45.9607 20.5831 45.9939C20.8214 46.1491 20.7882 46.4539 20.6275 46.598C20.572 46.6479 20.5055 46.6867 20.439 46.7144C20.3781 46.7421 20.3503 46.7754 20.3559 46.8363C20.3614 46.8973 20.3559 46.9638 20.3614 47.0248C20.3836 47.7563 20.5111 48.4657 20.7826 49.1474C20.8159 49.225 20.8436 49.3026 20.8658 49.3801C20.9101 49.5353 20.8768 49.6739 20.766 49.7847C20.6496 49.8956 20.5111 49.9344 20.3503 49.8789C20.3116 49.8679 20.2783 49.8512 20.2395 49.8346C20.1397 49.7958 20.0455 49.7847 19.9402 49.8013C19.8737 49.8124 19.7961 49.8013 19.7352 49.7792C19.6022 49.7238 19.4692 49.6573 19.3472 49.5852C19.2586 49.5353 19.1921 49.4522 19.1533 49.3524C19.0923 49.1917 19.0258 49.031 18.9759 48.8647C18.8429 48.3881 18.7598 47.9004 18.6933 47.4127C18.6656 47.2077 18.6434 46.9971 18.6157 46.7754L18.6101 46.7809ZM42.7958 50.1062C42.7958 50.1062 42.7847 50.0895 42.7792 50.0785C42.7958 50.0507 42.8069 50.023 42.829 50.0064C42.9399 49.8956 43.0507 49.7847 43.1671 49.6739C43.3334 49.5187 43.5052 49.3635 43.6659 49.2028C43.7712 49.103 43.8543 48.9922 43.9153 48.8592C43.9818 48.7096 43.9153 48.5765 43.7601 48.5433C43.7102 48.5322 43.6548 48.5322 43.6105 48.5488C43.4941 48.5987 43.3777 48.6486 43.2724 48.7151C42.7847 49.0144 42.3413 49.3802 41.9035 49.7459C41.6929 49.9233 41.5488 50.1339 41.4657 50.3944C41.4214 50.5274 41.3493 50.6437 41.244 50.738C41.1442 50.8211 41.0445 50.9042 40.9392 50.9874C40.7341 51.1481 40.5235 51.2977 40.324 51.4695C40.2243 51.5526 40.1356 51.6635 40.0635 51.7743C39.9693 51.924 40.0192 52.0847 40.1578 52.19C40.2353 52.2454 40.324 52.2676 40.4182 52.2897C40.6455 52.3341 40.8727 52.3064 41.0999 52.2842C41.6098 52.2288 42.1141 52.1457 42.6184 52.057C43.5939 51.8796 44.5582 51.669 45.517 51.4141C47.0299 51.0095 48.5263 50.5495 50.0005 50.023C50.3386 49.9011 50.6711 49.7626 50.987 49.5908C51.2918 49.4189 51.5745 49.225 51.8405 48.9977C52.2617 48.6431 52.6884 48.2884 53.1484 47.9835C53.4588 47.7785 53.7747 47.5679 54.0684 47.3407C54.3621 47.119 54.5838 46.8308 54.7445 46.4983C54.7667 46.4595 54.7722 46.4096 54.7722 46.3597C54.7722 45.8886 54.7722 45.412 54.7722 44.9409C54.7722 44.8966 54.7612 44.8467 54.739 44.8079C54.6226 44.5918 54.4619 44.4089 54.2624 44.2593C53.9188 44.0154 53.5419 43.8547 53.1373 43.7549C52.6607 43.6385 52.1841 43.5554 51.6908 43.5111C51.0757 43.4612 50.4605 43.4335 49.8453 43.428C49.5904 43.428 49.3299 43.4279 49.075 43.439C48.6593 43.4501 48.2492 43.4667 47.8335 43.4834C47.3569 43.5055 46.8803 43.5222 46.4037 43.4501C46.1765 43.4169 45.9548 43.3614 45.7608 43.234C45.5447 43.0954 45.4449 42.8405 45.5114 42.5966C45.5502 42.447 45.6223 42.314 45.7276 42.1921C45.9104 41.9815 46.1321 41.8152 46.3704 41.6711C46.9191 41.3441 47.5121 41.1169 48.1217 40.9229C48.6427 40.7567 49.1637 40.6126 49.6901 40.474C50.5325 40.2523 51.3805 40.0362 52.2395 39.9032C52.4058 39.881 52.5776 39.8755 52.7438 39.8588C52.899 39.8478 53.0487 39.9641 53.0542 40.1193C53.0542 40.1803 53.0597 40.2468 53.0542 40.3078C53.0431 40.4186 53.0486 40.5294 53.0985 40.6292C53.1817 40.8065 53.3368 40.8786 53.5197 40.8065C53.5918 40.7788 53.6583 40.7234 53.7192 40.6625C53.7691 40.6126 53.8024 40.5461 53.8412 40.4906C53.9409 40.3355 54.0351 40.1747 54.146 40.0251C54.3233 39.7979 54.5173 39.5817 54.7057 39.3656C54.7501 39.3157 54.7722 39.2603 54.7722 39.1938C54.7722 38.9555 54.7722 38.7116 54.7722 38.4733C54.7722 38.4512 54.7722 38.4345 54.7722 38.4124C54.7722 38.368 54.7445 38.3403 54.7002 38.3348C54.678 38.3348 54.6503 38.3348 54.6281 38.3348C53.5142 38.3348 52.4002 38.3348 51.2918 38.3348C51.2364 38.3348 51.1754 38.3459 51.12 38.3625C50.4494 38.5675 49.7844 38.8059 49.1415 39.083C48.7092 39.2658 48.2769 39.4543 47.8613 39.6649C47.307 39.942 46.775 40.2634 46.2651 40.6181C45.6777 41.0282 45.1512 41.4938 44.7078 42.0591C44.5194 42.3029 44.3587 42.5634 44.2423 42.8516C44.1314 43.1398 44.0594 43.439 44.1259 43.7549C44.1758 44.0099 44.342 44.1761 44.6025 44.2094C44.7134 44.226 44.8297 44.2316 44.9461 44.2371C45.19 44.2482 45.4006 44.3202 45.5668 44.5087C45.6777 44.6306 45.783 44.7581 45.8994 44.88C45.988 44.9797 46.0767 45.0795 46.182 45.1626C46.3649 45.3123 46.5866 45.3843 46.8138 45.4397C47.235 45.5395 47.6617 45.5783 48.094 45.5783C48.5596 45.5783 49.0251 45.5506 49.4906 45.5395C50.0504 45.5284 50.6101 45.5173 51.1699 45.5783C51.5301 45.6171 51.8904 45.6836 52.234 45.7944C52.4723 45.872 52.6829 46.005 52.8547 46.1935C53.0154 46.3763 53.0874 46.7089 52.9378 46.9638C52.838 47.1301 52.705 47.2742 52.5499 47.3905C52.2728 47.6067 51.9679 47.784 51.6465 47.9337C50.8762 48.2994 50.0725 48.5544 49.2579 48.7982C48.3102 49.0753 47.3403 49.2915 46.3704 49.491C45.2454 49.7238 44.1093 49.9122 42.9731 50.084C42.9122 50.0951 42.8512 50.0951 42.7902 50.1062H42.7958ZM30.6586 52.6334C30.7307 52.6334 30.7695 52.6389 30.8083 52.6389C31.1297 52.6389 31.4567 52.6389 31.7781 52.6389C31.8779 52.6389 31.9333 52.6056 31.9887 52.5225C32.6039 51.5637 33.2191 50.6105 33.8342 49.6573C34.3441 48.8592 34.8595 48.0667 35.3694 47.2686C35.4248 47.1799 35.4913 47.1411 35.6022 47.1411C35.8294 47.1522 36.0511 47.1411 36.2783 47.1467C36.7161 47.1522 37.1539 47.1079 37.5807 47.0248C38.0241 46.9416 38.473 46.853 38.9163 46.7754C39.0604 46.7477 39.2156 46.7477 39.3652 46.7421C39.4595 46.7421 39.4872 46.7643 39.5038 46.853C39.5093 46.8751 39.5149 46.8973 39.5149 46.925C39.5703 47.5069 39.6701 48.0833 39.8031 48.6486C39.8585 48.8814 39.925 49.1141 40.0247 49.3358C40.0691 49.4411 40.1356 49.5298 40.2353 49.5852C40.3517 49.6517 40.4737 49.7071 40.5956 49.7626C40.6732 49.8013 40.7563 49.8069 40.8394 49.7847C40.9281 49.7626 41.0112 49.7847 41.0944 49.8124C41.1498 49.8346 41.2052 49.8568 41.2606 49.8734C41.4768 49.9233 41.6818 49.7847 41.7262 49.563C41.7428 49.4633 41.7262 49.3746 41.6874 49.2859C41.6153 49.092 41.5377 48.898 41.4768 48.6985C41.3493 48.2773 41.2606 47.8394 41.2329 47.3961C41.2218 47.2021 41.2218 47.0081 41.2163 46.8142C41.2163 46.7532 41.2385 46.7089 41.2994 46.6867C41.3493 46.6645 41.3936 46.6424 41.438 46.6147C41.632 46.4927 41.6652 46.2156 41.5045 46.0494C41.438 45.9829 41.3659 45.933 41.2773 45.9108C41.1997 45.8886 41.1609 45.8443 41.1609 45.7612C41.1609 45.412 41.1443 45.0684 41.1387 44.7193C41.1332 43.9711 41.1387 43.2284 41.183 42.4858C41.2108 42.0369 41.2385 41.588 41.2883 41.1391C41.3604 40.4463 41.4712 39.7646 41.5987 39.0774C41.632 38.8834 41.6652 38.6895 41.6929 38.4955C41.7151 38.3459 41.6929 38.3292 41.5488 38.3292C41.3659 38.3292 41.1775 38.3292 40.9946 38.3292C40.7674 38.3292 40.7674 38.3292 40.6288 38.501C40.0525 39.2215 39.4761 39.942 38.9108 40.6735C38.0074 41.8429 37.1152 43.0178 36.2229 44.1872C35.8904 44.6195 35.5634 45.0518 35.2364 45.4896C35.181 45.5617 35.12 45.5894 35.0313 45.5727C34.987 45.5672 34.9371 45.5617 34.8928 45.5617C34.6212 45.5395 34.3497 45.5229 34.0781 45.4951C33.8176 45.4674 33.5904 45.5339 33.3964 45.7224C33.2412 45.8776 33.0694 46.0161 32.9032 46.1657C32.8256 46.2378 32.7425 46.3098 32.6704 46.3874C32.6372 46.4207 32.6094 46.4706 32.5928 46.5149C32.5097 46.7698 32.6094 46.9804 32.8644 47.0746C33.0306 47.1356 33.2024 47.1578 33.3742 47.1522C33.6458 47.1522 33.9174 47.1412 34.1889 47.1356C34.2277 47.1356 34.261 47.1467 34.3219 47.1578C33.147 49.0144 31.9056 50.7989 30.6642 52.6223L30.6586 52.6334ZM25.9146 41.5547C25.97 41.5215 26.0033 41.4938 26.0421 41.4716C26.1972 41.3829 26.3469 41.2887 26.5021 41.2056C27.1117 40.9063 27.7657 40.7622 28.4418 40.7234C28.9184 40.6957 29.395 40.7234 29.8661 40.8176C30.1986 40.8841 30.5256 40.9728 30.8415 41.1058C31.0189 41.1834 31.1962 41.2555 31.3791 41.3275C31.5564 41.394 31.7061 41.3441 31.828 41.2167C31.8723 41.1723 31.9056 41.1169 31.9278 41.0559C31.9887 40.9118 32.0275 40.7567 32.022 40.5959C32.022 40.4408 32.022 40.28 31.9998 40.1249C31.9499 39.7369 31.756 39.4709 31.3625 39.3656C31.0909 39.2936 30.8193 39.2769 30.5422 39.2548C30.2541 39.2381 29.9659 39.2271 29.6777 39.2548C29.4172 39.2825 29.1567 39.2991 28.9018 39.3434C28.137 39.4764 27.4054 39.7258 26.7237 40.1027C26.4744 40.2413 26.236 40.3909 25.9922 40.535C25.9257 40.5738 25.898 40.6181 25.898 40.6957C25.898 40.9396 25.898 41.1834 25.898 41.4273C25.898 41.455 25.9035 41.4882 25.9091 41.5436L25.9146 41.5547ZM25.8703 48.5045C25.8703 48.4657 25.8813 48.4435 25.8813 48.4269C25.8813 46.1657 25.8813 43.9046 25.8813 41.6434C25.8813 41.6434 25.8813 41.6379 25.8758 41.6323C25.8758 41.6323 25.8703 41.6323 25.8592 41.6268C25.8481 41.6323 25.8259 41.6434 25.8148 41.6545C25.6042 41.8152 25.4103 41.9981 25.2385 42.1976C25.0611 42.4027 24.8949 42.6243 24.7674 42.8627C24.4737 43.4224 24.324 44.021 24.2741 44.6528C24.2464 45.0462 24.2741 45.4397 24.3462 45.8277C24.4349 46.2988 24.5845 46.7532 24.8062 47.1799C25.0611 47.6676 25.4103 48.0833 25.8093 48.4546C25.8204 48.4657 25.8426 48.4768 25.8703 48.499V48.5045ZM15.4733 45.6503C15.9832 45.6891 16.4875 45.7279 16.9918 45.7723C17.4962 45.8166 17.995 45.8332 18.5048 45.8221C18.5104 45.3788 18.5048 44.952 18.527 44.5197C18.5492 44.0875 18.5769 43.6552 18.6323 43.2229C18.6822 42.7962 18.7542 42.3694 18.8374 41.9482C18.9149 41.5215 19.0202 41.1058 19.1089 40.6735C18.9482 40.7844 15.6063 45.3621 15.4733 45.6503ZM25.9091 48.5765C25.9091 48.6375 25.9035 48.6763 25.9035 48.7206C25.9035 49.1252 25.9035 49.5353 25.9035 49.9399C25.9035 50.1671 25.9035 50.3888 25.9035 50.616C25.9035 50.7158 25.9091 50.7269 25.9977 50.749C26.3912 50.8543 26.7903 50.9264 27.2004 50.9319C27.5329 50.9375 27.8599 50.9153 28.1869 50.8599C28.8131 50.7601 29.4006 50.5606 29.9714 50.2946C30.3981 50.0951 30.7916 49.8346 31.163 49.552C31.3458 49.4134 31.5121 49.2527 31.6784 49.0975C31.7837 48.9977 31.8557 48.8758 31.8945 48.7373C31.9222 48.6431 31.8945 48.5599 31.8335 48.5156C31.756 48.4602 31.6839 48.4823 31.6174 48.5322C31.5121 48.6043 31.4068 48.6708 31.3015 48.7428C30.8803 49.0255 30.4314 49.2527 29.9437 49.3968C29.2897 49.5963 28.6191 49.6351 27.943 49.5187C27.2225 49.3912 26.5741 49.0975 25.9977 48.6431C25.9756 48.6264 25.9479 48.6098 25.9035 48.5821L25.9091 48.5765Z" fill="#BE171A"/>
<path d="M25.8809 38.335H54.4392C54.6332 38.335 54.7939 38.4957 54.7939 38.6897V52.6557H25.8809V38.335Z" fill="#1D1F1C"/>
<path d="M42.7959 50.1064C42.8569 50.1008 42.9179 50.0953 42.9788 50.0842C44.1149 49.9124 45.2511 49.7239 46.3761 49.4912C47.346 49.2917 48.3103 49.0811 49.2635 48.7984C50.0782 48.5601 50.8818 48.2996 51.6522 47.9339C51.9681 47.7842 52.2729 47.6069 52.5555 47.3907C52.7052 47.2743 52.8437 47.1302 52.9435 46.964C53.0987 46.7091 53.0211 46.371 52.8604 46.1936C52.6886 46.0052 52.4835 45.8722 52.2396 45.7946C51.896 45.6838 51.5358 45.6173 51.1756 45.5785C50.6158 45.5175 50.0561 45.5286 49.4963 45.5397C49.0308 45.5452 48.5652 45.5785 48.0997 45.5785C47.6674 45.5785 47.2407 45.5397 46.8195 45.4399C46.5923 45.3845 46.3706 45.3124 46.1877 45.1628C46.0824 45.0797 45.9993 44.9744 45.905 44.8802C45.7942 44.7582 45.6834 44.6308 45.5725 44.5088C45.4063 44.3204 45.1901 44.2484 44.9518 44.2373C44.8354 44.2373 44.7246 44.2262 44.6082 44.2096C44.3477 44.1763 44.1815 44.0101 44.1316 43.7551C44.0706 43.4392 44.1371 43.1455 44.248 42.8518C44.3588 42.5636 44.5195 42.2976 44.7135 42.0592C45.1569 41.494 45.6834 41.0229 46.2708 40.6183C46.7807 40.2636 47.3127 39.9477 47.8669 39.6651C48.2881 39.4545 48.7149 39.266 49.1472 39.0831C49.7956 38.806 50.4551 38.5733 51.1257 38.3627C51.1811 38.346 51.2421 38.335 51.2975 38.335C52.4114 38.335 53.5254 38.335 54.6338 38.335C54.656 38.335 54.6837 38.335 54.7059 38.335C54.7502 38.335 54.7779 38.3627 54.7779 38.4125C54.7779 38.4347 54.7779 38.4513 54.7779 38.4735C54.7779 38.7118 54.7779 38.9557 54.7779 39.194C54.7779 39.2605 54.7558 39.3104 54.7114 39.3658C54.523 39.5819 54.329 39.7981 54.1517 40.0253C54.0353 40.1694 53.9466 40.3357 53.8469 40.4908C53.8081 40.5518 53.7748 40.6183 53.7249 40.6626C53.6695 40.7181 53.603 40.7735 53.5254 40.8067C53.3425 40.8788 53.1873 40.8067 53.1042 40.6294C53.0543 40.5241 53.0488 40.4188 53.0599 40.3079C53.0654 40.247 53.0599 40.1805 53.0599 40.1195C53.0543 39.9643 52.9047 39.848 52.7495 39.859C52.5833 39.8701 52.4114 39.8757 52.2452 39.9034C51.3806 40.0308 50.5382 40.247 49.6958 40.4742C49.1693 40.6128 48.6428 40.7624 48.1274 40.9231C47.5233 41.1115 46.9248 41.3388 46.3761 41.6713C46.1378 41.8154 45.9161 41.9817 45.7332 42.1923C45.6279 42.3086 45.5559 42.4472 45.5171 42.5968C45.4506 42.8462 45.5503 43.0956 45.7665 43.2342C45.9605 43.3616 46.1877 43.4115 46.4094 43.4503C46.886 43.5224 47.3626 43.5113 47.8392 43.4836C48.2549 43.4614 48.665 43.4503 49.0807 43.4392C49.3356 43.4337 49.5961 43.4226 49.851 43.4281C50.4662 43.4392 51.0813 43.4614 51.6965 43.5113C52.1842 43.5501 52.6664 43.6387 53.143 43.7551C53.5476 43.8549 53.93 44.0101 54.268 44.2595C54.4676 44.4035 54.6283 44.5864 54.7447 44.8081C54.7668 44.8469 54.7779 44.8968 54.7779 44.9411C54.7779 45.4122 54.7779 45.8888 54.7779 46.3599C54.7779 46.4042 54.7668 46.4541 54.7502 46.4985C54.5895 46.831 54.3678 47.1192 54.0741 47.3408C53.7748 47.5681 53.4644 47.7731 53.1541 47.9837C52.6941 48.2885 52.2674 48.6377 51.8462 48.9979C51.5801 49.2252 51.2975 49.4191 50.9927 49.5909C50.6768 49.7683 50.3498 49.9013 50.0062 50.0232C48.532 50.5497 47.0356 51.0097 45.5226 51.4143C44.5639 51.6692 43.5995 51.8798 42.6241 52.0572C42.1198 52.1514 41.6155 52.2345 41.1056 52.2844C40.8784 52.3066 40.6511 52.3343 40.4239 52.2899C40.3297 52.2733 40.241 52.2511 40.1634 52.1902C40.0193 52.0849 39.975 51.9242 40.0692 51.7745C40.1413 51.6637 40.2299 51.5584 40.3297 51.4697C40.5292 51.3034 40.7398 51.1483 40.9449 50.9875C41.0446 50.91 41.1499 50.8268 41.2497 50.7382C41.355 50.6439 41.427 50.5275 41.4714 50.3945C41.5545 50.1341 41.7041 49.9235 41.9092 49.7461C42.347 49.3748 42.7848 49.0146 43.2781 48.7153C43.3834 48.6488 43.4998 48.5989 43.6162 48.549C43.6605 48.5324 43.7159 48.5324 43.7658 48.5435C43.921 48.5823 43.9875 48.7153 43.921 48.8594C43.8656 48.9924 43.7769 49.1032 43.6716 49.203C43.5053 49.3637 43.3391 49.5133 43.1728 49.6741C43.0564 49.7849 42.9456 49.8958 42.8347 50.0066C42.8126 50.0288 42.8015 50.0565 42.7848 50.0786C42.7848 50.0897 42.7959 50.0953 42.8015 50.1064H42.7959Z" fill="#C09249"/>
<path d="M30.6579 52.6329C31.9049 50.8151 33.1463 49.0305 34.3157 47.1684C34.2547 47.1573 34.2214 47.1462 34.1827 47.1462C33.9111 47.1462 33.6395 47.1573 33.368 47.1628C33.1906 47.1628 33.0188 47.1462 32.8581 47.0853C32.6032 46.991 32.5034 46.7804 32.5865 46.5255C32.6032 46.4812 32.6309 46.4313 32.6641 46.398C32.7362 46.3204 32.8138 46.2484 32.8969 46.1764C33.0632 46.0267 33.235 45.8882 33.3901 45.733C33.5841 45.5446 33.8058 45.478 34.0718 45.5058C34.3434 45.5335 34.6149 45.5501 34.8865 45.5723C34.9364 45.5723 34.9807 45.5778 35.025 45.5833C35.1137 45.6 35.1747 45.5723 35.2301 45.5002C35.5571 45.0624 35.8841 44.6301 36.2166 44.1978C37.1144 43.0229 38.0067 41.848 38.9045 40.6841C39.4698 39.9526 40.0462 39.2377 40.6226 38.5116C40.7611 38.3398 40.7611 38.3398 40.9883 38.3398C41.1712 38.3398 41.3597 38.3398 41.5425 38.3398C41.6922 38.3398 41.7088 38.3509 41.6866 38.5061C41.6589 38.7001 41.6312 38.8941 41.5924 39.088C41.465 39.7697 41.3541 40.4569 41.2821 41.1497C41.2377 41.5986 41.2045 42.0475 41.1768 42.4964C41.1324 43.239 41.1213 43.9872 41.1324 44.7299C41.1324 45.079 41.1491 45.4226 41.1546 45.7718C41.1546 45.8605 41.1934 45.9048 41.271 45.9214C41.3597 45.9436 41.4372 45.9935 41.4982 46.06C41.6589 46.2262 41.6312 46.4978 41.4317 46.6253C41.3874 46.653 41.343 46.6751 41.2931 46.6973C41.2322 46.7195 41.21 46.7638 41.21 46.8248C41.2156 47.0187 41.21 47.2127 41.2266 47.4067C41.2544 47.8501 41.343 48.2823 41.4705 48.7091C41.5315 48.9086 41.609 49.1026 41.6811 49.2965C41.7143 49.3852 41.7365 49.4739 41.7199 49.5736C41.6755 49.7953 41.476 49.9339 41.2544 49.884C41.1989 49.8729 41.1435 49.8452 41.0881 49.823C41.005 49.7898 40.9274 49.7676 40.8332 49.7953C40.75 49.8175 40.6669 49.812 40.5893 49.7732C40.4674 49.7177 40.3454 49.6623 40.2291 49.5958C40.1293 49.5404 40.0628 49.4517 40.0185 49.3464C39.9187 49.1247 39.8522 48.8975 39.7968 48.6592C39.6638 48.0884 39.564 47.5175 39.5086 46.9356C39.5086 46.9135 39.5031 46.8857 39.4975 46.8636C39.4753 46.7749 39.4476 46.7472 39.359 46.7527C39.2093 46.7583 39.0597 46.7583 38.91 46.786C38.4611 46.8636 38.0178 46.9522 37.5744 47.0354C37.1421 47.1185 36.7098 47.1628 36.272 47.1573C36.0448 47.1573 35.8231 47.1573 35.5959 47.1518C35.485 47.1518 35.4241 47.185 35.3631 47.2792C34.8532 48.0773 34.3378 48.8753 33.828 49.6679C33.2128 50.6211 32.5976 51.5799 31.9824 52.5331C31.927 52.6163 31.8716 52.6495 31.7718 52.6495C31.4504 52.6495 31.1234 52.6495 30.802 52.6495C30.7632 52.6495 30.7244 52.6495 30.6523 52.644L30.6579 52.6329ZM39.9908 40.6564L39.9575 40.6453C39.9575 40.6453 39.9076 40.6952 39.8855 40.7229C39.7524 40.9003 39.6139 41.0721 39.4809 41.2494C38.7216 42.2858 37.9624 43.3277 37.2086 44.3641C36.9315 44.7465 36.66 45.1344 36.3884 45.5224C36.3607 45.5667 36.3108 45.6055 36.3274 45.672C36.3441 45.672 36.3662 45.6831 36.3829 45.6886C36.5325 45.6997 36.6821 45.7053 36.8318 45.7164C36.9814 45.7274 37.131 45.733 37.2807 45.7441C37.652 45.7718 38.0178 45.8106 38.3891 45.8272C38.6884 45.8438 38.9876 45.8327 39.2869 45.8327C39.3811 45.8327 39.3978 45.8217 39.3978 45.7219C39.3978 45.5778 39.3978 45.4393 39.3978 45.2952C39.3978 45.0014 39.3978 44.7132 39.4088 44.4195C39.4255 44.0814 39.4587 43.7434 39.492 43.4053C39.5418 42.8733 39.625 42.3412 39.7358 41.8147C39.8079 41.4656 39.8965 41.122 39.9741 40.7784C39.9852 40.7396 39.9852 40.7008 39.9908 40.6564Z" fill="#C09249"/>
<path d="M25.9154 41.5548C25.9098 41.4994 25.9043 41.4717 25.9043 41.4384C25.9043 41.1945 25.9043 40.9507 25.9043 40.7068C25.9043 40.6293 25.932 40.5794 25.9985 40.5461C26.2424 40.402 26.4807 40.2469 26.7301 40.1138C27.4117 39.737 28.1433 39.4876 28.9081 39.3546C29.163 39.3102 29.4235 39.2936 29.684 39.2659C29.9722 39.2382 30.2604 39.2493 30.5486 39.2659C30.8257 39.2825 31.0972 39.2992 31.3688 39.3767C31.7623 39.482 31.9563 39.7536 32.0061 40.136C32.0283 40.2912 32.0283 40.4519 32.0283 40.6071C32.0283 40.7678 31.995 40.923 31.9341 41.0671C31.9119 41.1225 31.8787 41.1835 31.8343 41.2278C31.7069 41.3553 31.5572 41.4107 31.3854 41.3386C31.2081 41.2666 31.0252 41.1945 30.8478 41.117C30.5319 40.984 30.205 40.8953 29.8724 40.8288C29.4014 40.7401 28.9247 40.7068 28.4481 40.7346C27.772 40.7733 27.1236 40.9174 26.5084 41.2167C26.3477 41.2943 26.198 41.3941 26.0484 41.4827C26.0096 41.5049 25.9763 41.5271 25.9209 41.5659L25.9154 41.5548Z" fill="#C09249"/>
<path d="M25.9082 48.5761C25.9525 48.6038 25.9802 48.6149 26.0024 48.6371C26.5788 49.0915 27.2217 49.3853 27.9477 49.5127C28.6238 49.6347 29.2889 49.5903 29.9484 49.3908C30.4361 49.2467 30.885 49.0195 31.3062 48.7368C31.4115 48.6648 31.5168 48.5983 31.6221 48.5262C31.6941 48.4764 31.7662 48.4597 31.8382 48.5096C31.9047 48.5539 31.9269 48.6371 31.8992 48.7313C31.8604 48.8698 31.7884 48.9973 31.6831 49.0915C31.5168 49.2467 31.3505 49.4074 31.1676 49.546C30.7963 49.8342 30.4028 50.0891 29.9761 50.2886C29.4053 50.5546 28.8123 50.7542 28.1915 50.8539C27.8646 50.9093 27.532 50.9315 27.2051 50.926C26.7949 50.9204 26.3959 50.8484 26.0024 50.7431C25.9137 50.7209 25.9082 50.7098 25.9082 50.6101C25.9082 50.3828 25.9082 50.1611 25.9082 49.9339C25.9082 49.5294 25.9082 49.1192 25.9082 48.7147C25.9082 48.6703 25.9082 48.6315 25.9137 48.5706L25.9082 48.5761Z" fill="#C09249"/>
<path d="M39.9911 40.6566C39.9911 40.6954 39.9856 40.7397 39.9745 40.7785C39.8969 41.1221 39.8138 41.4713 39.7362 41.8149C39.6254 42.3414 39.5422 42.8679 39.4924 43.4055C39.4591 43.7435 39.4259 44.0816 39.4092 44.4197C39.3926 44.7134 39.3981 45.0016 39.3981 45.2953C39.3981 45.4394 39.3981 45.578 39.3981 45.7221C39.3981 45.8218 39.3815 45.8329 39.2873 45.8329C38.988 45.8329 38.6888 45.844 38.3895 45.8274C38.0182 45.8107 37.6524 45.7719 37.2811 45.7442C37.1314 45.7331 36.9818 45.7276 36.8322 45.7165C36.6825 45.7054 36.5329 45.6999 36.3832 45.6888C36.3666 45.6888 36.3445 45.6777 36.3278 45.6722C36.3112 45.6057 36.3555 45.5669 36.3888 45.5225C36.6604 45.1346 36.9319 44.7467 37.209 44.3643C37.9627 43.3223 38.722 42.286 39.4813 41.2496C39.6143 41.0723 39.7473 40.9004 39.8858 40.7231C39.908 40.6954 39.9302 40.6732 39.9579 40.6455L39.9911 40.6566Z" fill="#1D1F1C"/>
<path d="M105.078 79.8002C104.829 80.0219 104.596 79.9775 104.38 79.9775C101.797 79.9831 99.2145 79.9886 96.6319 79.9886C84.1234 79.9886 71.6149 79.9886 59.1064 79.9775C58.8792 79.9775 58.6353 80.044 58.3638 79.8334C58.5633 79.7392 58.7185 79.6616 58.8737 79.5896C59.9322 79.1129 60.9298 78.5255 61.8498 77.8161C63.4071 76.6135 64.6263 75.1226 65.5962 73.4157C66.3111 72.1687 66.7711 70.8331 67.0815 69.4365C67.4362 67.8403 67.5027 66.2331 67.3087 64.6149C67.1535 63.318 66.7988 62.071 66.2723 60.8795C65.1695 58.3634 64.061 55.8473 62.9582 53.3312C61.9495 51.0312 60.9519 48.7312 59.9377 46.4313C59.0676 44.4527 58.1864 42.4742 57.3163 40.4957C56.4739 38.5837 55.6371 36.6661 54.7891 34.7486C53.8913 32.7202 52.9935 30.6917 52.0957 28.6633C51.6357 27.627 51.6024 26.5906 52.068 25.5432C52.988 23.4649 53.9024 21.381 54.8224 19.3028C55.7257 17.2633 56.6236 15.2182 57.5269 13.1788C58.7129 10.513 59.9045 7.85282 61.0905 5.19262C61.7278 3.7683 62.3541 2.3329 62.9914 0.908585C63.1189 0.620396 63.2685 0.33775 63.4403 -0.00585938C63.5235 0.132693 63.5844 0.215824 63.6232 0.304497C64.643 2.67651 65.6627 5.04852 66.688 7.41499C67.6745 9.69279 68.6665 11.9706 69.6475 14.2484C70.4899 16.1937 71.3212 18.1445 72.1636 20.0897C73.0836 22.2179 74.0091 24.3405 74.9235 26.4631C76.0375 29.0513 77.1515 31.6394 78.2654 34.2276C79.1521 36.2782 80.0444 38.3232 80.9256 40.3738C81.8123 42.4243 82.688 44.4749 83.5747 46.5255C84.3174 48.2435 85.0656 49.956 85.8027 51.6685C86.6672 53.6637 87.5151 55.6699 88.3853 57.6651C89.4549 60.1202 90.4968 62.5865 91.6218 65.0194C92.5363 66.9979 93.7112 68.8324 95.0191 70.5781C95.9724 71.8584 97.0087 73.0555 98.1338 74.186C99.2311 75.2834 100.395 76.3031 101.631 77.2342C102.645 77.999 103.676 78.7416 104.696 79.4954C104.818 79.584 104.934 79.6727 105.078 79.7891V79.8002Z" fill="#BE171A"/>
<path d="M34.4668 65.3799C34.4668 65.5295 34.4668 65.6792 34.4668 65.8288C34.3725 68.2285 34.9101 70.4897 36.0296 72.5957C36.9829 74.3913 38.2963 75.9154 39.9811 77.0737C41.2226 77.9272 42.5083 78.7086 43.7719 79.5233C43.9326 79.6286 44.0878 79.7339 44.2485 79.8392C44.243 79.8724 44.2374 79.9057 44.2319 79.9389C44.0934 79.9556 43.9493 79.9888 43.8107 79.9888C43.2399 79.9944 42.669 79.9999 42.0927 79.9944C35.5197 79.9944 28.9468 79.9944 22.3739 79.9888C22.1799 79.9888 21.9804 79.9944 21.7865 79.9777C21.598 79.9611 21.4151 79.9112 21.127 79.8558C21.5426 79.5344 21.8696 79.2628 22.2077 79.0134C23.9312 77.7277 25.6493 76.4419 27.3784 75.1672C28.2208 74.5465 29.0411 73.8925 29.7726 73.1443C30.7923 72.1024 31.6902 70.9718 32.4273 69.7138C33.0424 68.6663 33.5689 67.5745 34.0178 66.444C34.1564 66.0948 34.2617 65.7346 34.3781 65.3799H34.4668Z" fill="#BE171A"/>
<path d="M0 37.8076V53.1481H55.3156V38.3341H55.3211V37.8076H0ZM54.7891 52.6216H0.526498V38.3286H54.7946V52.6216H54.7891Z" fill="#C09249"/>
<path d="M0.693359 62.6143V62.4037C0.98709 62.3704 1.20877 62.2596 1.35287 62.0711C1.49696 61.8827 1.7519 61.3728 2.10659 60.5304L4.48415 54.9385H4.71137L7.54892 61.4005C7.73735 61.8273 7.88699 62.0933 8.00337 62.1931C8.11975 62.2928 8.30819 62.3649 8.57421 62.3981V62.6087H5.67569V62.3981C6.00822 62.3704 6.22436 62.3316 6.31858 62.2873C6.41279 62.2429 6.46267 62.1432 6.46267 61.9769C6.46267 61.9215 6.44604 61.8217 6.40725 61.6832C6.36846 61.5446 6.31858 61.395 6.25207 61.2398L5.79762 60.1425H2.79381C2.50008 60.8907 2.32273 61.3451 2.26177 61.5059C2.20635 61.6721 2.1731 61.7996 2.1731 61.8938C2.1731 62.0878 2.25069 62.2208 2.40586 62.2928C2.50008 62.3372 2.68297 62.3704 2.94899 62.3926V62.6032H0.693359V62.6143ZM5.60365 59.688L4.29572 56.5512L2.98224 59.688H5.59811H5.60365Z" fill="white"/>
<path d="M13.6172 62.4038C14.0384 62.3594 14.3099 62.2874 14.4319 62.1821C14.5538 62.0768 14.6203 61.8108 14.6203 61.384V56.313C14.6203 55.9085 14.5593 55.6424 14.4374 55.5205C14.3155 55.3986 14.0439 55.321 13.6172 55.2878V55.0771H16.8316V55.2878C16.4104 55.3099 16.1333 55.3764 15.9892 55.4928C15.8451 55.6092 15.7731 55.853 15.7731 56.2354V61.711C15.7731 61.8385 15.7952 61.9383 15.8396 62.0103C15.8839 62.0823 15.9781 62.1267 16.1222 62.1489C16.2053 62.1599 16.2996 62.1655 16.3938 62.171C16.488 62.171 16.6653 62.1766 16.9258 62.1766C17.94 62.1766 18.6272 62.0934 18.9819 61.9272C19.3366 61.7609 19.6858 61.3342 20.0183 60.6469H20.3065L19.7467 62.6199H13.6172V62.4093V62.4038Z" fill="white"/>
<path d="M22.0859 62.4038C22.5071 62.3594 22.7787 62.2874 22.9006 62.1821C23.0226 62.0768 23.0891 61.8108 23.0891 61.384V56.313C23.0891 55.9085 23.0281 55.6424 22.9062 55.5205C22.7842 55.3986 22.5127 55.321 22.0859 55.2878V55.0771H28.1379L28.1767 56.7065H27.8885C27.7943 56.2022 27.6447 55.8808 27.4562 55.7311C27.2622 55.5815 26.8355 55.5094 26.1649 55.5094H24.6131C24.4469 55.5094 24.3416 55.5371 24.3028 55.5926C24.264 55.648 24.2418 55.7477 24.2418 55.8974V58.4412H25.9987C26.4864 58.4412 26.7967 58.3691 26.9297 58.2251C27.0627 58.081 27.168 57.7872 27.2512 57.3494H27.5172V59.9819H27.2512C27.168 59.5385 27.0572 59.2503 26.9242 59.1062C26.7912 58.9622 26.4808 58.8901 25.9987 58.8901H24.2418V61.711C24.2418 61.9383 24.3139 62.0713 24.458 62.1101C24.602 62.1489 25.0288 62.171 25.7437 62.171C26.5141 62.171 27.0849 62.0879 27.4562 61.9161C27.8275 61.7443 28.1545 61.3397 28.4483 60.6913H28.7642L28.2487 62.6144H22.0859V62.4038Z" fill="white"/>
<path d="M33.6412 55.0768V55.2708C33.3586 55.2708 33.1591 55.293 33.0593 55.3262C32.8764 55.3872 32.7877 55.5091 32.7877 55.692C32.7877 55.7862 32.821 55.9192 32.8875 56.0855C32.954 56.2573 33.0704 56.5344 33.2477 56.9279L35.0323 60.896L36.6506 56.6009C36.7226 56.4125 36.778 56.2518 36.8113 56.1187C36.8501 55.9857 36.8667 55.8804 36.8667 55.7973C36.8667 55.5756 36.7725 55.426 36.5841 55.3429C36.4732 55.2985 36.2903 55.2708 36.0354 55.2653V55.0713H38.3686V55.2653C38.1248 55.2985 37.9474 55.365 37.8366 55.4592C37.6648 55.6033 37.4874 55.8971 37.3212 56.3349L34.7995 62.7471H34.6277L31.8123 56.4845C31.574 55.9525 31.3856 55.62 31.2415 55.4925C31.0974 55.365 30.8923 55.2874 30.6152 55.2708V55.0768H33.6523H33.6412Z" fill="white"/>
<path d="M40.2852 62.4038C40.7064 62.3594 40.9779 62.2874 41.0998 62.1821C41.2218 62.0768 41.2883 61.8108 41.2883 61.384V56.313C41.2883 55.9085 41.2273 55.6424 41.1054 55.5205C40.9835 55.3986 40.7119 55.321 40.2852 55.2878V55.0771H46.3371L46.3759 56.7065H46.0877C45.9935 56.2022 45.8439 55.8808 45.6554 55.7311C45.4615 55.5815 45.0347 55.5094 44.3641 55.5094H42.8123C42.6461 55.5094 42.5408 55.5371 42.502 55.5926C42.4632 55.648 42.441 55.7477 42.441 55.8974V58.4412H44.1979C44.6856 58.4412 44.9959 58.3691 45.1289 58.2251C45.2619 58.081 45.3672 57.7872 45.4504 57.3494H45.7164V59.9819H45.4504C45.3672 59.5385 45.2564 59.2503 45.1234 59.1062C44.9904 58.9622 44.68 58.8901 44.1979 58.8901H42.441V61.711C42.441 61.9383 42.5131 62.0713 42.6572 62.1101C42.8013 62.1489 43.228 62.171 43.9429 62.171C44.7133 62.171 45.2841 62.0879 45.6554 61.9161C46.0268 61.7443 46.3537 61.3397 46.6475 60.6913H46.9634L46.448 62.6144H40.2852V62.4038Z" fill="white"/>
<path d="M48.7539 62.4038C49.1751 62.3594 49.4467 62.2874 49.5686 62.1821C49.6905 62.0768 49.757 61.8108 49.757 61.384V56.313C49.757 55.9085 49.6961 55.6424 49.5741 55.5205C49.4522 55.3986 49.1806 55.321 48.7539 55.2878V55.0771H51.9683V55.2878C51.5471 55.3099 51.27 55.3764 51.1259 55.4928C50.9818 55.6092 50.9098 55.853 50.9098 56.2354V61.711C50.9098 61.8385 50.9319 61.9383 50.9763 62.0103C51.0206 62.0823 51.1148 62.1267 51.2589 62.1489C51.3421 62.1599 51.4363 62.1655 51.5305 62.171C51.6247 62.171 51.8021 62.1766 52.0625 62.1766C53.0767 62.1766 53.764 62.0934 54.1186 61.9272C54.4733 61.7609 54.8225 61.3342 55.155 60.6469H55.4432L54.8835 62.6199H48.7539V62.4093V62.4038Z" fill="white"/>
</g>
<defs>
<clipPath id="clip0_2177_793">
<rect width="105.078" height="80" fill="white"/>
</clipPath>
</defs>
</svg>
