<svg width="195" height="69" viewBox="0 0 195 69" fill="none" xmlns="http://www.w3.org/2000/svg">
<g clip-path="url(#clip0_2184_999)">
<path d="M194.998 53.8734H0.889895C0.798721 53.5493 0.77846 0.617954 0.869634 0.0810432C0.970938 0.0709128 1.07224 0.0405216 1.17355 0.0405216C1.33563 0.0405216 1.50785 0.0405216 1.66994 0.0405216C30.2275 0.0405216 58.7952 0.0405216 87.3528 0.0405216C102.599 0.0405216 117.845 0.0405216 133.102 0.0405216C134.56 0.0405216 136.009 0.0101304 137.468 0C137.853 0 138.238 0.0405216 138.623 0.0405216C138.896 0.0405216 139.17 0.0101304 139.453 0.0101304C147.538 0.0101304 155.632 0.0303912 163.716 0.0405216C165.701 0.0405216 167.677 0.0405216 169.662 0.0405216C170.24 0.0405216 170.827 0.0101304 171.405 0.0101304C172.063 0.0101304 172.732 0.0303912 173.39 0.0303912C180.36 0.0303912 187.32 0.0303912 194.289 0.0303912C194.492 0.0303912 194.705 0.0303912 194.948 0.0303912C194.958 0.26339 194.988 0.445737 194.988 0.628085C194.988 5.57172 194.988 10.5154 194.988 15.459C194.988 28.0511 194.988 40.6431 194.988 53.2352C194.988 53.4277 194.988 53.6202 194.988 53.8633L194.998 53.8734ZM70.5668 1.86399C70.5161 1.81334 70.506 1.79308 70.4958 1.79308C70.4553 1.79308 70.4148 1.77282 70.3743 1.77282C47.8544 1.77282 25.3345 1.77282 2.81467 1.77282C2.76402 1.77282 2.70324 1.78295 2.65258 1.79308C2.64245 1.79308 2.62219 1.79308 2.61206 1.81334C2.60193 1.81334 2.5918 1.8336 2.53102 1.88425V2.41103C2.53102 16.8468 2.53102 31.2725 2.53102 45.7083C2.53102 45.8097 2.53102 45.9008 2.53102 46.0021C2.53102 46.073 2.57154 46.1338 2.61206 46.2655C2.7235 46.073 2.80454 45.9413 2.87545 45.8097C3.99993 43.8342 5.09401 41.8487 6.259 39.8935C8.96382 35.3652 11.699 30.8572 14.5558 26.4201C14.8496 25.9541 15.0724 25.4476 15.3358 24.9512C15.5182 24.5966 15.4878 24.2319 15.3561 23.8672C15.2244 23.5025 15.1028 23.1378 14.9509 22.7731C14.6672 22.064 14.7584 21.4157 15.194 20.8078C15.4371 20.4533 15.6904 20.0987 15.9741 19.7847C17.1593 18.4677 18.3648 17.171 19.5501 15.8541C20.9785 14.2737 22.4069 12.6934 23.8048 11.0725C25.1117 9.56309 26.3982 8.04353 27.8975 6.71645C28.9106 5.82498 30.0249 5.12598 31.3723 4.86259C32.5069 4.64985 32.8209 4.71063 33.3477 5.88576C33.6111 6.47332 33.7833 7.11154 33.9454 7.73962C34.2695 9.00592 34.0872 10.2317 33.5503 11.4271C32.9931 12.663 32.1928 13.7469 31.3216 14.76C29.0727 17.3736 26.8136 19.9873 24.5646 22.6009C21.7585 25.8629 19.0638 29.2262 16.4907 32.6908C15.1839 34.4433 13.9176 36.2364 12.7627 38.0903C12.6918 38.2017 12.5601 38.3132 12.6108 38.5158C12.7425 38.4449 12.8539 38.3942 12.9653 38.3334C13.6137 37.989 14.2519 37.6243 14.9002 37.29C16.2881 36.591 17.7266 36.0136 19.2462 35.6691C21.1406 35.2436 23.0552 35.1727 24.98 35.4463C26.5401 35.6691 28.0191 36.1756 29.4779 36.7429C30.6023 37.1786 31.6762 37.7256 32.7399 38.303C33.2059 38.5563 33.6719 38.7893 34.1379 39.0324C35.0699 39.4984 36.0728 39.5795 37.0858 39.6098C37.5113 39.6301 37.7848 39.8125 37.9874 40.167C38.2609 40.633 38.3825 41.1395 38.5041 41.6562C38.9093 43.3277 38.6965 44.908 37.724 46.3466C37.491 46.691 37.2175 47.005 36.9136 47.2887C36.3159 47.8357 35.5966 47.9066 34.8571 47.6432C34.1682 47.39 33.4895 47.1165 32.831 46.7923C31.119 45.9312 29.4272 45.0499 27.7354 44.1685C26.3071 43.429 24.8382 42.7908 23.2983 42.3045C20.786 41.5042 18.2331 41.1294 15.5992 41.4536C13.6542 41.6866 11.8712 42.3653 10.2301 43.429C8.67004 44.442 7.38348 45.759 6.24887 47.2178C5.70183 47.9168 5.17505 48.636 4.61788 49.3249C4.31397 49.6997 3.9594 50.034 3.6251 50.3785C3.34145 50.6722 2.9565 50.7432 2.5918 50.8242C2.57154 50.885 2.54115 50.9255 2.54115 50.9559C2.54115 51.1889 2.54115 51.4219 2.54115 51.665C2.54115 52.2121 2.54115 52.2121 3.09832 52.2121C13.5833 52.2121 24.0682 52.2121 34.5532 52.2121C34.8976 52.2121 35.1002 52.0905 35.2927 51.817C39.5576 45.7286 43.7313 39.5693 47.7531 33.3087C47.824 33.1973 47.8848 33.0757 47.9861 32.8833C47.6012 32.8833 47.2871 32.8833 46.9832 32.8833C46.0005 32.8833 45.0179 32.9035 44.0353 32.8833C43.5693 32.8833 43.1336 32.7516 42.7183 32.5388C41.7458 32.0424 41.5229 30.9281 42.2422 30.0974C42.4043 29.9049 42.5765 29.7327 42.769 29.5605C43.5085 28.902 44.2682 28.2435 45.0078 27.5851C45.3016 27.3217 45.6359 27.1191 46.0309 27.0684C46.4767 27.0178 46.9427 26.9874 47.3884 27.0178C48.442 27.0785 49.4854 27.1596 50.539 27.2508C50.8733 27.2812 51.0657 27.1596 51.2684 26.9063C54.1251 23.1277 57.0022 19.3592 59.8589 15.5907C62.9791 11.4879 66.0993 7.39519 69.341 3.39368C69.7462 2.88716 70.1514 2.38064 70.5668 1.86399ZM66.1398 31.5157C65.5016 31.4751 64.9039 31.465 64.3163 31.5663C62.9284 31.7892 61.5406 32.0526 60.1527 32.3362C58.5521 32.6604 56.9414 32.9238 55.3003 32.8934C54.4189 32.8731 53.5274 32.8934 52.6461 32.8529C52.2004 32.8326 51.9471 32.9744 51.7141 33.3493C49.4955 36.8341 47.2668 40.2987 45.028 43.7734C43.3261 46.4175 41.6343 49.0615 39.9324 51.7157C39.8514 51.8474 39.7805 51.9892 39.6792 52.1715H91.5975C91.5975 51.9993 91.6177 51.8575 91.6177 51.7055C91.6177 49.7706 91.6177 47.8256 91.6177 45.8907C91.6177 45.3842 91.638 45.445 91.1922 45.2727C88.0822 44.1483 85.5496 42.2438 83.6046 39.5592C82.0445 37.4014 81.0821 34.9904 80.606 32.3767C80.3628 31.0497 80.3021 29.7125 80.3325 28.3651C80.3932 26.0351 80.9504 23.8773 82.3585 21.9728C82.551 21.7094 82.6928 21.3954 82.8245 21.0915C83.0575 20.5444 83.2298 19.967 83.4729 19.4301C84.1314 17.9713 84.9215 16.5936 85.8738 15.3172C86.6538 14.2737 87.4946 13.2809 88.4773 12.4199C89.4194 11.5993 90.3919 10.8193 91.3543 10.0392C91.5367 9.88727 91.6481 9.74544 91.638 9.49218C91.638 7.05076 91.638 4.61946 91.638 2.17804C91.638 2.05647 91.6177 1.93491 91.6076 1.79308H73.9706C73.9503 2.17804 73.9503 2.54273 73.8997 2.88716C73.7578 3.75838 73.5755 4.62959 73.4438 5.5008C73.1196 7.71936 72.7752 9.93792 72.5118 12.1565C72.3193 13.7672 72.1876 15.3779 72.1268 16.9988C72.0357 19.2984 72.0255 21.598 72.0053 23.8976C72.0053 25.2449 72.0661 26.5822 72.0863 27.9295C72.0863 28.203 72.1775 28.3651 72.451 28.4462C72.6637 28.5069 72.8562 28.6285 73.0386 28.7501C73.8693 29.287 73.768 30.3709 73.2007 30.8673C73.0082 31.0395 72.7752 31.1814 72.5422 31.2827C72.3294 31.3738 72.2383 31.4853 72.2585 31.7183C72.2788 31.9411 72.2687 32.164 72.2788 32.3869C72.3598 34.9499 72.7954 37.4521 73.7477 39.8428C73.8591 40.1164 73.9604 40.3899 74.0415 40.6634C74.2036 41.2003 74.082 41.6866 73.6869 42.0715C73.2817 42.4666 72.7853 42.6084 72.2383 42.4058C72.1066 42.3552 71.9749 42.3045 71.8533 42.2539C71.5089 42.1222 71.1746 42.0715 70.7998 42.1424C70.5668 42.183 70.2932 42.1526 70.0704 42.0614C69.5942 41.8689 69.1485 41.6258 68.7028 41.3725C68.3786 41.1902 68.1557 40.9065 68.024 40.5621C67.8113 39.9948 67.5783 39.4275 67.4061 38.8399C66.9401 37.1684 66.6564 35.4665 66.4032 33.7444C66.3019 33.015 66.2208 32.2957 66.1296 31.5055L66.1398 31.5157ZM151.033 43.196C151.033 43.196 150.992 43.1251 150.982 43.0947C151.043 43.0035 151.083 42.9022 151.154 42.8313C151.549 42.4362 151.944 42.0513 152.339 41.6663C152.917 41.1091 153.514 40.5722 154.092 40.0151C154.457 39.6706 154.75 39.2654 154.953 38.8095C155.176 38.2929 154.953 37.8168 154.396 37.6952C154.234 37.6547 154.021 37.6547 153.869 37.7256C153.464 37.8978 153.059 38.0802 152.684 38.3132C150.962 39.3667 149.422 40.6432 147.882 41.9398C147.153 42.5578 146.636 43.2973 146.342 44.209C146.19 44.675 145.937 45.0904 145.562 45.4146C145.218 45.7083 144.863 46.0021 144.498 46.2858C143.779 46.8531 143.029 47.3799 142.341 47.9674C141.986 48.2713 141.672 48.636 141.429 49.0311C141.095 49.5579 141.267 50.1252 141.763 50.4899C142.037 50.6925 142.361 50.7735 142.685 50.8343C143.485 50.9863 144.286 50.885 145.086 50.8039C146.879 50.6216 148.652 50.3278 150.425 50.0036C153.849 49.3857 157.242 48.636 160.596 47.7446C165.904 46.3263 171.162 44.7054 176.338 42.8516C177.523 42.4261 178.688 41.9398 179.793 41.332C180.856 40.7343 181.859 40.0455 182.791 39.2553C184.27 37.9991 185.77 36.7733 187.39 35.6995C188.485 34.9701 189.579 34.2407 190.632 33.4506C191.655 32.6705 192.435 31.6575 193.013 30.5026C193.084 30.3608 193.114 30.1886 193.124 30.0265C193.124 28.3651 193.124 26.7037 193.124 25.0423C193.124 24.8803 193.084 24.708 193.013 24.5662C192.608 23.7963 192.04 23.1581 191.331 22.6516C190.136 21.7905 188.799 21.2333 187.37 20.8889C185.709 20.4735 184.017 20.1797 182.305 20.0379C180.147 19.8556 177.989 19.7644 175.832 19.734C174.93 19.7239 174.029 19.7441 173.137 19.7745C171.688 19.8151 170.23 19.8657 168.781 19.9366C167.109 20.0177 165.438 20.0784 163.766 19.8151C162.966 19.6935 162.186 19.5111 161.497 19.0553C160.748 18.5589 160.393 17.6775 160.626 16.8063C160.768 16.2795 161.021 15.8034 161.386 15.3881C162.024 14.6486 162.804 14.0711 163.635 13.5646C165.559 12.4097 167.646 11.6196 169.774 10.951C171.597 10.3735 173.441 9.86701 175.285 9.37062C178.243 8.58045 181.211 7.8308 184.24 7.37493C184.827 7.28375 185.425 7.27362 186.013 7.22297C186.56 7.18245 187.076 7.58767 187.107 8.13471C187.117 8.35758 187.137 8.57032 187.107 8.79318C187.056 9.18827 187.087 9.56309 187.259 9.92779C187.553 10.5559 188.089 10.799 188.728 10.5457C188.981 10.4444 189.224 10.2418 189.427 10.0494C189.599 9.87714 189.71 9.64414 189.852 9.44153C190.207 8.89449 190.531 8.32719 190.926 7.82067C191.554 7.03049 192.223 6.27072 192.891 5.51094C193.043 5.32859 193.124 5.14624 193.124 4.91324C193.124 4.07242 193.124 3.22147 193.134 2.38064C193.134 2.30973 193.134 2.23882 193.134 2.17804C193.134 2.01595 193.043 1.92478 192.881 1.91464C192.8 1.91464 192.719 1.91464 192.628 1.91464C188.718 1.91464 184.817 1.91464 180.907 1.91464C180.704 1.91464 180.492 1.94504 180.299 2.00582C177.939 2.73521 175.619 3.55577 173.35 4.52829C171.84 5.17663 170.321 5.83511 168.852 6.57463C166.907 7.55728 165.043 8.67162 163.25 9.90753C161.193 11.3359 159.329 12.9872 157.779 14.9626C157.111 15.8135 156.543 16.7354 156.148 17.7485C155.753 18.7716 155.51 19.8151 155.733 20.9193C155.915 21.8209 156.493 22.3983 157.405 22.5097C157.8 22.5604 158.205 22.5807 158.6 22.6009C159.451 22.6414 160.201 22.8947 160.788 23.5532C161.173 23.9888 161.558 24.4244 161.943 24.8499C162.257 25.1943 162.571 25.559 162.936 25.8528C163.584 26.3796 164.364 26.6429 165.164 26.8253C166.643 27.1799 168.143 27.3115 169.652 27.3217C171.283 27.3217 172.914 27.2102 174.555 27.19C176.521 27.1596 178.486 27.1191 180.451 27.3318C181.717 27.4635 182.974 27.6965 184.189 28.0916C185.03 28.3651 185.759 28.8311 186.367 29.4896C186.935 30.1177 187.188 31.3029 186.651 32.2045C186.296 32.8022 185.83 33.2885 185.294 33.7038C184.321 34.4636 183.247 35.0816 182.133 35.6083C179.438 36.8848 176.602 37.7965 173.745 38.6373C170.412 39.62 167.018 40.3595 163.614 41.0686C159.664 41.8892 155.672 42.5477 151.681 43.1555C151.468 43.1859 151.255 43.2061 151.033 43.2264V43.196ZM108.424 52.0601C108.677 52.0702 108.819 52.0905 108.951 52.0905C110.085 52.0905 111.22 52.0804 112.355 52.0905C112.699 52.0905 112.902 51.9689 113.084 51.6751C115.232 48.3119 117.4 44.9688 119.557 41.6157C121.361 38.8197 123.164 36.0338 124.947 33.2277C125.149 32.9137 125.372 32.7718 125.757 32.7921C126.547 32.8225 127.338 32.8022 128.128 32.8225C129.667 32.8529 131.197 32.6807 132.707 32.397C134.267 32.1032 135.827 31.7993 137.397 31.5258C137.914 31.4346 138.44 31.4346 138.967 31.4144C139.291 31.4042 139.383 31.4954 139.464 31.7993C139.484 31.8804 139.494 31.9614 139.504 32.0424C139.707 34.0888 140.051 36.1047 140.517 38.1004C140.71 38.921 140.943 39.7314 141.287 40.5115C141.449 40.8761 141.682 41.1902 142.027 41.3827C142.442 41.6055 142.867 41.8081 143.293 42.0006C143.566 42.1323 143.86 42.1526 144.144 42.0715C144.458 41.9905 144.742 42.0513 145.035 42.183C145.228 42.264 145.42 42.3451 145.623 42.3957C146.393 42.5781 147.102 42.0918 147.254 41.3118C147.315 40.9673 147.244 40.6533 147.122 40.3392C146.869 39.6504 146.595 38.9716 146.383 38.2726C145.927 36.7835 145.623 35.2639 145.522 33.714C145.481 33.0352 145.481 32.3565 145.461 31.6777C145.461 31.4549 145.552 31.3131 145.755 31.232C145.917 31.1611 146.079 31.0801 146.231 30.9889C146.92 30.5533 147.021 29.5909 146.454 29.0135C146.231 28.7805 145.967 28.6082 145.643 28.5272C145.37 28.4563 145.238 28.2942 145.238 27.9903C145.218 26.7746 145.177 25.5489 145.167 24.3332C145.147 21.7196 145.167 19.0958 145.329 16.4822C145.43 14.9119 145.532 13.3316 145.694 11.7614C145.947 9.34022 146.342 6.92919 146.788 4.53842C146.909 3.85968 147.031 3.17081 147.112 2.49208C147.183 1.95517 147.122 1.91464 146.606 1.91464C145.957 1.91464 145.299 1.91464 144.65 1.91464C143.86 1.91464 143.85 1.91464 143.364 2.51234C141.348 5.05507 139.312 7.56741 137.336 10.1304C134.165 14.2332 131.035 18.3563 127.895 22.4692C126.73 23.9888 125.575 25.5083 124.43 27.038C124.238 27.2913 124.025 27.3926 123.721 27.3419C123.559 27.3115 123.387 27.3115 123.225 27.2913C122.272 27.2102 121.32 27.1495 120.368 27.0583C119.446 26.9671 118.656 27.19 117.977 27.8586C117.43 28.4056 116.822 28.8919 116.245 29.4085C115.971 29.6618 115.688 29.9049 115.434 30.1784C115.313 30.3 115.211 30.4722 115.161 30.6343C114.867 31.5258 115.232 32.2653 116.113 32.5996C116.69 32.8124 117.298 32.8833 117.906 32.8731C118.858 32.863 119.821 32.8326 120.773 32.8225C120.905 32.8225 121.026 32.863 121.239 32.9035C117.126 39.4275 112.76 45.6881 108.394 52.0804L108.424 52.0601ZM91.7798 13.1796C91.9723 13.0581 92.104 12.977 92.2255 12.896C92.7625 12.582 93.2892 12.2476 93.8464 11.9741C95.994 10.9206 98.2734 10.414 100.654 10.2824C102.336 10.1912 104.007 10.2925 105.658 10.6167C106.834 10.8395 107.978 11.1536 109.072 11.6297C109.69 11.8931 110.318 12.1565 110.947 12.4097C111.564 12.6529 112.091 12.4705 112.527 12.0146C112.679 11.8627 112.8 11.6601 112.881 11.4575C113.094 10.9408 113.226 10.4039 113.216 9.84675C113.216 9.28957 113.195 8.74253 113.125 8.19549C112.952 6.83802 112.274 5.89589 110.886 5.52107C109.944 5.26781 108.981 5.19689 108.009 5.13611C106.996 5.07533 105.993 5.03481 104.98 5.13611C104.068 5.22728 103.156 5.28807 102.255 5.44002C99.56 5.90602 97.0071 6.78737 94.6062 8.10432C93.735 8.58045 92.8941 9.12749 92.0331 9.62388C91.8102 9.75557 91.7089 9.92779 91.7089 10.1912C91.719 11.0523 91.7089 11.9032 91.7089 12.7643C91.7089 12.8757 91.7292 12.977 91.7494 13.1695L91.7798 13.1796ZM91.6177 37.5635C91.638 37.4217 91.6481 37.3609 91.6481 37.29C91.6481 29.3579 91.638 21.4258 91.6278 13.4836C91.6278 13.4734 91.6177 13.4633 91.6076 13.4532C91.5975 13.4532 91.5873 13.443 91.5468 13.4329C91.4962 13.4633 91.4354 13.4937 91.3847 13.5342C90.6452 14.1015 89.9766 14.7397 89.3688 15.4387C88.7407 16.158 88.1734 16.9279 87.7276 17.7788C86.6943 19.7441 86.1676 21.8513 86.0055 24.0597C85.9042 25.4476 86.0055 26.8253 86.2486 28.1929C86.5525 29.8543 87.0793 31.4447 87.8695 32.9339C88.7711 34.6358 89.9867 36.1047 91.3949 37.4217C91.4455 37.4622 91.5063 37.4926 91.6076 37.5736L91.6177 37.5635ZM55.128 27.5547C56.9211 27.6965 58.6838 27.8282 60.4465 27.97C62.2092 28.1118 63.9719 28.1828 65.7548 28.1422C65.7751 26.5822 65.7548 25.0829 65.8359 23.5734C65.9068 22.0539 66.0182 20.5343 66.2006 19.0249C66.3829 17.5256 66.6362 16.0364 66.9097 14.5574C67.1933 13.0682 67.5378 11.5892 67.8721 10.0797C67.3048 10.4647 55.5738 26.5416 55.1179 27.5445L55.128 27.5547ZM91.7595 37.8269C91.7494 38.0396 91.7393 38.1815 91.7393 38.3334C91.7393 39.7618 91.7393 41.1801 91.7393 42.6084C91.7393 43.3986 91.7393 44.1888 91.7393 44.979C91.7393 45.3335 91.7697 45.374 92.0736 45.4551C93.4513 45.8299 94.8493 46.073 96.2878 46.0933C97.4528 46.1136 98.6077 46.0325 99.7626 45.84C101.951 45.4855 104.027 44.7865 106.033 43.8444C107.533 43.1352 108.91 42.2336 110.217 41.2307C110.855 40.7445 111.433 40.1873 112.02 39.6402C112.395 39.2958 112.638 38.8602 112.78 38.3739C112.871 38.0396 112.78 37.7459 112.557 37.5838C112.294 37.3913 112.041 37.4622 111.787 37.6344C111.423 37.8877 111.048 38.1308 110.683 38.3739C109.204 39.3667 107.624 40.1569 105.912 40.6735C103.612 41.3624 101.272 41.5144 98.9015 41.099C96.3689 40.6533 94.0997 39.62 92.0837 38.0295C92.0027 37.9687 91.9115 37.9181 91.7595 37.8168V37.8269Z" fill="white"/>
<path d="M91.6621 1.87402H192.49C192.844 1.87402 193.138 2.1678 193.138 2.52237V52.1411H91.6722V1.87402H91.6621Z" fill="#1D1F1C"/>
<path d="M149.869 57.1661H150.994C150.933 57.3282 150.892 57.4598 150.832 57.5814C149.363 61.0156 147.894 64.4599 146.445 67.8942C146.314 68.1981 146.162 68.3196 145.827 68.3095C144.905 68.269 145.108 68.4412 144.743 67.6004C143.518 64.7841 142.302 61.9577 141.086 59.1415C140.995 58.9389 140.904 58.7363 140.782 58.483C140.701 58.6147 140.641 58.6958 140.6 58.7869C139.79 60.6509 138.989 62.525 138.179 64.389C137.662 65.5844 137.135 66.7697 136.629 67.9752C136.517 68.2285 136.386 68.3298 136.102 68.3298C135.069 68.2994 135.332 68.4615 134.937 67.5599C133.509 64.2472 132.09 60.9244 130.662 57.6017C130.611 57.4801 130.571 57.3484 130.5 57.1661C130.875 57.1661 131.189 57.1458 131.493 57.1762C131.584 57.1762 131.685 57.318 131.726 57.4193C131.939 57.8955 132.141 58.3817 132.354 58.868C133.448 61.4512 134.542 64.0446 135.636 66.6279C135.697 66.7595 135.758 66.9014 135.859 67.1141C135.96 66.9115 136.031 66.7899 136.082 66.6583C137.135 64.2067 138.199 61.7551 139.253 59.2934C139.506 58.6958 139.779 58.0981 140.023 57.5004C140.124 57.2572 140.256 57.1661 140.519 57.1559C141.289 57.1255 141.289 57.1154 141.593 57.8144C142.869 60.7624 144.146 63.7103 145.432 66.6481C145.483 66.7697 145.544 66.8912 145.645 67.104C146.172 65.9592 146.607 64.855 147.063 63.7711C147.539 62.6669 147.995 61.5525 148.461 60.4382C148.917 59.3441 149.383 58.25 149.849 57.1458L149.869 57.1661Z" fill="white"/>
<path d="M0.0604206 64.7339H1.03294C1.0532 64.8555 1.06333 64.9568 1.07346 65.0682C1.11398 65.4532 1.12411 65.8381 1.18489 66.2231C1.24568 66.6283 1.47868 66.9119 1.8535 67.0538C2.14728 67.1551 2.46132 67.2564 2.77537 67.307C4.13284 67.4995 5.51057 67.4792 6.87818 67.4488C7.60757 67.4387 8.34708 67.3881 9.07647 67.307C9.41078 67.2665 9.74508 67.1348 10.0693 67.0132C10.4643 66.8613 10.6872 66.5472 10.7682 66.142C10.8797 65.5747 10.8898 65.0074 10.7885 64.4502C10.7075 64.0146 10.4643 63.6905 10.049 63.5081C9.84638 63.4169 9.63365 63.3562 9.42091 63.3156C8.27617 63.0826 7.10105 63.1333 5.94618 63.0928C5.02431 63.0624 4.09232 63.0219 3.17045 62.9915C2.54237 62.9712 1.94467 62.799 1.36724 62.5356C0.921504 62.333 0.617592 62.0189 0.496028 61.5428C0.263029 60.6513 0.252898 59.7599 0.445376 58.8684C0.627723 58.0276 1.23555 57.6021 2.01559 57.3792C2.81589 57.1462 3.64658 57.0449 4.47727 57.0449C5.73344 57.0449 6.99974 57.0652 8.25591 57.0956C8.89413 57.1158 9.52221 57.207 10.13 57.44C10.9709 57.754 11.4571 58.372 11.5483 59.2635C11.5989 59.6991 11.6091 60.1347 11.6395 60.5906C11.2646 60.6919 10.9405 60.6513 10.5758 60.6311C10.5656 60.4893 10.5454 60.3576 10.5352 60.2259C10.515 59.9929 10.5049 59.7599 10.4745 59.5269C10.3732 58.6962 9.79573 58.3517 9.20817 58.2403C8.95491 58.1897 8.69152 58.1593 8.42813 58.139C6.79713 58.0073 5.16614 58.0073 3.53515 58.1187C3.09954 58.1491 2.66393 58.2808 2.24859 58.4024C1.81298 58.5341 1.56985 58.8684 1.47868 59.304C1.36724 59.8916 1.3875 60.4893 1.53946 61.0768C1.63063 61.4213 1.8535 61.6745 2.20806 61.7454C2.73485 61.8569 3.26163 61.9987 3.79854 62.0291C4.96353 62.1 6.12853 62.0899 7.28339 62.1405C7.97226 62.1709 8.67126 62.2013 9.34999 62.2925C9.7856 62.3431 10.2111 62.4849 10.6264 62.6268C11.4571 62.9104 11.8522 63.5486 11.913 64.3895C11.9535 64.9365 11.9332 65.4937 11.8927 66.0508C11.8117 67.3475 11.0012 68.0263 9.82612 68.239C9.18791 68.3504 8.53956 68.4011 7.89122 68.4315C6.26022 68.5125 4.6191 68.4821 2.98811 68.3707C2.38028 68.3302 1.78259 68.2289 1.20516 67.9857C0.627723 67.7426 0.252898 67.3374 0.131333 66.7093C0.019899 66.1218 -0.0206226 65.5342 0.0097686 64.9365C0.0097686 64.8858 0.0401598 64.8352 0.0604206 64.7643V64.7339Z" fill="white"/>
<path d="M178.335 63.2339C178.406 63.2845 178.416 63.3048 178.447 63.3149C179.277 63.5884 179.673 64.2064 179.733 65.027C179.804 66.0603 179.794 67.1037 179.824 68.137C179.824 68.1775 179.804 68.218 179.774 68.2788H178.73C178.73 68.1167 178.71 67.9749 178.71 67.8229C178.69 67.1442 178.69 66.4655 178.659 65.7867C178.649 65.5031 178.589 65.2093 178.518 64.9256C178.396 64.4394 178.072 64.1152 177.596 64.0038C177.13 63.8924 176.644 63.791 176.167 63.7809C174.091 63.7505 172.014 63.7607 169.937 63.7505C169.603 63.7505 169.279 63.7505 168.894 63.7505C168.894 64.2976 168.894 64.7838 168.884 65.2802C168.884 65.7665 168.884 66.2527 168.884 66.7289V68.2282C168.529 68.3497 168.185 68.2687 167.85 68.2889C167.749 67.985 167.729 57.7229 167.82 57.1658C167.942 57.1658 168.083 57.1455 168.215 57.1455C170.889 57.1455 173.554 57.1455 176.228 57.1455C176.968 57.1455 177.697 57.2367 178.396 57.4697C179.186 57.7229 179.642 58.27 179.754 59.0905C179.865 59.8908 179.885 60.6911 179.754 61.4914C179.632 62.2614 179.267 62.8388 178.508 63.1123C178.457 63.1326 178.416 63.163 178.345 63.2136L178.335 63.2339ZM168.894 62.7577C169.066 62.7577 169.228 62.778 169.39 62.778C171.274 62.778 173.149 62.778 175.033 62.7577C175.57 62.7577 176.117 62.7577 176.654 62.7577C177.16 62.7577 177.646 62.6463 178.062 62.3525C178.457 62.0689 178.69 61.7042 178.69 61.1977C178.69 60.7013 178.69 60.2049 178.69 59.7085C178.69 59.1615 178.416 58.7664 177.971 58.4827C177.525 58.1889 177.018 58.118 176.502 58.118C174.111 58.1282 171.72 58.1383 169.319 58.1585C169.188 58.1585 169.056 58.1788 168.894 58.1889V62.7679V62.7577Z" fill="white"/>
<path d="M50.7427 57.0539C51.9583 57.0336 53.1841 57.0235 54.3896 57.2261C54.7341 57.2869 55.0684 57.368 55.3925 57.4794C56.4765 57.834 57.1248 58.5937 57.368 59.6878C57.4693 60.1234 57.53 60.559 57.5604 61.0048C57.6516 62.3622 57.6617 63.7197 57.4996 65.0671C57.4389 65.604 57.3173 66.1307 57.0539 66.617C56.5879 67.4983 55.8079 67.9745 54.886 68.1264C53.9034 68.2986 52.9106 68.3898 51.9178 68.4303C50.5299 68.4911 49.1421 68.481 47.7643 68.3088C47.2274 68.248 46.6905 68.1467 46.184 67.9947C45.0393 67.6604 44.3808 66.8601 44.1275 65.7053C43.9148 64.753 43.8945 63.7805 43.8945 62.808C43.8945 61.7949 43.9148 60.7819 44.1174 59.7891C44.3707 58.5836 45.0595 57.7833 46.2448 57.4186C47.0755 57.1552 47.9264 57.0843 48.7875 57.0438C49.4359 57.0134 50.0842 57.0438 50.7427 57.0438V57.0539ZM50.7629 57.9859C49.8309 58.0264 48.8989 58.0467 47.9771 58.1277C47.5111 58.1683 47.0451 58.2797 46.5993 58.4215C45.9814 58.614 45.5458 59.0496 45.333 59.6574C45.2014 60.0322 45.1 60.4375 45.0798 60.8224C45.0291 61.8051 45.019 62.7877 45.0291 63.7704C45.0291 64.2668 45.0899 64.7631 45.1608 65.2595C45.2824 66.1206 45.7585 66.7284 46.5791 67.0526C47.1565 67.2856 47.7542 67.3464 48.3722 67.3869C49.9626 67.4882 51.5531 67.4882 53.1436 67.3869C53.64 67.3565 54.1364 67.2755 54.6125 67.164C55.6154 66.931 56.1624 66.2523 56.3448 65.2697C56.517 64.3478 56.5069 63.4259 56.4866 62.4939C56.4663 61.724 56.436 60.944 56.3245 60.1741C56.203 59.3535 55.7471 58.7356 54.9367 58.4519C54.4909 58.2999 54.0249 58.1885 53.5691 58.148C52.6269 58.067 51.6848 58.0467 50.7528 58.0062L50.7629 57.9859Z" fill="white"/>
<path d="M66.3336 56.9932C67.3568 57.0438 68.38 57.0843 69.4031 57.1451C70.1427 57.1958 70.8619 57.3579 71.5001 57.7327C72.1282 58.0974 72.5942 58.6242 72.7968 59.3333C72.9994 60.012 73.1109 60.711 73.1311 61.4201C73.1716 62.5953 73.2122 63.7704 73.04 64.9455C72.9893 65.3001 72.9184 65.6547 72.8272 65.9991C72.5132 67.1742 71.6723 67.8327 70.5377 68.1062C69.8995 68.2582 69.2309 68.3189 68.5623 68.3696C66.7692 68.481 64.966 68.4608 63.1729 68.319C62.4942 68.2582 61.8357 68.1062 61.2178 67.8124C60.3668 67.4072 59.8806 66.7082 59.678 65.8167C59.5767 65.3913 59.5057 64.9455 59.4753 64.5099C59.374 62.9194 59.3335 61.329 59.6577 59.7486C59.8907 58.6242 60.5593 57.8745 61.6331 57.4794C62.17 57.2869 62.7272 57.1654 63.2945 57.135C64.3075 57.0843 65.3105 57.0337 66.3235 56.9932H66.3336ZM66.5362 57.9657C65.4219 58.0163 64.5203 58.0366 63.6187 58.1176C63.102 58.1683 62.5753 58.2797 62.0789 58.4418C61.4305 58.6647 60.9746 59.1307 60.7923 59.8094C60.7011 60.1539 60.6201 60.5084 60.5897 60.863C60.4681 62.109 60.4681 63.3551 60.5897 64.591C60.6302 64.9557 60.7113 65.3305 60.8126 65.685C60.9848 66.2929 61.4103 66.6981 61.9776 66.9615C62.4334 67.1742 62.9298 67.2654 63.4262 67.316C64.8647 67.4579 66.3032 67.4883 67.7418 67.4072C68.4306 67.3667 69.1195 67.3059 69.8084 67.2147C70.3047 67.1438 70.7707 66.9513 71.1658 66.6272C71.6926 66.1814 71.875 65.5736 71.956 64.9354C72.1282 63.4564 72.1282 61.9773 71.956 60.4983C71.875 59.7892 71.642 59.1509 71.024 58.7153C70.6087 58.4216 70.1325 58.2493 69.6361 58.1987C68.5319 58.0974 67.4277 58.0265 66.5362 57.9657Z" fill="white"/>
<path d="M158.805 68.4512C157.589 68.4715 156.363 68.4208 155.158 68.2283C154.743 68.1676 154.317 68.046 153.922 67.8839C152.889 67.4483 152.301 66.6379 152.159 65.5539C152.038 64.632 151.967 63.7102 151.967 62.7883C151.967 61.8664 152.038 60.9345 152.149 60.0126C152.311 58.645 153.091 57.7636 154.418 57.4091C154.894 57.2774 155.391 57.1862 155.887 57.1457C157.853 56.9633 159.818 56.9735 161.773 57.1457C162.249 57.1862 162.735 57.2875 163.201 57.3989C164.569 57.7434 165.309 58.6754 165.511 60.0328C165.764 61.7651 165.785 63.5076 165.531 65.25C165.45 65.8274 165.329 66.3947 164.974 66.881C164.478 67.5699 163.799 67.9548 162.989 68.1473C161.945 68.3904 160.871 68.4006 159.808 68.4512C159.473 68.4715 159.139 68.4512 158.815 68.4512H158.805ZM158.845 57.9865C157.893 58.0372 156.951 58.0574 156.019 58.1385C155.573 58.179 155.127 58.3107 154.692 58.4322C153.821 58.6855 153.385 59.3237 153.243 60.1848C153.02 61.5321 153.03 62.8896 153.122 64.2471C153.142 64.6219 153.193 64.9866 153.263 65.3614C153.385 66.0604 153.729 66.6277 154.388 66.9114C154.834 67.1039 155.33 67.2659 155.816 67.3166C157.66 67.5091 159.524 67.499 161.378 67.3774C161.915 67.347 162.442 67.2457 162.958 67.0735C163.89 66.7696 164.356 66.0908 164.468 65.1791C164.569 64.3585 164.61 63.5278 164.61 62.6971C164.61 61.8968 164.559 61.0864 164.458 60.2962C164.336 59.3744 163.85 58.6956 162.928 58.4221C162.533 58.3005 162.128 58.1891 161.712 58.1587C160.76 58.0777 159.808 58.0574 158.866 58.0068L158.845 57.9865Z" fill="white"/>
<path d="M103.685 67.0729V57.1857H104.708C104.799 57.4997 104.809 67.8327 104.708 68.2987C104.252 68.2987 103.786 68.319 103.32 68.2987C103.208 68.2987 103.097 68.1974 103.006 68.1164C101.304 66.4955 99.602 64.8645 97.9102 63.2335C97.1302 62.4839 96.3602 61.7342 95.5802 60.9846C94.7394 60.1741 93.8986 59.3738 93.0577 58.5735C92.9666 58.4824 92.8653 58.4013 92.7639 58.3101C92.7336 58.3203 92.7133 58.3405 92.6829 58.3507V68.2785H91.6699C91.5888 67.9847 91.5584 57.8441 91.6395 57.1958C91.8117 57.1857 91.994 57.1553 92.1865 57.1553C92.8484 57.1553 93.4157 57.3815 93.8884 57.834C96.9985 60.8123 100.098 63.8008 103.208 66.7792C103.33 66.8906 103.452 67.002 103.573 67.1135L103.674 67.0831L103.685 67.0729Z" fill="white"/>
<path d="M107.202 57.2068H117.687V58.1388C116.887 58.1388 116.107 58.1388 115.316 58.1388C114.536 58.1388 113.766 58.1388 112.986 58.1388C112.196 58.1388 111.406 58.1388 110.616 58.1388C109.846 58.1388 109.076 58.1388 108.245 58.1388C108.245 59.4557 108.245 60.722 108.245 62.0491C109.279 62.0694 110.271 62.0491 111.264 62.0592C112.277 62.0592 113.29 62.0592 114.293 62.0592C115.296 62.0592 116.279 62.0592 117.302 62.0592V63.0014C116.552 63.0115 115.813 63.0014 115.063 63.0014C114.303 63.0014 113.544 63.0014 112.774 63.0014H108.306C108.215 63.3559 108.195 66.8003 108.286 67.2663C109.056 67.2967 109.846 67.2663 110.626 67.2764C111.416 67.2764 112.206 67.2764 112.996 67.2764H117.707V68.2793H107.182V57.1865L107.202 57.2068Z" fill="white"/>
<path d="M25.9537 64.8439H26.9668C27.0174 65.6949 26.9668 66.5053 26.5211 67.2246C26.2475 67.6602 25.8018 67.9236 25.3054 68.035C24.7584 68.1566 24.1911 68.268 23.6339 68.3288C21.5166 68.5415 19.3994 68.4503 17.2821 68.3085C16.5426 68.2579 15.8335 68.0755 15.2054 67.6602C14.4355 67.1537 14.0809 66.3736 13.9492 65.5024C13.7264 64.1145 13.7162 62.7165 13.8175 61.3185C13.8581 60.7918 13.9087 60.265 14.01 59.7585C14.2531 58.5327 14.9724 57.7121 16.1982 57.4183C16.8161 57.2664 17.4442 57.1651 18.0824 57.1246C19.9768 56.9929 21.8712 56.9929 23.7656 57.155C24.4038 57.2056 25.0218 57.3373 25.6093 57.6007C26.1564 57.854 26.521 58.2693 26.6629 58.8569C26.8047 59.4242 26.8554 59.9915 26.7844 60.6094H25.8119C25.7917 60.4777 25.7714 60.3562 25.7613 60.2346C25.741 60.0421 25.741 59.8496 25.7207 59.6572C25.66 59.0189 25.3459 58.553 24.7077 58.3807C24.2924 58.2693 23.877 58.1781 23.4515 58.1376C21.6281 57.9856 19.7945 58.0059 17.971 58.1072C17.4138 58.1376 16.8668 58.2389 16.3501 58.4516C15.6917 58.7252 15.2459 59.2013 15.1041 59.9003C14.9927 60.4575 14.942 61.0248 14.9015 61.5819C14.8103 62.7469 14.8306 63.9119 14.9927 65.0668C15.0231 65.2593 15.0534 65.4518 15.1142 65.6341C15.2864 66.2419 15.641 66.6877 16.2083 66.9713C16.7857 67.255 17.3936 67.3461 18.0216 67.3765C19.9262 67.4778 21.8408 67.5184 23.7453 67.3259C24.1505 67.2854 24.5558 67.1739 24.9508 67.0524C25.4776 66.8903 25.7815 66.5256 25.8524 65.9684C25.893 65.6138 25.9234 65.2593 25.9537 64.8541V64.8439Z" fill="white"/>
<path d="M41.7779 68.2889H40.7142V63.011C40.4913 62.9907 40.3191 62.9603 40.1469 62.9603C36.9457 62.9603 33.7445 62.9603 30.5534 62.9603C30.4622 62.9603 30.3609 62.9806 30.2191 62.9907C30.2191 63.1528 30.1887 63.3149 30.1887 63.477C30.1887 64.9054 30.1887 66.3337 30.1887 67.752C30.1887 67.9141 30.1887 68.0762 30.1887 68.2686H29.1655C29.0743 67.9647 29.044 57.7938 29.1351 57.1961C29.4593 57.1151 29.7936 57.1353 30.1988 57.186V61.9473H40.7243C40.7446 61.1571 40.7243 60.3669 40.7243 59.5869C40.7243 58.7967 40.7243 58.0167 40.7243 57.2366C41.0687 57.1252 41.3828 57.1252 41.7981 57.2063V68.2788L41.7779 68.2889Z" fill="white"/>
<path d="M186.054 62.6063C189.012 64.5007 191.899 66.3647 194.787 68.2185C194.787 68.2388 194.777 68.2692 194.766 68.2895C194.675 68.2996 194.584 68.3199 194.503 68.3199C194.189 68.3199 193.865 68.3097 193.551 68.3199C193.247 68.3401 192.994 68.2489 192.74 68.0767C190.319 66.5166 187.898 64.9667 185.477 63.3965C185.122 63.1635 184.768 63.052 184.352 63.0723C183.967 63.0926 183.582 63.0723 183.147 63.0723V68.2692H182.053V57.1663H183.137V62.1201C183.532 62.1201 183.866 62.0998 184.21 62.1201C184.808 62.1808 185.294 61.9782 185.791 61.6541C187.949 60.2257 190.127 58.8277 192.295 57.4094C192.609 57.2068 192.933 57.0954 193.308 57.1156C193.632 57.1359 193.956 57.1156 194.3 57.1764C193.652 57.6931 192.973 58.1185 192.295 58.5542C191.606 58.9999 190.927 59.4456 190.238 59.8812C189.549 60.327 188.86 60.7626 188.182 61.2083C187.503 61.6541 186.814 62.0897 186.064 62.5759L186.054 62.6063Z" fill="white"/>
<path d="M130.439 57.2369V58.098C129.507 58.1689 128.585 58.1183 127.673 58.1284C126.751 58.1284 125.819 58.1284 124.847 58.1284C124.796 58.564 124.826 58.9794 124.826 59.3846C124.826 59.8101 124.826 60.2457 124.826 60.6711V68.2385C124.472 68.3702 124.137 68.3095 123.763 68.2791V58.1588C123.57 58.1487 123.408 58.1284 123.246 58.1284C121.726 58.1284 120.197 58.1284 118.677 58.1284C118.515 58.1284 118.353 58.1284 118.15 58.1284V57.2471C118.464 57.1559 130.003 57.1356 130.449 57.2471L130.439 57.2369Z" fill="white"/>
<path d="M85.1236 67.287V68.2899H75.2363V57.2376C75.5301 57.1363 75.7732 57.1262 76.3102 57.1971C76.3102 57.3592 76.3405 57.5314 76.3405 57.7036C76.3405 60.7123 76.3405 63.7109 76.3405 66.7197C76.3405 66.8817 76.3405 67.0438 76.3405 67.2566C76.533 67.2667 76.6951 67.287 76.8572 67.287C79.4506 67.287 82.0338 67.287 84.6272 67.287C84.7893 67.287 84.9514 67.287 85.1337 67.287H85.1236Z" fill="white"/>
<path d="M151.034 43.1965C151.247 43.1763 151.47 43.156 151.682 43.1256C155.674 42.5178 159.655 41.8593 163.616 41.0387C167.02 40.3296 170.414 39.5901 173.746 38.6075C176.603 37.7666 179.44 36.8549 182.134 35.5785C183.249 35.0517 184.323 34.4337 185.295 33.6739C185.832 33.2586 186.298 32.7622 186.653 32.1746C187.19 31.2832 186.936 30.0979 186.369 29.4597C185.771 28.7911 185.042 28.3352 184.191 28.0617C182.975 27.6666 181.729 27.4336 180.453 27.3019C178.488 27.0892 176.522 27.1297 174.557 27.1601C172.926 27.1804 171.295 27.2918 169.654 27.2918C168.144 27.2918 166.635 27.15 165.166 26.7954C164.366 26.6029 163.586 26.3395 162.937 25.8229C162.573 25.5291 162.269 25.1644 161.945 24.82C161.549 24.3945 161.175 23.9488 160.79 23.5233C160.212 22.8749 159.452 22.6116 158.602 22.571C158.196 22.5508 157.801 22.5305 157.406 22.4799C156.494 22.3684 155.907 21.791 155.735 20.8894C155.512 19.7852 155.755 18.7417 156.15 17.7186C156.545 16.7055 157.112 15.7837 157.781 14.9327C159.331 12.9472 161.185 11.306 163.251 9.87765C165.044 8.63161 166.908 7.51727 168.853 6.54475C170.322 5.80523 171.832 5.14675 173.351 4.49841C175.621 3.52589 177.94 2.70533 180.301 1.97594C180.493 1.91516 180.706 1.88477 180.909 1.88477C184.819 1.88477 188.719 1.88477 192.63 1.88477C192.711 1.88477 192.792 1.88477 192.883 1.88477C193.045 1.8949 193.126 1.98607 193.136 2.14816C193.136 2.21907 193.136 2.28998 193.136 2.35076C193.136 3.19159 193.126 4.04254 193.126 4.88336C193.126 5.11636 193.055 5.29871 192.893 5.48106C192.224 6.24084 191.556 7.00062 190.928 7.79079C190.522 8.29731 190.208 8.87474 189.854 9.41165C189.712 9.62439 189.601 9.85739 189.428 10.0195C189.226 10.2221 188.993 10.4146 188.729 10.5159C188.091 10.7691 187.554 10.5159 187.26 9.89791C187.088 9.53322 187.068 9.15839 187.108 8.7633C187.129 8.55057 187.108 8.3277 187.108 8.10483C187.078 7.55779 186.561 7.15257 186.014 7.19309C185.417 7.23361 184.819 7.25388 184.242 7.34505C181.213 7.80092 178.244 8.55057 175.286 9.34074C173.443 9.827 171.599 10.3436 169.775 10.9211C167.648 11.5897 165.561 12.3799 163.636 13.5347C162.806 14.0311 162.026 14.6187 161.387 15.3582C161.023 15.7735 160.769 16.2395 160.628 16.7764C160.395 17.6477 160.749 18.529 161.499 19.0254C162.188 19.4813 162.968 19.6535 163.768 19.7852C165.429 20.0486 167.111 19.9878 168.783 19.9067C170.231 19.8358 171.69 19.7852 173.139 19.7447C174.04 19.7143 174.942 19.694 175.833 19.7041C177.991 19.7345 180.149 19.8257 182.307 20.008C184.019 20.1499 185.71 20.4437 187.372 20.859C188.79 21.2136 190.127 21.7606 191.333 22.6217C192.042 23.1383 192.599 23.7664 193.014 24.5363C193.085 24.6782 193.126 24.8504 193.126 25.0125C193.126 26.6738 193.136 28.3352 193.126 29.9966C193.126 30.1587 193.085 30.3309 193.014 30.4727C192.437 31.6276 191.667 32.6406 190.634 33.4207C189.59 34.221 188.496 34.9504 187.392 35.6696C185.771 36.7435 184.272 37.9692 182.793 39.2254C181.861 40.0156 180.858 40.7044 179.794 41.3021C178.69 41.9201 177.525 42.3962 176.34 42.8217C171.163 44.6756 165.906 46.2863 160.597 47.7147C157.244 48.6163 153.85 49.3558 150.426 49.9738C148.653 50.2979 146.881 50.5917 145.088 50.7741C144.287 50.8551 143.487 50.9564 142.687 50.8044C142.352 50.7437 142.038 50.6626 141.765 50.46C141.268 50.0953 141.096 49.528 141.431 49.0012C141.674 48.6062 141.988 48.2415 142.342 47.9375C143.041 47.35 143.781 46.8131 144.5 46.2559C144.855 45.9722 145.209 45.6886 145.564 45.3847C145.939 45.0605 146.192 44.6452 146.344 44.1792C146.638 43.2776 147.154 42.538 147.884 41.91C149.413 40.6133 150.963 39.3368 152.685 38.2833C153.06 38.0503 153.465 37.8679 153.871 37.6957C154.023 37.6349 154.225 37.6349 154.397 37.6653C154.944 37.7869 155.177 38.263 154.955 38.7797C154.752 39.2457 154.448 39.6408 154.094 39.9852C153.516 40.5424 152.918 41.0793 152.341 41.6364C151.936 42.0214 151.541 42.4063 151.156 42.8014C151.085 42.8723 151.044 42.9736 150.983 43.0648C151.004 43.0952 151.024 43.1357 151.034 43.1661V43.1965Z" fill="#C09249"/>
<path d="M108.428 52.0612C112.794 45.669 117.16 39.4084 121.273 32.8844C121.06 32.8439 120.929 32.7932 120.807 32.8034C119.855 32.8135 118.892 32.8439 117.94 32.854C117.322 32.854 116.725 32.7932 116.147 32.5805C115.256 32.2462 114.901 31.5067 115.195 30.6152C115.245 30.4531 115.347 30.291 115.468 30.1593C115.722 29.8858 116.005 29.6427 116.279 29.3894C116.856 28.8728 117.464 28.3865 118.011 27.8395C118.69 27.1709 119.48 26.948 120.402 27.0392C121.354 27.1303 122.306 27.1911 123.259 27.2722C123.421 27.2823 123.593 27.2924 123.755 27.3228C124.059 27.3735 124.272 27.2722 124.464 27.0189C125.609 25.4892 126.764 23.9697 127.929 22.4501C131.069 18.3372 134.21 14.2141 137.37 10.1113C139.356 7.54828 141.382 5.02581 143.398 2.49321C143.884 1.88539 143.884 1.89552 144.684 1.89552C145.333 1.89552 145.991 1.89552 146.64 1.89552C147.166 1.89552 147.217 1.93604 147.146 2.47295C147.055 3.16182 146.943 3.84055 146.822 4.51929C146.376 6.9202 145.981 9.3211 145.728 11.7423C145.566 13.3125 145.454 14.8827 145.363 16.463C145.201 19.0767 145.181 21.6903 145.201 24.3141C145.211 25.5297 145.262 26.7555 145.272 27.9712C145.272 28.2751 145.404 28.427 145.677 28.5081C145.991 28.5891 146.255 28.7613 146.488 28.9943C147.055 29.5718 146.954 30.5342 146.265 30.9698C146.113 31.0609 145.951 31.142 145.789 31.2129C145.586 31.2939 145.485 31.4358 145.495 31.6586C145.515 32.3374 145.515 33.0161 145.556 33.6948C145.657 35.2549 145.961 36.7745 146.417 38.2535C146.629 38.9525 146.903 39.6414 147.156 40.3201C147.278 40.6342 147.349 40.9482 147.288 41.2926C147.146 42.0727 146.427 42.5589 145.657 42.3766C145.454 42.3259 145.262 42.2449 145.069 42.1638C144.786 42.0423 144.502 41.9714 144.178 42.0524C143.894 42.1335 143.6 42.1031 143.327 41.9815C142.901 41.7789 142.476 41.5864 142.061 41.3635C141.706 41.1711 141.483 40.8672 141.321 40.4923C140.977 39.7123 140.744 38.912 140.551 38.0813C140.075 36.0856 139.731 34.0697 139.538 32.0233C139.538 31.9423 139.518 31.8612 139.498 31.7802C139.427 31.4763 139.325 31.375 139.001 31.3952C138.474 31.4155 137.948 31.4256 137.431 31.5067C135.861 31.7802 134.301 32.0841 132.741 32.3779C131.231 32.6615 129.702 32.8338 128.162 32.8034C127.372 32.7932 126.581 32.8034 125.791 32.773C125.416 32.7628 125.183 32.8945 124.981 33.2086C123.188 36.0147 121.385 38.8006 119.591 41.5965C117.434 44.9497 115.266 48.3029 113.118 51.656C112.936 51.9498 112.733 52.0714 112.389 52.0714C111.254 52.0511 110.12 52.0714 108.985 52.0714C108.853 52.0714 108.711 52.0612 108.458 52.041L108.428 52.0612ZM141.179 10.0201L141.058 9.97958C140.977 10.0707 140.886 10.1518 140.815 10.243C140.338 10.8609 139.862 11.4586 139.396 12.0867C136.732 15.7336 134.068 19.3705 131.414 23.0275C130.441 24.3749 129.489 25.7425 128.537 27.0999C128.435 27.2519 128.263 27.3836 128.324 27.6267C128.395 27.647 128.456 27.6774 128.516 27.6774C129.043 27.7078 129.57 27.7382 130.087 27.7686C130.613 27.7989 131.14 27.8293 131.657 27.8699C132.953 27.9712 134.25 28.1029 135.547 28.1738C136.6 28.2244 137.654 28.194 138.707 28.194C139.042 28.194 139.082 28.1535 139.092 27.8091C139.092 27.3127 139.092 26.8163 139.092 26.3098C139.092 25.2866 139.082 24.2634 139.133 23.2403C139.194 22.055 139.315 20.8698 139.427 19.6845C139.609 17.8104 139.903 15.9464 140.288 14.1026C140.551 12.887 140.845 11.6714 141.119 10.4557C141.149 10.3139 141.159 10.1721 141.179 10.0302V10.0201Z" fill="#C09249"/>
<path d="M91.7808 13.1794C91.7605 12.9869 91.7402 12.8755 91.7402 12.7742C91.7402 11.9131 91.7402 11.0622 91.7402 10.2011C91.7402 9.92755 91.8415 9.76546 92.0644 9.63377C92.9255 9.12725 93.7663 8.59034 94.6375 8.11421C97.0384 6.79726 99.5913 5.91591 102.286 5.44991C103.188 5.29796 104.099 5.2473 105.011 5.146C106.024 5.03457 107.027 5.08522 108.04 5.146C109.002 5.20678 109.965 5.26757 110.917 5.53096C112.305 5.90578 112.984 6.84791 113.156 8.20538C113.227 8.75242 113.237 9.30959 113.247 9.85663C113.247 10.4138 113.126 10.9608 112.913 11.4674C112.832 11.67 112.71 11.8625 112.558 12.0245C112.123 12.4804 111.586 12.6628 110.978 12.4196C110.35 12.1765 109.722 11.9131 109.104 11.6396C108 11.1635 106.855 10.8595 105.69 10.6265C104.039 10.3024 102.367 10.2011 100.685 10.2922C98.3149 10.4239 96.0254 10.9305 93.8777 11.984C93.3206 12.2575 92.7938 12.602 92.2569 12.9059C92.1252 12.9768 92.0036 13.068 91.8111 13.1895L91.7808 13.1794Z" fill="#C09249"/>
<path d="M91.7605 37.8267C91.9125 37.9178 92.0036 37.9685 92.0847 38.0394C94.1006 39.6299 96.3698 40.653 98.9024 41.1089C101.273 41.5243 103.613 41.3824 105.913 40.6834C107.625 40.1668 109.205 39.3766 110.684 38.3838C111.049 38.1407 111.424 37.8976 111.788 37.6443C112.042 37.4721 112.285 37.4012 112.558 37.5937C112.781 37.7557 112.872 38.0495 112.781 38.3838C112.649 38.8701 112.396 39.3057 112.021 39.6501C111.434 40.1972 110.846 40.7543 110.218 41.2406C108.911 42.2435 107.534 43.1451 106.034 43.8542C104.039 44.7964 101.962 45.4954 99.7635 45.8499C98.6086 46.0323 97.4538 46.1235 96.2888 46.1032C94.8604 46.0829 93.4523 45.8398 92.0745 45.465C91.7605 45.3839 91.7402 45.3434 91.7402 44.9888C91.7402 44.1987 91.7402 43.4085 91.7402 42.6183C91.7402 41.19 91.7402 39.7717 91.7402 38.3433C91.7402 38.2015 91.7504 38.0495 91.7605 37.8368V37.8267Z" fill="#C09249"/>
<path d="M141.177 10.0184C141.157 10.1603 141.147 10.3021 141.117 10.4439C140.843 11.6595 140.549 12.8651 140.286 14.0908C139.891 15.9346 139.597 17.7986 139.425 19.6727C139.313 20.8579 139.192 22.0432 139.131 23.2285C139.08 24.2516 139.101 25.2748 139.09 26.298C139.09 26.7944 139.09 27.2908 139.09 27.7973C139.09 28.1417 139.04 28.1822 138.705 28.1822C137.652 28.1822 136.598 28.2126 135.545 28.162C134.248 28.1012 132.951 27.9594 131.655 27.8581C131.128 27.8175 130.601 27.7871 130.085 27.7567C129.558 27.7264 129.031 27.696 128.514 27.6656C128.454 27.6656 128.383 27.6352 128.322 27.6149C128.261 27.3718 128.423 27.2401 128.535 27.0881C129.487 25.7307 130.439 24.3631 131.412 23.0157C134.066 19.3688 136.73 15.7218 139.394 12.0749C139.85 11.4468 140.336 10.839 140.813 10.2312C140.884 10.14 140.975 10.0589 141.056 9.96777L141.177 10.0083V10.0184Z" fill="#1D1F1C"/>
</g>
<defs>
<clipPath id="clip0_2184_999">
<rect width="195" height="68.4713" fill="white"/>
</clipPath>
</defs>
</svg>
