<svg width="156" height="60" viewBox="0 0 156 60" fill="none" xmlns="http://www.w3.org/2000/svg">
<g clip-path="url(#clip0_2088_818)">
<path d="M50.7046 56.7808C49.0308 55.4933 46.9278 52.7036 44.6531 48.9267C44.2239 48.24 44.2669 47.8538 44.6961 47.6392C46.7132 46.7808 48.8162 45.2358 48.8162 42.2315C48.8162 39.6134 47.357 37.8109 45.1252 36.7379C43.1081 35.8366 40.533 35.5791 37.0566 35.5791C33.151 35.5791 29.4171 35.7508 27.3999 35.8795C26.7991 36.0512 26.8849 37.2529 27.3141 37.4246L27.9579 37.5104C29.7604 37.8538 29.975 38.0255 29.975 42.3602V52.8323C29.975 56.3516 29.8033 57.1242 27.8291 57.3817L26.7561 57.4675C26.327 57.8109 26.4557 58.798 26.7991 59.0126C28.7304 58.9267 30.7476 58.8409 32.8935 58.8409C34.9106 58.8409 36.9707 58.8838 38.8591 59.0126C39.2454 58.798 39.3312 57.7679 38.9021 57.4675L37.8291 57.3817C35.8548 57.1242 35.6832 56.3516 35.6832 52.8323V49.6134C35.6832 48.798 35.769 48.7121 36.7132 48.7121C37.7433 48.7121 38.43 48.9267 39.0308 49.8709C39.8463 51.3302 41.2197 53.7336 42.4643 55.3645C44.6102 58.24 46.6703 59.2272 50.0609 59.2272C51.8634 59.2272 52.7218 59.1413 53.3227 58.8409C53.5802 58.6692 53.5802 57.9825 53.2797 57.8109C52.5501 57.8538 51.6488 57.5534 50.7046 56.7808ZM38.387 47.1242C37.0995 47.1242 36.2411 47.0812 36.0265 46.9096C35.8119 46.7379 35.7261 46.3946 35.7261 45.7508V38.8838C35.7261 37.6392 35.9407 37.5963 37.7433 37.5963C40.6617 37.5963 42.6789 39.5705 42.6789 42.6177C42.6789 44.9782 41.3913 47.1242 38.387 47.1242Z" fill="black"/>
<path d="M124.139 36.8674C122.036 35.7516 119.332 35.4511 115.684 35.4082C114.697 35.4082 112.766 35.4511 110.92 35.537C110.019 35.5799 108.732 35.6228 107.401 35.6657C104.998 35.7086 102.38 35.7086 101.092 35.7086C100.92 35.7086 100.706 35.7086 100.534 35.7086C98.9891 35.7086 97.7873 35.6657 95.9848 35.537C95.4697 35.7945 95.4697 36.7387 95.8989 37.082L97.3152 37.2537C98.7315 37.4254 99.1178 38.1121 99.2895 40.1722C99.3324 40.8159 99.5041 42.5756 99.5041 44.8503V49.2279C99.5041 54.0777 98.1307 57.3395 93.5813 57.3395C89.2895 57.3395 87.6157 53.949 87.6157 49.185V41.7172C87.6157 38.2408 87.7873 37.4683 89.7187 37.2108L90.7916 37.1249C91.2208 36.8245 91.0921 35.7945 90.7487 35.5799C88.8603 35.6657 86.8431 35.7516 84.826 35.7516C82.723 35.7516 80.7058 35.7086 78.7745 35.5799C78.3882 35.7945 78.3024 36.7816 78.7315 37.1249L79.8045 37.2108C81.7787 37.4683 81.9075 38.1979 81.9075 41.7172V49.743C81.9075 53.7344 82.9805 56.1378 84.8689 57.6829C86.4998 59.0563 89.032 59.5284 92.0363 59.5284C94.826 59.5284 97.5727 58.7129 99.2895 57.1679C100.963 55.5799 101.865 52.876 101.865 49.4855V44.8073C101.865 42.5327 101.95 40.773 102.036 40.0863C102.036 39.7859 102.079 39.4855 102.122 39.2279C102.165 39.0992 102.208 38.9704 102.251 38.7988C102.251 38.7558 102.294 38.7129 102.294 38.67C102.465 38.2408 102.766 37.8975 103.152 37.64C103.195 37.597 103.238 37.5541 103.324 37.5541C103.367 37.5112 103.41 37.5112 103.495 37.4683C103.538 37.4683 103.538 37.4254 103.581 37.4254C103.667 37.3825 103.753 37.3395 103.839 37.3395C103.882 37.3395 103.882 37.3395 103.925 37.2966C103.968 37.2966 104.011 37.2537 104.053 37.2537H104.096C104.483 37.1679 104.912 37.082 105.427 37.082C107.315 37.082 108.302 37.8546 108.603 38.9704C108.603 38.9704 108.689 39.0563 108.732 39.5713C108.732 39.6142 108.732 39.6571 108.732 39.7C108.774 40.0005 108.774 40.4297 108.774 41.0305C108.774 41.4168 108.774 46.9103 108.774 47.3825V52.7473C108.774 56.2666 108.603 57.0391 106.629 57.2966L105.813 57.3825C105.384 57.7258 105.513 58.7129 105.856 58.9275C107.53 58.7988 109.547 58.7558 111.693 58.7558C113.71 58.7558 115.77 58.7988 117.959 58.9275C118.345 58.7129 118.431 57.6829 118.002 57.3825L116.671 57.2108C114.697 56.9962 114.526 56.2666 114.526 52.7043V49.1421C114.998 49.3567 115.556 49.3996 116.199 49.4855C116.199 49.4855 117.659 49.6142 119.418 49.4855C123.667 49.3138 127.83 47.4683 127.83 42.8331C127.787 39.9576 126.199 37.9404 124.139 36.8674ZM117.229 48.3696C116.071 48.5842 115.169 48.4125 114.44 48.1121V38.9704C114.44 37.5112 114.783 37.4683 116.843 37.4683C119.289 37.4683 121.478 39.3996 121.478 42.4897C121.521 45.8803 119.847 47.8975 117.229 48.3696Z" fill="black"/>
<path d="M25.6848 48.6264C25.6848 48.6264 26.0282 48.2401 26.0282 47.7251C26.0282 47.253 25.7277 46.9526 25.6848 46.8667C24.3543 46.9526 23.1097 46.9955 21.6934 46.9955C19.29 46.9955 17.2728 46.9096 15.2556 46.7809C14.6977 46.9955 14.6548 48.0684 15.084 48.326L16.4144 48.5405C18.7749 48.9697 18.9037 49.356 18.9037 51.3732V55.7938C18.9037 57.3388 17.4874 57.6393 15.3415 57.6393C10.4917 57.6393 6.62902 53.6478 6.62902 46.9526C6.62902 41.3302 9.54748 36.9096 14.7835 36.9096C18.6033 36.9096 21.0067 38.4547 22.2513 42.3174C22.6376 42.7036 23.5818 42.5749 23.7535 42.1457C23.3672 39.3989 23.1955 37.0813 23.1955 36.0084C22.1655 35.7508 18.5604 34.8066 15.1698 34.8066C10.2342 34.8066 5.98525 36.5234 3.49598 39.0127C0.963788 41.5448 0.0625 44.7208 0.0625 47.5963C0.0625 50.5577 1.26422 53.7337 3.45306 55.8367C6.19984 58.4118 10.1913 59.6564 14.7835 59.6564C16.8436 59.6564 19.9767 59.3131 22.5518 58.8839L23.4531 58.7551C23.4531 58.7551 24.4831 58.4976 24.4831 57.7251C24.4831 56.9526 24.526 54.6779 24.526 54.6779V51.3302C24.526 49.4848 24.5689 48.9697 25.6848 48.6264Z" fill="black"/>
<path d="M64.9996 35.2793C56.888 35.2793 51.3516 40.8158 51.3516 48.069C51.3516 54.6355 56.2872 60.0003 64.9996 60.0003C72.8108 60.0003 78.2614 54.8072 78.2614 47.4252C78.2185 41.0733 73.7979 35.2793 64.9996 35.2793ZM65.1284 57.9402C59.9353 57.9402 57.7893 52.4038 57.7893 46.9531C57.7893 39.9145 61.3516 37.3394 64.3988 37.3394C69.4202 37.3394 71.7378 42.5325 71.7378 48.7128C71.7807 55.2364 68.8194 57.9402 65.1284 57.9402Z" fill="black"/>
<path d="M25.3414 21.2017C23.7105 19.9142 21.5645 17.1674 19.2899 13.3476C18.8607 12.6609 18.9036 12.2747 19.3328 12.0601C21.3499 11.2017 23.4529 9.65665 23.4529 6.65236C23.4529 4.03433 21.9937 2.23176 19.762 1.1588C17.7448 0.257511 15.2126 0 11.7362 0C7.83062 0 4.09672 0.171674 2.03663 0.343348C1.47869 0.472103 1.52161 1.71674 1.95079 1.88841L2.59457 1.97425C4.39715 2.3176 4.61174 2.48927 4.61174 6.82403V17.2961C4.61174 20.8154 4.44006 21.588 2.46582 21.8455L1.39285 21.9742C0.963669 22.2747 1.09242 23.3047 1.43577 23.5193C3.3671 23.4335 5.38427 23.3476 7.53019 23.3476C9.54736 23.3476 11.6074 23.3906 13.5388 23.5193C13.925 23.3047 14.0109 22.2747 13.5817 21.9742L12.5087 21.8884C10.5345 21.6309 10.3628 20.8584 10.3628 17.3391V14.1202C10.3628 13.3047 10.4486 13.2189 11.3929 13.2189C12.4229 13.2189 13.1096 13.4335 13.7105 14.3777C14.5259 15.8369 15.8993 18.2403 17.1439 19.8712C19.2899 22.7468 21.3499 23.7339 24.7405 23.7339C26.5431 23.7339 27.4014 23.6481 28.0023 23.3476C28.2598 23.176 28.2598 22.4893 27.9594 22.3176C27.2298 22.2747 26.3285 21.9742 25.3414 21.2017ZM13.0667 11.5451C11.7791 11.5451 10.9208 11.5021 10.7062 11.3305C10.4916 11.1588 10.4057 10.8155 10.4057 10.1717V3.30472C10.4057 2.06009 10.6203 2.01717 12.4229 2.01717C15.3414 2.01717 17.3156 3.99142 17.3156 7.03863C17.3156 9.39914 16.071 11.5451 13.0667 11.5451Z" fill="black"/>
<path d="M52.0796 0.214844C50.0624 0.300681 49.0753 0.386518 47.5302 0.386518C45.9851 0.386518 44.7834 0.343599 42.9809 0.214844C42.4658 0.472355 42.4658 1.41656 42.895 1.75991L44.3113 1.93158C45.7276 2.10326 46.1139 2.78995 46.2856 4.85004C46.3285 5.49381 46.5002 7.21055 46.5002 9.52815V13.9058C46.5002 18.7556 45.1268 22.0174 40.5774 22.0174C36.2856 22.0174 34.6118 18.6269 34.6118 13.8629V6.35218C34.6118 2.87579 34.7834 2.10326 36.7148 1.84575L37.7877 1.75991C38.2169 1.45948 38.0881 0.429436 37.7448 0.214844C35.8564 0.300681 33.8392 0.386518 31.8221 0.386518C29.7191 0.386518 27.7019 0.343599 25.7706 0.214844C25.3843 0.429436 25.2984 1.41656 25.7276 1.75991L26.8006 1.84575C28.689 2.14617 28.8607 2.87579 28.8607 6.35218V14.3779C28.8607 18.3694 29.9336 20.7728 31.8221 22.3178C33.453 23.6912 36.3285 24.1633 39.3328 24.1633C42.1225 24.1633 44.5688 23.3479 46.2427 21.7599C47.9165 20.1719 48.8178 17.4681 48.8178 14.0775V9.48523C48.8178 7.21055 48.9036 5.4509 48.9894 4.7642C49.0753 2.87579 49.4615 2.18909 50.9637 1.88866L52.1654 1.71699C52.6804 1.45948 52.5517 0.429436 52.0796 0.214844Z" fill="black"/>
<path d="M110.878 17.382C109.633 20.2146 108.732 21.3305 104.397 21.3305C101.093 21.3305 99.848 21.073 99.3759 20.515C98.9038 19.9142 98.7751 18.4979 98.7751 16.867V13.5622C98.7751 12.5322 98.818 12.4893 100.02 12.4893H101.994C104.955 12.4893 105.427 12.5322 105.857 14.1631L106.157 15.4506C106.5 15.7511 107.402 15.7082 107.659 15.3648C107.616 14.1202 107.488 12.7897 107.488 11.3734C107.488 10.0429 107.616 8.71245 107.659 7.46781C107.402 7.08154 106.5 7.03863 106.157 7.38197L105.857 8.66953C105.427 10.2575 104.955 10.3433 101.994 10.3433H100.02C98.8609 10.3004 98.7751 10.3004 98.7751 9.39914V4.93562C98.7751 2.36051 98.818 2.23176 100.148 2.23176H102.981C105.599 2.23176 106.972 2.44635 107.616 3.51931C107.917 4.07725 108.26 4.84978 108.56 5.75107C108.947 6.0515 109.848 6.00858 110.063 5.5794C109.977 3.13305 109.676 0.643777 109.548 0C109.075 0.0858369 106.93 0.171674 104.569 0.171674H95.9854C93.8394 0.171674 91.8223 0.128755 90.3201 0C89.9339 0.214592 89.848 1.24464 90.2772 1.54506L90.921 1.6309C92.8952 1.88841 93.0669 2.66094 93.0669 6.18026V17.2961C93.0669 20.8154 92.8952 21.588 90.921 21.8026L89.2472 21.9742C88.818 22.3176 88.9038 23.3047 89.2901 23.5193C91.7794 23.4335 93.8394 23.3476 95.9854 23.3476H101.694C104.569 23.3906 107.402 23.3906 110.792 23.5193C111.264 22.4893 111.908 19.8283 112.38 17.5966C111.994 17.2103 111.264 17.2103 110.878 17.382Z" fill="black"/>
<path d="M153.583 17.2103C151.995 21.073 151.136 21.3305 147.059 21.3305C144.098 21.3305 143.282 20.9442 142.853 20.515C142.338 19.8712 142.209 18.2833 142.209 16.6094V6.18026C142.209 2.66094 142.381 1.88841 144.355 1.6309L145.428 1.54506C145.857 1.24464 145.771 0.214592 145.385 0C143.454 0.0858369 141.437 0.171674 139.376 0.171674C137.231 0.171674 135.213 0.128755 133.11 0C132.724 0.214592 132.638 1.24464 133.067 1.54506L134.312 1.71674C136.286 1.93133 136.458 2.70386 136.458 6.22318V17.2103C136.415 17.897 136.243 20.0858 135.6 21.7167L135.514 21.8884C134.913 23.3047 135.643 23.3906 136.072 23.3906C136.158 23.3906 136.329 23.3906 136.587 23.3906C137.488 23.3906 138.432 23.3476 139.376 23.3476H144.741C147.359 23.3476 150.621 23.3906 153.54 23.5193C154.183 22.1888 154.87 19.3991 155.085 17.4249C154.784 16.9957 154.012 16.9528 153.583 17.2103Z" fill="black"/>
<path d="M133.582 17.2103C131.995 21.073 131.136 21.3305 127.059 21.3305C124.098 21.3305 123.282 20.9442 122.81 20.515C122.295 19.8712 122.166 18.2833 122.166 16.6094V6.18026C122.166 2.66094 122.338 1.88841 124.312 1.6309L125.385 1.54506C125.814 1.24464 125.728 0.214592 125.342 0C123.411 0.0858369 121.394 0.171674 119.376 0.171674C117.231 0.171674 115.213 0.128755 113.11 0C112.724 0.214592 112.638 1.24464 113.067 1.54506L114.269 1.71674C116.243 1.93133 116.415 2.70386 116.415 6.22318V17.3391C116.415 20.8584 116.243 21.6309 114.269 21.8884L113.196 21.9742C112.767 22.3176 112.853 23.3047 113.239 23.5193C115.17 23.4335 117.188 23.3476 119.334 23.3476H124.698C127.316 23.3476 130.578 23.3906 133.497 23.5193C134.14 22.1888 134.827 19.3991 135.042 17.4249C134.741 16.9957 134.012 16.9528 133.582 17.2103Z" fill="black"/>
<path d="M67.3569 0.987124C67.7861 2.103 68.1294 4.16309 68.2582 6.30901C67.9578 6.78112 67.1423 6.86695 66.7989 6.52361C65.8118 3.47639 63.9663 2.01717 61.4771 2.01717C59.2882 2.01717 57.8719 3.30472 57.8719 5.15021C57.8719 7.25322 59.8032 8.32618 62.0779 9.27039C65.6402 10.7296 69.0307 12.7897 69.0307 17.2103C69.0736 21.9742 64.6959 24.1631 59.6316 24.1631C56.5844 24.1631 54.138 23.4335 52.7217 22.2747C51.9492 20.8155 51.6917 18.5408 51.7775 16.3519C52.035 15.9227 52.8934 15.794 53.2367 16.2661C54.1809 19.4421 56.5414 22.1888 60.0608 22.1888C62.1638 22.1888 63.7088 20.9871 63.7088 19.0558C63.7088 16.6094 61.8633 15.1502 59.3741 14.0773C56.0264 12.7039 52.8505 10.5579 52.8505 6.82403C52.8505 2.48927 56.5844 0 61.8633 0C64.2668 0.0429185 65.9835 0.600858 67.3569 0.987124Z" fill="black"/>
<path d="M86.4584 0.987124C86.8876 2.103 87.2309 4.16309 87.3597 6.30901C87.0593 6.78112 86.2438 6.86695 85.9005 6.52361C84.9133 3.47639 83.0678 2.01717 80.5786 2.01717C78.3897 2.01717 76.9734 3.30472 76.9734 5.15021C76.9734 7.25322 78.9048 8.32618 81.1794 9.27039C84.7417 10.7296 88.1322 12.7897 88.1322 17.2103C88.1751 21.9742 83.7975 24.1631 78.6902 24.1631C75.643 24.1631 73.1966 23.4335 71.7803 22.2747C71.0078 20.8155 70.7502 18.5408 70.8361 16.3519C71.0936 15.9227 71.952 15.794 72.2953 16.2661C73.2395 19.4421 75.6 22.1888 79.1193 22.1888C81.2224 22.1888 82.7674 20.9871 82.7674 19.0558C82.7674 16.6094 80.9219 15.1502 78.4327 14.0773C75.085 12.7039 71.909 10.5579 71.909 6.82403C71.909 2.48927 75.643 0 80.9219 0C83.3683 0.0429185 85.085 0.600858 86.4584 0.987124Z" fill="black"/>
</g>
<defs>
<clipPath id="clip0_2088_818">
<rect width="154.979" height="60" fill="white" transform="translate(0.105469)"/>
</clipPath>
</defs>
</svg>
