<svg width="220" height="60" viewBox="0 0 220 60" fill="none" xmlns="http://www.w3.org/2000/svg">
<g clip-path="url(#clip0_2088_781)">
<path d="M13.1289 49.1959C16.2749 53.1729 19.9519 56.7648 24.0911 59.8581C28.1857 56.8054 31.883 53.2378 35.0694 49.2283L24.083 38.5459L13.1289 49.2V49.1959Z" fill="#EF7B10"/>
<path d="M8.01645 41.5578L24.0908 26.1159L40.1975 41.5984C42.8732 36.843 44.9043 31.6416 46.1529 26.0795C46.2097 25.8159 46.2543 25.5524 46.311 25.293H1.88672C3.08672 31.0173 5.1705 36.4943 8.01645 41.5578Z" fill="#EF7B10"/>
<path d="M8.00781 41.5581C9.50781 44.2297 11.2186 46.7838 13.1281 49.2L24.0821 38.5459L35.0686 49.2284C36.9659 46.8365 38.6808 44.2905 40.1889 41.5986L24.0821 26.1162L8.00781 41.5581Z" fill="#EF7B10"/>
<path d="M35.0205 48.4699L24.4394 38.1767L24.0827 37.8362L23.73 38.1767L13.1773 48.4456C11.5029 46.2726 9.97456 43.9902 8.63672 41.651L24.0827 26.8213L39.557 41.6956C38.207 44.0591 36.6827 46.3335 35.0205 48.474" fill="#1D1D1B"/>
<path d="M24.0821 26.1162L40.1889 41.5986C38.6808 44.2865 36.9659 46.8324 35.0686 49.2243L24.0821 38.5419L13.1281 49.2C11.2146 46.7838 9.50376 44.2297 8.00781 41.5581L24.0821 26.1203M24.0821 27.5149L9.27268 41.7365C10.4565 43.7838 11.7862 45.7824 13.2375 47.6878L23.3808 37.8162L24.0862 37.1311L24.7916 37.8162L34.9713 47.7122C36.4105 45.823 37.7362 43.8324 38.9321 41.777L24.0902 27.5108L24.0821 27.5149Z" fill="#1D1D1B"/>
<path d="M47.3101 8.82603C45.4209 9.39766 43.4182 9.70982 41.3303 9.70982C33.9803 9.70982 27.5587 5.85036 24.0965 0.0976562C20.6263 5.8463 14.2087 9.70982 6.85871 9.70982C4.77898 9.70982 2.77222 9.39766 0.887087 8.83009C0.396547 14.4409 0.753304 19.9747 1.86817 25.3017H46.2966C47.4601 19.7477 47.7722 14.2139 47.3101 8.82603Z" fill="#1D1D1B"/>
<mask id="mask0_2088_781" style="mask-type:luminance" maskUnits="userSpaceOnUse" x="13" y="10" width="23" height="14">
<path d="M35.0481 10.8447H13.1562V23.7569H35.0481V10.8447Z" fill="white"/>
</mask>
<g mask="url(#mask0_2088_781)">
<mask id="mask1_2088_781" style="mask-type:luminance" maskUnits="userSpaceOnUse" x="13" y="10" width="23" height="14">
<path d="M35.0481 10.8447H13.1562V23.7569H35.0481V10.8447Z" fill="white"/>
</mask>
<g mask="url(#mask1_2088_781)">
<path d="M35.0483 15.6204V13.7312H33.8929V12.4015L32.6848 12.0609H32.5956V10.9299C32.5956 10.9299 32.178 11.4326 30.2645 11.4326C28.351 11.4326 27.3861 10.8447 25.9429 10.8447C24.4996 10.8447 24.1307 11.6353 24.1307 11.6353V12.0934H24.0821V11.6353C24.0821 11.6353 23.6523 10.8447 22.2699 10.8447C20.8875 10.8447 19.7645 11.4326 17.9483 11.4326C16.0348 11.4326 15.7023 10.9339 15.7023 10.9339V12.1218H15.6253L14.3159 12.3974V13.7272H13.1523V15.6163H14.3159V18.6691H13.1523V20.5623H14.3159V22.9096C14.3159 22.9096 16.2577 23.2096 18.0537 23.2096C20.178 23.2096 21.4023 22.9055 22.7848 22.8772V23.4731C22.7848 23.4731 23.3402 23.7447 24.0821 23.7447C24.824 23.7447 25.424 23.4731 25.424 23.4731V22.8772C26.8023 22.9055 28.0267 23.2096 30.1632 23.2096C31.951 23.2096 33.8969 22.9096 33.8969 22.9096V20.5623H35.0523V18.6691H33.8969V15.6163H35.0523L35.0483 15.6204Z" fill="white"/>
</g>
</g>
<path d="M32.7756 11.9354V10.4881L32.4269 10.857C32.4269 10.8611 31.9931 11.2908 30.2418 11.2908L27.8702 10.9746L25.9202 10.703C24.8499 10.703 24.3188 11.1408 24.0796 11.4043C23.8485 11.1408 23.3094 10.703 22.2431 10.703L20.2972 10.9786L17.9256 11.2908C16.2026 11.2908 15.8418 10.8773 15.8418 10.8773L15.485 10.4395V10.9989L15.481 11.9922L14.0742 12.2881V23.1449L14.2445 23.1692C14.2648 23.1732 16.2229 23.4732 18.0148 23.4732C19.8067 23.4732 21.8823 23.2422 22.5431 23.1651V23.6557L22.6526 23.7124C22.6769 23.7246 23.2607 24.0084 24.0431 24.0084C24.8256 24.0084 25.4458 23.7246 25.4702 23.7124L25.5877 23.6557V23.1611C26.2485 23.2381 28.3485 23.4692 30.1242 23.4692C31.8999 23.4692 33.8742 23.1692 33.8904 23.1651L34.0607 23.1408V12.2962L32.7715 11.9354H32.7756ZM24.2864 11.7976C24.3026 11.7732 24.6877 11.1084 25.9242 11.1084L27.7891 11.3719L30.2458 11.6962C31.4377 11.6962 32.0418 11.5097 32.3783 11.3516V21.6124C32.354 21.5638 31.8715 21.9286 30.2458 21.9286L27.8742 21.6124L25.9242 21.3408C25.081 21.3408 24.5823 21.6124 24.2864 21.8557V11.8016V11.7976ZM15.8823 11.3678C16.2067 11.53 16.7864 11.7003 17.9296 11.7003L20.3864 11.3759L22.2472 11.1084C23.4756 11.1084 23.8607 11.7651 23.885 11.7976V21.8557C23.585 21.6084 23.0864 21.3367 22.231 21.3367L20.285 21.6084L17.9296 21.9205C16.2067 21.9205 15.8458 21.507 15.8458 21.4989C15.8458 21.4989 15.8823 12.0449 15.8864 11.3597M33.6634 22.7922C33.1688 22.8651 31.5958 23.0719 30.1283 23.0719C28.0283 23.0719 25.4418 22.7435 25.4175 22.7395L25.1904 22.703V23.3962C24.9918 23.4692 24.558 23.607 24.0512 23.607C23.5445 23.607 23.1431 23.4692 22.9526 23.4043V22.707L22.7296 22.7435C22.7012 22.7435 20.1107 23.0759 18.0229 23.0759C16.5512 23.0759 14.9783 22.8692 14.4837 22.7962V12.6205C14.6661 12.584 15.2175 12.4624 15.4891 12.4097V21.6246C15.5864 21.8395 16.008 22.33 17.9377 22.33L20.3783 22.0138L22.2431 21.7422C23.4918 21.7422 23.881 22.403 23.8972 22.4354L23.9539 22.3989H24.2418L24.2945 22.4354C24.3107 22.403 24.6958 21.7422 25.9323 21.7422L27.7972 22.0057L30.254 22.33C32.208 22.33 32.6945 21.8192 32.7431 21.7584L32.7796 12.3651C33.035 12.434 33.5053 12.5638 33.6675 12.6165V22.8003L33.6634 22.7922Z" fill="#1D1D1B"/>
<path d="M18.744 13.1753C18.5859 13.1874 18.4845 13.2726 18.4359 13.378L17.7872 14.8172C17.7872 14.8172 17.7548 14.8415 17.7386 14.8415C17.7183 14.8415 17.6899 14.8172 17.6778 14.7726C17.6616 14.7239 17.5805 14.5212 17.4143 14.1239L17.2035 13.6577C17.1305 13.4834 17.0697 13.3699 17.0494 13.3334C16.9764 13.2037 16.8832 13.1915 16.7778 13.1753C16.7656 13.1591 16.7656 13.1428 16.7656 13.1347C16.7656 13.1185 16.7656 13.1104 16.7737 13.0861H16.8791C17.0008 13.0861 17.1021 13.0982 17.1954 13.0982C17.3008 13.0982 17.4751 13.082 17.5967 13.082H17.6656C17.6656 13.082 17.6818 13.1145 17.6818 13.1226C17.6818 13.1307 17.6818 13.1591 17.6737 13.1672C17.5967 13.1793 17.4183 13.1712 17.4183 13.2847C17.4183 13.3091 17.4183 13.3537 17.4345 13.382L17.8602 14.3915L18.217 13.5564C18.2616 13.4591 18.2656 13.378 18.2656 13.3334C18.2656 13.2361 18.1967 13.1955 18.0224 13.1753C18.0183 13.1631 18.0102 13.1469 18.0102 13.1347C18.0102 13.1226 18.0183 13.0982 18.0224 13.0861H18.071C18.1481 13.0861 18.2291 13.1023 18.4075 13.1023C18.44 13.1023 18.5616 13.0901 18.6183 13.0901H18.744C18.7521 13.1104 18.7602 13.1185 18.7602 13.1347C18.7602 13.1469 18.7521 13.1672 18.744 13.1793" fill="#1D1D1B"/>
<path d="M20.5442 14.7856C20.0294 14.7856 19.7496 14.7734 19.6767 14.7734C19.624 14.7734 19.4942 14.7734 19.4334 14.7734C19.3645 14.7734 19.1983 14.7856 19.0159 14.7856H18.9105C18.9105 14.7856 18.9023 14.7612 18.9023 14.745C18.9023 14.7329 18.9023 14.7126 18.9023 14.6964C19.0442 14.6883 19.1415 14.6639 19.1659 14.6437C19.1942 14.6072 19.2145 14.5383 19.2226 14.3842C19.2226 14.3072 19.2226 14.222 19.2226 14.1288C19.2226 13.9991 19.2226 13.8369 19.2226 13.6545V13.3829C19.2186 13.1964 19.1253 13.1964 18.9307 13.1721C18.9307 13.1558 18.9226 13.1437 18.9226 13.1315C18.9226 13.1193 18.9267 13.091 18.9388 13.0869H19.0321C19.0969 13.0869 19.2672 13.091 19.5875 13.091C19.8834 13.091 20.1672 13.091 20.2361 13.091C20.2726 13.091 20.3902 13.0991 20.4104 13.0991C20.451 13.0991 20.4672 13.0991 20.4672 13.1356L20.4915 13.5207C20.4672 13.5369 20.4632 13.541 20.4429 13.541C20.4267 13.541 20.4145 13.541 20.4064 13.5369C20.2888 13.3423 20.2361 13.3018 20.1469 13.2369C20.1145 13.2166 20.0699 13.2004 19.9969 13.1964C19.9726 13.1964 19.9159 13.1923 19.7699 13.1923C19.6523 13.1923 19.5915 13.1964 19.5753 13.1964C19.5591 13.1964 19.5591 13.1964 19.551 13.2653C19.551 13.3018 19.5429 13.3829 19.5429 13.6058V13.8248H19.6037C19.6767 13.8248 19.7537 13.8207 19.7983 13.8085C19.8632 13.7923 19.9361 13.7477 19.9726 13.6869C19.9888 13.6666 20.005 13.5734 20.0132 13.545C20.0213 13.5369 20.0415 13.5329 20.0659 13.5329C20.0821 13.5329 20.0983 13.5329 20.1105 13.545C20.1064 13.6139 20.0942 13.7437 20.0942 13.9099C20.0942 13.995 20.1023 14.1775 20.1023 14.2464C20.0861 14.2585 20.078 14.2585 20.0537 14.2585C20.0415 14.2585 20.0172 14.2585 20.005 14.2585C19.9929 14.1126 19.9686 14.0112 19.8429 13.9666C19.774 13.9383 19.7213 13.9302 19.6523 13.9302C19.6199 13.9302 19.5753 13.9302 19.5429 13.9383V14.3842C19.5429 14.4896 19.551 14.5504 19.5672 14.5869C19.5794 14.6153 19.6199 14.672 19.6686 14.6802C19.6929 14.6842 19.7375 14.6923 19.8267 14.6923H20.074C20.1348 14.6923 20.224 14.6842 20.2564 14.668C20.3172 14.6275 20.4753 14.4572 20.528 14.3031C20.5523 14.291 20.5645 14.291 20.5807 14.291C20.5929 14.291 20.6091 14.295 20.6294 14.3031V14.7531C20.6294 14.7937 20.601 14.7977 20.5402 14.7977" fill="#1D1D1B"/>
<path d="M22.5927 13.6219C22.5927 13.6219 22.5644 13.6178 22.5441 13.6178C22.5035 13.5124 22.459 13.4151 22.4184 13.3665C22.3495 13.2773 22.2806 13.2206 22.1022 13.2003C22.0617 13.1962 21.9684 13.1962 21.936 13.1962V13.9503C21.936 14.0678 21.936 14.2057 21.936 14.4651C21.94 14.6638 22.0252 14.6638 22.2319 14.6922C22.2441 14.7124 22.2481 14.7287 22.2481 14.7408C22.2481 14.757 22.2481 14.7651 22.236 14.7854H22.163C22.0454 14.7854 21.8063 14.7773 21.7333 14.7773C21.6806 14.7773 21.4211 14.7895 21.2995 14.7895C21.2873 14.7692 21.2873 14.7692 21.2873 14.7449C21.2873 14.7368 21.2873 14.7165 21.2954 14.7003C21.5711 14.68 21.5954 14.6314 21.6035 14.5422C21.6117 14.4895 21.6117 14.2624 21.6117 14.0354V13.4151C21.6117 13.3341 21.6035 13.253 21.5954 13.2043C21.5427 13.2043 21.3765 13.2043 21.3319 13.2246C21.1941 13.2733 21.0927 13.3868 20.9873 13.5976C20.9752 13.5976 20.9549 13.5976 20.9468 13.5976C20.9306 13.5976 20.9144 13.5976 20.9062 13.5854V13.1476C20.9062 13.1111 20.9063 13.0989 20.9549 13.0989C20.9954 13.0989 21.0603 13.103 21.1414 13.103C21.2022 13.103 21.4535 13.103 21.7617 13.103C22.1711 13.103 22.4752 13.0908 22.5522 13.0908C22.5927 13.0908 22.6211 13.0908 22.6373 13.107C22.6414 13.1151 22.6373 13.1435 22.6373 13.1678V13.6057C22.6373 13.6057 22.609 13.63 22.5968 13.63" fill="#1D1D1B"/>
<path d="M18.6596 16.2889C18.6596 16.2889 18.6312 16.2848 18.6069 16.2848C18.5704 16.1794 18.5258 16.0821 18.4812 16.0335C18.4163 15.9443 18.3434 15.8875 18.169 15.8713C18.1285 15.8673 18.0312 15.8673 18.0028 15.8673V16.6213C17.9988 16.7389 17.9988 16.8767 18.0028 17.1362C18.0028 17.3348 18.0961 17.3348 18.2988 17.3632C18.3109 17.3794 18.3109 17.3997 18.3109 17.4078C18.3109 17.424 18.3109 17.4321 18.3028 17.4524H18.2299C18.1082 17.4524 17.869 17.4443 17.8001 17.4443C17.7474 17.4443 17.488 17.4565 17.3623 17.4565C17.3582 17.4362 17.3542 17.4362 17.3542 17.4119C17.3542 17.4038 17.3542 17.3835 17.3582 17.3673C17.6299 17.3429 17.6582 17.2984 17.6704 17.2092C17.6704 17.1565 17.6704 16.9294 17.6704 16.7024V16.0821C17.6704 16.0011 17.6704 15.92 17.6582 15.8713C17.6015 15.8713 17.4353 15.8713 17.3866 15.8916C17.2488 15.9402 17.1555 16.0538 17.0501 16.2646C17.0339 16.2646 17.0136 16.2646 17.0015 16.2646C16.9853 16.2646 16.9731 16.2646 16.9609 16.2524V15.8146C16.9609 15.7781 16.969 15.7659 17.0136 15.7659C17.0582 15.7659 17.115 15.77 17.2001 15.77C17.265 15.77 17.5123 15.77 17.8244 15.77C18.2258 15.77 18.5339 15.7578 18.6109 15.7578C18.6515 15.7578 18.6799 15.7578 18.6961 15.774C18.7001 15.7821 18.6961 15.8105 18.6961 15.8348V16.2727C18.6961 16.2727 18.6677 16.297 18.6555 16.297" fill="#1D1D1B"/>
<path d="M20.6066 17.453C20.0958 17.453 19.8079 17.4408 19.7431 17.4408C19.6904 17.4408 19.5606 17.4408 19.4958 17.4408C19.4309 17.4408 19.2606 17.453 19.0823 17.453H18.9809C18.9809 17.453 18.9688 17.4287 18.9688 17.4125C18.9688 17.4003 18.9687 17.38 18.9769 17.3638C19.1187 17.3516 19.216 17.3273 19.2323 17.3071C19.2647 17.2706 19.2809 17.2016 19.289 17.0476C19.289 16.9665 19.2971 16.8814 19.2971 16.7881C19.2971 16.6584 19.2931 16.5003 19.2931 16.3138C19.2931 16.176 19.2931 16.0989 19.2931 16.0422C19.289 15.8598 19.2039 15.8598 19.0093 15.8314C19.0012 15.8152 18.9971 15.7989 18.9971 15.7868C18.9971 15.7787 19.0052 15.7503 19.0174 15.7422H19.1066C19.1755 15.7422 19.3417 15.7462 19.662 15.7462C19.962 15.7462 20.2417 15.7462 20.3147 15.7462C20.3471 15.7462 20.4687 15.7503 20.485 15.7503C20.5296 15.7503 20.5458 15.7503 20.5458 15.7868L20.566 16.1719C20.566 16.1719 20.5377 16.1881 20.5174 16.1881C20.5052 16.1881 20.4931 16.1881 20.4809 16.1841C20.3715 15.9895 20.3147 15.953 20.2215 15.8881C20.189 15.8679 20.1485 15.8516 20.0755 15.8476C20.0512 15.8476 19.9944 15.8435 19.8444 15.8435C19.7269 15.8435 19.666 15.8476 19.6539 15.8476C19.6336 15.8476 19.6336 15.8476 19.6255 15.9125C19.6255 15.953 19.6255 16.03 19.6255 16.253V16.4719H19.6782C19.7552 16.4719 19.8323 16.4679 19.8728 16.4557C19.9417 16.4395 20.0106 16.3908 20.0471 16.3341C20.0593 16.3138 20.0755 16.2206 20.0836 16.1922C20.0998 16.1841 20.1201 16.18 20.1363 16.18C20.1566 16.18 20.1728 16.1841 20.1809 16.1922C20.1809 16.2611 20.1647 16.3908 20.1647 16.5571C20.1647 16.6422 20.1769 16.8246 20.1769 16.8935C20.1566 16.9057 20.1525 16.9057 20.1282 16.9057C20.112 16.9057 20.0917 16.9057 20.0755 16.9057C20.0633 16.7598 20.0431 16.6584 19.9133 16.6138C19.8444 16.5854 19.7917 16.5773 19.7269 16.5773C19.6944 16.5773 19.6458 16.5773 19.6133 16.5854V17.0314C19.6133 17.1327 19.6215 17.1935 19.6336 17.23C19.6458 17.2584 19.6863 17.3152 19.735 17.3233C19.7593 17.3273 19.8079 17.3354 19.8931 17.3354H20.1444C20.2052 17.3354 20.2904 17.3273 20.3228 17.3111C20.3877 17.2706 20.5458 17.1003 20.5985 16.9462C20.6187 16.9341 20.635 16.9341 20.6471 16.9341C20.6593 16.9341 20.6796 16.9381 20.6958 16.9462V17.3962C20.6958 17.4368 20.6674 17.4408 20.6066 17.4408" fill="#1D1D1B"/>
<path d="M21.8023 17.4929C21.6604 17.4929 21.5064 17.4362 21.4091 17.3916C21.3929 17.3835 21.3604 17.3753 21.3442 17.3753C21.328 17.3753 21.2753 17.4037 21.2185 17.4443C21.178 17.4443 21.1293 17.424 21.1172 17.3916C21.1172 17.3591 21.1496 17.2537 21.1496 17.1848C21.1496 17.1443 21.1375 16.9497 21.1334 16.9091C21.1496 16.8848 21.178 16.8726 21.2064 16.8726H21.2348C21.2712 16.9456 21.3402 17.1321 21.3929 17.2051C21.5023 17.3267 21.6564 17.3835 21.7699 17.3835C21.8956 17.3835 21.9929 17.3591 22.0456 17.2983C22.1226 17.2213 22.1429 17.1767 22.1429 17.0956C22.1429 17.0348 22.1307 16.9781 22.0942 16.9416C22.0496 16.8848 22.0131 16.8645 21.9199 16.8159C21.8429 16.7794 21.5834 16.7145 21.4861 16.6618C21.3685 16.6091 21.3118 16.5605 21.251 16.4997C21.178 16.4105 21.1537 16.2848 21.1537 16.1875C21.1537 15.9159 21.3685 15.7051 21.6766 15.7051C21.7902 15.7051 21.9483 15.7213 22.0821 15.8226C22.1104 15.7943 22.1469 15.7578 22.1834 15.7253C22.2321 15.7253 22.2645 15.7537 22.2685 15.7699C22.2645 15.8064 22.2442 15.9159 22.2442 16.001C22.2442 16.0456 22.2685 16.224 22.2685 16.2564C22.2523 16.2645 22.2321 16.2767 22.2037 16.2767C22.1956 16.2767 22.1834 16.2767 22.1753 16.2726C22.1266 16.1875 22.0821 16.0497 22.0293 15.9726C21.9523 15.8672 21.8429 15.8267 21.6888 15.8267C21.5226 15.8267 21.3848 15.9362 21.3848 16.0781C21.3848 16.2199 21.4983 16.2848 21.5915 16.3294C21.6645 16.3537 21.7496 16.3902 21.8469 16.4186C21.9726 16.4632 22.0699 16.4956 22.1185 16.5199C22.3172 16.6253 22.3983 16.7713 22.3983 16.9699C22.3983 17.2862 22.1145 17.4889 21.7983 17.4889" fill="#1D1D1B"/>
<path d="M19.3413 20.1286C18.8223 20.1286 18.5426 20.1165 18.4737 20.1165C18.421 20.1165 18.2913 20.1165 18.2264 20.1165C18.1575 20.1165 17.9913 20.1246 17.8088 20.1246H17.7034C17.7034 20.1246 17.6953 20.1003 17.6953 20.084C17.6953 20.0719 17.6953 20.0516 17.6953 20.0354C17.8332 20.0273 17.9345 20.003 17.9548 19.9827C17.9832 19.9462 18.0034 19.8773 18.0115 19.7232C18.0115 19.6462 18.0115 19.5611 18.0115 19.4678C18.0115 19.3381 18.0115 19.1759 18.0115 18.9935V18.7219C18.0075 18.5354 17.9183 18.5354 17.7237 18.5111C17.7237 18.4948 17.7156 18.4827 17.7156 18.4665C17.7156 18.4584 17.7196 18.4259 17.7318 18.4219H17.8291C17.8899 18.4219 18.0602 18.4259 18.3845 18.4259C18.6804 18.4259 18.9683 18.4259 19.0331 18.4259C19.0737 18.4259 19.1872 18.43 19.2115 18.43C19.248 18.43 19.2683 18.43 19.2683 18.4705L19.2926 18.8557C19.2683 18.8678 19.2642 18.8759 19.244 18.8759C19.2277 18.8759 19.2156 18.8759 19.2075 18.8678C19.0899 18.6773 19.0372 18.6367 18.9521 18.5719C18.9196 18.5516 18.875 18.5354 18.8021 18.5273C18.7777 18.5273 18.7169 18.5232 18.575 18.5232C18.4575 18.5232 18.3967 18.5273 18.3804 18.5273C18.3642 18.5273 18.3642 18.5273 18.3561 18.5962C18.3561 18.6327 18.348 18.7138 18.348 18.9367V19.1557H18.4088C18.4818 19.1557 18.5588 19.1516 18.6034 19.1394C18.6683 19.1232 18.7413 19.0746 18.7777 19.0178C18.794 18.9976 18.8102 18.9043 18.8183 18.8759C18.8264 18.8678 18.8507 18.8597 18.871 18.8597C18.8872 18.8597 18.9034 18.8638 18.9156 18.8759C18.9115 18.9448 18.8994 19.0746 18.8994 19.2408C18.8994 19.3259 18.9075 19.5043 18.9075 19.5813C18.8872 19.5935 18.8791 19.5935 18.8588 19.5935C18.8467 19.5935 18.8223 19.5935 18.8102 19.5935C18.798 19.4476 18.7696 19.3503 18.648 19.2976C18.5791 19.2692 18.5264 19.2611 18.4575 19.2611C18.425 19.2611 18.3804 19.2611 18.348 19.2692V19.7151C18.348 19.8165 18.3561 19.8813 18.3723 19.9178C18.3845 19.9421 18.425 20.003 18.4737 20.0111C18.498 20.0151 18.5426 20.0232 18.6318 20.0232H18.875C18.9359 20.0232 19.0291 20.0151 19.0615 19.9989C19.1223 19.9584 19.2804 19.7881 19.3332 19.63C19.3575 19.6178 19.3696 19.6178 19.3859 19.6178C19.398 19.6178 19.4142 19.6219 19.4345 19.634V20.084C19.4345 20.1246 19.4061 20.1286 19.3453 20.1286" fill="#1D1D1B"/>
<path d="M21.8297 18.5062C21.6554 18.5143 21.5054 18.6116 21.5054 18.8832V19.7589C21.5054 19.7954 21.5176 20.0427 21.5176 20.1359C21.4892 20.1481 21.4608 20.1602 21.4486 20.1602C21.4365 20.1602 21.4203 20.1481 21.4 20.1359L20.2 18.8427L20.2122 19.1062V19.5846C20.2162 19.621 20.2243 19.7102 20.2324 19.7792C20.2405 19.8886 20.273 19.921 20.3216 19.9575C20.3784 20.0102 20.4757 20.0265 20.5486 20.0346C20.5568 20.0467 20.5608 20.0589 20.5608 20.071C20.5608 20.0751 20.5608 20.1035 20.5446 20.1156H20.4149C20.3054 20.1156 20.2203 20.1156 20.1068 20.1156C20.0297 20.1156 19.9243 20.1237 19.8514 20.1237H19.7946C19.7946 20.1237 19.7946 20.0913 19.7946 20.0832C19.7946 20.0751 19.7946 20.0589 19.8027 20.0386C19.8878 20.0305 20.0257 19.99 20.0743 19.921C20.0946 19.8805 20.1027 19.7994 20.1027 19.7183V19.1062C20.1027 19.0089 20.0986 18.9562 20.0946 18.8589C20.0905 18.7819 20.0743 18.721 20.0338 18.6765C20.0338 18.6643 19.9932 18.6278 19.9527 18.5873C19.9162 18.5548 19.8189 18.5305 19.7622 18.5021C19.7541 18.4859 19.75 18.4656 19.75 18.4656C19.75 18.4494 19.75 18.4292 19.7622 18.417H19.8068C19.8432 18.417 20.0297 18.4292 20.1676 18.4292H20.2487C20.2487 18.4292 20.2932 18.4535 20.3014 18.4656L21.1932 19.4386C21.2622 19.5075 21.3473 19.6089 21.3959 19.6737V18.9683C21.3959 18.8792 21.3919 18.8102 21.3838 18.7737C21.3757 18.7008 21.3635 18.6359 21.3351 18.5954C21.3068 18.5467 21.1405 18.5265 21.0554 18.5062C21.0432 18.49 21.0432 18.4697 21.0432 18.4535C21.0432 18.4454 21.0432 18.4373 21.0473 18.417H21.1C21.1811 18.417 21.3189 18.4292 21.4 18.4292C21.6027 18.4292 21.6676 18.421 21.7689 18.421H21.8378C21.8378 18.421 21.8459 18.4535 21.8459 18.4656C21.8459 18.4737 21.8459 18.494 21.8378 18.5062" fill="#1D1D1B"/>
<path d="M27.4432 13.1673C27.2729 13.1754 27.1188 13.2727 27.1188 13.5484V14.42C27.1188 14.4565 27.131 14.7038 27.131 14.8011C27.1067 14.8133 27.0742 14.8295 27.0621 14.8295C27.0499 14.8295 27.0418 14.8133 27.0134 14.8011L25.8134 13.5079L25.8296 13.7714V14.2457C25.8296 14.2822 25.8418 14.3714 25.8459 14.4403C25.858 14.5497 25.8864 14.5822 25.9351 14.6227C25.9959 14.6714 26.0972 14.6876 26.1621 14.6957C26.1702 14.7079 26.1742 14.7241 26.1742 14.7362C26.1742 14.7403 26.1742 14.7646 26.1621 14.7808H26.0283C25.9229 14.7808 25.8337 14.7808 25.7202 14.7808C25.6432 14.7808 25.5418 14.7889 25.4688 14.7889H25.4121C25.4121 14.7889 25.404 14.7565 25.404 14.7484C25.404 14.7403 25.404 14.7281 25.4121 14.7038C25.4932 14.6957 25.631 14.6552 25.6796 14.5862C25.704 14.5416 25.708 14.4646 25.708 14.3795V13.7714C25.708 13.67 25.708 13.6214 25.704 13.5241C25.704 13.447 25.6796 13.3862 25.6432 13.3416C25.6351 13.3295 25.6026 13.2889 25.558 13.2484C25.5256 13.22 25.4242 13.1916 25.3675 13.1633C25.3675 13.147 25.3594 13.1268 25.3594 13.1268C25.3594 13.1146 25.3634 13.0903 25.3675 13.0781H25.4121C25.4445 13.0781 25.631 13.0903 25.7729 13.0903H25.854C25.854 13.0903 25.8986 13.1146 25.9067 13.1268L26.7986 14.0997C26.8675 14.1687 26.9526 14.27 26.9972 14.3349V13.6295C26.9972 13.5403 26.9891 13.4714 26.9851 13.4389C26.9851 13.366 26.9648 13.3011 26.9364 13.2565C26.908 13.2119 26.7418 13.1876 26.6607 13.1673C26.6526 13.1511 26.6486 13.1308 26.6486 13.1187C26.6486 13.1106 26.6486 13.0984 26.6567 13.0822H26.7094C26.7945 13.0822 26.9242 13.0943 27.0053 13.0943C27.208 13.0943 27.2769 13.0862 27.3783 13.0862H27.4432C27.4432 13.0862 27.4553 13.1187 27.4553 13.1308C27.4553 13.143 27.4513 13.1592 27.4432 13.1714" fill="#1D1D1B"/>
<path d="M29.2173 14.5747C29.0511 14.7369 28.824 14.8301 28.6092 14.8301C28.3943 14.8301 28.1754 14.745 28.0132 14.5869C27.8348 14.4166 27.7578 14.1896 27.7578 13.9382C27.7578 13.6869 27.8348 13.4639 28.0132 13.2936C28.1997 13.1153 28.4065 13.0342 28.6132 13.0342C28.7592 13.0342 28.897 13.0788 29.0632 13.1639C29.3227 13.3342 29.4808 13.6139 29.4808 13.922C29.4808 14.1612 29.3835 14.4004 29.2173 14.5747ZM28.9375 13.3301C28.8524 13.2207 28.7511 13.1517 28.6011 13.1517C28.4592 13.1517 28.3659 13.2166 28.2848 13.3301C28.1835 13.4599 28.1267 13.6666 28.1267 13.9342C28.1267 14.2017 28.1835 14.4004 28.2767 14.5261C28.3619 14.6517 28.4632 14.7166 28.6132 14.7166C28.7916 14.7166 28.897 14.6274 28.9821 14.4815C29.0592 14.3517 29.0916 14.1693 29.0916 13.9342C29.0916 13.6504 29.0389 13.4558 28.9375 13.3261" fill="#1D1D1B"/>
<path d="M31.6309 13.1753C31.4768 13.1874 31.3755 13.2726 31.3309 13.378L30.6822 14.8172C30.6822 14.8172 30.6498 14.8415 30.6295 14.8415C30.6092 14.8415 30.5809 14.8172 30.5687 14.7726C30.5525 14.7239 30.4755 14.5212 30.3011 14.1239L30.0944 13.6577C30.0174 13.4834 29.9606 13.3699 29.9403 13.3334C29.8592 13.2037 29.7701 13.1915 29.6687 13.1753C29.6484 13.1591 29.6484 13.1428 29.6484 13.1347C29.6484 13.1185 29.6484 13.1104 29.6606 13.0861H29.766C29.8836 13.0861 29.9849 13.0982 30.0782 13.0982C30.1836 13.0982 30.362 13.082 30.4836 13.082H30.5484C30.5484 13.082 30.5687 13.1145 30.5687 13.1226C30.5687 13.1307 30.5687 13.1591 30.5565 13.1672C30.4755 13.1793 30.3011 13.1712 30.3011 13.2847C30.3011 13.3091 30.3011 13.3537 30.3174 13.382L30.739 14.3915L31.0998 13.5564C31.1403 13.4591 31.1444 13.378 31.1444 13.3334C31.1444 13.2361 31.0755 13.1955 30.9011 13.1753C30.8971 13.1631 30.889 13.1469 30.889 13.1347C30.889 13.1226 30.893 13.0982 30.9011 13.0861H30.9498C31.0268 13.0861 31.1079 13.1023 31.2863 13.1023C31.3147 13.1023 31.4403 13.0901 31.4971 13.0901H31.6228C31.6309 13.1104 31.6309 13.1185 31.6309 13.1347C31.6309 13.1469 31.6309 13.1672 31.6147 13.1793" fill="#1D1D1B"/>
<path d="M26.8859 16.2889C26.8859 16.2889 26.8575 16.2848 26.8372 16.2848C26.8007 16.1794 26.7561 16.0821 26.7115 16.0335C26.6467 15.9443 26.5737 15.8875 26.3994 15.8713C26.3588 15.8673 26.2615 15.8673 26.2331 15.8673V16.6213C26.2291 16.7389 26.2291 16.8767 26.2331 17.1362C26.2331 17.3348 26.3264 17.3348 26.5331 17.3632C26.5453 17.3794 26.5453 17.3997 26.5453 17.4078C26.5453 17.424 26.5453 17.4321 26.5372 17.4524H26.4602C26.3386 17.4524 26.1034 17.4443 26.0304 17.4443C25.9777 17.4443 25.7183 17.4565 25.5886 17.4565C25.5845 17.4362 25.5804 17.4362 25.5804 17.4119C25.5804 17.4038 25.5804 17.3835 25.5845 17.3673C25.8561 17.3429 25.8845 17.2984 25.8967 17.2092C25.8967 17.1565 25.8967 16.9294 25.8967 16.7024V16.0821C25.8967 16.0011 25.8967 15.92 25.8886 15.8713C25.8359 15.8713 25.6656 15.8713 25.621 15.8916C25.4831 15.9402 25.3899 16.0538 25.2804 16.2646C25.2642 16.2646 25.244 16.2646 25.2359 16.2646C25.2196 16.2646 25.2075 16.2646 25.1953 16.2524V15.8146C25.1953 15.7781 25.2034 15.7659 25.248 15.7659C25.2926 15.7659 25.3534 15.77 25.4345 15.77C25.4994 15.77 25.7467 15.77 26.0588 15.77C26.4642 15.77 26.7683 15.7578 26.8494 15.7578C26.8899 15.7578 26.9183 15.7578 26.9304 15.774C26.9345 15.7821 26.9304 15.8105 26.9304 15.8348V16.2727C26.9304 16.2727 26.9061 16.297 26.8899 16.297" fill="#1D1D1B"/>
<path d="M28.9275 17.457H28.7937C28.7085 17.457 28.6072 17.4448 28.5058 17.4448C28.3437 17.4448 28.141 17.457 28.0599 17.457C28.0518 17.4448 28.0477 17.4326 28.0477 17.4083C28.0477 17.4002 28.0518 17.384 28.0558 17.3718C28.222 17.3637 28.2869 17.3353 28.2869 17.2664C28.2869 17.238 28.2869 17.1853 28.2342 17.0475C28.1815 16.9218 28.1572 16.8651 28.141 16.8326C28.1369 16.8205 28.1329 16.8164 28.0964 16.8164H27.5572C27.5247 16.857 27.4802 16.9786 27.4315 17.1407C27.4193 17.1853 27.4193 17.2259 27.4193 17.238C27.4193 17.2948 27.472 17.3556 27.6626 17.3637C27.6747 17.3799 27.6747 17.4002 27.6747 17.4083C27.6747 17.4245 27.6747 17.4367 27.6707 17.4529H27.6261C27.4964 17.4529 27.4639 17.4448 27.3302 17.4448C27.245 17.4448 27.0342 17.4529 26.9653 17.4529C26.9572 17.4367 26.9531 17.4326 26.9531 17.4164C26.9531 17.4083 26.9531 17.3921 26.9653 17.3759C27.0666 17.3516 27.1599 17.3272 27.2085 17.2462C27.2369 17.2097 27.3261 17.0516 27.4234 16.8083C27.5207 16.5813 27.6342 16.2934 27.6869 16.1759C27.7558 16.0259 27.7842 15.9772 27.8045 15.9286C27.8369 15.8516 27.8815 15.7786 27.8937 15.7502C27.9099 15.7299 27.9464 15.7178 27.9626 15.7178C27.9869 15.7178 28.0234 15.734 28.0356 15.7543C28.0518 15.7826 28.068 15.8191 28.0761 15.8394C28.1734 16.0745 28.2504 16.2853 28.3761 16.5732C28.4369 16.7191 28.4693 16.8164 28.5383 16.9664C28.5869 17.0637 28.6112 17.1367 28.6599 17.2259C28.7247 17.3556 28.8261 17.3556 28.9275 17.384C28.9275 17.3962 28.9437 17.4083 28.9437 17.4205C28.9437 17.4367 28.9356 17.4448 28.9275 17.4651M27.8531 16.1029H27.8491C27.8126 16.1718 27.7518 16.3137 27.7275 16.3826C27.6383 16.6016 27.6058 16.6786 27.5896 16.707H28.0964C28.0599 16.6056 27.9261 16.2934 27.8531 16.1029Z" fill="#1D1D1B"/>
<path d="M31.563 17.4527L30.8697 17.4446H30.6792C30.6792 17.4446 30.6711 17.4122 30.6711 17.4C30.6711 17.3757 30.6751 17.3757 30.6873 17.3554C30.7238 17.3554 30.817 17.3554 30.8576 17.3392C30.9305 17.3068 30.9549 17.2378 30.9549 17.1324V15.9081L30.594 16.7068C30.5535 16.7919 30.5049 16.8851 30.4684 16.9824C30.3873 17.1649 30.3427 17.2946 30.3184 17.3676C30.3062 17.3959 30.2778 17.3959 30.2657 17.3959C30.2413 17.3959 30.2251 17.3878 30.213 17.3514C30.1643 17.2459 30.1319 17.1811 30.1157 17.1405L29.5481 15.8919H29.5359V16.2122L29.5481 17.0068C29.5481 17.25 29.6738 17.3676 29.8643 17.3676C29.8724 17.3797 29.8805 17.4041 29.8805 17.4081C29.8805 17.4203 29.8805 17.4324 29.8684 17.4486C29.8562 17.4486 29.8157 17.4527 29.7832 17.4527C29.7589 17.4527 29.6332 17.4405 29.4508 17.4405C29.4022 17.4405 29.2927 17.4446 29.2116 17.4446H29.094C29.094 17.4446 29.0859 17.4162 29.0859 17.4C29.0859 17.4 29.0859 17.3757 29.094 17.3635C29.1427 17.3514 29.3089 17.3149 29.3413 17.2784C29.3778 17.2419 29.4103 17.173 29.4103 16.9986V16.123C29.4062 15.9851 29.39 15.9284 29.3211 15.8838C29.2927 15.8676 29.1873 15.8554 29.0981 15.8392C29.0859 15.823 29.0859 15.8068 29.0859 15.7946C29.0859 15.7865 29.0859 15.7662 29.0981 15.75C29.163 15.75 29.2805 15.7581 29.4022 15.7581H29.8157C29.8157 15.7581 29.84 15.7784 29.8522 15.8027L30.3589 16.9541L30.4481 16.723C30.5292 16.5365 30.6427 16.2568 30.8049 15.9608C30.8413 15.8919 30.8859 15.8068 30.9103 15.7622L31.5589 15.75C31.5589 15.75 31.5751 15.7784 31.5751 15.7946C31.5751 15.8108 31.5751 15.8189 31.563 15.8351C31.494 15.8514 31.3724 15.8514 31.3116 15.9446C31.2913 15.9811 31.2792 16.0095 31.2792 16.1473V16.9703C31.2792 17.2865 31.3603 17.3189 31.3968 17.3392C31.417 17.3554 31.5143 17.3635 31.5711 17.3635C31.5792 17.3797 31.5832 17.3919 31.5832 17.4081C31.5832 17.4284 31.5751 17.4324 31.5711 17.4486" fill="#1D1D1B"/>
<path d="M26.8471 18.9606C26.8471 18.9606 26.8187 18.9566 26.7944 18.9566C26.7579 18.8512 26.7133 18.7539 26.6687 18.7052C26.6038 18.616 26.5309 18.5633 26.3565 18.539C26.316 18.5349 26.2187 18.5349 26.1903 18.5349V19.289C26.1863 19.4106 26.1863 19.5485 26.1903 19.8079C26.1903 20.0066 26.2836 20.0066 26.4863 20.0349C26.4984 20.0512 26.4984 20.0714 26.4984 20.0836C26.4984 20.0998 26.4984 20.1079 26.4903 20.1282H26.4133C26.2917 20.1282 26.0525 20.1201 25.9836 20.1201C25.9309 20.1201 25.6755 20.1282 25.5457 20.1282C25.5417 20.1079 25.5376 20.1079 25.5376 20.0836C25.5376 20.0755 25.5376 20.0552 25.5417 20.039C25.8133 20.0187 25.8417 19.9701 25.8538 19.8809C25.8538 19.8241 25.8538 19.6012 25.8538 19.3741V18.7539C25.8538 18.6768 25.8538 18.5958 25.8417 18.5431C25.789 18.5431 25.6187 18.5431 25.5741 18.5674C25.4363 18.616 25.343 18.7336 25.2376 18.9404C25.2214 18.9404 25.2011 18.9404 25.189 18.9404C25.1728 18.9404 25.1606 18.9403 25.1484 18.9282V18.4904C25.1484 18.4539 25.1565 18.4376 25.2011 18.4376C25.2457 18.4376 25.3065 18.4417 25.3876 18.4417C25.4525 18.4417 25.6998 18.4458 26.0119 18.4458C26.4133 18.4458 26.7214 18.4336 26.8025 18.4336C26.843 18.4336 26.8714 18.4336 26.8836 18.4498C26.8876 18.4579 26.8836 18.4863 26.8836 18.5106V18.9485C26.8836 18.9485 26.8592 18.9687 26.843 18.9687" fill="#1D1D1B"/>
<path d="M28.9628 18.5151C28.8087 18.5273 28.7073 18.6124 28.6587 18.7178L28.0101 20.153C28.0101 20.153 27.9817 20.1773 27.9573 20.1773C27.9371 20.1773 27.9087 20.153 27.8965 20.1084C27.8803 20.0557 27.8033 19.857 27.629 19.4597L27.4222 18.9935C27.3492 18.8192 27.2925 18.7057 27.2722 18.6692C27.1911 18.5394 27.1019 18.5232 27.0006 18.5111C26.9844 18.4948 26.9844 18.4827 26.9844 18.4705C26.9844 18.4543 26.9844 18.4421 26.9965 18.4219H27.1019C27.2236 18.4219 27.3209 18.434 27.4141 18.434C27.5195 18.434 27.6938 18.4219 27.8195 18.4219H27.8844C27.8844 18.4219 27.9046 18.4503 27.9046 18.4624C27.9046 18.4746 27.9046 18.4989 27.8925 18.507C27.8114 18.5192 27.6371 18.5111 27.6371 18.6246C27.6371 18.6448 27.6371 18.6935 27.6533 18.7219L28.0749 19.7313L28.4357 18.8962C28.4763 18.7989 28.4803 18.7178 28.4803 18.6732C28.4803 18.5759 28.4114 18.5354 28.2371 18.5151C28.233 18.503 28.229 18.4867 28.229 18.4746C28.229 18.4624 28.233 18.4381 28.2371 18.4259H28.2857C28.3628 18.4259 28.4438 18.4381 28.6263 18.4381C28.6546 18.4381 28.7803 18.4259 28.8371 18.4259H28.9628C28.9628 18.4259 28.9749 18.4503 28.9749 18.4705C28.9749 18.4786 28.9749 18.503 28.9587 18.5151" fill="#1D1D1B"/>
<path d="M31.5983 20.1286L30.9131 20.1205H30.7185C30.7185 20.1205 30.7104 20.0881 30.7104 20.0759C30.7104 20.0516 30.7104 20.0476 30.7185 20.0313C30.7591 20.0313 30.8483 20.0313 30.8929 20.0151C30.9577 19.9867 30.9861 19.9138 30.9861 19.8124V18.8232C30.9861 18.8232 30.9902 18.6408 30.9902 18.5881H30.9821L30.6253 19.3827C30.5807 19.4719 30.5361 19.5651 30.4915 19.6584C30.4104 19.8408 30.3658 19.9705 30.3415 20.0435C30.3334 20.0759 30.305 20.0759 30.2888 20.0759C30.2685 20.0759 30.2523 20.0678 30.2361 20.0273C30.1915 19.9219 30.1591 19.857 30.1469 19.8165L29.5753 18.5678H29.5631V18.884L29.5753 19.6786C29.5834 19.9219 29.701 20.0354 29.8996 20.0354C29.9077 20.0476 29.9118 20.0719 29.9118 20.08C29.9118 20.0881 29.9118 20.1043 29.9037 20.1205C29.8875 20.1205 29.855 20.1246 29.8145 20.1246C29.7902 20.1246 29.6685 20.1124 29.4902 20.1124C29.4375 20.1124 29.328 20.1165 29.2469 20.1165H29.1334C29.1334 20.1165 29.1212 20.0881 29.1212 20.0719C29.1212 20.0719 29.1253 20.0476 29.1334 20.0354C29.178 20.0273 29.3442 19.9867 29.3807 19.9543C29.4131 19.9178 29.4456 19.8489 29.4456 19.6746V19.2732V18.7989C29.4415 18.6611 29.4293 18.6043 29.3564 18.5597C29.328 18.5394 29.2226 18.5273 29.1334 18.5151C29.1212 18.4989 29.1172 18.4827 29.1172 18.4705C29.1172 18.4624 29.1212 18.4421 29.1334 18.4219C29.1942 18.4219 29.3199 18.43 29.4334 18.43H29.851C29.851 18.43 29.8712 18.4543 29.8834 18.4746L30.3902 19.6259L30.4834 19.3948C30.5604 19.2124 30.678 18.9286 30.8361 18.6327C30.8685 18.5678 30.9131 18.4827 30.9415 18.434L31.5821 18.4219C31.5821 18.4219 31.6023 18.4543 31.6023 18.4665C31.6023 18.4786 31.5942 18.4908 31.5861 18.507C31.5212 18.5192 31.3956 18.5192 31.3388 18.6165C31.3185 18.6489 31.2983 18.6813 31.2983 18.8192V19.6421C31.2983 19.9584 31.3793 19.9908 31.4199 20.0111C31.4361 20.0232 31.5375 20.0354 31.5902 20.0354C31.6023 20.0516 31.6064 20.0678 31.6064 20.084C31.6064 20.1043 31.5983 20.1084 31.5902 20.1246" fill="#1D1D1B"/>
<path d="M219.099 9.89608C219.099 9.81094 219.078 9.65689 219.034 9.59202H218.527C217.424 9.59202 216.727 9.63662 214.745 9.63662C214.064 9.63662 213.046 9.59202 212.811 9.59202H212.239C212.166 9.63662 212.15 9.87581 212.15 9.965C212.15 10.0745 212.17 10.2488 212.26 10.342C212.612 10.4515 213.954 10.6015 214.522 10.9745C214.923 11.4407 215.097 12.3609 215.162 13.2204C215.183 13.5447 215.203 13.8772 215.203 14.7772V19.3745C215.203 19.9015 215.183 20.0799 215.162 20.3231C214.785 19.9055 214.262 19.115 213.378 18.1258L206.033 9.98121C205.968 9.89608 205.834 9.78256 205.7 9.69743C205.526 9.69743 205.218 9.67311 205.043 9.67311C203.633 9.67311 201.083 9.60824 200.714 9.60824C200.665 9.69338 200.624 9.82716 200.624 9.91229C200.624 9.95689 200.669 10.265 200.689 10.3339C201.022 10.4191 201.743 10.5285 202.339 11.1691C202.692 11.5623 203.308 12.1136 203.503 12.5515C203.572 12.7096 203.592 12.9488 203.592 13.2569C203.592 14.3961 203.523 16.0055 203.523 17.542V22.0136C203.523 22.7393 203.462 23.3109 203.393 23.6839C202.931 24.1704 202.23 24.5191 201.083 24.8069C201.042 24.9204 200.997 25.0907 200.997 25.2001C200.997 25.2691 201.018 25.492 201.062 25.5082H201.484C201.922 25.5082 202.935 25.4434 203.592 25.4434C204.561 25.4434 205.218 25.5082 206.122 25.5082H207.443C207.528 25.492 207.549 25.2204 207.549 25.1353C207.549 25.0501 207.528 24.8718 207.484 24.7826C206.718 24.5839 205.595 24.4055 204.849 23.4204C204.691 23.088 204.561 21.4582 204.561 20.688C204.561 19.9866 204.537 19.0218 204.537 17.7204C204.537 15.9812 204.561 14.465 204.581 13.6988C204.715 13.8488 204.865 14.0474 204.978 14.1772L215.142 25.5974C215.251 25.7069 215.649 25.7272 215.758 25.7272C215.868 25.7272 215.933 25.7272 216.022 25.6826C216.062 25.5731 216.216 25.2163 216.216 24.6974C216.216 24.0569 216.192 23.392 216.192 23.0677V13.8934C216.192 11.1407 217.493 10.3745 219.01 10.3055C219.078 10.1961 219.099 10.0015 219.099 9.88797M193.887 16.8893C193.887 20.2096 192.966 23.1407 191.714 24.1745C191.073 24.7055 190.283 24.969 189.378 24.969C188.146 24.969 187.072 24.4826 186.455 23.4974C185.62 22.2204 185.158 19.8447 185.158 17.7772C185.158 14.7163 185.945 12.3204 187.36 11.1528C188.105 10.5407 188.872 10.2974 189.642 10.2974C190.834 10.2974 191.977 10.8691 192.638 11.8136C193.473 12.9569 193.887 14.6069 193.887 16.8934M197.868 17.3109C197.868 14.2339 196.51 11.8826 193.951 10.4677C192.589 9.7177 191.227 9.34473 189.776 9.34473C186.565 9.34473 183.658 11.2582 182.357 13.4393C181.522 14.8015 181.084 16.2974 181.084 17.8785C181.084 20.4082 182.316 22.8974 184.23 24.3245C185.681 25.3826 187.331 25.9096 189.245 25.9096C190.412 25.9096 191.511 25.6907 192.585 25.2731C193.797 24.8109 194.831 24.0853 195.646 23.1812C197.077 21.6204 197.864 19.6177 197.864 17.3109M178.53 14.538V10.0501C178.53 9.7177 178.404 9.63256 178.072 9.63256C177.411 9.63256 173.937 9.7177 170.418 9.7177C167.689 9.7177 165.423 9.67716 164.195 9.67716H162.561C162.277 9.67716 162.188 9.74608 162.188 10.0501V14.2501C162.277 14.3191 162.427 14.3393 162.541 14.3393C162.63 14.3393 162.938 14.3393 163.023 14.2907C164.012 12.2961 164.937 11.2136 166.104 10.6177C166.765 10.5569 168.062 10.5326 168.415 10.5326C168.435 10.7758 168.46 11.5461 168.48 12.4663C168.5 14.0515 168.5 14.7366 168.5 18.4745C168.5 21.7136 168.48 23.1609 168.435 23.5096C168.35 24.1218 168.46 24.592 165.816 24.7015C165.747 24.8515 165.747 25.0258 165.747 25.2001C165.747 25.2893 165.747 25.4677 165.772 25.5528H166.627C167.442 25.5528 169.36 25.4677 170.15 25.4677C170.787 25.4677 172.834 25.5326 174.172 25.5326H174.788C174.853 25.4231 174.853 25.1799 174.853 25.0745C174.853 24.9366 174.833 24.7866 174.768 24.6772C174.524 24.6772 173.114 24.7177 172.505 24.2596C172.437 24.0163 172.303 23.3799 172.303 22.6055C172.283 20.2299 172.258 19.3299 172.258 17.7447C172.258 15.6974 172.283 14.315 172.283 10.5082C172.591 10.5082 173.296 10.488 173.953 10.5082C175.319 10.8812 175.98 11.388 176.572 12.1785C176.945 12.6853 177.346 13.5407 177.735 14.5745C177.869 14.6191 177.978 14.6191 178.108 14.6191C178.197 14.6191 178.485 14.5745 178.526 14.5339M159.573 21.6893C159.573 21.3853 159.573 21.2474 159.549 21.0488C159.439 20.9799 159.395 20.9799 159.22 20.9799C159.062 20.9799 158.892 20.9799 158.734 21.0245C157.988 22.7191 156.91 24.0407 156.318 24.3893C155.989 24.592 155.483 24.6326 154.668 24.6326H152.868C152.162 24.6326 151.611 24.5677 151.416 24.5231C151.084 24.4582 150.731 23.9312 150.581 23.5745C150.423 23.2015 150.338 23.2015 150.338 22.188V17.3718H151.153C151.376 17.3718 151.903 17.4163 152.491 17.6799C153.046 17.9231 153.265 18.2515 153.48 18.6042C153.683 18.9082 153.812 20.1204 153.853 20.4326C153.962 20.4934 154.25 20.5177 154.428 20.5177C154.607 20.5177 154.712 20.4934 154.866 20.4082C154.866 19.8123 154.737 18.2109 154.737 17.3272C154.737 16.2285 154.887 14.7123 154.955 13.9258C154.866 13.8772 154.737 13.8366 154.518 13.8366C154.364 13.8366 154.08 13.8366 153.946 13.9015C153.881 14.2096 153.638 15.1339 153.593 15.1988C153.265 15.7542 152.689 16.1677 152.097 16.342C151.704 16.4474 151.128 16.5163 150.824 16.5163H150.362V14.4731C150.362 12.3569 150.407 11.6799 150.427 11.2785C150.451 11.0191 150.492 10.7312 150.516 10.5326C150.715 10.5082 150.824 10.488 151.834 10.488C153.107 10.488 153.703 10.5082 153.901 10.5082C154.518 10.5569 154.98 10.6866 155.312 10.9501C156.147 11.5866 156.784 12.5961 157.424 13.6745C157.558 13.7231 157.777 13.7231 157.887 13.7231C158.016 13.7231 158.041 13.6745 158.219 13.5934C158.219 12.2474 158.126 10.5123 158.081 9.965C158.061 9.74608 158.016 9.67716 157.578 9.67716C157.4 9.67716 156.565 9.63256 155.685 9.63256C154.433 9.63256 153.922 9.65689 152.008 9.65689C150.978 9.65689 148.842 9.67716 147.942 9.67716C146.624 9.67716 145.497 9.63256 144.926 9.63256H144.18C144.115 9.7177 144.074 9.89608 144.074 9.98121C144.074 10.0907 144.115 10.338 144.18 10.4231C144.443 10.5123 145.481 10.492 145.789 10.6663C146.093 10.9299 146.377 11.0393 146.576 12.0974C146.62 12.5596 146.641 13.8366 146.641 14.8461V19.3785C146.641 20.3028 146.62 21.6447 146.596 22.192C146.555 23.0515 146.247 24.0853 146.118 24.2839C145.919 24.4339 145.015 24.5718 144.135 24.6082C144.07 24.742 144.026 24.965 144.026 25.0947C144.026 25.2245 144.07 25.3826 144.135 25.492H144.861C145.566 25.492 148.161 25.4272 148.757 25.4272C149.304 25.4272 150.362 25.4718 151.635 25.4718C152.341 25.4718 154.404 25.6015 158.851 25.6015C159.03 25.6015 159.224 25.6218 159.443 25.5569C159.512 25.4474 159.512 25.4028 159.533 25.2042C159.577 24.7663 159.577 23.4691 159.577 21.6893M140.961 22.4555C140.892 22.2569 140.718 21.9285 140.211 21.9285C140.166 21.9285 140.101 21.9528 140.061 21.9528C138.739 23.8258 137.288 24.5272 135.634 24.5272C133.351 24.5272 131.718 22.9866 131.195 21.6204C130.907 20.8947 130.514 19.3096 130.514 17.615C130.514 16.0096 130.757 14.7123 131.174 13.7636C132.143 11.2136 133.55 10.4231 135.265 10.4231C136.696 10.4231 137.884 11.238 138.784 12.4055C139.161 12.9123 139.554 13.9015 139.903 15.0691C139.992 15.0893 140.191 15.1339 140.389 15.1339C140.519 15.1339 140.827 15.0285 140.916 14.9353C140.896 14.6961 140.677 13.0015 140.677 12.4704C140.677 11.8136 140.851 10.7353 140.851 10.3136C140.718 10.1839 140.276 10.0947 139.992 10.0745C139.664 10.3136 139.554 10.5974 139.246 10.9745C138.01 10.0907 136.866 9.41365 134.361 9.41365C132.05 9.41365 130.222 10.2001 128.839 11.5907C127.323 13.0826 126.484 15.1542 126.484 17.7934C126.484 20.6069 127.672 22.9177 129.585 24.3731C130.797 25.2488 132.577 25.8447 134.71 25.8447C137.393 25.8447 139.351 24.8312 140.341 23.4934C140.734 22.9623 140.778 22.8285 140.961 22.4555ZM123.837 9.89608C123.837 9.81094 123.812 9.65689 123.772 9.59202H123.265C122.166 9.59202 121.461 9.63662 119.478 9.63662C118.801 9.63662 117.788 9.59202 117.545 9.59202H116.973C116.908 9.63662 116.884 9.87581 116.884 9.965C116.884 10.0745 116.908 10.2488 117.001 10.342C117.35 10.4515 118.692 10.6015 119.264 10.9745C119.665 11.4407 119.835 12.3609 119.9 13.2204C119.924 13.5447 119.949 13.8772 119.949 14.7772V19.3745C119.949 19.9015 119.924 20.0799 119.9 20.3231C119.527 19.9055 119 19.115 118.12 18.1258L110.783 9.98121C110.714 9.89608 110.584 9.78256 110.45 9.69743C110.272 9.69743 109.968 9.67311 109.793 9.67311C108.383 9.67311 105.833 9.60824 105.455 9.60824C105.411 9.69338 105.37 9.82716 105.37 9.91229C105.37 9.95689 105.411 10.265 105.431 10.3339C105.764 10.4191 106.489 10.5285 107.081 11.1691C107.438 11.5623 108.05 12.1136 108.249 12.5515C108.318 12.7096 108.338 12.9488 108.338 13.2569C108.338 14.3961 108.273 16.0055 108.273 17.542V22.0136C108.273 22.7393 108.208 23.3109 108.143 23.6839C107.681 24.1704 106.98 24.5191 105.833 24.8069C105.788 24.9204 105.743 25.0907 105.743 25.2001C105.743 25.2691 105.764 25.492 105.808 25.5082H106.226C106.668 25.5082 107.677 25.4434 108.338 25.4434C109.307 25.4434 109.964 25.5082 110.868 25.5082H112.181C112.266 25.492 112.291 25.2204 112.291 25.1353C112.291 25.0501 112.266 24.8718 112.226 24.7826C111.46 24.5839 110.345 24.4055 109.595 23.4204C109.441 23.088 109.311 21.4582 109.311 20.688C109.311 19.9866 109.283 19.0218 109.283 17.7204C109.283 15.9812 109.311 14.465 109.327 13.6988C109.457 13.8488 109.611 14.0474 109.724 14.1772L119.88 25.5974C119.989 25.7069 120.387 25.7272 120.496 25.7272C120.605 25.7272 120.674 25.7272 120.76 25.6826C120.804 25.5731 120.958 25.2163 120.958 24.6974C120.958 24.0569 120.934 23.392 120.934 23.0677V13.8934C120.934 11.1407 122.231 10.3745 123.751 10.3055C123.82 10.1961 123.841 10.0015 123.841 9.88797M102.087 25.1434C102.087 25.0339 102.062 24.7907 102.022 24.7055C101.689 24.6812 100.793 24.5961 100.396 24.5069C100.043 24.0853 99.8001 23.6028 99.646 22.8123C99.6217 21.7542 99.5974 19.5772 99.5974 17.5299V12.1177C99.5974 11.5258 99.8406 11.0596 99.9947 10.9258C100.416 10.5326 101.247 10.4474 101.953 10.3542C101.997 10.2691 102.018 10.0299 102.018 9.93662C102.018 9.80283 101.953 9.62851 101.908 9.58392H101.268C100.343 9.58392 98.1866 9.69338 97.4406 9.69338C96.9785 9.69338 94.8217 9.62851 93.8568 9.60824H93.3744C93.3095 9.69338 93.2649 9.77851 93.2649 9.97716C93.2649 10.0704 93.2812 10.2893 93.3055 10.3947C94.3879 10.4839 94.8663 10.5934 95.0244 10.7069C95.2879 10.9055 95.6609 11.388 95.7501 12.5718C95.7704 12.9934 95.7906 13.8934 95.8109 15.9163C95.8352 17.0191 95.8555 18.5555 95.8555 19.8326C95.8555 20.4691 95.8109 21.9001 95.7866 22.6663C95.746 23.1974 95.6325 23.7042 95.4825 23.988C95.219 24.2069 94.9514 24.6001 93.3501 24.7136C93.3014 24.8028 93.2771 25.0866 93.2771 25.1799C93.2771 25.3542 93.3258 25.4393 93.3258 25.5528H93.6987C94.5785 25.5528 96.7798 25.4434 97.9231 25.4434C98.2555 25.4434 100.538 25.5082 101.268 25.5082H101.997C102.058 25.3988 102.083 25.2204 102.083 25.1353M84.4474 13.6582C84.4474 15.0204 83.5231 16.5853 82.4447 16.8447C82.0068 16.9542 81.4514 17.0231 80.6406 17.0231C80.4177 17.0231 80.0852 17.0231 79.8258 16.9745L79.8014 15.1055V11.0596C79.8014 10.7961 79.8663 10.642 79.9352 10.5731C80.0001 10.5082 80.3974 10.4474 80.8595 10.4474C82.5744 10.4474 83.3204 10.5934 83.9366 11.6312C84.2852 12.2272 84.4433 12.9082 84.4433 13.6582M90.8244 25.1636C90.8244 25.0542 90.7798 24.7907 90.715 24.7055C90.496 24.7055 89.596 24.6609 89.2636 24.4136C89.1541 24.2839 88.9798 24.0204 88.8906 23.8623C88.6028 22.8528 88.2785 22.1677 87.946 21.3366C87.4798 20.2339 86.8433 19.2001 86.3163 18.7136C86.1177 18.5434 85.4366 18.2555 84.6663 17.992C84.3177 17.8623 84.0298 17.7488 83.7663 17.6434C84.0947 17.5785 84.2487 17.5501 84.6663 17.5136C86.296 17.3109 86.669 17.0272 87.0866 16.6947C87.9704 16.0339 88.4528 15.0245 88.4528 13.8366C88.4528 12.0528 87.3095 10.342 85.7041 9.83121C85.1731 9.67716 84.2325 9.59202 83.0649 9.59202C81.4149 9.59202 79.1041 9.74608 78.0055 9.74608C77.6731 9.74608 75.7595 9.70148 74.9893 9.70148C74.6609 9.70148 73.8258 9.65689 73.692 9.65689C73.6231 9.81094 73.5825 9.98121 73.5825 10.0745C73.5825 10.1596 73.6028 10.3826 73.6231 10.4677C74.0001 10.5123 74.6812 10.5974 75.0339 10.6663C75.5568 11.0636 75.7352 11.3718 75.9582 11.8582C76.0677 12.5596 76.0879 14.3636 76.0879 17.465C76.0879 19.7069 76.1122 22.3055 76.0028 23.1447C75.9379 23.692 75.7393 24.3488 75.0987 24.6123C74.815 24.6609 74.2839 24.7461 73.846 24.7663C73.7731 24.8758 73.7325 25.0988 73.7325 25.2042C73.7325 25.2731 73.7731 25.4474 73.8217 25.5569C74.1339 25.5569 77.4987 25.492 78.2001 25.492C79.6068 25.492 80.7987 25.5569 82.0514 25.5569C82.1001 25.4718 82.1406 25.3136 82.1406 25.2245C82.1406 25.0745 82.1001 24.8515 82.0514 24.7623C81.6136 24.7177 81.0622 24.592 80.8231 24.5434C80.2717 24.2839 79.8744 23.7569 79.8744 22.9826L79.8541 17.9069C80.0285 17.8785 80.2514 17.8785 80.4258 17.8785C80.7095 17.8785 81.042 17.9272 81.5933 18.2312C82.4041 18.6934 82.8055 19.0258 83.3325 19.8407C84.0379 20.9393 84.5001 22.9623 84.715 24.5718C84.7839 25.0299 84.9582 25.4312 85.3758 25.4718C85.5501 25.4961 86.7177 25.5366 87.5528 25.5366H90.6987C90.7839 25.4474 90.8285 25.2731 90.8285 25.1636M66.9339 13.7677C66.9339 14.8907 66.5366 15.8839 65.8109 16.5204C65.3487 16.8934 64.619 17.1163 63.5204 17.1163C63.0622 17.1163 62.7055 17.1001 62.5758 17.0758C62.3974 17.0515 62.2839 17.0312 62.2839 16.9177L62.3123 10.4758C62.5758 10.4596 62.9487 10.3663 63.5893 10.3663C65.0852 10.3663 66.0095 10.7393 66.4474 11.6677C66.7514 12.2555 66.9298 13.0055 66.9298 13.7758M70.8704 13.8569C70.8704 12.2069 69.9258 10.6663 68.519 10.0339C67.7933 9.72175 66.5163 9.52716 64.5825 9.52716C62.8879 9.52716 60.2447 9.65689 59.0852 9.65689C58.2704 9.65689 57.0379 9.5677 56.3568 9.5677C56.2879 9.67716 56.2433 9.83121 56.2433 9.9204C56.2433 10.0096 56.2433 10.2528 56.3123 10.3582C56.7298 10.492 57.415 10.5974 57.8528 10.7109C58.2217 11.0393 58.3109 11.3272 58.4447 11.9636C58.5095 12.7339 58.5541 13.7028 58.5541 15.3731C58.5541 20.015 58.5298 22.4555 58.465 22.9826C58.3758 23.6474 57.9379 24.3245 57.2082 24.5434C56.8758 24.6082 56.3933 24.7177 55.9352 24.7623C55.9149 24.8718 55.8906 25.0258 55.8906 25.2245C55.8906 25.4028 55.919 25.4272 55.9555 25.5366C56.6609 25.5366 58.7285 25.4474 59.5231 25.4474C61.4812 25.4474 63.4839 25.5366 64.2906 25.5366H64.846C64.915 25.4474 64.915 25.2934 64.915 25.1839C64.915 25.0501 64.915 24.8718 64.8704 24.7866C64.2095 24.7015 63.2204 24.5677 62.8028 24.0812C62.5839 23.8218 62.3609 23.4447 62.3609 22.7839L62.296 17.9434C63.6177 18.0326 65.0285 18.0731 65.7947 18.0731C66.8082 18.0731 67.6636 17.9028 68.3447 17.6799C69.9055 17.088 70.8744 15.5434 70.8744 13.8528" fill="#1D1D1B"/>
<path d="M219.452 34.4353C219.452 34.3015 219.363 34.2569 219.318 34.1718C218.414 34.1718 217.23 34.2366 216.764 34.2366C215.645 34.2366 214.283 34.1475 213.687 34.1475C213.622 34.2812 213.598 34.3015 213.598 34.411C213.598 34.5204 213.622 34.6056 213.639 34.6745C214.279 34.8042 215.199 34.9623 215.378 35.2704C215.532 35.5502 215.58 35.7731 215.58 36.1258C215.58 36.3894 215.56 36.6529 215.447 36.9407C215.248 37.488 214.83 38.3475 214.239 39.5596C213.225 41.6029 212.589 42.8758 212.232 43.3826C211.664 42.4218 210.387 39.8677 210.079 39.2069L208.847 36.5231C208.802 36.438 208.757 36.1258 208.757 35.9272C208.757 35.6434 208.802 35.4407 208.847 35.3596C209.045 34.9623 209.726 34.9177 210.655 34.8042C210.695 34.6948 210.72 34.565 210.72 34.4758C210.72 34.3218 210.655 34.3664 210.59 34.2569H210.197C208.721 34.2569 209.163 34.3258 206.629 34.3258C205.555 34.3258 204.253 34.2569 204.079 34.2569C203.99 34.415 203.945 34.4353 203.945 34.5894C203.945 34.6785 203.97 34.7475 204.034 34.8569C205.506 35.2015 205.944 35.4691 206.102 35.7569L209.953 43.3015C210.326 44.011 210.545 44.5542 210.659 44.9515C210.809 45.5677 210.833 46.4718 210.833 47.5907C210.833 48.5434 210.505 49.0461 210.128 49.2894C209.974 49.3785 208.871 49.5285 208.368 49.5731C208.283 49.7272 208.259 49.7718 208.259 49.8812C208.259 49.9907 208.307 50.0596 208.328 50.1448C209.451 50.1448 210.618 50.1164 211.275 50.1164C211.737 50.1164 212.443 50.1448 213.74 50.165C214.49 50.1853 215.057 50.2096 215.455 50.2096C215.499 50.1164 215.572 50.0312 215.572 49.9218C215.572 49.8123 215.544 49.7475 215.483 49.638C214.774 49.5488 213.789 49.415 213.57 49.1961C213.217 48.8191 213.043 48.6488 212.998 47.7894L212.82 44.4853C212.795 44.2461 212.884 44.0272 212.905 43.9623C212.974 43.715 213.059 43.5245 213.144 43.3461L216.537 36.6366C216.841 36.065 217.506 35.4245 217.944 35.165C218.256 34.9664 218.941 34.8326 219.375 34.7231C219.424 34.6137 219.464 34.5285 219.464 34.4394M201.679 38.9677V34.6948C201.679 34.3664 201.549 34.2812 201.221 34.2812C200.56 34.2812 197.524 34.3664 194.001 34.3664C191.276 34.3664 189.448 34.3218 188.216 34.3218H186.59C186.306 34.3218 186.217 34.3866 186.217 34.6948V38.6758C186.306 38.7448 186.375 38.765 186.48 38.765C186.57 38.765 186.659 38.765 186.744 38.7245C187.599 36.8069 188.041 35.7975 189.517 35.0475C190.178 34.9785 192.484 34.9623 192.841 34.9623C192.861 35.1975 192.882 35.9718 192.906 36.8961C192.93 38.4772 192.93 39.3326 192.93 43.0785C192.93 46.3096 192.906 47.9799 192.866 48.3326C192.78 48.9529 192.89 49.411 190.247 49.5204C190.182 49.6704 190.182 49.7191 190.182 49.8934C190.182 49.9826 190.182 50.0677 190.202 50.1569H191.062C191.872 50.1569 192.951 50.0677 193.745 50.0677C194.386 50.0677 195.594 50.1366 196.932 50.1366H197.548C197.617 50.0272 197.617 49.9137 197.617 49.8083C197.617 49.6704 197.593 49.6056 197.528 49.4961C197.284 49.4961 195.878 49.5407 195.262 49.0745C195.193 48.8353 195.063 48.1988 195.063 47.4285C195.047 45.0529 195.018 43.9258 195.018 42.3407C195.018 40.2975 195.047 38.7367 195.047 34.9299C195.351 34.9299 196.98 34.9056 197.641 34.9299C198.999 35.2988 199.53 35.8056 200.122 36.6002C200.649 37.3056 200.783 37.9461 201.111 38.9961C201.245 39.0448 201.31 39.0448 201.444 39.0448C201.529 39.0448 201.643 38.9961 201.687 38.9556M183.399 49.8326C183.399 49.7231 183.375 49.6137 183.334 49.5285C183.006 49.5042 182.102 49.4191 181.701 49.3299C181.352 48.9123 181.109 48.4299 180.959 47.6393C180.934 46.5853 180.914 44.1853 180.914 42.138V36.5556C180.914 35.9596 181.157 35.4934 181.307 35.3677C181.729 34.9704 182.564 34.8812 183.266 34.7921C183.31 34.7029 183.334 34.5934 183.334 34.5123C183.334 34.3745 183.266 34.2894 183.221 34.2488H182.584C181.66 34.2488 180.343 34.3542 179.589 34.3542C179.13 34.3542 177.809 34.2894 176.84 34.265H176.353C176.289 34.3542 176.248 34.3542 176.248 34.5488C176.248 34.638 176.272 34.7272 176.289 34.8366C177.367 34.9258 177.853 35.0353 178.003 35.1407C178.267 35.3434 178.644 35.8218 178.733 37.0137C178.757 37.4312 178.774 38.5542 178.798 40.5772C178.818 41.6758 178.839 43.1758 178.839 44.4488C178.839 45.0894 178.798 46.7393 178.774 47.5056C178.733 48.0326 178.624 48.5434 178.47 48.8231C178.206 49.0461 177.939 49.4393 176.333 49.5529C176.289 49.6421 176.268 49.7921 176.268 49.8812C176.268 50.0596 176.305 50.0596 176.305 50.165H176.686C177.566 50.165 178.928 50.0556 180.075 50.0556C180.407 50.0556 181.855 50.1164 182.584 50.1164H183.306C183.371 50.011 183.395 49.9218 183.395 49.8326M172.526 45.7866C172.526 44.0272 171.74 42.8191 170.041 41.915C169.583 41.6515 168.768 41.3637 167.605 41.0312C166.259 40.6583 165.14 40.2204 164.414 39.8231C163.932 39.5637 163.113 38.8339 163.113 37.4272C163.113 36.0204 164.544 34.8569 166.214 34.8569C167.536 34.8569 168.594 35.5137 169.23 36.3894C169.782 37.1637 169.976 37.5164 170.593 38.8988C170.661 38.9231 170.747 38.9475 170.812 38.9475C171.01 38.9475 171.184 38.838 171.298 38.7285C171.233 38.1772 171.124 37.4069 171.124 36.7461C171.124 36.1785 171.257 35.4285 171.322 35.0312C171.144 34.7677 170.945 34.7231 170.661 34.7231C170.353 34.9218 170.066 35.2258 169.802 35.5177C168.351 34.3502 167.167 34.1515 166.064 34.1515C163.36 34.1515 161.422 35.9596 161.422 38.3515C161.422 39.1664 161.71 39.9569 162.233 40.7718C162.72 41.4529 163.425 41.9839 164.37 42.3772C165.006 42.6366 167.864 43.5002 168.261 43.6542C170.021 44.3394 170.686 44.9272 170.686 46.488C170.686 47.2623 170.353 47.9434 169.717 48.7096C169.149 49.415 168.245 49.7475 167.28 49.7475C166.243 49.7475 164.463 49.3096 163.583 48.1218C163.052 47.4407 162.306 46.0096 162.087 45.1502C161.984 45.1231 161.882 45.1096 161.779 45.1096C161.649 45.1096 161.491 45.1502 161.361 45.2394C161.361 45.5272 161.451 46.9745 161.451 47.4164C161.451 48.4907 161.252 49.0218 161.207 49.3785C161.268 49.5975 161.645 49.8164 161.917 49.8164C162.375 49.4191 162.857 49.111 163.016 49.111C163.145 49.111 163.34 49.1758 163.539 49.3096C164.97 50.238 166.157 50.4083 167.216 50.4083C170.313 50.4083 172.534 48.8475 172.534 45.7907M153.063 38.1934C153.063 39.6002 151.94 41.1853 150.647 41.4731C150.111 41.5826 149.341 41.6515 148.356 41.6515C148.093 41.6515 147.347 41.6515 147.018 41.6029L146.994 39.6691V35.5096C146.994 35.2177 147.063 35.0677 147.144 35.0029C147.233 34.938 148.137 34.8691 148.684 34.8691C150.752 34.8691 151.701 35.0677 152.451 36.1461C152.872 36.738 153.067 37.4231 153.067 38.1934M157.68 49.8529C157.68 49.7475 157.64 49.6137 157.571 49.5285C157.352 49.5285 156.452 49.488 156.12 49.2366C156.01 49.1069 155.836 48.8434 155.747 48.6894C155.463 47.6758 155.155 46.7758 154.822 45.9407C154.36 44.838 153.72 43.8042 153.197 43.3218C152.998 43.1475 152.382 42.8556 151.611 42.5961C151.263 42.4623 150.975 42.3529 150.711 42.2434C151.044 42.1785 151.194 42.1583 151.611 42.1137C153.043 41.9394 153.529 41.6312 153.947 41.2988C154.826 40.6421 155.398 39.6529 155.398 38.461C155.398 36.6812 154.255 34.9866 152.649 34.4799C152.118 34.3258 151.174 34.2407 150.01 34.2407C148.36 34.2407 147.128 34.3907 146.029 34.3907C145.701 34.3907 144.618 34.3502 143.852 34.3502C143.52 34.3502 142.684 34.3056 142.551 34.3056C142.486 34.4556 142.441 34.5083 142.441 34.5894C142.441 34.6785 142.461 34.8083 142.486 34.8975C142.859 34.9421 143.54 35.0272 143.889 35.0961C144.42 35.4894 144.594 35.8056 144.813 36.288C144.922 36.9894 144.947 38.9718 144.947 42.0731C144.947 44.315 144.967 47.1326 144.857 47.9677C144.793 48.515 144.594 49.1758 143.953 49.4394C143.67 49.488 143.139 49.5731 142.701 49.5975C142.636 49.7029 142.587 49.7921 142.587 49.9015C142.587 49.9704 142.632 50.0556 142.676 50.165C142.984 50.165 145.518 50.1002 146.22 50.1002C147.63 50.1002 147.979 50.165 149.232 50.165C149.276 50.0758 149.321 50.011 149.321 49.9218C149.321 49.7677 149.276 49.6785 149.232 49.5975C148.794 49.5529 148.243 49.4191 147.999 49.3785C147.452 49.111 147.055 48.5839 147.055 47.8137L147.03 42.3164C147.209 42.2921 147.841 42.2921 148.02 42.2921C148.611 42.2921 149.211 42.3407 149.779 42.6042C150.614 42.9772 151.409 43.5731 151.936 44.3839C152.641 45.4826 153.103 47.5745 153.326 49.1799C153.391 49.6461 153.566 50.0394 153.983 50.0799C154.157 50.1042 154.425 50.1488 155.26 50.1488H157.547C157.636 50.0596 157.676 49.9745 157.676 49.8569M139.222 46.5123C139.222 46.2042 139.222 46.0704 139.202 45.8718C139.089 45.8029 139.052 45.8029 138.87 45.8029C138.716 45.8029 138.736 45.8029 138.582 45.8515C138.099 47.4569 137.264 48.6488 136.316 49.2164C135.987 49.415 135.391 49.4556 134.447 49.4556H131.982C131.216 49.4312 130.729 49.3907 130.526 49.3461C130.198 49.2853 129.845 48.7542 129.695 48.4015C129.537 48.0285 129.452 47.8948 129.452 46.8812V41.8664H130.157C130.863 41.8664 131.434 41.915 132.022 42.1785C132.578 42.4218 132.991 42.7664 133.21 43.1231C133.413 43.4353 133.478 44.6434 133.522 44.9475C133.628 45.0164 133.697 45.0326 133.871 45.0326C134.045 45.0326 134.07 45.0164 134.224 44.9231C134.224 44.3353 134.094 42.7258 134.094 41.8461C134.094 40.7475 134.248 39.4015 134.309 38.611C134.224 38.5664 134.179 38.5218 133.96 38.5218C133.802 38.5218 133.741 38.5218 133.603 38.5826C133.539 38.8948 133.364 39.8191 133.324 39.888C132.991 40.4353 132.221 40.8772 131.629 41.0515C131.228 41.161 130.66 41.2299 129.821 41.2299H129.468V39.0691C129.468 36.9569 129.513 36.1015 129.533 35.7002C129.557 35.4366 129.602 35.1529 129.622 34.9583C129.821 34.9339 130.457 34.9137 131.471 34.9137C132.744 34.9137 133.693 34.938 133.891 34.938C134.507 34.9785 134.966 35.1123 135.298 35.3758C136.372 36.211 136.66 36.7664 137.256 38.1042C137.386 38.1448 137.406 38.1448 137.52 38.1448C137.649 38.1448 137.674 38.1042 137.848 38.015C137.848 36.6731 137.763 35.1569 137.718 34.6015C137.694 34.3826 137.653 34.3177 137.211 34.3177C137.033 34.3177 136.198 34.2731 135.322 34.2731C134.066 34.2731 133.559 34.2934 131.645 34.2934C130.611 34.2934 128.787 34.3177 127.883 34.3177C126.566 34.3177 126.274 34.2731 125.702 34.2731H124.948C124.879 34.3583 124.834 34.4434 124.834 34.5326C124.834 34.6461 124.879 34.7515 124.948 34.8448C125.211 34.9299 126.253 34.9096 126.561 35.0799C126.866 35.3475 127.153 35.4123 127.352 36.4664C127.397 36.9285 127.421 38.4285 127.421 39.438V43.9664C127.421 44.8907 127.397 46.411 127.376 46.9583C127.332 47.8177 127.024 48.8961 126.89 49.0948C126.691 49.2529 125.787 49.3785 124.903 49.4231C124.834 49.5569 124.786 49.6461 124.786 49.7758C124.786 49.9056 124.834 49.9745 124.903 50.0839H125.629C126.339 50.0839 128.098 50.0191 128.69 50.0191C129.241 50.0191 129.987 50.0637 131.26 50.0637C131.966 50.0637 134.029 50.1975 138.48 50.1975C138.655 50.1975 138.853 50.2218 139.072 50.1529C139.137 50.0434 139.137 49.9988 139.157 49.8042C139.202 49.3664 139.202 48.2839 139.202 46.5042M122.937 34.5042C122.937 34.415 122.913 34.2812 122.828 34.2569H122.082C121.555 34.2569 120.72 34.3015 120.343 34.3015C118.563 34.3015 117.926 34.1921 117.659 34.1921H117.266C117.221 34.3015 117.156 34.3704 117.156 34.4799C117.156 34.5691 117.201 34.638 117.201 34.7231C117.748 34.788 118.23 34.9015 118.721 35.0556C118.98 35.3191 119.272 35.8502 119.272 36.4461C119.272 36.661 119.053 37.6988 118.741 38.4448L115.202 47.1529L110.856 36.1299C110.921 35.6069 111.209 35.0961 111.578 34.8975C111.951 34.8569 112.409 34.7191 113.005 34.7191C113.045 34.6339 113.09 34.5042 113.09 34.415C113.09 34.3258 113.07 34.1921 112.98 34.1758H112.425C111.752 34.1758 110.722 34.261 109.559 34.261C109.052 34.261 108.063 34.2164 107.094 34.2164H106.239C106.194 34.3056 106.149 34.3502 106.149 34.4799C106.149 34.6096 106.174 34.6583 106.214 34.7475C106.83 34.8975 107.422 35.1407 108.063 35.4894C108.48 36.1096 109.38 38.3312 109.867 39.4948L111.687 43.8975C113.199 47.5542 114.107 49.9907 114.213 50.4083C114.322 50.4772 114.213 50.538 114.411 50.538C114.61 50.538 114.59 50.5015 114.63 50.388L120.306 36.7461C120.505 36.2637 120.809 35.8056 121.097 35.4894C121.449 35.0961 122.175 34.9421 122.856 34.788C122.88 34.6988 122.945 34.6096 122.945 34.5083M103.672 49.8326C103.672 49.7231 103.652 49.6137 103.607 49.5285C103.275 49.5042 102.379 49.4191 101.982 49.3299C101.629 48.9123 101.39 48.4299 101.232 47.6393C101.211 46.5853 101.191 44.1853 101.191 42.138V36.5556C101.191 35.9596 101.43 35.4934 101.584 35.3677C102.002 34.9704 102.837 34.8812 103.539 34.7921C103.583 34.7029 103.607 34.5934 103.607 34.5123C103.607 34.3745 103.539 34.2894 103.498 34.2488H102.861C101.933 34.2488 100.616 34.3542 99.8696 34.3542C99.4074 34.3542 98.0858 34.2894 97.121 34.265H96.6345C96.5696 34.3542 96.525 34.3542 96.525 34.5488C96.525 34.638 96.5493 34.7272 96.5696 34.8366C97.648 34.9258 98.1304 35.0353 98.2845 35.1407C98.548 35.3434 98.921 35.8218 99.0101 37.0137C99.0304 37.4312 99.0547 38.5542 99.075 40.5772C99.0993 41.6758 99.1196 43.1758 99.1196 44.4488C99.1196 45.0894 99.075 46.7393 99.0507 47.5056C99.0061 48.0326 98.8966 48.5434 98.7385 48.8231C98.475 49.0461 98.2115 49.4393 96.6061 49.5529C96.5615 49.6421 96.5372 49.7921 96.5372 49.8812C96.5372 50.0596 96.5858 50.0596 96.5858 50.165H96.9547C97.8385 50.165 99.2047 50.0556 100.344 50.0556C100.676 50.0556 102.128 50.1164 102.853 50.1164H103.579C103.648 50.011 103.668 49.9218 103.668 49.8326M93.7318 34.4556C93.7318 34.3704 93.7074 34.3056 93.6628 34.2407H93.1601C92.0574 34.2407 91.575 34.2853 89.5966 34.2853C88.9115 34.2853 87.898 34.2407 87.6628 34.2407H87.0872C87.0223 34.2853 87.002 34.4394 87.002 34.5245C87.002 34.6339 87.0223 34.6785 87.1115 34.7637C87.4642 34.8731 88.8061 35.0272 89.3818 35.4042C89.775 35.8704 89.9493 36.7948 90.0182 37.6502C90.0385 37.9745 90.0588 38.311 90.0588 39.211V45.7461C90.0588 46.2772 90.0385 46.4515 90.0182 46.6907C89.6453 46.2731 89.0047 45.4542 88.1493 44.4448L79.7453 34.6339C79.6804 34.5448 79.5507 34.4353 79.4128 34.3461C79.2385 34.3461 79.0196 34.3258 78.8453 34.3258C77.4385 34.3258 76.2061 34.2569 75.8291 34.2569C75.7885 34.3461 75.7642 34.3866 75.7642 34.4758C75.7642 34.5245 75.7885 34.6948 75.8088 34.7596C76.1412 34.8529 77.1101 34.9623 77.5074 35.3799C77.8601 35.7731 78.3831 36.2353 78.5818 36.6772C78.6466 36.8312 78.6709 37.0704 78.6709 37.3785C78.6709 38.5218 78.602 40.6096 78.602 42.1542V46.8407C78.602 47.5664 78.5331 48.138 78.4682 48.511C78.0061 48.9975 77.3047 49.3461 76.1574 49.6339C76.1128 49.7434 76.0723 49.7839 76.0723 49.8975C76.0723 49.9664 76.0926 50.0961 76.1372 50.1123H76.5507C76.9926 50.1123 78.0061 50.0515 78.6669 50.0515C79.6277 50.0515 80.0736 50.1123 80.9696 50.1123H82.2993C82.3845 50.0961 82.4007 49.9177 82.4007 49.8285C82.4007 49.7394 82.3845 49.6988 82.3358 49.6096C81.5655 49.411 80.4466 49.2326 79.7007 48.2434C79.5466 47.911 79.4088 46.2448 79.4088 45.4745C79.4088 44.7731 79.3885 43.6258 79.3885 42.3326C79.3885 40.5934 79.4088 38.1934 79.4372 37.4272C79.5669 37.5772 79.7696 37.8164 79.9196 37.9988L90.3466 50.2096C90.4561 50.3191 90.5007 50.3353 90.6142 50.3353C90.7277 50.3353 90.6547 50.3353 90.7439 50.2948C90.7885 50.1853 90.8534 49.8326 90.8534 49.3056C90.8534 48.665 90.8291 48.0083 90.8291 47.6758V38.3272C90.8291 35.5785 92.1304 34.8042 93.6466 34.7434C93.7115 34.6339 93.7358 34.565 93.7358 34.4515M73.3561 34.565C73.3561 34.4758 73.3155 34.3461 73.2466 34.2812H72.6101C71.9291 34.2812 71.0047 34.3258 70.2101 34.3258C69.3345 34.3258 68.3412 34.2812 67.7007 34.2812H66.9142C66.8453 34.411 66.825 34.4515 66.825 34.565C66.825 34.6542 66.8493 34.7434 66.8899 34.8569C66.9791 34.8569 68.5845 34.8731 68.8682 35.2745C69.1115 35.6069 69.6385 36.4137 69.7277 36.9002C69.7723 37.1191 69.902 38.0231 69.902 39.3164C69.902 41.1853 69.902 42.438 69.8818 43.0988C69.8372 44.3353 69.7034 45.3002 69.4845 46.0258C68.8682 47.9434 67.4412 48.888 65.175 48.888C64.2061 48.888 63.3709 48.6893 62.6007 48.3366C61.1696 47.6353 60.4845 46.2934 60.4642 45.5637L60.3547 38.9677L60.3385 36.2839C60.3385 35.7731 60.9709 35.311 61.1899 35.0475C61.3682 34.9623 62.3372 34.8691 62.8885 34.8285C62.9534 34.6948 62.998 34.6299 62.998 34.5245C62.998 34.4191 62.9331 34.3015 62.8439 34.2407L62.0128 34.2569C61.1939 34.2812 60.1196 34.3015 59.4385 34.3015C58.3804 34.3015 57.5655 34.2812 56.9088 34.2812H55.9845C55.8953 34.3461 55.875 34.4758 55.875 34.5853C55.875 34.6948 55.8953 34.7839 55.9642 34.8529C56.6696 34.938 57.1277 35.0069 57.4358 35.0677C57.8128 35.2866 58.0764 35.6596 58.2061 36.0366C58.2304 36.3285 58.2709 37.0258 58.2709 38.4123V43.6948C58.2709 45.061 58.3399 46.0218 58.4939 46.6421C58.7737 47.7853 59.3939 48.6894 60.4074 49.3461C61.4858 50.0515 62.8277 50.4042 64.4331 50.4042C65.9088 50.4042 67.1615 50.0961 68.2155 49.5042C69.3142 48.9083 69.9993 47.9434 70.3926 46.5772C70.6115 45.7664 70.7453 44.8826 70.7453 43.9583V39.7339C70.7453 38.9434 70.7899 37.9542 70.7899 37.5529C70.8101 36.3691 71.1182 35.6596 71.4507 35.1326C71.8034 35.0231 72.1115 34.9623 73.275 34.8285C73.3196 34.7434 73.3642 34.6745 73.3642 34.565" fill="#1D1D1B"/>
</g>
<defs>
<clipPath id="clip0_2088_781">
<rect width="218.514" height="60" fill="white" transform="translate(0.59375)"/>
</clipPath>
</defs>
</svg>
