<svg width="177" height="60" viewBox="0 0 177 60" fill="none" xmlns="http://www.w3.org/2000/svg">
<g clip-path="url(#clip0_2088_691)">
<path d="M75.752 12.9697H82.661L98.6004 33.8788V12.9697H105.994V46.9697H99.6307L83.1459 25.3334V46.9697H75.752V12.9697Z" fill="#512582"/>
<path d="M122.782 33.5758L109.752 12.9697H118.479L126.6 26.6061L134.843 12.9697H143.328L130.297 33.394V46.9697H122.782V33.5758Z" fill="#512582"/>
<path d="M146.539 32.3638V12.9092H154.054V32.1214C154.054 37.6365 156.842 40.5456 161.388 40.5456C165.933 40.5456 168.721 37.7577 168.721 32.3638V12.8486H176.236V32.1214C176.236 42.4244 170.478 47.4547 161.327 47.4547C152.115 47.5153 146.539 42.3638 146.539 32.3638Z" fill="#512582"/>
<path d="M60.2362 60.1815H0.357422V0.302734H60.2362V60.1815ZM28.2362 53.1512C28.2968 53.5755 29.2059 53.7573 29.4483 53.1512L31.5695 36.5452H26.4786L28.2362 53.1512ZM33.2665 32.8482H24.6605V35.333H33.3271V32.8482H33.2665ZM30.7817 31.6361C41.7514 32.0603 42.5392 22.0603 42.5392 18.3027C42.5392 18.0603 42.418 18.0603 42.3574 18.2421C42.0544 19.03 40.5998 21.8179 36.6605 23.5148C33.1453 25.03 31.0241 28.4846 30.6605 31.5755C30.6605 31.5755 30.7211 31.6361 30.7817 31.6361ZM29.5695 30.9088C31.3271 22.6058 38.0544 22.3633 38.6604 20.7876C39.6301 18.3027 37.8726 13.9391 37.4483 13.4543C37.3877 13.3937 37.3271 13.4543 37.3271 13.4543C36.418 15.4543 34.9029 17.3936 33.812 18.2421C32.2968 19.4543 26.418 23.8179 29.3877 30.8482C29.5089 30.9694 29.5695 30.9694 29.5695 30.9088ZM28.418 31.2118C24.7211 23.3936 32.0544 18.3027 33.2665 17.2118C33.4483 17.03 33.3877 16.9088 33.3877 16.727C33.3877 14.2421 31.9938 10.2421 31.5089 9.69667C31.4483 9.63607 31.3877 9.63607 31.3877 9.75728C30.7817 12.1815 27.3877 15.8179 26.7211 16.6058C21.0847 23.333 22.3574 27.4543 28.2968 31.333C28.3574 31.3937 28.418 31.333 28.418 31.2118ZM26.7211 31.5149C20.5998 27.8785 21.2059 22.6058 23.7514 18.7876C23.812 18.727 23.812 18.6058 23.812 18.4239C23.6908 17.5149 22.7211 15.2118 22.2968 14.5452C22.1756 14.3633 22.115 14.4239 22.115 14.4845C22.0544 15.5149 20.9029 18.1209 19.0847 21.1512C17.1453 24.3633 17.1453 31.333 26.7817 31.6361C26.8423 31.6361 26.8423 31.5755 26.7211 31.5149Z" fill="#512582"/>
</g>
<defs>
<clipPath id="clip0_2088_691">
<rect width="176" height="60" fill="white" transform="translate(0.720703)"/>
</clipPath>
</defs>
</svg>
