<svg width="61" height="44" viewBox="0 0 61 44" fill="none" xmlns="http://www.w3.org/2000/svg">
<g clip-path="url(#clip0_2177_729)">
<path d="M60.3615 21.8281H8.84052C8.81773 21.7429 8.81203 7.73706 8.83482 7.59694C8.85952 7.59315 8.88801 7.58747 8.91651 7.58558C8.9602 7.58369 9.00389 7.58558 9.04948 7.58558C16.6308 7.58558 24.2121 7.58558 31.7934 7.58558C35.8415 7.58558 39.8876 7.58558 43.9357 7.58558C44.3213 7.58558 44.7069 7.57611 45.0944 7.57422C45.197 7.57422 45.2996 7.58558 45.4022 7.58558C45.4743 7.58558 45.5484 7.57611 45.6206 7.57611C47.7672 7.57801 49.9156 7.5799 52.0622 7.58369C52.5883 7.58369 53.1145 7.58558 53.6388 7.58558C53.7927 7.58558 53.9485 7.57801 54.1023 7.57801C54.279 7.57801 54.4538 7.58369 54.6304 7.58369C56.4806 7.58369 58.3289 7.58369 60.1792 7.58369C60.2342 7.58369 60.2874 7.58369 60.3558 7.58369C60.3596 7.64428 60.3653 7.69351 60.3653 7.74274C60.3653 9.05111 60.3653 10.3595 60.3653 11.6679C60.3653 14.9984 60.3653 18.3309 60.3653 21.6615C60.3653 21.7126 60.3653 21.7618 60.3653 21.8281H60.3615ZM27.3331 8.06652C27.3198 8.05137 27.3179 8.04758 27.3141 8.04758C27.3027 8.04569 27.2933 8.0419 27.2819 8.0419C21.3038 8.0419 15.3258 8.0419 9.34772 8.0419C9.33252 8.0419 9.31922 8.04569 9.30403 8.04758C9.30023 8.04758 9.29643 8.04947 9.29453 8.05137C9.29073 8.05326 9.28883 8.05705 9.27173 8.0722V8.21042C9.27173 12.0295 9.27173 15.8467 9.27173 19.6658C9.27173 19.6923 9.26983 19.7169 9.27173 19.7434C9.27363 19.7624 9.28123 19.7794 9.29263 19.8135C9.32302 19.7624 9.34202 19.7283 9.36291 19.6942C9.66115 19.1735 9.95179 18.6452 10.2614 18.1302C10.9795 16.9317 11.7051 15.7388 12.4631 14.5648C12.5428 14.4418 12.6017 14.3073 12.6682 14.1767C12.7176 14.082 12.71 13.9854 12.6739 13.8889C12.6378 13.7923 12.6055 13.6957 12.5656 13.6011C12.4897 13.4155 12.5163 13.2413 12.6302 13.0804C12.6967 12.9876 12.7613 12.8929 12.8373 12.8096C13.1526 12.4612 13.4718 12.1166 13.7871 11.7682C14.1651 11.3498 14.5469 10.9313 14.9154 10.5034C15.2612 10.1039 15.6031 9.70056 16.002 9.35217C16.2699 9.11738 16.5681 8.92993 16.9252 8.86176C17.2254 8.80496 17.3089 8.82011 17.4495 9.13253C17.5198 9.28779 17.5654 9.45631 17.6091 9.62293C17.6946 9.95997 17.6471 10.2837 17.5027 10.5981C17.3545 10.9256 17.1437 11.2115 16.91 11.4804C16.3136 12.1715 15.7152 12.8626 15.1168 13.5537C14.3703 14.4171 13.656 15.3071 12.9741 16.2216C12.6283 16.6874 12.2921 17.1589 11.9844 17.6493C11.9654 17.6796 11.9312 17.708 11.9445 17.761C11.9806 17.742 12.0091 17.7288 12.0376 17.7136C12.2085 17.6209 12.3795 17.5262 12.5523 17.4391C12.9209 17.2535 13.3027 17.1002 13.7054 17.0112C14.2088 16.8995 14.716 16.8805 15.227 16.9525C15.6411 17.0112 16.0324 17.1456 16.4199 17.2952C16.7182 17.4107 17.0031 17.5546 17.2843 17.708C17.4077 17.7742 17.5312 17.8386 17.6566 17.8992C17.9035 18.0223 18.1714 18.0431 18.4392 18.0526C18.5513 18.0564 18.6235 18.1075 18.6786 18.2003C18.7507 18.3233 18.783 18.4578 18.8153 18.5922C18.9217 19.0353 18.8685 19.4518 18.6083 19.8324C18.5475 19.9214 18.4734 20.0066 18.3936 20.0805C18.2341 20.2263 18.0441 20.2452 17.8465 20.1732C17.6642 20.107 17.4818 20.0331 17.3089 19.9479C16.8549 19.7207 16.4066 19.4859 15.9564 19.253C15.5765 19.0561 15.1871 18.8876 14.7787 18.7588C14.1119 18.5487 13.4338 18.4483 12.7347 18.5335C12.218 18.596 11.745 18.774 11.31 19.0561C10.8959 19.325 10.5559 19.6734 10.2519 20.0596C10.1076 20.2452 9.96889 20.4345 9.82072 20.6163C9.74093 20.7148 9.64595 20.8038 9.55667 20.8946C9.48069 20.9723 9.38001 20.9912 9.28123 21.0139C9.27553 21.0291 9.26793 21.0404 9.26793 21.0499C9.26793 21.1124 9.26793 21.1749 9.26793 21.2374C9.26793 21.3813 9.26983 21.3832 9.4161 21.3832C12.199 21.3832 14.9819 21.3832 17.7648 21.385C17.856 21.385 17.9111 21.3529 17.9624 21.2809C19.0946 19.6696 20.202 18.0412 21.2677 16.3844C21.2867 16.3541 21.3019 16.3239 21.3304 16.2727C21.2278 16.2727 21.1461 16.2708 21.0626 16.2708C20.8023 16.2708 20.5402 16.2765 20.2799 16.2727C20.1583 16.2727 20.0406 16.2386 19.9304 16.1837C19.6721 16.0512 19.6151 15.7577 19.805 15.5381C19.8487 15.4888 19.8943 15.4396 19.9437 15.3961C20.1413 15.22 20.3407 15.0477 20.5383 14.8735C20.6181 14.8034 20.7054 14.7504 20.8099 14.7371C20.9296 14.7239 21.0512 14.7163 21.1708 14.722C21.4501 14.7371 21.7274 14.758 22.0067 14.7845C22.0959 14.7921 22.1472 14.7618 22.2004 14.6936C22.9603 13.6957 23.722 12.6979 24.4818 11.7C25.3101 10.6151 26.1383 9.53205 26.9988 8.47171C27.1071 8.33728 27.2135 8.20284 27.3236 8.06652H27.3331ZM26.1592 15.913C25.9901 15.9016 25.8306 15.9016 25.6767 15.9262C25.3082 15.9868 24.9396 16.055 24.573 16.1288C24.1475 16.214 23.7201 16.2841 23.2851 16.2765C23.0495 16.2727 22.814 16.2765 22.5803 16.2652C22.4626 16.2595 22.3961 16.2973 22.3315 16.3958C21.7426 17.316 21.1499 18.2343 20.5573 19.1527C20.1071 19.8532 19.655 20.5519 19.2047 21.2525C19.182 21.2866 19.1649 21.3245 19.1364 21.3737H32.918C32.9199 21.3282 32.9237 21.2904 32.9237 21.2506C32.9237 20.7375 32.9237 20.2244 32.9237 19.7112C32.9237 19.5768 32.9294 19.5919 32.8097 19.5484C31.9834 19.2511 31.3128 18.7475 30.7961 18.0374C30.382 17.4675 30.1256 16.8294 30.0002 16.1364C29.9356 15.7842 29.9185 15.4301 29.928 15.0742C29.9432 14.4588 30.0933 13.887 30.4656 13.3833C30.5169 13.3133 30.5549 13.2318 30.5872 13.1504C30.6479 13.0046 30.6954 12.8551 30.76 12.7111C30.9329 12.3249 31.1437 11.9613 31.3983 11.6224C31.6053 11.346 31.8295 11.0828 32.0897 10.8556C32.3386 10.6378 32.5969 10.4333 32.8553 10.225C32.9047 10.1853 32.9313 10.1474 32.9313 10.0811C32.9294 9.43548 32.9313 8.79171 32.9294 8.14604C32.9294 8.11385 32.9256 8.08166 32.9218 8.04379H28.2412C28.2355 8.14604 28.2355 8.24071 28.2203 8.33349C28.1842 8.56449 28.1348 8.7936 28.1006 9.02649C28.0132 9.61346 27.9239 10.2004 27.8536 10.7893C27.8023 11.2153 27.7682 11.6432 27.7511 12.0712C27.7283 12.679 27.7226 13.2868 27.7207 13.8946C27.7188 14.2505 27.7359 14.6046 27.7416 14.9606C27.7416 15.0325 27.7663 15.0742 27.8384 15.0969C27.8935 15.1139 27.9448 15.1442 27.9942 15.1764C28.2165 15.3184 28.1861 15.6062 28.0379 15.735C27.9866 15.7804 27.9258 15.8164 27.8631 15.8448C27.808 15.8694 27.7814 15.8997 27.7871 15.9603C27.7928 16.019 27.7909 16.0777 27.7928 16.1364C27.8137 16.8161 27.9296 17.477 28.1842 18.1094C28.2127 18.1813 28.2412 18.2533 28.262 18.3271C28.3038 18.4691 28.2715 18.5979 28.1671 18.7001C28.0588 18.8043 27.9296 18.8421 27.7814 18.7872C27.7473 18.774 27.7131 18.7607 27.6789 18.7475C27.5877 18.7115 27.4984 18.7001 27.3996 18.7172C27.3369 18.7285 27.2648 18.721 27.2059 18.6963C27.0805 18.6452 26.9608 18.5808 26.8411 18.5146C26.7557 18.4672 26.6949 18.3934 26.6607 18.2987C26.6056 18.1472 26.541 17.9977 26.4973 17.8443C26.3738 17.4031 26.2979 16.9506 26.2314 16.498C26.2048 16.3068 26.1839 16.1137 26.1592 15.9054V15.913ZM48.6942 19.0012C48.6942 19.0012 48.6847 18.9841 48.679 18.9747C48.6942 18.952 48.7056 18.9255 48.7246 18.9065C48.829 18.8024 48.9335 18.7001 49.0399 18.5998C49.1938 18.454 49.3514 18.3101 49.5053 18.1624C49.6003 18.0696 49.682 17.9655 49.7351 17.8424C49.7959 17.7061 49.7351 17.5811 49.5889 17.547C49.5452 17.5376 49.4901 17.5376 49.4502 17.5546C49.3419 17.6 49.2337 17.6474 49.1349 17.708C48.679 17.9863 48.2687 18.3233 47.8602 18.6679C47.6665 18.8327 47.5297 19.0277 47.4518 19.2682C47.4119 19.3931 47.3454 19.503 47.2448 19.5882C47.1536 19.6658 47.0586 19.7434 46.9636 19.8173C46.7718 19.9669 46.5742 20.107 46.3899 20.2641C46.2969 20.3436 46.2133 20.4421 46.1487 20.5462C46.0613 20.6845 46.105 20.8359 46.238 20.9325C46.3121 20.9855 46.3956 21.0064 46.483 21.0234C46.6958 21.0651 46.9085 21.0385 47.1194 21.0158C47.5943 20.9666 48.0654 20.889 48.5346 20.8038C49.4426 20.639 50.343 20.4421 51.2339 20.2054C52.6434 19.8286 54.0377 19.4026 55.4131 18.9122C55.7284 18.8005 56.0361 18.6717 56.3306 18.5089C56.6136 18.3517 56.8795 18.1681 57.1284 17.9598C57.5216 17.6284 57.9186 17.3028 58.3479 17.0206C58.6386 16.8294 58.9292 16.6363 59.2066 16.4242C59.4782 16.2178 59.6853 15.9489 59.8372 15.6441C59.8562 15.6062 59.8657 15.5608 59.8657 15.5172C59.8657 15.078 59.8657 14.6387 59.8657 14.1975C59.8657 14.1559 59.8543 14.1085 59.8353 14.0725C59.7271 13.8699 59.577 13.7014 59.3889 13.5651C59.0717 13.336 58.7146 13.1902 58.3384 13.0974C57.8958 12.9876 57.4494 12.91 56.9935 12.8721C56.4217 12.8248 55.85 12.8001 55.2763 12.7926C55.0369 12.7888 54.7976 12.7945 54.5601 12.802C54.1745 12.8134 53.7889 12.8266 53.4033 12.8456C52.9588 12.8664 52.5143 12.8816 52.0717 12.8134C51.8608 12.7812 51.6537 12.7339 51.4695 12.6146C51.27 12.4839 51.1769 12.2491 51.2377 12.02C51.2757 11.8799 51.3441 11.755 51.4391 11.6451C51.6101 11.4482 51.8152 11.2948 52.0356 11.1623C52.5466 10.8575 53.0993 10.6473 53.6654 10.4693C54.1498 10.3178 54.638 10.1815 55.1281 10.0509C55.9126 9.84257 56.701 9.64187 57.5064 9.52258C57.6622 9.49986 57.8199 9.49418 57.9775 9.48282C58.1219 9.47335 58.2606 9.57938 58.2663 9.72518C58.2682 9.78388 58.2739 9.84257 58.2663 9.89938C58.2549 10.0035 58.2606 10.1039 58.3061 10.2004C58.384 10.3652 58.5265 10.4314 58.6956 10.3633C58.764 10.3349 58.8266 10.2837 58.8798 10.2307C58.9254 10.1853 58.9558 10.1247 58.9919 10.0698C59.0869 9.92588 59.1724 9.77441 59.2787 9.63997C59.444 9.4298 59.6226 9.23099 59.7992 9.02839C59.841 8.98105 59.86 8.93372 59.86 8.87123C59.86 8.6478 59.86 8.42438 59.8619 8.20095C59.8619 8.18202 59.8619 8.16498 59.8619 8.14604C59.86 8.10249 59.8372 8.07788 59.7935 8.07598C59.7707 8.07598 59.7498 8.07409 59.7271 8.07409C58.6899 8.07409 57.6527 8.07409 56.6174 8.07409C56.5623 8.07409 56.5072 8.08166 56.4559 8.0987C55.831 8.29184 55.2136 8.50769 54.6114 8.7652C54.2106 8.9375 53.8079 9.1117 53.4185 9.30673C52.9037 9.56613 52.4079 9.86151 51.933 10.1891C51.3859 10.5678 50.892 11.0033 50.4817 11.5277C50.305 11.7531 50.1531 11.9973 50.0505 12.2662C49.946 12.5351 49.8814 12.8115 49.9403 13.105C49.9878 13.3436 50.1436 13.4969 50.3848 13.5272C50.4912 13.5405 50.5976 13.5462 50.7039 13.5499C50.93 13.5613 51.1295 13.6276 51.2833 13.7999C51.3859 13.9154 51.4866 14.0309 51.5911 14.1445C51.6746 14.2354 51.7582 14.3319 51.8532 14.4096C52.0242 14.5478 52.2312 14.6179 52.444 14.6671C52.8353 14.7599 53.2361 14.7958 53.635 14.7977C54.0681 14.7977 54.5012 14.7693 54.9344 14.7636C55.4567 14.7561 55.9772 14.7447 56.4977 14.7996C56.8359 14.8356 57.1664 14.8962 57.4893 15.0003C57.7135 15.0723 57.9072 15.1954 58.0668 15.3714C58.2169 15.5381 58.2853 15.8524 58.1428 16.0891C58.0478 16.2462 57.9243 16.375 57.7819 16.4867C57.5235 16.6874 57.2386 16.8502 56.9422 16.9903C56.2261 17.3274 55.4738 17.5697 54.7159 17.7913C53.8307 18.0507 52.9303 18.2476 52.028 18.4332C50.9775 18.6509 49.9194 18.8232 48.8613 18.986C48.8043 18.9955 48.7474 18.9993 48.6904 19.005L48.6942 19.0012ZM37.382 21.3472C37.4504 21.351 37.4865 21.3547 37.5226 21.3547C37.8246 21.3547 38.1248 21.351 38.4268 21.3547C38.518 21.3547 38.5731 21.3226 38.6225 21.2449C39.1924 20.3569 39.7679 19.4689 40.3397 18.5827C40.8165 17.8443 41.2952 17.104 41.7701 16.3636C41.8233 16.2803 41.8841 16.2443 41.9848 16.2481C42.1937 16.2557 42.4046 16.2519 42.6135 16.2557C43.0239 16.2633 43.4285 16.2178 43.8293 16.1421C44.2434 16.0645 44.6594 15.983 45.0754 15.9111C45.2122 15.8884 45.3528 15.8865 45.4933 15.8808C45.5788 15.877 45.6054 15.9035 45.6244 15.983C45.6301 16.0039 45.632 16.0266 45.6339 16.0474C45.6871 16.587 45.7783 17.121 45.9036 17.6493C45.9549 17.867 46.0176 18.081 46.1088 18.2874C46.1525 18.3839 46.2133 18.4672 46.3064 18.5165C46.4165 18.5752 46.5286 18.6282 46.6426 18.6812C46.7148 18.7153 46.7927 18.721 46.8686 18.702C46.9522 18.6793 47.0282 18.6982 47.1042 18.7304C47.1555 18.7513 47.2068 18.774 47.26 18.7853C47.4632 18.8327 47.6532 18.7039 47.6931 18.4975C47.7102 18.4066 47.6893 18.3233 47.6589 18.24C47.5905 18.0583 47.5183 17.8765 47.4613 17.6928C47.3416 17.299 47.26 16.8976 47.2334 16.4848C47.222 16.3049 47.222 16.125 47.2163 15.9471C47.2163 15.8884 47.2391 15.8505 47.2942 15.8278C47.3378 15.8088 47.3815 15.788 47.4214 15.7634C47.6038 15.6479 47.6323 15.3942 47.4822 15.2408C47.4214 15.1783 47.3511 15.1329 47.2676 15.1102C47.1935 15.0912 47.1593 15.0496 47.1593 14.9681C47.1555 14.6463 47.1422 14.3244 47.1403 14.0006C47.1346 13.3076 47.1403 12.6165 47.184 11.9235C47.2106 11.5069 47.2391 11.0904 47.2828 10.6757C47.3511 10.0338 47.4556 9.39761 47.5734 8.76331C47.6076 8.58343 47.6361 8.40166 47.6608 8.22178C47.6798 8.07977 47.6646 8.06841 47.5259 8.06841C47.353 8.06841 47.1802 8.06841 47.0073 8.06841C46.7965 8.06841 46.7946 8.06841 46.6673 8.22746C46.1335 8.89963 45.5921 9.56613 45.0678 10.244C44.2263 11.3289 43.3962 12.4196 42.5622 13.5083C42.2545 13.9097 41.9468 14.313 41.6428 14.7182C41.5916 14.7864 41.5346 14.811 41.4548 14.7977C41.4111 14.7902 41.3674 14.7883 41.3237 14.7845C41.0711 14.7636 40.8184 14.7466 40.5658 14.722C40.3207 14.6974 40.1118 14.7561 39.9313 14.9322C39.785 15.0761 39.6236 15.2048 39.4716 15.3412C39.3975 15.4074 39.3234 15.4737 39.255 15.5456C39.2227 15.5797 39.1962 15.6233 39.1829 15.6668C39.1069 15.9035 39.2 16.0985 39.4355 16.1875C39.5875 16.2443 39.7489 16.2633 39.9123 16.2614C40.165 16.2576 40.4195 16.2519 40.6721 16.2481C40.7063 16.2481 40.7405 16.2595 40.7956 16.2708C39.7033 17.9977 38.5446 19.6544 37.3858 21.3453L37.382 21.3472ZM32.9636 11.0601C33.0149 11.0279 33.049 11.0052 33.0832 10.9862C33.2257 10.9029 33.3663 10.8139 33.5144 10.742C34.0843 10.4636 34.6903 10.3292 35.321 10.2951C35.7674 10.2705 36.21 10.2989 36.6488 10.3822C36.9603 10.4428 37.2643 10.5242 37.5568 10.6492C37.7221 10.7192 37.8873 10.7893 38.0564 10.8556C38.2198 10.9199 38.3603 10.8726 38.4781 10.7514C38.518 10.7098 38.5503 10.6586 38.5712 10.6037C38.6263 10.4674 38.6624 10.3254 38.6605 10.1758C38.6586 10.03 38.6567 9.88233 38.6377 9.73843C38.5921 9.37868 38.4097 9.13063 38.0431 9.03028C37.7924 8.96212 37.5359 8.94508 37.2795 8.92993C37.0116 8.91289 36.7438 8.90153 36.4759 8.92993C36.2347 8.95454 35.9915 8.96969 35.7541 9.00945C35.0398 9.13253 34.3598 9.36542 33.7234 9.71571C33.4917 9.84257 33.2694 9.98458 33.0414 10.119C32.9826 10.1531 32.9541 10.1985 32.956 10.2705C32.9598 10.4977 32.956 10.7249 32.956 10.9521C32.956 10.9805 32.9617 11.0089 32.9674 11.0601H32.9636ZM32.9218 17.5129C32.9256 17.4751 32.9294 17.458 32.9294 17.441C32.9294 15.3412 32.9256 13.2432 32.9237 11.1434C32.9237 11.1396 32.9199 11.1377 32.918 11.1358C32.9161 11.1339 32.9123 11.132 32.9028 11.1301C32.8914 11.1377 32.8743 11.1453 32.861 11.1566C32.6653 11.3081 32.4868 11.4747 32.3253 11.6622C32.1581 11.8534 32.0081 12.0579 31.8884 12.2813C31.6129 12.8001 31.4724 13.3587 31.4306 13.9438C31.404 14.3111 31.4287 14.6747 31.4971 15.0382C31.5788 15.4775 31.7193 15.8978 31.9264 16.2917C32.1638 16.7423 32.4887 17.1305 32.8629 17.477C32.8762 17.4883 32.8914 17.4978 32.9199 17.5167L32.9218 17.5129ZM23.2357 14.864C23.7125 14.9019 24.1798 14.936 24.649 14.9757C25.1163 15.0136 25.5836 15.0325 26.0585 15.0212C26.0642 14.6103 26.0604 14.2108 26.0794 13.8131C26.0984 13.4117 26.1288 13.0084 26.1763 12.6089C26.2238 12.2132 26.2922 11.8193 26.3662 11.4274C26.4403 11.0336 26.5334 10.6435 26.6208 10.244C26.4707 10.3462 23.3573 14.5989 23.2357 14.8659V14.864ZM32.9579 17.583C32.956 17.6398 32.9522 17.6777 32.9522 17.7174C32.9522 18.0942 32.9522 18.471 32.9522 18.8497C32.9522 19.058 32.9522 19.2682 32.9522 19.4764C32.9522 19.5711 32.9598 19.5806 33.0414 19.6014C33.4081 19.6999 33.7804 19.7643 34.1603 19.7699C34.4699 19.7756 34.7758 19.7529 35.0816 19.7037C35.6629 19.6109 36.2138 19.4253 36.7457 19.1754C37.1427 18.9898 37.5093 18.7494 37.8569 18.4843C38.026 18.3555 38.1799 18.2078 38.3375 18.0639C38.4363 17.973 38.5028 17.8594 38.5389 17.7288C38.5636 17.6417 38.5408 17.5622 38.4819 17.5205C38.4116 17.4713 38.3451 17.4883 38.2786 17.5338C38.1818 17.6 38.083 17.6644 37.9861 17.7288C37.5929 17.9901 37.175 18.2003 36.721 18.3366C36.1093 18.5203 35.4881 18.5581 34.8594 18.4483C34.1888 18.3309 33.5847 18.0583 33.049 17.6379C33.0281 17.6209 33.0035 17.6076 32.9617 17.583H32.9579Z" fill="#BE171A"/>
<path d="M32.9336 8.07031H59.7465C59.813 8.07031 59.868 8.12522 59.868 8.19149V21.3699H32.9336V8.07031Z" fill="#1D1F1C"/>
<path d="M48.6945 19.0012C48.7515 18.9955 48.8084 18.9917 48.8654 18.9823C49.9254 18.8213 50.9835 18.6471 52.0321 18.4294C52.9344 18.2438 53.8348 18.0469 54.72 17.7875C55.4779 17.566 56.2302 17.3236 56.9463 16.9866C57.2427 16.8465 57.5276 16.6855 57.786 16.4829C57.9284 16.3731 58.0519 16.2424 58.1469 16.0853C58.2894 15.8486 58.221 15.5362 58.0709 15.3677C57.9113 15.1916 57.7176 15.0685 57.4934 14.9966C57.1705 14.8924 56.8381 14.8318 56.5018 14.7958C55.9813 14.7409 55.4589 14.7504 54.9385 14.7599C54.5053 14.7674 54.0722 14.7958 53.6391 14.794C53.2383 14.794 52.8394 14.758 52.4481 14.6633C52.2353 14.6122 52.0283 14.544 51.8573 14.4058C51.7604 14.3282 51.6787 14.2316 51.5952 14.1407C51.4907 14.0271 51.39 13.9116 51.2874 13.7961C51.1336 13.6238 50.9322 13.5556 50.708 13.5462C50.6017 13.5405 50.4953 13.5367 50.3889 13.5234C50.1477 13.4932 49.9919 13.3398 49.9444 13.1012C49.8874 12.8096 49.9501 12.5332 50.0546 12.2624C50.1591 11.9935 50.3091 11.7493 50.4858 11.524C50.8961 10.9995 51.39 10.564 51.9371 10.1853C52.412 9.85584 52.9078 9.56235 53.4226 9.30295C53.812 9.10603 54.2147 8.93183 54.6155 8.76142C55.2177 8.50391 55.8351 8.28617 56.46 8.09493C56.5113 8.07978 56.5683 8.07031 56.6215 8.07031C57.6587 8.07031 58.6959 8.07031 59.7312 8.07031C59.7539 8.07031 59.7748 8.07031 59.7976 8.07221C59.8413 8.07599 59.8641 8.10061 59.866 8.14226C59.866 8.1612 59.8679 8.17824 59.866 8.19717C59.866 8.4206 59.8622 8.64403 59.8641 8.86746C59.8641 8.92994 59.8451 8.97728 59.8033 9.02461C59.6267 9.22532 59.4481 9.42602 59.2828 9.6362C59.1765 9.77063 59.091 9.92211 58.996 10.066C58.9599 10.1209 58.9295 10.1834 58.8839 10.227C58.8307 10.28 58.7681 10.3311 58.6997 10.3595C58.5306 10.4277 58.3862 10.3614 58.3102 10.1967C58.2647 10.1001 58.259 10.0016 58.2704 9.8956C58.2761 9.83879 58.2704 9.7801 58.2704 9.7214C58.2628 9.57561 58.1241 9.46957 57.9816 9.47904C57.824 9.4904 57.6663 9.49419 57.5105 9.5188C56.7051 9.63809 55.9187 9.8388 55.1322 10.0471C54.6421 10.1777 54.1539 10.3122 53.6695 10.4655C53.1053 10.6435 52.5507 10.8518 52.0397 11.1585C51.8174 11.2911 51.6123 11.4444 51.4432 11.6414C51.3482 11.7512 51.2798 11.8761 51.2418 12.0163C51.181 12.2454 51.2741 12.4802 51.4736 12.6108C51.6559 12.7301 51.863 12.7774 52.0758 12.8096C52.5184 12.8797 52.961 12.8645 53.4074 12.8418C53.793 12.8229 54.1786 12.8096 54.5642 12.7983C54.8036 12.7907 55.0429 12.785 55.2804 12.7888C55.8541 12.7964 56.4258 12.821 56.9976 12.8683C57.4535 12.9062 57.8999 12.9838 58.3425 13.0936C58.7187 13.1864 59.0739 13.3322 59.393 13.5613C59.5811 13.6976 59.7293 13.8662 59.8394 14.0688C59.8584 14.1066 59.8698 14.1521 59.8698 14.1937C59.8717 14.633 59.8717 15.0723 59.8698 15.5135C59.8698 15.5551 59.8603 15.6025 59.8413 15.6403C59.6894 15.9471 59.4823 16.214 59.2107 16.4204C58.9333 16.6306 58.6427 16.8237 58.352 17.0169C57.9227 17.3009 57.5238 17.6266 57.1325 17.956C56.8855 18.1643 56.6196 18.348 56.3347 18.5051C56.0421 18.668 55.7344 18.7948 55.4172 18.9084C54.0418 19.3988 52.6475 19.8249 51.238 20.2016C50.3471 20.4402 49.4467 20.6371 48.5387 20.8C48.0695 20.8852 47.5984 20.9628 47.1235 21.012C46.9126 21.0348 46.6999 21.0613 46.4871 21.0196C46.3997 21.0026 46.3162 20.9818 46.2421 20.9287C46.1091 20.8322 46.0654 20.6826 46.1528 20.5425C46.2174 20.4383 46.301 20.3399 46.394 20.2603C46.5783 20.1032 46.7759 19.9631 46.9677 19.8135C47.0627 19.7396 47.1577 19.662 47.2489 19.5844C47.3495 19.4992 47.4141 19.3894 47.4559 19.2644C47.5338 19.0239 47.6706 18.8289 47.8643 18.6642C48.2709 18.3215 48.6831 17.9825 49.139 17.7042C49.2377 17.6436 49.346 17.5944 49.4543 17.5508C49.4942 17.5338 49.5493 17.5338 49.593 17.5432C49.7392 17.5773 49.8 17.7004 49.7392 17.8386C49.6861 17.9617 49.6044 18.0658 49.5094 18.1586C49.3555 18.3063 49.1979 18.4483 49.044 18.596C48.9376 18.6964 48.8331 18.8005 48.7287 18.9027C48.7097 18.9217 48.6983 18.9482 48.6831 18.9709C48.6888 18.9804 48.6926 18.9879 48.6983 18.9974L48.6945 19.0012Z" fill="#C09249"/>
<path d="M37.3827 21.3472C38.5415 19.6563 39.7002 17.9996 40.7925 16.2727C40.7355 16.2614 40.7032 16.25 40.669 16.25C40.4164 16.2538 40.1618 16.2595 39.9092 16.2633C39.7458 16.2652 39.5862 16.2481 39.4324 16.1894C39.1968 16.1004 39.1018 15.9054 39.1797 15.6687C39.193 15.6252 39.2196 15.5816 39.2519 15.5475C39.3203 15.4756 39.3944 15.4093 39.4685 15.3431C39.6223 15.2067 39.7819 15.078 39.9282 14.9341C40.1067 14.7561 40.3176 14.6993 40.5626 14.7239C40.8153 14.7485 41.0679 14.7656 41.3206 14.7864C41.3643 14.7902 41.408 14.7921 41.4517 14.7996C41.5333 14.8129 41.5903 14.7883 41.6397 14.7201C41.9436 14.3149 42.2514 13.9135 42.5591 13.5102C43.393 12.4215 44.2251 11.3289 45.0647 10.2459C45.5909 9.56803 46.1304 8.89964 46.6642 8.22936C46.7914 8.06842 46.7933 8.07031 47.0042 8.07031C47.1771 8.07031 47.3499 8.07031 47.5228 8.07031C47.6614 8.07031 47.6766 8.08167 47.6576 8.22368C47.6349 8.40545 47.6045 8.58533 47.5703 8.76521C47.4525 9.39952 47.348 10.0357 47.2796 10.6776C47.2359 11.0923 47.2074 11.5088 47.1808 11.9254C47.1372 12.6165 47.1315 13.3095 47.1372 14.0025C47.141 14.3244 47.1524 14.6463 47.1562 14.97C47.1562 15.0496 47.1903 15.0912 47.2644 15.1121C47.348 15.1348 47.4183 15.1802 47.4791 15.2427C47.6292 15.3961 47.6007 15.6498 47.4183 15.7653C47.3784 15.7899 47.3347 15.8126 47.291 15.8297C47.2359 15.8524 47.2112 15.8903 47.2131 15.949C47.2188 16.1288 47.2188 16.3087 47.2302 16.4867C47.2568 16.8976 47.3385 17.3009 47.4582 17.6947C47.5152 17.8803 47.5874 18.0602 47.6557 18.2419C47.688 18.3252 47.707 18.4086 47.6899 18.4994C47.652 18.7039 47.4601 18.8346 47.2568 18.7872C47.2036 18.774 47.1524 18.7532 47.1011 18.7323C47.0251 18.7001 46.9491 18.6812 46.8655 18.7039C46.7895 18.7248 46.7116 18.7172 46.6395 18.6831C46.5274 18.6301 46.4134 18.579 46.3032 18.5184C46.2102 18.4672 46.1494 18.3858 46.1057 18.2893C46.0145 18.0829 45.9518 17.8708 45.9005 17.6512C45.7751 17.1229 45.684 16.5889 45.6308 16.0493C45.6289 16.0266 45.6251 16.0058 45.6213 15.9849C45.6023 15.9035 45.5757 15.8789 45.4902 15.8827C45.3515 15.8884 45.2091 15.8903 45.0723 15.913C44.6563 15.9849 44.2422 16.0664 43.8262 16.144C43.4253 16.2197 43.0207 16.2633 42.6104 16.2576C42.4015 16.2538 42.1906 16.2576 41.9816 16.25C41.881 16.2462 41.8202 16.2822 41.767 16.3655C41.2921 17.1059 40.8134 17.8462 40.3366 18.5846C39.7629 19.4727 39.1892 20.3588 38.6193 21.2468C38.57 21.3245 38.5168 21.3567 38.4237 21.3567C38.1217 21.3529 37.8215 21.3567 37.5195 21.3567C37.4834 21.3567 37.4473 21.3529 37.3789 21.3491L37.3827 21.3472ZM46.0772 10.2251L46.0449 10.2137C46.0221 10.2364 45.9993 10.2591 45.9803 10.2838C45.8549 10.4466 45.7258 10.6075 45.6042 10.7723C44.8975 11.736 44.189 12.6998 43.4861 13.6655C43.2278 14.0214 42.9751 14.3831 42.7225 14.7428C42.694 14.7826 42.6503 14.8186 42.6674 14.8829C42.6845 14.8886 42.7016 14.8962 42.7187 14.8962C42.8574 14.9057 42.9979 14.9113 43.1366 14.9208C43.2753 14.9284 43.4158 14.936 43.5545 14.9473C43.8983 14.9738 44.2422 15.0098 44.586 15.0269C44.8652 15.0401 45.1445 15.0325 45.4237 15.0325C45.513 15.0325 45.5244 15.0212 45.5263 14.9303C45.5282 14.7977 45.5263 14.6671 45.5263 14.5346C45.5282 14.2638 45.5225 13.9911 45.5358 13.7223C45.5529 13.408 45.5833 13.0936 45.6137 12.7812C45.6612 12.2851 45.7391 11.7928 45.8435 11.3043C45.9119 10.9824 45.9917 10.6606 46.0639 10.3406C46.0715 10.3046 46.0734 10.2667 46.0791 10.2288L46.0772 10.2251Z" fill="#C09249"/>
<path d="M32.9645 11.0605C32.9588 11.0094 32.9531 10.981 32.9531 10.9526C32.9531 10.7254 32.955 10.4982 32.9531 10.2709C32.9531 10.199 32.9797 10.1554 33.0386 10.1195C33.2666 9.98504 33.4888 9.84303 33.7206 9.71617C34.3569 9.36777 35.0351 9.13299 35.7512 9.00991C35.9887 8.96825 36.2318 8.955 36.4731 8.93039C36.7409 8.90198 37.0088 8.91334 37.2766 8.93039C37.5331 8.94553 37.7876 8.96257 38.0403 9.03074C38.4069 9.13109 38.5892 9.37913 38.6348 9.73889C38.6538 9.88279 38.6557 10.0305 38.6576 10.1763C38.6595 10.324 38.6253 10.4679 38.5683 10.6042C38.5475 10.6572 38.5133 10.7102 38.4753 10.7519C38.3594 10.8731 38.2169 10.9204 38.0536 10.856C37.8864 10.7898 37.7192 10.7216 37.554 10.6496C37.2614 10.5247 36.9575 10.4433 36.646 10.3827C36.2071 10.2975 35.7645 10.2709 35.3181 10.2956C34.6875 10.3296 34.0815 10.4641 33.5116 10.7424C33.3634 10.8144 33.2248 10.9053 33.0804 10.9867C33.0462 11.0056 33.0139 11.0283 32.9607 11.0605H32.9645Z" fill="#C09249"/>
<path d="M32.9587 17.5835C32.9986 17.6081 33.0233 17.6213 33.0461 17.6384C33.5818 18.0587 34.184 18.3314 34.8564 18.4488C35.4852 18.5586 36.1064 18.5207 36.718 18.3371C37.172 18.2007 37.5899 17.9924 37.9832 17.7293C38.08 17.6649 38.1788 17.6005 38.2757 17.5342C38.3422 17.4888 38.4087 17.4717 38.479 17.521C38.5397 17.5626 38.5606 17.6422 38.5359 17.7293C38.4999 17.8599 38.4334 17.9735 38.3346 18.0644C38.1788 18.2083 38.0231 18.356 37.854 18.4847C37.5064 18.7498 37.1416 18.9903 36.7427 19.1759C36.2127 19.4258 35.66 19.6095 35.0787 19.7041C34.7728 19.7534 34.467 19.7761 34.1574 19.7704C33.7774 19.7628 33.4051 19.7003 33.0385 19.6019C32.9568 19.5792 32.9492 19.5716 32.9492 19.4769C32.9492 19.2686 32.9492 19.0604 32.9492 18.8502C32.9492 18.4734 32.9492 18.0966 32.9492 17.7179C32.9492 17.68 32.953 17.6403 32.9549 17.5835H32.9587Z" fill="#C09249"/>
<path d="M46.0756 10.2251C46.0699 10.263 46.068 10.3008 46.0604 10.3368C45.9863 10.6587 45.9084 10.9787 45.84 11.3006C45.7356 11.7891 45.6577 12.2795 45.6102 12.7775C45.5798 13.0918 45.5494 13.4042 45.5323 13.7185C45.519 13.9893 45.5247 14.2601 45.5228 14.5308C45.5228 14.6634 45.5247 14.794 45.5228 14.9265C45.5228 15.0174 45.5095 15.0288 45.4202 15.0288C45.141 15.0288 44.8617 15.0364 44.5825 15.0231C44.2387 15.0061 43.8948 14.9701 43.551 14.9436C43.4123 14.9322 43.2718 14.9265 43.1331 14.9171C42.9944 14.9095 42.8539 14.9019 42.7152 14.8925C42.6981 14.8925 42.681 14.883 42.6639 14.8792C42.6468 14.8148 42.6924 14.7789 42.719 14.7391C42.9716 14.3793 43.2243 14.0177 43.4826 13.6617C44.1874 12.6961 44.894 11.7323 45.6007 10.7685C45.7223 10.6038 45.8495 10.4429 45.9768 10.28C45.9958 10.2554 46.0205 10.2327 46.0414 10.21L46.0737 10.2213L46.0756 10.2251Z" fill="#1D1F1C"/>
<path d="M9.37294 22.873C9.37294 22.8958 9.36914 22.9166 9.36914 22.9393C9.36914 22.9166 9.37294 22.8939 9.37484 22.873H9.37294Z" fill="#BE171A"/>
<path d="M14.1876 34.7868C14.7385 34.7792 15.2495 34.6107 15.7681 34.4497C16.6818 34.1676 17.4264 33.6374 18.0115 32.9047C18.9328 31.7478 19.3488 30.3883 19.4799 28.9398C19.5901 27.7261 19.4875 26.5162 19.1436 25.3441C18.9005 24.5091 18.5738 23.7006 18.0799 22.9697C18.0761 22.9641 18.0723 22.9584 18.0666 22.9508C18.021 22.8864 17.9526 22.8126 17.9203 22.7387C17.9203 22.7387 17.9203 22.7368 17.9203 22.7349C17.6183 22.3108 17.0769 21.6083 17.0047 21.5156C17.0028 21.5137 17.0009 21.5118 16.999 21.508C16.9971 21.5042 16.9971 21.5042 16.9971 21.5042C16.5431 21.0744 16.072 20.673 15.5192 20.3719C15.0709 20.1258 14.596 19.9686 14.1078 19.8171C13.7355 19.7016 13.3575 19.7149 12.987 19.6581C12.571 19.5937 12.1341 19.7338 11.7048 19.8039C11.2565 19.8739 10.8918 20.0993 10.5005 20.2848C10.3656 20.3492 9.94388 20.7052 9.8356 20.832C9.8356 20.8301 9.8356 20.8263 9.8356 20.8245L9.75772 20.9078C9.64184 21.0346 9.56586 21.1937 9.54306 21.3622C9.47468 21.864 9.41769 22.3657 9.3721 22.8713C9.3702 22.8921 9.3683 22.9148 9.3664 22.9375C9.19733 24.7666 9.16694 26.6071 9.27142 28.4418L9.96857 36.0743C10.0768 37.2691 10.6904 38.3559 11.6478 39.083C11.6535 39.0868 11.6592 39.0906 11.6649 39.0962C13.1466 40.2266 14.6036 41.3873 16.0283 42.5916C16.6153 43.0876 17.1947 43.6008 17.9184 43.9056C18.2755 44.0552 18.6213 44.0249 18.8017 43.8015C19.1379 43.383 19.3469 42.9002 19.364 42.3643C19.383 41.8134 19.2196 41.2794 19.0259 40.7757C18.6042 39.6738 17.9735 38.6873 17.1871 37.8049C16.2734 36.7787 15.2552 35.8679 14.1059 35.1068C14.0318 35.0594 13.9216 35.014 13.9539 34.9004C13.9824 34.7924 14.0926 34.7849 14.1876 34.7849V34.7868ZM13.7184 30.625C12.8313 30.6363 11.9992 30.3958 11.1824 30.0759C10.9887 30.0001 10.926 29.8941 10.9336 29.7028C10.9412 29.5059 10.9336 29.3109 10.9317 29.1121C10.9222 27.9438 10.8177 26.785 10.6087 25.6357C10.5688 25.4085 10.6201 25.2476 10.8386 25.1491C11.3363 24.9219 11.834 24.725 12.3906 24.6435C13.6063 24.4675 14.4136 25.0563 15.0747 25.9576C15.4014 26.4026 15.6275 26.9062 15.7548 27.4383C15.939 28.2165 15.9941 29.0136 15.6408 29.7596C15.4033 30.2614 14.9474 30.5435 14.3927 30.6212C14.1705 30.6515 13.9425 30.625 13.7184 30.625Z" fill="#BE171A"/>
<path d="M30.4263 30.2322C30.6942 29.3309 31.1349 28.5281 31.7257 27.7972C32.362 27.0095 33.1883 26.4945 34.1173 26.1575C34.8752 25.8829 35.6749 25.8129 36.4747 26.0211C37.1167 26.1897 37.6714 26.5229 38.1786 26.9414C38.3306 27.0663 38.4369 27.1137 38.4825 26.8637C38.4882 26.8334 38.5262 26.8088 38.5414 26.7766C38.8416 26.2124 39.1018 26.1613 39.4931 26.7766C39.7895 27.2424 39.9205 27.7612 40.0383 28.2857C40.1599 28.8234 40.253 29.3669 40.3574 29.9084C40.3631 29.9368 40.365 29.9633 40.3669 29.9917C40.5189 31.4648 40.5493 32.9436 40.46 34.4186C40.4125 35.1892 40.2663 35.958 40.0269 36.7002C39.9813 36.8441 39.8901 36.9823 39.7895 37.0959C39.6071 37.3004 39.3298 37.2626 39.1398 37.0448C38.9441 36.8214 38.834 36.5506 38.7181 36.2893C38.6421 36.1189 38.5984 36.136 38.4635 36.206C38.1349 36.3745 37.8082 36.543 37.4719 36.6964C37.0255 36.9028 36.5525 37.0069 36.0795 37.0959C34.3585 37.4235 32.816 36.9956 31.492 35.8747C31.0589 35.5092 30.7891 34.9809 30.5764 34.447C30.2307 33.5817 30.0578 32.6861 30.1433 31.7526C30.1471 31.7072 30.1585 31.6504 30.1053 31.6314C30.0312 31.6068 29.9685 31.6409 29.9058 31.6882C29.5981 31.9211 29.2657 32.1029 28.8914 32.2127C28.2969 32.3869 27.7023 32.5479 27.0906 32.6596C26.1712 32.8262 25.248 32.8735 24.3191 32.8906C23.7283 32.9 23.1357 32.8792 22.543 32.8754C22.3093 32.8754 22.2409 32.9758 22.3511 33.1822C22.7139 33.8581 23.1888 34.4508 23.9658 34.625C24.5319 34.7518 25.1245 34.7594 25.6906 34.483C26.2073 34.2311 26.6993 33.9017 27.3376 33.9793C27.8562 34.0418 28.5628 34.8768 28.2399 35.513C27.6738 36.6301 26.7696 37.1698 25.5633 37.2398C23.7568 37.3459 22.3435 36.579 21.2038 35.2214C20.6111 34.5152 20.1552 33.7294 19.8911 32.8622C19.648 32.0631 19.5644 31.2395 19.705 30.3837C19.819 29.6869 19.9652 29.0147 20.309 28.405C20.9435 27.2822 21.8439 26.4528 23.0768 25.9946C23.546 25.8204 24.0133 25.7049 24.5129 25.6576C26.3859 25.4815 27.8011 26.2957 28.9807 27.6533C29.5183 28.2725 29.9058 28.9655 30.1433 29.7531C30.1908 29.9122 30.1604 30.1754 30.4263 30.2341V30.2322ZM36.0131 34.5492C36.5278 34.589 37.0749 34.5095 37.622 34.4318C37.7873 34.4091 37.8234 34.3258 37.8101 34.1857C37.7683 33.7616 37.6866 33.3431 37.641 32.9171C37.5327 31.9117 37.5061 30.9119 37.6543 29.9103C37.6866 29.6944 37.6543 29.5127 37.4492 29.4161C37.0103 29.2078 36.5373 29.098 36.0567 29.1018C35.4185 29.1075 34.8391 29.346 34.3376 29.7304C33.8836 30.0788 33.517 30.5143 33.2871 31.0445C33.0459 31.6011 33.0288 32.1881 33.0535 32.7827C33.0782 33.3772 33.365 33.7956 33.8532 34.11C34.5048 34.5303 35.2285 34.5795 36.0112 34.5473L36.0131 34.5492ZM22.5582 30.217C22.6266 30.2814 22.4119 30.5749 22.731 30.4613C23.223 30.2852 23.7055 30.1186 24.2279 30.0182C25.1207 29.844 26.0212 29.8099 26.9197 29.7266C27.2065 29.7001 27.4686 29.8421 27.7498 29.8289C27.8258 29.8251 27.9321 29.8876 27.9739 29.7872C28.0081 29.7077 27.934 29.6509 27.8885 29.5808C27.632 29.1775 27.273 28.8803 26.9083 28.5887C26.1313 27.9695 25.286 27.7025 24.2868 28.0168C23.2268 28.3501 22.6532 29.2533 22.5582 30.2189V30.217Z" fill="white"/>
<path d="M50.4152 30.6205C50.3962 28.8312 50.4285 27.0437 50.552 25.2601C50.5976 24.5955 50.7894 23.9498 51.0231 23.3269C51.1523 22.9804 51.4714 22.8062 51.7943 22.6566C51.8988 22.6074 51.9368 22.7229 52.0109 22.7475C52.7118 22.988 53.0822 23.5125 53.2494 24.1998C53.4337 24.9534 53.4907 25.7221 53.5059 26.4946C53.5211 27.271 53.5078 28.0492 53.5097 28.8255C53.5097 28.9145 53.4755 29.0356 53.5837 29.0754C53.6692 29.1076 53.7528 29.0413 53.8307 28.9845C54.5354 28.4884 55.32 28.1893 56.1805 28.1968C56.946 28.2025 57.6698 28.426 58.3213 28.8577C59.1895 29.4333 59.7669 30.2172 60.0044 31.2245C60.3653 32.7544 60.4261 34.3146 60.314 35.8748C60.2665 36.5451 59.9854 37.1699 59.2465 37.4047C58.7241 37.5713 58.0516 37.4085 57.9015 36.9787C57.8161 36.7344 57.8331 36.4788 57.8502 36.227C57.8901 35.6097 57.9376 34.9887 57.854 34.3771C57.7287 33.4587 57.6736 32.5272 57.3184 31.6467C57.0809 31.0597 56.6706 30.7871 56.0665 30.717C55.6885 30.6735 55.3257 30.5845 54.9344 30.7019C54.3968 30.8647 54.0681 31.2207 53.8117 31.6865C53.2722 32.6654 53.1677 33.703 53.3254 34.7955C53.3957 35.2821 53.4109 35.782 53.3634 36.28C53.3292 36.6416 53.1886 36.9162 52.8334 37.0544C52.406 37.2229 51.9615 37.2987 51.5113 37.2172C50.9908 37.1226 50.8882 36.6625 50.7647 36.2478C50.4114 35.0606 50.4095 33.8374 50.4171 32.6143C50.4209 31.9497 50.4171 31.2851 50.4171 30.6205H50.4152Z" fill="white"/>
<path d="M47.0202 25.6844C47.5464 25.6693 48.0631 25.7185 48.5646 25.8889C48.7983 25.9685 48.9825 26.1199 49.1326 26.3093C49.3985 26.6444 49.3548 26.9568 48.9977 27.2314C48.6463 27.5022 48.2208 27.6347 47.8181 27.8051C46.9405 28.18 46.0419 28.5057 45.2992 29.1362C44.6438 29.6948 44.2088 30.3556 44.0759 31.2323C43.9923 31.7851 44.0075 32.3191 44.224 32.8076C44.5318 33.5063 45.0978 33.9437 45.8691 34.097C46.5548 34.2353 47.2235 34.0838 47.8997 34.0175C48.4601 33.9626 49.0452 33.8433 49.5923 34.0914C50.0976 34.3224 50.4186 34.667 50.0938 35.3297C49.7158 36.0965 49.0604 36.5585 48.3063 36.9012C47.3679 37.3292 46.363 37.3576 45.379 37.2118C44.3855 37.066 43.5136 36.5907 42.7233 35.9526C42.0471 35.4073 41.5893 34.72 41.2397 33.9494C41.0156 33.4533 40.8674 32.9288 40.8351 32.3816C40.8066 31.9101 40.761 31.4386 40.8351 30.9653C40.989 29.9977 41.2929 29.0889 41.8742 28.2861C42.5581 27.3412 43.4452 26.6255 44.5052 26.1635C44.9744 25.959 45.4873 25.817 46.0191 25.7583C46.3516 25.7223 46.684 25.6845 47.0183 25.6807L47.0202 25.6844Z" fill="white"/>
<path d="M43.196 40.6123C43.1808 40.741 43.272 40.9474 43.0896 41.1008C43.0023 41.1746 42.9092 41.2428 42.7895 41.1935C42.6869 41.1519 42.6584 41.0648 42.6318 40.955C42.4343 40.1597 42.2766 39.3607 42.3089 38.5351C42.3127 38.4329 42.3089 38.3325 42.3488 38.2322C42.5141 37.8232 42.5141 37.8194 42.8731 38.0788C42.9491 38.1337 43.0175 38.1281 43.0744 38.0788C43.4259 37.7645 43.7469 37.9217 44.0565 38.1451C44.7271 38.6298 44.7195 39.5444 44.1933 39.942C44.0033 40.0859 43.7868 40.1578 43.5398 40.1332C43.1827 40.0953 43.1808 40.0991 43.1979 40.4703C43.1979 40.4987 43.1979 40.5271 43.1979 40.6123H43.196ZM43.7735 39.0786C43.7735 38.8419 43.555 38.6279 43.2986 38.6336C43.0137 38.6393 43.0953 38.8608 43.0896 39.0237C43.0858 39.1164 43.0972 39.2111 43.0953 39.3039C43.0915 39.4213 43.1599 39.4724 43.2606 39.4932C43.5038 39.5462 43.7735 39.3285 43.7754 39.0786H43.7735Z" fill="white"/>
<path d="M52.6718 39.9325C52.6585 39.4042 52.6965 38.9479 52.7705 38.4935C52.7895 38.3761 52.7971 38.2549 52.9434 38.2511C53.0821 38.2473 53.1885 38.3287 53.2359 38.4613C53.3214 38.6961 53.2986 38.9403 53.2967 39.1827C53.2948 39.3739 53.3499 39.4667 53.5646 39.391C54.144 39.1846 54.6037 39.6144 54.6796 40.1881C54.71 40.4191 54.6986 40.6558 54.6967 40.8887C54.6948 41.0932 54.5543 41.2011 54.3757 41.2068C54.1895 41.2125 54.1763 41.0458 54.1687 40.9019C54.1592 40.7145 54.1554 40.527 54.1345 40.3415C54.1079 40.1143 53.8837 39.8492 53.7336 39.8511C53.5057 39.853 53.3024 40.0859 53.2834 40.3756C53.2739 40.5157 53.291 40.6558 53.2834 40.7959C53.2758 40.9417 53.2322 41.0761 53.0783 41.131C52.9263 41.1859 52.8123 41.1651 52.7573 40.9758C52.6509 40.6084 52.6984 40.2317 52.668 39.9287L52.6718 39.9325Z" fill="white"/>
<path d="M46.5714 39.9044C46.5125 39.236 46.9855 38.8876 47.5231 38.8289C47.941 38.7835 48.509 39.0656 48.6343 39.6696C48.7065 40.018 48.6666 40.0616 48.3304 40.1695C48.0075 40.2718 47.6845 40.2623 47.3578 40.2831C47.2894 40.2869 47.202 40.2642 47.1679 40.3607C47.1299 40.4687 47.2229 40.5198 47.2799 40.5633C47.4718 40.7035 47.6788 40.6372 47.8669 40.5577C48.0379 40.4838 48.1917 40.4857 48.2791 40.6486C48.3741 40.8284 48.2278 40.9326 48.0949 41.0253C47.6409 41.3397 47.1166 41.1106 46.8183 40.7319C46.5714 40.4194 46.5714 40.3532 46.5714 39.9044ZM48.2753 39.6848C47.9296 39.2076 47.884 39.1944 47.3654 39.3478C47.1792 39.4027 47.2723 39.5428 47.2609 39.6469C47.2533 39.7075 47.2419 39.8476 47.3464 39.8041C47.6371 39.6829 47.9524 39.7643 48.2753 39.6848Z" fill="white"/>
<path d="M58.1808 41.1839C57.5464 41.2218 57.1171 40.648 57.1057 40.1008C57.0962 39.6161 57.4533 39.084 58.0821 39.0859C58.6424 39.0859 59.1971 39.6332 59.1686 40.1804C59.1382 40.7598 58.6519 41.2426 58.1808 41.1839ZM58.1694 39.5934C57.8275 39.5972 57.6147 39.8036 57.6204 40.1198C57.6261 40.4189 57.8921 40.6424 58.2302 40.631C58.5228 40.6215 58.7659 40.3867 58.7545 40.1236C58.7431 39.8547 58.4506 39.5877 58.1694 39.5915V39.5934Z" fill="white"/>
<path d="M56.8455 40.2011C56.9006 40.6897 56.3554 41.2255 55.7912 41.1876C55.246 41.1517 54.7996 40.6423 54.8148 40.0364C54.8262 39.599 55.1834 39.0745 55.7741 39.0821C56.382 39.0916 56.8569 39.5877 56.8455 40.2011ZM55.8406 39.5952C55.5272 39.599 55.2764 39.8243 55.2802 40.0989C55.2821 40.4113 55.5557 40.6518 55.8976 40.6461C56.1863 40.6404 56.4048 40.417 56.4048 40.1254C56.4048 39.8243 56.1578 39.5914 55.8406 39.5952Z" fill="white"/>
<path d="M51.6695 41.1804C51.1756 41.1482 50.8527 40.8528 50.6647 40.4306C50.4709 39.997 50.6229 39.5974 50.9192 39.2547C51.1984 38.931 51.5708 38.8136 51.9906 38.8155C52.1311 38.8155 52.2356 38.8779 52.2812 38.9972C52.3363 39.143 52.1881 39.1866 52.1027 39.2377C51.945 39.3324 51.7645 39.3948 51.605 39.4876C51.3029 39.6618 51.2041 39.9269 51.3143 40.2355C51.396 40.4628 51.5917 40.5461 51.9374 40.5025C52.0115 40.493 52.0856 40.4779 52.1596 40.476C52.2679 40.4722 52.4009 40.44 52.4465 40.5783C52.4864 40.7032 52.4845 40.8301 52.3686 40.9361C52.171 41.116 51.9298 41.1652 51.6676 41.1842L51.6695 41.1804Z" fill="white"/>
<path d="M49.3584 41.1633C49.1248 41.1804 48.9538 41.0459 48.7848 40.9172C48.6917 40.8452 48.6898 40.7165 48.7392 40.637C48.8057 40.5328 48.8949 40.6123 48.9747 40.6654C49.1058 40.7525 49.254 40.7695 49.404 40.7184C49.5712 40.6616 49.6985 40.5385 49.7327 40.3776C49.7745 40.192 49.5845 40.1655 49.4629 40.1163C49.0963 39.9667 48.8322 39.7451 48.836 39.3096C48.8379 39.0086 49.026 38.8344 49.2654 38.7189C49.5009 38.6034 49.839 38.6924 50.0214 38.8704C50.086 38.9329 50.1069 38.9916 50.0746 39.0673C50.0328 39.1601 49.9663 39.0938 49.9074 39.0862C49.8257 39.073 49.7403 39.054 49.6586 39.0597C49.5104 39.0692 49.3641 39.1582 49.328 39.2775C49.2844 39.4195 49.4705 39.4308 49.5636 39.4914C49.7175 39.5918 49.8903 39.6524 50.0271 39.7868C50.4051 40.1598 50.407 40.5461 50.0195 40.9077C49.8219 41.0914 49.6301 41.1671 49.3603 41.1652L49.3584 41.1633Z" fill="white"/>
<path d="M60.1428 39.4492C60.1314 39.9378 60.1257 40.4054 60.0003 40.8599C59.9927 40.8864 59.9965 40.9205 59.9813 40.9413C59.9053 41.0416 59.892 41.2272 59.7419 41.2253C59.5957 41.2234 59.5615 41.0681 59.5292 40.9394C59.3601 40.2918 59.324 39.6348 59.4038 38.9702C59.4361 38.7032 59.4475 38.4325 59.5444 38.1731C59.5938 38.0405 59.6204 37.872 59.7894 37.8834C59.9262 37.8928 59.9661 38.0424 60.0079 38.1693C60.1504 38.5953 60.1181 39.0346 60.1428 39.4492Z" fill="white"/>
<path d="M45.2659 39.2717C45.4046 39.2925 45.5338 39.2584 45.6515 39.2016C45.7389 39.1581 45.8282 39.1448 45.9213 39.1429C46.0922 39.1372 46.2841 39.2054 46.3164 39.3417C46.3544 39.4989 46.1587 39.5519 46.0182 39.6011C45.5186 39.7734 45.4236 39.9135 45.4388 40.4323C45.4426 40.5725 45.4483 40.7126 45.4578 40.8527C45.4711 41.0515 45.3248 41.1197 45.1804 41.1367C45.0361 41.1519 44.9202 41.0667 44.8917 40.9C44.8176 40.4589 44.7473 40.0215 44.886 39.5746C44.9506 39.3644 45.0038 39.1997 45.2659 39.2736V39.2717Z" fill="white"/>
<mask id="mask0_2177_729" style="mask-type:luminance" maskUnits="userSpaceOnUse" x="9" y="19" width="11" height="25">
<path d="M14.1876 34.7868C14.7385 34.7792 15.2495 34.6107 15.7681 34.4497C16.6818 34.1676 17.4264 33.6374 18.0115 32.9047C18.9328 31.7478 19.3488 30.3883 19.4799 28.9398C19.5901 27.7261 19.4875 26.5162 19.1436 25.3441C18.9005 24.5091 18.5738 23.7006 18.0799 22.9697C18.0761 22.9641 18.0723 22.9584 18.0666 22.9508C18.021 22.8864 17.9526 22.8126 17.9203 22.7387C17.9203 22.7387 17.9203 22.7368 17.9203 22.7349C17.6183 22.3108 17.0769 21.6083 17.0047 21.5156C17.0028 21.5137 17.0009 21.5118 16.999 21.508C16.9971 21.5042 16.9971 21.5042 16.9971 21.5042C16.5431 21.0744 16.072 20.673 15.5192 20.3719C15.0709 20.1258 14.596 19.9686 14.1078 19.8171C13.7355 19.7016 13.3575 19.7149 12.987 19.6581C12.571 19.5937 12.1341 19.7338 11.7048 19.8039C11.2565 19.8739 10.8918 20.0993 10.5005 20.2848C10.3656 20.3492 9.94388 20.7052 9.8356 20.832C9.8356 20.8301 9.8356 20.8263 9.8356 20.8245L9.75772 20.9078C9.64184 21.0346 9.56586 21.1937 9.54306 21.3622C9.47468 21.864 9.41769 22.3657 9.3721 22.8713C9.3702 22.8921 9.3683 22.9148 9.3664 22.9375C9.19733 24.7666 9.16694 26.6071 9.27142 28.4418L9.96857 36.0743C10.0768 37.2691 10.6904 38.3559 11.6478 39.083C11.6535 39.0868 11.6592 39.0906 11.6649 39.0962C13.1466 40.2266 14.6036 41.3873 16.0283 42.5916C16.6153 43.0876 17.1947 43.6008 17.9184 43.9056C18.2755 44.0552 18.6213 44.0249 18.8017 43.8015C19.1379 43.383 19.3469 42.9002 19.364 42.3643C19.383 41.8134 19.2196 41.2794 19.0259 40.7757C18.6042 39.6738 17.9735 38.6873 17.1871 37.8049C16.2734 36.7787 15.2552 35.8679 14.1059 35.1068C14.0318 35.0594 13.9216 35.014 13.9539 34.9004C13.9824 34.7924 14.0926 34.7849 14.1876 34.7849V34.7868Z" fill="white"/>
</mask>
<g mask="url(#mask0_2177_729)">
<path d="M19.5633 26.4901C19.3391 26.4068 19.1283 26.6681 19.1074 26.9048C19.0808 27.2058 19.2194 27.5164 19.0352 27.8042C18.9459 27.9424 18.7597 27.9992 18.623 27.9064C18.4957 27.8174 18.4995 27.6678 18.5109 27.5164C18.528 27.3157 18.4824 27.1112 18.3703 26.9426C17.9619 26.3273 17.1793 26.653 17.0615 27.185C16.9874 27.5183 17.1489 27.8515 17.2439 28.181C17.3711 28.624 17.1109 29.1012 16.674 29.2489C16.522 29.3 16.3909 29.3625 16.3643 29.5083C16.3511 29.5802 16.3719 29.6522 16.4118 29.7128C16.6284 30.0328 17.1489 29.8472 17.3388 30.2259C17.4129 30.3717 17.3996 30.5459 17.3312 30.6936C17.2002 30.97 16.9285 31.1215 16.6683 31.2635L16.258 31.485C16.1383 31.5513 15.9939 31.4453 16.0243 31.3108C16.0471 31.2086 16.106 31.1082 16.1687 31.0495C16.2523 30.9719 16.2998 30.8602 16.2979 30.7447C16.2884 30.3679 15.766 30.4588 15.5722 30.7163C15.3918 30.9549 15.2854 31.29 15.0023 31.3866C14.8371 31.4434 14.6585 31.3979 14.4951 31.3222C14.4287 31.2919 14.3527 31.3355 14.3451 31.4074L14.3185 31.6176C14.3109 31.6857 14.2539 31.7388 14.1855 31.7407C14.081 31.7407 13.9746 31.752 13.8721 31.7728C13.7771 31.7918 13.7011 31.8618 13.6764 31.9546C13.6422 32.0796 13.6213 32.2102 13.6175 32.339C13.6137 32.428 13.6726 32.5075 13.7581 32.5302L14.2349 32.659C14.3223 32.6817 14.366 32.7802 14.3242 32.8597C14.1418 33.2062 14.0487 33.5981 14.0582 33.9901C14.3679 34.1359 14.7098 34.2116 15.0517 34.2116C15.1353 34.2116 15.217 34.2552 15.2417 34.3347C15.2797 34.454 15.4791 34.5619 15.6368 34.5486C16.3359 34.4843 16.9038 33.7969 16.8734 33.1077C16.8696 33.0149 16.9399 32.9354 17.033 32.9373C17.2306 32.9411 17.43 32.9278 17.6257 32.8938C17.7245 32.8767 17.7758 32.7688 17.7245 32.6817C17.62 32.5037 17.4072 32.3806 17.2287 32.2576C16.995 32.0947 16.7785 31.7804 16.9475 31.5494C17.0672 31.3847 17.3085 31.3828 17.5022 31.3165C17.9391 31.1688 18.1329 30.6974 18.2469 30.2354C18.2715 30.1388 18.3893 30.1009 18.4634 30.1672C18.6952 30.3755 18.9896 30.633 19.1796 30.8072M17.4718 43.6486C17.601 43.7319 17.7302 43.8152 17.8593 43.8985C17.884 43.9155 17.9106 43.9307 17.941 43.9383C18.0246 43.9553 18.1025 43.8758 18.1177 43.7925C18.1253 43.7489 18.1215 43.7073 18.1101 43.6637C18.0892 43.5766 18.0208 43.5066 17.9315 43.4914C17.7473 43.4573 17.5383 43.5501 17.4585 43.7224M16.7785 37.2127C17.1071 37.635 17.0406 38.3829 16.9228 38.9055C16.8962 39.0266 16.8525 39.1478 16.7633 39.233C16.6474 39.341 16.4783 39.3656 16.3207 39.3845C16.0832 39.4129 15.8439 39.4413 15.6064 39.4697C15.5589 39.4754 15.5095 39.483 15.4734 39.5133C15.4297 39.5511 15.4183 39.6136 15.4164 39.6723C15.4088 39.8711 15.4829 40.0699 15.6121 40.2195C15.6653 40.2801 15.7508 40.2972 15.8268 40.2725C16.2295 40.1514 16.6987 40.4297 16.9 40.8141C17.0634 41.1246 17.3236 42.3534 16.712 42.2985C16.6835 42.2966 16.6664 42.3307 16.6892 42.3497C16.9304 42.5523 16.9342 42.9953 16.7747 43.2737M17.4965 38.061C17.2933 37.8148 16.7595 38.2257 16.5144 38.0174C16.4593 37.9701 16.4289 37.9 16.3833 37.8432C16.2713 37.7069 16.0737 37.6672 15.9141 37.6122C15.8268 37.5838 15.7261 37.6085 15.6786 37.6842C15.6311 37.7599 15.6748 37.8281 15.709 37.8925C15.9046 38.2636 15.7166 38.7843 15.3272 38.9433C15.3006 38.9547 15.274 38.9642 15.2455 38.9661C14.9928 38.9945 14.9207 38.5855 14.989 38.3734C15.0289 38.2522 15.027 38.1178 14.9586 38.0099C14.8105 37.7808 14.6224 37.866 14.459 37.936C14.005 38.1292 13.5016 38.2068 13.0097 38.1613C12.9603 38.1576 12.9261 38.1083 12.9375 38.061C13.0021 37.7959 12.9394 37.493 12.7076 37.3339C12.5746 37.243 12.3999 37.2241 12.2517 37.2847C11.8946 37.4305 12.0428 37.8697 11.8129 38.0705C11.5925 38.2598 11.0322 38.1708 10.7529 38.2503M14.6452 35.4253C14.4363 35.4461 14.0867 35.4689 13.8759 35.4897C13.6916 35.5086 13.4978 35.5313 13.3478 35.6374C13.1977 35.7434 13.1084 35.963 13.2072 36.1183C13.3725 36.2944 13.6023 36.408 13.8436 36.4326C14.0221 36.4516 14.2634 36.4648 14.2976 36.6409C14.3109 36.7147 14.2767 36.7886 14.2425 36.8568C13.893 37.5687 13.6745 38.3431 13.5985 39.1308C13.5776 39.341 13.5814 39.5833 13.741 39.7215C13.9462 39.8976 14.3052 39.8049 14.4875 40.0056C14.6053 40.1343 14.5939 40.3464 14.4951 40.4903C14.3964 40.6342 13.8398 40.7932 13.6688 40.8368M10.601 38.0439C10.6124 37.7353 10.6655 37.3396 10.7282 37.0366C10.7586 36.8927 10.7966 36.7431 10.8935 36.6314C11.0854 36.4099 11.4216 36.4137 11.7122 36.3739C11.9421 36.3417 12.2042 36.2187 12.2878 36.0236C12.3277 35.9271 12.2859 35.8191 12.1966 35.7623C11.9459 35.6071 11.585 35.6146 11.3684 35.4045C11.2506 35.2909 11.1955 35.128 11.1575 34.969C11.0303 34.4199 11.0873 33.831 10.8726 33.3103C10.8346 33.2194 10.7871 33.1286 10.7111 33.0661C10.5725 32.9544 10.3673 32.9581 10.2058 33.0301C10.0444 33.102 9.75183 33.4201 9.62456 33.547M14.0563 33.9863C13.722 34.1453 13.5187 33.973 13.1597 33.8821C13.0685 33.8594 12.9622 33.8026 12.9698 33.7098C12.9736 33.653 13.0229 33.6095 13.0552 33.5622C13.1445 33.4296 13.0989 33.2384 12.985 33.1267C12.871 33.0149 12.7057 32.9695 12.5442 32.9638C12.4588 32.96 12.3714 32.9657 12.2916 32.996C12.1092 33.0661 11.9953 33.2516 11.9592 33.4429C11.9326 33.5811 11.9402 33.7231 11.9592 33.8632C11.9687 33.9408 11.9022 34.0052 11.8243 33.992C11.5394 33.9389 11.2506 33.8992 10.9657 33.9314C10.6257 33.9711 9.96459 34.5581 9.78983 34.8497M9.51249 32.1118C9.84492 32.2254 10.4832 32.2689 10.808 32.1383C10.884 32.108 10.9581 32.0701 11.0113 32.0095C11.093 31.9167 11.1138 31.7861 11.129 31.663C11.1879 31.1726 11.205 30.5705 11.1822 30.0782M9.30163 30.1009C10.1621 30.3281 11.2278 31.0041 12.1149 30.9265C12.1757 30.9208 12.2441 30.9094 12.2821 30.8621C12.3125 30.8242 12.3201 30.7731 12.3372 30.7277C12.417 30.5383 12.6962 30.5213 12.8729 30.6292C13.0495 30.7371 13.1616 30.9208 13.3079 31.0647C13.6517 31.4017 13.8968 31.6157 14.3356 31.415M19.607 42.0145C19.4436 42.0884 19.2517 42.0997 19.0789 42.0467C19.0314 42.0316 18.982 42.0088 18.9516 41.9691C18.925 41.9312 18.9174 41.8839 18.9098 41.8384C18.887 41.6794 18.8642 41.5222 18.8414 41.3632C18.8262 41.2552 18.8091 41.1435 18.7502 41.0507C18.6325 40.8633 18.3798 40.8084 18.1576 40.8122C18.1196 40.8122 18.0816 40.8141 18.0493 40.833C18.0113 40.8538 17.9885 40.8936 17.9714 40.9334C17.8441 41.2306 17.9942 41.5866 17.8878 41.8914C17.8023 42.1357 17.5592 42.3023 17.3047 42.3478C17.0501 42.3932 16.9285 42.4481 16.6911 42.3478M11.6704 19.8252C11.8718 19.6964 12.2251 19.7759 12.4037 19.9047C12.512 19.9823 12.6126 20.0921 12.7456 20.094C12.852 20.0978 12.9337 20.0334 13.0116 19.9558C13.1977 19.7684 13.4789 19.6964 13.7296 19.7816C14.0468 19.8895 13.95 20.1168 14.0297 20.2891C14.2102 20.6791 14.9719 20.3743 15.1619 20.7605C15.2227 21.0161 15.0403 21.3058 14.782 21.3608C14.6699 21.3854 14.5483 21.3702 14.4458 21.4195C14.1703 21.5501 14.2292 21.9894 14.309 22.2374C14.3489 22.3643 14.3508 22.5025 14.3052 22.6275C14.157 23.0308 13.7505 22.8623 13.4599 22.9361C13.3611 22.9607 13.3041 23.063 13.3345 23.1614C13.3725 23.2864 13.4029 23.4151 13.3991 23.5439C13.3915 23.7938 13.2319 24.0627 12.9185 24.0267C12.7931 24.0116 12.6772 23.9472 12.5936 23.8525C12.4417 23.6821 12.3923 23.4682 12.3676 23.2485C12.3562 23.1444 12.2574 23.0724 12.1548 23.0914C11.8623 23.1444 11.5451 23.1255 11.4273 22.8755C11.3684 22.7524 11.3836 22.6066 11.4007 22.4722C11.4349 22.1958 11.4691 21.9193 11.5033 21.6429C11.5128 21.5728 11.5204 21.4971 11.4843 21.4365C11.4444 21.3683 11.3608 21.338 11.2829 21.3191C11.0417 21.2604 10.7814 21.2528 10.5858 21.0805C10.4832 20.9896 10.4243 20.8533 10.4585 20.7208C10.5269 20.4614 10.8593 20.4481 11.0683 20.4557C11.1803 20.4595 11.2943 20.4349 11.3893 20.3743C11.6666 20.1963 11.4007 20.0032 11.6704 19.829V19.8252ZM15.6634 26.2326C15.766 26.3614 15.8686 26.492 15.9388 26.6397C15.9502 26.6643 15.9616 26.6908 15.973 26.7173C16.0414 26.8934 16.2561 26.9635 16.4213 26.8726C16.5866 26.7817 16.7595 26.7306 16.9418 26.7135C17.0786 26.7003 17.185 26.5905 17.1945 26.4541C17.2078 26.2515 17.1755 26.0376 17.1869 25.8331C17.2021 25.5377 17.3844 25.1969 17.6808 25.2045C17.7739 25.2064 17.8669 25.2461 17.9581 25.2272C18.0987 25.2007 18.1861 25.0454 18.1842 24.9015C18.1842 24.8258 18.1633 24.7519 18.1348 24.68C18.0968 24.5853 17.9999 24.5247 17.8992 24.5418C17.5478 24.5986 17.1508 24.377 17.0691 24.0267C17.0083 23.7635 17.109 23.4928 17.1356 23.2258C17.166 22.9001 17.0102 22.4836 16.6037 22.5745C16.5087 22.5953 16.4061 22.5934 16.3207 22.5479C16.1478 22.4571 16.2067 22.3188 16.2067 22.1939C16.2067 22.014 16.0661 21.8436 15.8894 21.8095C15.7128 21.7754 15.519 21.8796 15.4506 22.0462C15.3652 22.2545 15.4601 22.529 15.3082 22.6937C15.1163 22.902 14.4818 22.5858 14.2482 22.7468C14.0791 22.8642 14.0829 23.0554 14.0905 23.2618C14.1304 24.5209 14.9074 25.2783 15.6672 26.2364L15.6634 26.2326ZM9.39091 21.7432C9.09077 22.031 9.08128 22.9153 9.19145 23.2656C9.25984 23.4833 9.38711 23.6783 9.46879 23.8923C9.62266 24.2975 9.60557 24.7425 9.58467 25.1742C9.56377 25.6059 9.54478 26.0376 9.52578 26.4712C9.51439 26.7022 9.53528 26.9862 9.74424 27.0866C9.88291 26.8726 9.9019 26.6832 10.1565 26.7079C10.3806 26.7306 10.5801 26.5677 10.5953 26.3443L10.5231 25.8482C10.5307 25.7441 10.4433 25.5737 10.4224 25.4714C10.3901 25.3275 10.373 25.2404 10.354 25.1685C10.2628 24.8315 10.5269 24.4925 10.8764 24.5134C10.8783 24.5134 10.8821 24.5134 10.884 24.5134C10.9562 24.519 11.036 24.5304 11.0987 24.4944C11.1689 24.4528 11.1917 24.3657 11.2069 24.2861C11.2601 24.0211 11.9744 23.1823 11.7179 23.0914C11.4406 22.9948 11.5223 22.9967 11.3912 22.813C11.3 22.6862 10.3901 22.8755 10.278 22.7657C10.0406 22.5347 10.392 22.1106 10.2476 21.8133C10.1052 21.5236 9.59607 21.5482 9.39471 21.7413L9.39091 21.7432ZM9.37381 22.8736C9.37191 22.8945 9.37001 22.9172 9.36812 22.9399C9.36812 22.9172 9.37002 22.8963 9.37191 22.8736H9.37381Z" stroke="#3D2517" stroke-width="0.25" stroke-miterlimit="10"/>
</g>
<path d="M9.72253 30.9463C9.80801 31.2644 9.78142 31.5919 9.79851 31.9138C9.83081 32.5159 9.88969 33.1086 10.0303 33.6937C10.0607 33.8167 10.0379 33.9531 10.0417 34.0837C9.8783 34.1708 9.69024 34.114 9.52117 34.1784C8.56757 34.5419 8.33012 35.4489 8.39281 36.2252C8.4327 36.7251 8.56567 37.225 8.82022 37.6718C9.05957 38.0922 9.25903 38.5466 9.69973 38.8155C9.65224 39.855 9.865 40.8831 9.83081 41.9226C9.82131 42.2085 9.75292 42.4755 9.66934 42.7368C9.53447 43.1496 9.15265 43.3048 8.78603 43.3862C8.36811 43.4771 7.90081 43.5945 7.55128 43.1969C7.33473 42.9508 7.22265 42.6364 7.12957 42.3297C6.96621 41.7995 6.89402 41.2429 6.76485 40.7051C6.62618 40.1333 6.58059 39.552 6.47041 38.9783C6.40392 38.6318 6.38493 38.272 6.36023 37.9236C6.32224 37.3935 6.24816 36.8671 6.20827 36.3369C6.13418 35.3694 6.13228 34.398 6.00881 33.4343C5.99551 33.3226 6.00121 33.2108 5.99741 33.0972C5.96702 32.1448 6.00311 31.1905 5.94042 30.2381C5.88343 29.3596 5.98791 28.4829 5.99361 27.6043C5.99361 27.4264 5.98601 27.2503 5.98221 27.0723C6.10189 27.0799 6.19117 27.0306 6.27285 26.9435C6.42672 26.7807 6.535 26.5876 6.63188 26.3906C7.10678 25.4363 6.89592 24.482 6.09619 23.9348C5.91383 21.3067 5.97651 18.6767 6.01071 16.0467C6.0297 14.4846 6.11139 12.9244 6.10569 11.3604C6.10569 11.2582 6.10189 11.154 6.10189 11.0518C6.10189 10.9041 6.01451 10.8606 5.90053 10.9155C5.41423 11.1559 4.89374 11.2923 4.37135 11.4153C4.03132 11.4949 3.678 11.4494 3.33227 11.457C2.61422 11.4721 1.91707 11.3964 1.2845 11.0101C0.727915 10.6693 0.361292 10.1903 0.127641 9.58437C-0.159198 8.84214 0.13334 8.18701 0.410682 7.54324C0.89508 6.41853 1.79929 5.67251 2.80418 5.02305C3.22779 4.7485 3.69129 4.58377 4.1529 4.402C4.49862 4.26567 4.53092 4.14828 4.23268 3.92864C3.51843 3.40226 3.40635 2.16773 3.62101 1.46147C3.6609 1.33083 3.76348 1.33083 3.86796 1.32893C4.31816 1.31946 4.67719 1.51449 5.00202 1.80987C5.5643 2.31731 5.83784 2.98759 6.08859 3.67302C6.10759 3.72604 6.12088 3.78284 6.15318 3.82639C6.20827 3.90024 6.27095 3.98355 6.38113 3.95893C6.5027 3.93243 6.4989 3.82639 6.497 3.73361C6.47801 2.9289 6.46851 2.12418 6.42862 1.32136C6.41722 1.09604 6.32794 0.870717 6.25766 0.651077C6.15318 0.319723 6.32034 0.0243447 6.66417 0.00730368C7.0042 -0.00784392 7.33283 0.0413858 7.56648 0.348125C7.72605 0.556404 7.76214 0.770364 7.55508 0.910479C7.14667 1.18692 7.12957 1.5694 7.09348 2.00489C7.04599 2.5824 7.0156 3.1599 6.989 3.73929C6.9795 3.9684 7.05929 4.05929 7.27774 4.08769C7.4715 4.1142 7.66716 4.15775 7.85332 4.22023C8.02049 4.27703 8.08697 4.19562 8.12116 4.06875C8.24274 3.63326 8.33392 3.1883 8.47449 2.75849C8.64165 2.24915 8.70054 1.73413 8.71764 1.20018C8.73664 0.660544 8.99308 0.480666 9.51927 0.671905C9.83081 0.783618 10.0151 1.03545 10.1366 1.31946C10.2069 1.4823 10.0948 1.6565 9.94858 1.71141C9.32741 1.9462 9.20204 2.50666 9.02347 3.04061C8.9076 3.38143 8.76893 3.71468 8.64165 4.05171C8.62456 4.09526 8.59416 4.13503 8.58847 4.17857C8.57707 4.26757 8.52768 4.38685 8.61886 4.43798C8.70054 4.48342 8.75563 4.36981 8.81072 4.3149C9.24003 3.88698 9.62375 3.40605 10.2088 3.16558C10.6343 2.98949 11.0655 2.90239 11.5234 3.02357C11.8425 3.10878 11.814 3.1296 11.776 3.45338C11.7095 4.02521 11.398 4.44934 11.0636 4.87536C10.5736 5.11583 10.0721 5.2976 9.51167 5.29571C9.31411 5.29571 9.3692 5.45665 9.41859 5.56458C9.55156 5.8467 9.62185 6.1364 9.61235 6.45071C9.59905 6.9184 9.52307 7.38608 9.52307 7.84619C9.51927 10.196 9.3787 12.5438 9.3901 14.8936C9.3901 15.1492 9.35401 15.331 9.08426 15.4351C8.97978 15.4749 8.87531 15.5734 8.78413 15.6699C8.16106 16.3288 7.99009 17.1298 8.01479 18.0008C8.02428 18.3548 8.04138 18.7013 8.26553 19.0024C8.47639 19.2845 8.84301 19.4549 9.15265 19.2429C9.28372 19.1539 9.3977 19.1766 9.3996 19.3849C9.4015 19.6083 9.42619 19.8317 9.44329 20.0552C9.51357 20.9716 9.46798 21.8899 9.50407 22.8063C9.46608 23.293 9.49648 23.7777 9.54966 24.2586C9.62185 24.9384 9.59336 25.62 9.59525 26.3016C9.51927 26.3149 9.44139 26.3282 9.3654 26.3395C9.30842 26.2941 9.27232 26.2979 9.26472 26.3793C8.80312 26.3869 8.4118 26.5629 8.14966 26.9378C7.76784 27.4832 7.77924 28.1175 7.9426 28.7101C8.21235 29.6947 8.79742 30.4729 9.72823 30.9576L9.72253 30.9463ZM3.55452 11.2184C3.88695 11.2146 4.20039 11.1408 4.50242 11.0045C5.12549 10.7242 5.50921 10.2319 5.74666 9.61088C5.78086 9.52378 5.82835 9.39314 5.70487 9.33823C5.5909 9.2871 5.5548 9.39314 5.51491 9.48402C5.38384 9.77751 5.23947 10.0653 5.03811 10.3209C4.6373 10.8265 4.05602 10.8984 3.47664 10.9817C3.36266 10.9988 3.15561 10.9098 3.15751 11.0916C3.15941 11.2942 3.37216 11.1957 3.49753 11.2165C3.51653 11.2203 3.53553 11.2165 3.55452 11.2165V11.2184ZM5.0932 5.03063C5.1046 4.87347 5.01912 4.75608 4.84815 4.69927C4.66389 4.63868 4.52902 4.72957 4.46063 4.88104C4.37705 5.06282 4.27447 5.24648 4.30487 5.46044C4.32576 5.59866 4.39225 5.71038 4.53282 5.74446C4.67339 5.77854 4.80636 5.76907 4.90134 5.62517C5.01532 5.45097 5.0951 5.2692 5.0951 5.03063H5.0932ZM5.86064 5.82398C5.84734 5.94327 5.87014 6.07771 6.01831 6.15155C6.15888 6.22161 6.27285 6.14587 6.38303 6.07392C6.61098 5.92055 6.72686 5.62138 6.68127 5.36577C6.65467 5.21808 6.57869 5.16127 6.43432 5.15938C6.13988 5.1537 5.86824 5.44908 5.86064 5.82398ZM1.79549 8.67552C1.78789 8.54866 1.71191 8.43505 1.60173 8.45209C1.39278 8.48239 1.31869 8.67741 1.2807 8.8535C1.2579 8.95954 1.34339 9.08829 1.46876 9.07314C1.68721 9.04663 1.7366 8.84972 1.79549 8.67552ZM0.70702 8.36689C0.712719 8.28547 0.684225 8.17186 0.51326 8.1889C0.298606 8.20973 0.292907 8.40097 0.273911 8.54108C0.262513 8.63386 0.3233 8.77208 0.46577 8.76072C0.670927 8.74558 0.703221 8.58842 0.70512 8.36689H0.70702Z" fill="#FBD25C"/>
<path d="M9.49742 22.7972C9.46133 21.8808 9.50692 20.9624 9.43664 20.046C9.41954 19.8226 9.39485 19.5991 9.39295 19.3757C9.39295 19.1674 9.27517 19.1447 9.146 19.2337C8.83636 19.4458 8.46974 19.2773 8.25888 18.9932C8.03473 18.6922 8.01763 18.3457 8.00814 17.9916C7.98344 17.1206 8.15441 16.3197 8.77747 15.6608C8.86866 15.5642 8.97313 15.4657 9.07761 15.426C9.34736 15.3218 9.38535 15.1401 9.38345 14.8845C9.37205 12.5347 9.51262 10.1868 9.51642 7.83703C9.51642 7.37693 9.5924 6.90924 9.6057 6.44156C9.6152 6.12725 9.54491 5.83755 9.41194 5.55543C9.36255 5.4475 9.30556 5.28466 9.50502 5.28656C10.0654 5.29034 10.5669 5.10668 11.057 4.86621C11.1349 5.19188 11.0798 5.4475 10.717 5.563C10.6581 5.58193 10.5555 5.6198 10.5802 5.71258C10.603 5.80158 10.6999 5.78453 10.774 5.78643C10.848 5.78832 10.9259 5.78075 10.9981 5.794C11.0494 5.80158 11.1349 5.82808 11.1406 5.86027C11.1843 6.07802 11.0627 6.27115 11.0228 6.47754C11.0057 6.57032 10.8461 6.59872 10.7265 6.56842C10.6904 6.55895 10.6524 6.55327 10.6163 6.55138C10.546 6.54949 10.4453 6.50783 10.413 6.58546C10.3731 6.68392 10.4757 6.73126 10.5479 6.76724C10.7721 6.88652 10.9886 7.0096 11.0076 7.30119C10.9905 7.47349 10.9734 7.6458 10.9544 7.81999C10.9525 7.84839 10.9506 7.8768 10.9468 7.90331C10.8613 7.96958 10.7607 7.9639 10.66 7.95821C10.5479 7.83325 10.3883 7.83703 10.2269 7.78402C10.2991 7.93739 10.3693 8.05478 10.5156 8.09644L10.5289 8.0775L10.5194 8.09833C10.5308 8.18354 10.5916 8.1949 10.6619 8.19868C10.7626 8.32554 10.8385 8.45998 10.8176 8.6285C10.6904 8.7421 10.7417 8.88979 10.7417 9.02801C10.7341 9.08482 10.7265 9.14162 10.7189 9.19843C10.584 9.22872 10.451 9.21168 10.2972 9.13783C10.3579 9.34043 10.4206 9.48623 10.603 9.53925H10.6011C10.622 9.58848 10.6182 9.65853 10.7018 9.65475C10.7056 9.87628 10.7075 10.0959 10.7113 10.3175C10.6239 10.414 10.6486 10.5371 10.6353 10.6507C10.5688 10.6621 10.5023 10.6734 10.4358 10.6848C10.3579 10.6753 10.244 10.6374 10.2402 10.7492C10.2364 10.8306 10.32 10.912 10.4358 10.8912L10.4472 10.9006L10.4605 10.8931C10.5669 11.1279 10.4719 11.3759 10.5137 11.6145L10.4852 11.8227C10.3769 11.8493 10.2117 11.7678 10.1756 11.9193C10.1528 12.0159 10.2573 12.103 10.3712 12.1314L10.3674 12.1276C10.451 12.4949 10.3883 12.8679 10.4111 13.2372C10.3978 13.2504 10.3845 13.2637 10.3712 13.2769C10.1965 13.3615 10.1952 13.4751 10.3674 13.6177V13.9169C10.2307 14.2085 10.2915 14.5171 10.2877 14.8201C10.282 14.8579 10.2763 14.8958 10.2687 14.9337C10.2326 14.9375 10.1927 14.9394 10.1585 14.9488C10.092 14.9678 9.99702 14.9185 9.96283 15.0132C9.93243 15.1003 10.0046 15.1476 10.0597 15.195C10.0996 15.231 10.1471 15.2594 10.1908 15.2915H10.1851C10.1718 15.3446 10.1908 15.3805 10.2516 15.39C10.2554 15.4241 10.2573 15.4601 10.2611 15.4941C10.1471 15.6286 10.168 15.7876 10.1775 15.9467C10.1642 16.0944 10.1509 16.2421 10.1376 16.3897C10.0369 16.4087 10.054 16.4996 10.0312 16.5658C9.86595 16.67 9.95903 16.8233 9.95333 16.9597C9.95333 17.2626 9.94953 17.5656 9.94763 17.8685C9.71778 18.2624 9.86405 18.6941 9.82036 19.1087C9.70068 20.2448 9.69878 21.3847 9.69688 22.5245C9.69688 22.6571 9.69118 22.7972 9.50122 22.8029L9.49742 22.7972Z" fill="#432A1B"/>
<path d="M9.69668 38.8157C9.25787 38.5468 9.05651 38.0924 8.81716 37.6721C8.56452 37.2252 8.42964 36.7253 8.38975 36.2255C8.32897 35.4492 8.56642 34.5422 9.51812 34.1787C9.68718 34.1143 9.87524 34.1711 10.0386 34.084C10.1982 34.1124 10.1963 34.2317 10.2096 34.3585C10.2932 35.2485 10.2514 36.1403 10.2647 37.0302C10.2685 37.2442 10.2571 37.4581 10.2514 37.6702C10.2191 37.6531 10.183 37.6399 10.1545 37.6191C10.031 37.5301 9.94553 37.3161 9.77266 37.3956C9.62449 37.4638 9.70808 37.6645 9.70238 37.8065C9.69098 38.1416 9.69668 38.4787 9.69668 38.8157Z" fill="#432A1B"/>
<path d="M6.08939 23.9326C6.88912 24.4798 7.09998 25.4322 6.62507 26.3884C6.5282 26.5853 6.41992 26.7785 6.26605 26.9413C6.18437 27.0265 6.09509 27.0776 5.97541 27.0701C5.95452 27.0303 5.91082 26.9868 5.91652 26.9508C6.06469 25.9548 6.06659 24.9532 6.06659 23.9497C6.06659 23.944 6.08179 23.9402 6.08939 23.9345V23.9326Z" fill="#432A1B"/>
<path d="M9.72201 30.946C8.79121 30.4632 8.20613 29.6831 7.93639 28.6985C7.77492 28.1059 7.76352 27.4716 8.14345 26.9262C8.40559 26.5513 8.79691 26.3752 9.25851 26.3677C9.3041 26.3866 9.34399 26.3904 9.35919 26.3279C9.43517 26.3147 9.51306 26.3014 9.58904 26.29C9.72961 26.6025 9.8037 26.9357 9.8094 27.2708C9.82459 28.4164 9.81699 29.5638 9.81699 30.7094C9.81699 30.7983 9.84549 30.9025 9.72201 30.9441V30.946Z" fill="#432A1B"/>
<path d="M3.55523 11.2188C3.53624 11.2188 3.51724 11.2207 3.49824 11.2188C3.37287 11.198 3.16012 11.2964 3.15822 11.0938C3.15632 10.912 3.36337 10.9991 3.47735 10.984C4.05673 10.9007 4.63991 10.8287 5.03882 10.3232C5.24018 10.0676 5.38455 9.77976 5.51562 9.48628C5.55551 9.39539 5.59161 9.28936 5.70558 9.34048C5.82906 9.39539 5.77967 9.52604 5.74737 9.61314C5.50992 10.2323 5.1262 10.7265 4.50313 11.0067C4.2011 11.143 3.88576 11.2169 3.55523 11.2207V11.2188Z" fill="#432A1B"/>
<path d="M5.09312 5.031C5.09312 5.26957 5.01334 5.45134 4.89936 5.62554C4.80628 5.76944 4.67141 5.77891 4.53084 5.74483C4.39217 5.71075 4.32378 5.59903 4.30288 5.46081C4.27059 5.24685 4.37507 5.06319 4.45865 4.88141C4.52704 4.72994 4.66191 4.63905 4.84617 4.69964C5.01713 4.75645 5.10262 4.87384 5.09122 5.031H5.09312Z" fill="#432A1B"/>
<path d="M5.86067 5.82386C5.86827 5.44896 6.13991 5.15358 6.43435 5.15926C6.58062 5.16305 6.6566 5.21796 6.6813 5.36565C6.72689 5.62126 6.61101 5.92043 6.38306 6.0738C6.27478 6.14764 6.15891 6.22338 6.01834 6.15143C5.87017 6.07758 5.84737 5.94126 5.86067 5.82386Z" fill="#432A1B"/>
<path d="M1.79632 8.67532C1.73743 8.85141 1.68804 9.04833 1.46959 9.07295C1.34422 9.0881 1.25683 8.95934 1.28153 8.85331C1.32142 8.67722 1.39551 8.48219 1.60256 8.4519C1.71274 8.43486 1.78872 8.54846 1.79632 8.67532Z" fill="#262122"/>
<path d="M0.70639 8.3672C0.70449 8.58873 0.672197 8.74589 0.46704 8.76104C0.32457 8.7724 0.261883 8.63418 0.27518 8.5414C0.294176 8.40128 0.299875 8.21004 0.51453 8.18922C0.685494 8.17217 0.713988 8.28578 0.708289 8.3672H0.70639Z" fill="#242021"/>
<path d="M9.36044 26.3305C9.34715 26.393 9.30536 26.3873 9.25977 26.3702C9.26736 26.2907 9.30346 26.2869 9.36044 26.3305Z" fill="#C52C35"/>
<path d="M17.521 22.1985C17.1467 22.136 16.7706 22.0736 16.3964 22.0092C16.3109 21.994 16.2235 21.9808 16.1475 21.9391C16.0716 21.8975 16.0051 21.8274 15.9937 21.7422C15.9861 21.6778 16.0089 21.6135 16.0336 21.5529C16.119 21.3427 16.2444 21.1344 16.4458 21.0303" stroke="#3D2517" stroke-width="0.25" stroke-miterlimit="10"/>
</g>
<defs>
<clipPath id="clip0_2177_729">
<rect width="60.3636" height="44" fill="white"/>
</clipPath>
</defs>
</svg>
