<svg width="24" height="25" viewBox="0 0 24 25" fill="none" xmlns="http://www.w3.org/2000/svg">
<path d="M19.9 21.0312L13.325 14.4563C12.825 14.8896 12.242 15.2271 11.576 15.4688C10.91 15.7104 10.2014 15.8313 9.45 15.8313C7.6473 15.8313 6.12163 15.2063 4.87298 13.9563C3.62433 12.7063 3 11.1979 3 9.43125C3 7.66458 3.625 6.15625 4.875 4.90625C6.125 3.65625 7.6375 3.03125 9.4125 3.03125C11.1875 3.03125 12.6958 3.65625 13.9375 4.90625C15.1792 6.15625 15.8 7.66583 15.8 9.435C15.8 10.1492 15.6833 10.8396 15.45 11.5063C15.2167 12.1729 14.8667 12.7979 14.4 13.3813L21 19.9312L19.9 21.0312ZM9.425 14.3313C10.7792 14.3313 11.9302 13.8521 12.8781 12.8938C13.826 11.9354 14.3 10.7812 14.3 9.43125C14.3 8.08125 13.826 6.92708 12.8781 5.96875C11.9302 5.01042 10.7792 4.53125 9.425 4.53125C8.05695 4.53125 6.8941 5.01042 5.93645 5.96875C4.97882 6.92708 4.5 8.08125 4.5 9.43125C4.5 10.7812 4.97882 11.9354 5.93645 12.8938C6.8941 13.8521 8.05695 14.3313 9.425 14.3313Z" fill="white"/>
</svg>
