<svg width="60" height="60" viewBox="0 0 60 60" fill="none" xmlns="http://www.w3.org/2000/svg">
<path d="M59.1433 30.7194C59.1433 28.6933 58.9472 26.6019 58.6204 24.6411H30.3203V36.2095H46.5292C45.8756 39.9349 43.7187 43.2029 40.5162 45.2943L50.1892 52.8105C55.8754 47.5165 59.1433 39.8042 59.1433 30.7194Z" fill="#4280EF"/>
<path d="M30.3203 59.9999C38.4247 59.9999 45.222 57.3202 50.1892 52.7452L40.5162 45.2943C37.8365 47.1244 34.3725 48.1701 30.3203 48.1701C22.4773 48.1701 15.8761 42.8761 13.4579 35.8174L3.52344 43.4643C8.62138 53.5948 18.948 59.9999 30.3203 59.9999Z" fill="#34A353"/>
<path d="M13.4576 35.7519C12.2158 32.0265 12.2158 27.9743 13.4576 24.2489L3.52313 16.5366C-0.725157 25.0332 -0.725157 35.033 3.52313 43.4642L13.4576 35.7519Z" fill="#F6B704"/>
<path d="M30.3203 11.8963C34.5686 11.831 38.7515 13.4649 41.8234 16.4061L50.3853 7.77877C44.9606 2.68083 37.7712 -0.0642176 30.3203 0.00114069C18.948 0.00114069 8.62138 6.40625 3.52344 16.5368L13.4579 24.249C15.8761 17.125 22.4773 11.8963 30.3203 11.8963Z" fill="#E54335"/>
</svg>
