<svg width="186" height="60" viewBox="0 0 186 60" fill="none" xmlns="http://www.w3.org/2000/svg">
<path d="M2.67871 1.68994C9.0928 1.68994 15.5069 1.68994 22.1153 1.68994C22.3942 11.1716 22.6731 20.6533 22.9604 30.4223C24.9125 27.9125 26.8646 25.4026 28.8759 22.8167C34.136 18.5914 34.136 18.5914 36.4815 18.5914C36.4815 13.0139 36.4815 7.43642 36.4815 1.68994C42.6167 1.68994 48.7519 1.68994 55.0731 1.68994C55.4914 11.3111 55.4914 11.3111 55.9181 21.1266C55.3604 21.1266 54.8027 21.1266 54.228 21.1266C53.984 20.5862 53.74 20.0459 53.4886 19.4892C52.683 17.6178 52.683 17.6178 50.8477 16.9012C49.151 16.7339 49.151 16.7339 47.2562 16.7428C46.6244 16.7308 45.9925 16.7188 45.3416 16.7064C42.6885 16.8724 42.6885 16.8724 38.1717 18.5914C37.8928 26.1209 37.6139 33.6505 37.3266 41.4083C46.2339 36.0639 51.291 32.4916 54.228 22.8167C54.7858 22.8167 55.3435 22.8167 55.9181 22.8167C55.6393 34.5294 55.3604 46.2421 55.0731 58.3097C48.9379 58.3097 42.8027 58.3097 36.4815 58.3097C36.2027 53.5688 35.9238 48.828 35.6365 43.9435C34.7998 44.2223 33.9632 44.5012 33.1012 44.7885C31.8364 44.8871 30.5671 44.9364 29.2984 44.947C28.6448 44.959 27.9912 44.971 27.3178 44.9833C25.4956 44.7885 25.4956 44.7885 22.9604 43.0984C22.6815 48.1181 22.4027 53.1378 22.1153 58.3097C15.7012 58.3097 9.28716 58.3097 2.67871 58.3097C2.67871 39.6252 2.67871 20.9406 2.67871 1.68994Z" fill="#E8262D"/>
<path d="M126.904 34.6479C132.761 34.6479 138.617 34.6479 144.651 34.6479C144.93 35.4846 145.209 36.3212 145.496 37.1832C146.054 36.3465 146.611 35.5099 147.186 34.6479C149.721 35.493 149.721 35.493 150.566 37.1832C151.124 36.3465 151.682 35.5099 152.256 34.6479C152.727 34.8048 153.198 34.9617 153.682 35.1233C155.672 35.6409 155.672 35.6409 157.749 34.9649C159.862 34.6479 159.862 34.6479 161.816 35.5458C163.242 37.1832 163.242 37.1832 163.612 39.7184C163.242 42.2536 163.242 42.2536 162.239 43.8381C160.154 45.1324 158.894 45.1507 156.482 44.7888C154.95 43.5212 154.95 43.5212 153.947 42.2536C153.11 43.5085 153.11 43.5085 152.256 44.7888C150.619 44.5247 150.619 44.5247 148.876 43.9437C148.597 43.1071 148.318 42.2705 148.031 41.4085C147.752 42.524 147.473 43.6395 147.186 44.7888C146.07 44.7888 144.955 44.7888 143.806 44.7888C143.713 44.3106 143.621 43.8323 143.525 43.3396C143.391 42.7198 143.257 42.1 143.119 41.4613C142.992 40.8437 142.864 40.226 142.733 39.5896C142.529 39.0744 142.325 38.5591 142.116 38.0282C141.279 37.7494 140.442 37.4705 139.58 37.1832C139.859 37.7409 140.138 38.2987 140.425 38.8733C140.459 40.8448 140.462 42.8173 140.425 44.7888C139.31 44.7888 138.194 44.7888 137.045 44.7888C137.045 42.2789 137.045 39.7691 137.045 37.1832C134.535 37.1832 132.025 37.1832 129.44 37.1832C129.44 37.7409 129.44 38.2987 129.44 38.8733C131.113 38.8733 132.786 38.8733 134.51 38.8733C134.51 39.431 134.51 39.9888 134.51 40.5634C132.837 40.5634 131.163 40.5634 129.44 40.5634C129.44 41.1212 129.44 41.6789 129.44 42.2536C131.113 42.2536 132.786 42.2536 134.51 42.2536C134.51 43.0902 134.51 43.9268 134.51 44.7888C132 44.7888 129.49 44.7888 126.904 44.7888C126.904 41.4423 126.904 38.0958 126.904 34.6479ZM153.947 36.3381C154.792 38.0282 154.792 38.0282 154.792 38.0282L153.947 36.3381ZM157.327 37.1832C157.048 38.5775 156.769 39.9719 156.482 41.4085C157.597 41.6874 158.713 41.9663 159.862 42.2536C160.141 40.8592 160.42 39.4649 160.707 38.0282C159.592 37.7494 158.476 37.4705 157.327 37.1832Z" fill="#41639F"/>
<path d="M65.2139 27.0425C82.7829 27.0425 100.352 27.0425 118.453 27.0425C118.453 28.158 118.453 29.2735 118.453 30.4228C100.884 30.4228 83.3153 30.4228 65.2139 30.4228C65.2139 29.3073 65.2139 28.1918 65.2139 27.0425Z" fill="#E44A4E"/>
<path d="M128.595 27.0425C145.885 27.0425 163.175 27.0425 180.989 27.0425C180.989 28.158 180.989 29.2735 180.989 30.4228C163.699 30.4228 146.409 30.4228 128.595 30.4228C128.595 29.3073 128.595 28.1918 128.595 27.0425Z" fill="#E4494D"/>
<path d="M75.3545 34.6479C77.5855 34.6479 79.8165 34.6479 82.1151 34.6479C82.1151 35.4846 82.1151 36.3212 82.1151 37.1832C80.7207 37.1832 79.3263 37.1832 77.8897 37.1832C77.8897 37.7409 77.8897 38.2987 77.8897 38.8733C79.0052 38.5944 80.1207 38.3156 81.27 38.0282C81.5489 38.8649 81.8277 39.7015 82.1151 40.5634C80.7207 40.8423 79.3263 41.1212 77.8897 41.4085C79.2841 41.6874 80.6784 41.9663 82.1151 42.2536C83.5094 39.7437 84.9038 37.2339 86.3404 34.6479C88.8756 35.493 88.8756 35.493 89.6778 37.0544C89.9866 37.9809 89.9866 37.9809 90.3017 38.9261C90.5141 39.546 90.7265 40.1658 90.9454 40.8044C91.099 41.2826 91.2526 41.7609 91.4108 42.2536C91.6897 40.0226 91.9686 37.7916 92.2559 35.493C93.0925 35.493 93.9291 35.493 94.7911 35.493C94.7911 37.724 94.7911 39.955 94.7911 42.2536C96.1855 42.2536 97.5798 42.2536 99.0165 42.2536C99.0165 43.0902 99.0165 43.9268 99.0165 44.7888C95.67 44.7888 92.3235 44.7888 88.8756 44.7888C88.8756 44.231 88.8756 43.6733 88.8756 43.0987C88.2797 43.3753 87.6839 43.652 87.0699 43.9371C83.158 45.3141 79.4787 44.8882 75.3545 44.7888C75.3545 41.4423 75.3545 38.0958 75.3545 34.6479ZM86.3404 38.8733C86.3404 39.431 86.3404 39.9888 86.3404 40.5634C86.8982 40.2846 87.4559 40.0057 88.0305 39.7184C87.4728 39.4395 86.9151 39.1606 86.3404 38.8733Z" fill="#4264A0"/>
<path d="M164.087 34.6479C169.157 34.6479 169.157 34.6479 171.693 36.3381C171.536 37.1573 171.379 37.9765 171.217 38.8205C171.095 39.6745 170.973 40.5286 170.847 41.4085C171.126 41.6874 171.405 41.9663 171.693 42.2536C171.971 39.7437 172.25 37.2339 172.538 34.6479C173.374 34.6479 174.211 34.6479 175.073 34.6479C175.352 35.4846 175.631 36.3212 175.918 37.1832C176.467 36.5557 176.467 36.5557 177.027 35.9156C178.453 34.6479 178.453 34.6479 180.988 34.6479C180.544 35.7983 180.544 35.7983 180.09 36.9719C179.328 39.6149 179.185 40.6075 180.143 43.0987C180.701 43.0987 181.259 43.0987 181.833 43.0987C181.833 43.6564 181.833 44.2141 181.833 44.7888C179.826 44.5247 179.826 44.5247 177.608 43.9437C177.05 43.1071 176.493 42.2705 175.918 41.4085C175.639 42.524 175.36 43.6395 175.073 44.7888C173.4 44.7888 171.726 44.7888 170.002 44.7888C169.445 43.6733 168.887 42.5578 168.312 41.4085C167.755 41.4085 167.197 41.4085 166.622 41.4085C166.622 42.524 166.622 43.6395 166.622 44.7888C165.786 44.7888 164.949 44.7888 164.087 44.7888C164.087 41.4423 164.087 38.0958 164.087 34.6479ZM166.622 37.1832C166.622 37.7409 166.622 38.2987 166.622 38.8733C167.459 38.8733 168.295 38.8733 169.157 38.8733C169.157 38.3156 169.157 37.7578 169.157 37.1832C168.321 37.1832 167.484 37.1832 166.622 37.1832Z" fill="#4567A2"/>
<path d="M98.1719 34.6479C101.518 34.6479 104.865 34.6479 108.313 34.6479C108.592 35.4846 108.87 36.3212 109.158 37.1832C108.879 37.7409 108.6 38.2987 108.313 38.8733C109.428 38.8733 110.544 38.8733 111.693 38.8733C111.414 37.7578 111.135 36.6423 110.848 35.493C111.963 35.2141 113.079 34.9353 114.228 34.6479C114.228 37.9944 114.228 41.3409 114.228 44.7888C113.113 44.7888 111.997 44.7888 110.848 44.7888C110.848 43.9522 110.848 43.1156 110.848 42.2536C110.29 42.2536 109.732 42.2536 109.158 42.2536C109.158 43.0902 109.158 43.9268 109.158 44.7888C108.042 44.7888 106.927 44.7888 105.778 44.7888C105.778 42.2789 105.778 39.7691 105.778 37.1832C104.941 37.1832 104.104 37.1832 103.242 37.1832C103.242 39.693 103.242 42.2029 103.242 44.7888C102.406 44.7888 101.569 44.7888 100.707 44.7888C100.707 42.2789 100.707 39.7691 100.707 37.1832C99.8705 37.1832 99.0338 37.1832 98.1719 37.1832C98.1719 36.3465 98.1719 35.5099 98.1719 34.6479Z" fill="#395C9C"/>
<path d="M159.862 11.831C160.419 12.3887 160.977 12.9465 161.552 13.5211C160.436 13.8 159.321 14.0788 158.171 14.3662C158.171 16.876 158.171 19.3859 158.171 21.9718C157.335 21.9718 156.498 21.9718 155.636 21.9718C155.636 19.4619 155.636 16.9521 155.636 14.3662C154.8 14.3662 153.963 14.3662 153.101 14.3662C153.101 16.876 153.101 19.3859 153.101 21.9718C151.985 21.9718 150.87 21.9718 149.721 21.9718C149.721 18.9042 149.721 15.8366 149.721 12.676C153.326 11.955 156.222 11.6249 159.862 11.831Z" fill="#30559A"/>
<path d="M118.453 34.6479C121.833 36.3381 121.833 36.3381 122.678 37.1832C122.957 36.3465 123.236 35.5099 123.524 34.6479C124.36 34.6479 125.197 34.6479 126.059 34.6479C126.059 37.9944 126.059 41.3409 126.059 44.7888C124.943 44.5099 123.828 44.231 122.678 43.9437C122.4 43.386 122.121 42.8282 121.833 42.2536C121.555 43.0902 121.276 43.9268 120.988 44.7888C120.152 44.7888 119.315 44.7888 118.453 44.7888C118.453 41.4423 118.453 38.0958 118.453 34.6479Z" fill="#3A5E9F"/>
<path d="M82.9609 12.676C88.0776 12.511 88.0776 12.511 89.7215 12.676C91.4116 14.3662 91.4116 14.3662 91.6229 17.3239C91.4116 20.2817 91.4116 20.2817 89.7215 21.9718C87.4496 22.1999 85.2499 22.0456 82.9609 21.9718C82.9609 18.9042 82.9609 15.8366 82.9609 12.676ZM86.3412 14.3662C86.0623 16.0394 85.7835 17.7127 85.4961 19.4366C86.6116 19.4366 87.7271 19.4366 88.8764 19.4366C88.8764 18.0422 88.8764 16.6479 88.8764 15.2112C88.0398 14.9324 87.2032 14.6535 86.3412 14.3662Z" fill="#224B96"/>
<path d="M93.1014 11.8311C93.938 12.1099 94.7746 12.3888 95.6366 12.6761C95.3577 14.9071 95.0788 17.1381 94.7915 19.4367C95.6281 19.1578 96.4647 18.8789 97.3267 18.5916C97.3267 16.6395 97.3267 14.6874 97.3267 12.6761C98.1633 12.3973 98.9999 12.1184 99.8619 11.8311C101.205 13.1738 100.851 14.5759 100.865 16.4261C100.877 17.1048 100.889 17.7835 100.902 18.4827C100.707 20.2818 100.707 20.2818 99.0168 21.9719C96.4816 22.1832 96.4816 22.1832 93.9464 21.9719C92.2563 20.2818 92.2563 20.2818 92.0615 18.4827C92.0795 17.4647 92.0795 17.4647 92.0978 16.4261C92.1033 15.7453 92.1087 15.0644 92.1143 14.363C92.2563 12.6761 92.2563 12.6761 93.1014 11.8311Z" fill="#385B9C"/>
<path d="M75.3544 11.8311C76.4698 12.9465 77.5853 14.062 78.7346 15.2113C79.2924 14.0958 79.8501 12.9804 80.4248 11.8311C80.9825 12.1099 81.5403 12.3888 82.1149 12.6761C82.1149 15.7437 82.1149 18.8113 82.1149 21.9719C78.7346 21.1268 78.7346 21.1268 77.8896 20.2818C77.6107 20.8395 77.3318 21.3973 77.0445 21.9719C76.2079 21.9719 75.3713 21.9719 74.5093 21.9719C74.4866 20.4403 74.4701 18.9086 74.4565 17.3768C74.4467 16.5239 74.4369 15.6709 74.4268 14.7921C74.5093 12.6761 74.5093 12.6761 75.3544 11.8311Z" fill="#33589D"/>
<path d="M122.679 22.8169C124.475 23.6091 124.475 23.6091 126.059 24.507C126.059 25.3437 126.059 26.1803 126.059 27.0422C126.617 27.3211 127.175 27.6 127.749 27.8873C127.749 29.5606 127.749 31.2338 127.749 32.9577C125.239 32.9577 122.73 32.9577 120.144 32.9577C119.081 29.3434 119.502 27.106 120.989 23.662C121.547 23.3831 122.104 23.1042 122.679 22.8169ZM121.834 29.5775C121.834 30.1352 121.834 30.693 121.834 31.2676C122.392 31.2676 122.949 31.2676 123.524 31.2676C123.524 30.7099 123.524 30.1521 123.524 29.5775C122.966 29.5775 122.408 29.5775 121.834 29.5775Z" fill="#E53D42"/>
<path d="M106.358 12.1479C107.003 12.3222 107.648 12.4965 108.313 12.6761C108.969 15.5479 109.322 18.1785 109.158 21.1268C108.313 21.9719 108.313 21.9719 105.83 22.1303C103.242 21.9719 103.242 21.9719 101.552 20.2817C101.298 18.6972 101.298 18.6972 101.288 16.9015C101.274 16.3088 101.26 15.7162 101.245 15.1057C101.346 14.5828 101.448 14.0599 101.552 13.5212C104.087 11.831 104.087 11.831 106.358 12.1479ZM103.242 17.7465C103.521 18.3043 103.8 18.862 104.087 19.4367C104.924 19.1578 105.761 18.8789 106.623 18.5916C105.507 18.3127 104.392 18.0338 103.242 17.7465Z" fill="#4062A0"/>
<path d="M128.225 12.0422C130.285 12.676 130.285 12.676 131.975 14.3662C132.186 17.3239 132.186 17.3239 131.975 20.2817C130.285 21.9718 130.285 21.9718 127.802 22.2359C125.214 21.9718 125.214 21.9718 123.577 21.0739C122.116 18.4093 122.798 16.3732 123.524 13.5211C126.059 11.831 126.059 11.831 128.225 12.0422ZM126.904 14.3662C126.346 14.9239 125.789 15.4817 125.214 16.0563C125.483 17.8379 125.483 17.8379 126.059 19.4366C127.175 19.4366 128.29 19.4366 129.439 19.4366C129.439 18.0422 129.439 16.6479 129.439 15.2113C128.603 14.9324 127.766 14.6535 126.904 14.3662Z" fill="#3B5E9E"/>
<path d="M137.626 12.1479C138.271 12.3222 138.916 12.4965 139.58 12.6761C140.237 15.5479 140.589 18.1785 140.425 21.1268C139.58 21.9719 139.58 21.9719 137.098 22.1303C134.51 21.9719 134.51 21.9719 132.82 20.2817C132.566 18.6972 132.566 18.6972 132.556 16.9015C132.541 16.3088 132.527 15.7162 132.513 15.1057C132.614 14.5828 132.715 14.0599 132.82 13.5212C135.355 11.831 135.355 11.831 137.626 12.1479ZM135.355 14.3662C137.028 15.2029 137.028 15.2029 138.735 16.0564C138.456 15.4986 138.177 14.9409 137.89 14.3662C137.053 14.3662 136.217 14.3662 135.355 14.3662ZM134.51 17.7465C134.789 18.3043 135.068 18.862 135.355 19.4367C136.192 19.1578 137.028 18.8789 137.89 18.5916C136.775 18.3127 135.659 18.0338 134.51 17.7465Z" fill="#385C9E"/>
<path d="M66.0586 34.6479C66.8952 34.6479 67.7318 34.6479 68.5938 34.6479C68.5938 36.0423 68.5938 37.4367 68.5938 38.8733C69.4304 38.8733 70.267 38.8733 71.129 38.8733C71.129 37.4789 71.129 36.0846 71.129 34.6479C71.9656 34.6479 72.8023 34.6479 73.6642 34.6479C73.6642 37.9944 73.6642 41.3409 73.6642 44.7888C72.8276 44.7888 71.991 44.7888 71.129 44.7888C70.5713 43.6733 70.0135 42.5578 69.4389 41.4085C69.16 42.524 68.8811 43.6395 68.5938 44.7888C67.7572 44.7888 66.9206 44.7888 66.0586 44.7888C66.0586 41.4423 66.0586 38.0958 66.0586 34.6479Z" fill="#305698"/>
<path d="M115.073 11.8311C115.631 12.1099 116.189 12.3888 116.763 12.6761C116.763 13.7916 116.763 14.9071 116.763 16.0564C117.6 16.0564 118.436 16.0564 119.298 16.0564C119.577 14.662 119.856 13.2677 120.144 11.8311C120.701 12.1099 121.259 12.3888 121.834 12.6761C121.834 15.7437 121.834 18.8113 121.834 21.9719C120.997 21.9719 120.16 21.9719 119.298 21.9719C119.298 20.8564 119.298 19.7409 119.298 18.5916C118.462 18.5916 117.625 18.5916 116.763 18.5916C116.763 19.7071 116.763 20.8226 116.763 21.9719C115.927 21.9719 115.09 21.9719 114.228 21.9719C114.205 20.4403 114.189 18.9086 114.175 17.3768C114.165 16.5239 114.156 15.6709 114.146 14.7921C114.228 12.6761 114.228 12.6761 115.073 11.8311Z" fill="#345A9D"/>
<path d="M164.088 11.8311C166.623 12.6761 166.623 12.6761 167.425 14.1484C167.734 15.0406 167.734 15.0406 168.049 15.9508C168.368 16.8364 168.368 16.8364 168.693 17.7399C169.158 19.4367 169.158 19.4367 169.158 21.9719C168.321 21.9719 167.485 21.9719 166.623 21.9719C166.623 21.4142 166.623 20.8564 166.623 20.2818C165.656 20.7001 165.656 20.7001 164.669 21.1268C162.398 21.9719 162.398 21.9719 159.862 21.9719C160.243 20.5968 160.632 19.224 161.024 17.8522C161.24 17.0875 161.456 16.3227 161.678 15.5348C162.398 13.5212 162.398 13.5212 164.088 11.8311ZM164.088 16.0564C164.933 17.7465 164.933 17.7465 164.933 17.7465L164.088 16.0564Z" fill="#4E6EA6"/>
<path d="M141.271 12.6762C146.47 12.5936 146.47 12.5936 148.031 12.6762C148.876 13.5212 148.876 13.5212 148.929 15.6867C148.912 16.3665 148.894 17.0462 148.876 17.7466C147.482 18.3043 146.087 18.8621 144.651 19.4367C144.651 20.2733 144.651 21.11 144.651 21.9719C143.535 21.9719 142.42 21.9719 141.271 21.9719C141.271 18.9043 141.271 15.8367 141.271 12.6762ZM144.651 14.3663C144.372 14.924 144.093 15.4818 143.806 16.0564C144.642 15.7776 145.479 15.4987 146.341 15.2114C145.783 14.9325 145.225 14.6536 144.651 14.3663Z" fill="#3D60A0"/>
<path d="M75.3545 34.6479C77.5855 34.6479 79.8165 34.6479 82.1151 34.6479C82.1151 35.4846 82.1151 36.3212 82.1151 37.1832C80.7207 37.1832 79.3263 37.1832 77.8897 37.1832C77.8897 37.7409 77.8897 38.2987 77.8897 38.8733C79.0052 38.5944 80.1207 38.3156 81.27 38.0282C81.5489 38.8649 81.8277 39.7015 82.1151 40.5634C80.7207 40.8423 79.3263 41.1212 77.8897 41.4085C79.2841 41.6874 80.6784 41.9663 82.1151 42.2536C82.1151 42.8113 82.1151 43.3691 82.1151 43.9437C79.8841 43.9437 77.6531 43.9437 75.3545 43.9437C75.3545 40.8761 75.3545 37.8085 75.3545 34.6479Z" fill="#2A5199"/>
<path d="M127.749 35.4932C129.701 35.4932 131.653 35.4932 133.665 35.4932C133.665 36.0509 133.665 36.6087 133.665 37.1833C132.27 37.1833 130.876 37.1833 129.439 37.1833C129.439 37.7411 129.439 38.2988 129.439 38.8734C131.112 38.8734 132.786 38.8734 134.51 38.8734C134.51 39.4312 134.51 39.9889 134.51 40.5636C132.836 40.5636 131.163 40.5636 129.439 40.5636C129.439 41.1213 129.439 41.6791 129.439 42.2537C131.112 42.2537 132.786 42.2537 134.51 42.2537C134.51 42.8115 134.51 43.3692 134.51 43.9439C132.279 43.9439 130.048 43.9439 127.749 43.9439C127.749 41.1551 127.749 38.3664 127.749 35.4932Z" fill="#234D99"/>
<path d="M135.354 35.4932C137.585 35.4932 139.816 35.4932 142.115 35.4932C142.115 36.0509 142.115 36.6087 142.115 37.1833C141.278 37.1833 140.442 37.1833 139.58 37.1833C139.859 37.7411 140.138 38.2988 140.425 38.8734C140.459 40.845 140.461 42.8174 140.425 44.7889C139.309 44.7889 138.194 44.7889 137.045 44.7889C137.045 42.2791 137.045 39.7692 137.045 37.1833C136.487 37.1833 135.929 37.1833 135.354 37.1833C135.354 36.6256 135.354 36.0678 135.354 35.4932Z" fill="#4562A3"/>
<path d="M170.003 12.6763C170.84 12.6763 171.676 12.6763 172.538 12.6763C172.538 14.9073 172.538 17.1382 172.538 19.4368C173.933 19.4368 175.327 19.4368 176.763 19.4368C176.763 20.2735 176.763 21.1101 176.763 21.972C174.533 21.972 172.302 21.972 170.003 21.972C170.003 18.9044 170.003 15.8368 170.003 12.6763Z" fill="#2B5196"/>
<path d="M99.0166 35.4932C100.969 35.4932 102.921 35.4932 104.932 35.4932C104.932 36.0509 104.932 36.6087 104.932 37.1833C104.374 37.1833 103.817 37.1833 103.242 37.1833C103.242 39.6932 103.242 42.203 103.242 44.7889C102.405 44.7889 101.569 44.7889 100.707 44.7889C100.707 42.2791 100.707 39.7692 100.707 37.1833C100.149 37.1833 99.5912 37.1833 99.0166 37.1833C99.0166 36.6256 99.0166 36.0678 99.0166 35.4932Z" fill="#2A5297"/>
<path d="M80.4249 11.8311C80.9827 12.1099 81.5404 12.3888 82.1151 12.6761C82.1151 15.7437 82.1151 18.8113 82.1151 21.9719C80.9996 21.693 79.8841 21.4142 78.7348 21.1268C77.7744 18.2457 78.0017 17.7437 79.1045 15.0529C79.4689 14.146 79.4689 14.146 79.8406 13.2208C80.0335 12.7622 80.2263 12.3036 80.4249 11.8311Z" fill="#3F62A2"/>
<path d="M33.1014 19.4365C33.6592 19.7154 34.2169 19.9943 34.7916 20.2816C33.283 21.9769 31.7683 23.666 30.2493 25.352C29.8201 25.8357 29.3909 26.3194 28.9487 26.8177C27.8324 28.0515 26.6671 29.2406 25.4958 30.4224C24.9381 30.4224 24.3803 30.4224 23.8057 30.4224C25.8994 25.7115 29.0097 22.5053 33.1014 19.4365Z" fill="#E5363D"/>
<path d="M82.9609 12.6763C83.2398 12.6763 83.5187 12.6763 83.806 12.6763C83.806 15.465 83.806 18.2537 83.806 21.127C84.3638 20.5692 84.9215 20.0115 85.4961 19.4368C86.6116 19.4368 87.7271 19.4368 88.8764 19.4368C88.8764 18.0425 88.8764 16.6481 88.8764 15.2115C89.713 14.9326 90.5497 14.6537 91.4116 14.3664C91.5173 17.2185 91.5173 17.2185 91.4116 20.2819C89.7215 21.972 89.7215 21.972 88.0776 22.1371C86.372 22.0821 84.6665 22.0271 82.9609 21.972C82.9609 18.9044 82.9609 15.8368 82.9609 12.6763Z" fill="#506FA9"/>
<path d="M164.933 35.4932C166.885 35.4932 168.837 35.4932 170.848 35.4932C171.127 36.8875 171.406 38.2819 171.693 39.7185C170.857 39.7185 170.02 39.7185 169.158 39.7185C169.158 38.8819 169.158 38.0453 169.158 37.1833C168.042 37.1833 166.927 37.1833 165.778 37.1833C165.778 38.0199 165.778 38.8565 165.778 39.7185C166.335 39.9974 166.893 40.2763 167.468 40.5636C166.91 40.5636 166.352 40.5636 165.778 40.5636C165.499 41.6791 165.22 42.7946 164.933 43.9439C164.933 41.1551 164.933 38.3664 164.933 35.4932Z" fill="#204B98"/>
<path d="M71.1297 11.8311C71.6875 12.1099 72.2452 12.3888 72.8199 12.6761C72.8199 15.7437 72.8199 18.8113 72.8199 21.9719C71.9833 21.9719 71.1466 21.9719 70.2847 21.9719C70.262 20.4403 70.2455 18.9086 70.2319 17.3768C70.2221 16.5239 70.2122 15.6709 70.2021 14.7921C70.2847 12.6761 70.2847 12.6761 71.1297 11.8311Z" fill="#2F549A"/>
<path d="M54.2279 1.68994C54.5068 1.68994 54.7857 1.68994 55.073 1.68994C55.3519 8.10403 55.6308 14.5181 55.9181 21.1266C55.3603 21.1266 54.8026 21.1266 54.2279 21.1266C53.9839 20.6037 53.7399 20.0808 53.4885 19.5421C52.5909 17.6337 52.5909 17.6337 50.8477 16.0561C51.9631 16.0561 53.0786 16.0561 54.2279 16.0561C54.2279 11.3153 54.2279 6.57445 54.2279 1.68994Z" fill="#E63D43"/>
<path d="M142.96 34.6479C143.518 34.6479 144.076 34.6479 144.651 34.6479C144.651 36.8789 144.651 39.1099 144.651 41.4085C145.487 41.4085 146.324 41.4085 147.186 41.4085C147.186 42.524 147.186 43.6395 147.186 44.7888C146.07 44.7888 144.955 44.7888 143.805 44.7888C142.684 41.4242 142.902 38.1546 142.96 34.6479Z" fill="#34599B"/>
<path d="M123.523 34.6479C124.36 34.6479 125.197 34.6479 126.059 34.6479C126.059 37.9944 126.059 41.3409 126.059 44.7888C125.222 44.7888 124.385 44.7888 123.523 44.7888C123.523 41.4423 123.523 38.0958 123.523 34.6479Z" fill="#254C95"/>
<path d="M93.1016 34.6479C93.9382 35.0663 93.9382 35.0663 94.7917 35.493C94.7917 37.724 94.7917 39.955 94.7917 42.2536C96.1861 42.2536 97.5804 42.2536 99.0171 42.2536C99.0171 42.8113 99.0171 43.3691 99.0171 43.9437C97.0649 43.9437 95.1128 43.9437 93.1016 43.9437C93.1016 40.8761 93.1016 37.8085 93.1016 34.6479Z" fill="#224A93"/>
<path d="M54.2277 22.8169C54.7854 22.8169 55.3432 22.8169 55.9178 22.8169C55.639 29.5099 55.3601 36.2028 55.0728 43.0986C54.7939 43.0986 54.515 43.0986 54.2277 43.0986C54.0614 40.194 53.9058 37.289 53.7523 34.3838C53.705 33.5586 53.6576 32.7334 53.6087 31.8832C53.5679 31.0907 53.527 30.2982 53.485 29.4817C53.4451 28.7515 53.4053 28.0213 53.3643 27.269C53.3826 25.3521 53.3826 25.3521 54.2277 22.8169Z" fill="#E54147"/>
<path d="M164.087 11.8311C164.923 12.1099 165.76 12.3888 166.622 12.6761C166.622 14.0705 166.622 15.4649 166.622 16.9015C166.343 16.3437 166.064 15.786 165.777 15.2113C165.219 15.2113 164.661 15.2113 164.087 15.2113C163.808 16.3268 163.529 17.4423 163.242 18.5916C164.636 18.3127 166.03 18.0339 167.467 17.7465C167.467 18.3043 167.467 18.862 167.467 19.4367C165.794 19.4367 164.121 19.4367 162.397 19.4367C162.291 16.5846 162.291 16.5846 162.397 13.5212C162.954 12.9634 163.512 12.4057 164.087 11.8311Z" fill="#274E99"/>
<path d="M123.524 13.521C124.639 14.0787 125.755 14.6365 126.904 15.2111C126.625 16.3266 126.346 17.4421 126.059 18.5914C127.174 19.1492 128.29 19.7069 129.439 20.2816C127.01 20.8097 127.01 20.8097 124.369 21.1266C123.811 20.5689 123.253 20.0111 122.679 19.4365C122.996 16.3731 122.996 16.3731 123.524 13.521Z" fill="#4869A6"/>
<path d="M142.115 15.2114C142.673 15.2114 143.23 15.2114 143.805 15.2114C143.805 15.7692 143.805 16.3269 143.805 16.9016C144.642 17.1804 145.478 17.4593 146.34 17.7466C145.504 17.7466 144.667 17.7466 143.805 17.7466C144.084 19.141 144.363 20.5354 144.65 21.972C143.535 21.972 142.419 21.972 141.27 21.972C141.164 17.1128 141.164 17.1128 142.115 15.2114Z" fill="#244C92"/>
<path d="M119.299 28.7324C119.857 28.7324 120.414 28.7324 120.989 28.7324C120.989 29.569 120.989 30.4057 120.989 31.2676C122.104 31.2676 123.22 31.2676 124.369 31.2676C124.369 30.7099 124.369 30.1521 124.369 29.5775C124.927 29.5775 125.485 29.5775 126.059 29.5775C126.338 30.693 126.617 31.8085 126.904 32.9578C124.673 32.9578 122.442 32.9578 120.144 32.9578C119.865 31.5634 119.586 30.169 119.299 28.7324Z" fill="#E82F33"/>
<path d="M127.749 27.8873C127.749 29.5606 127.749 31.2338 127.749 32.9578C127.191 31.8423 126.634 30.7268 126.059 29.5775C125.501 29.5775 124.944 29.5775 124.369 29.5775C124.09 30.1352 123.811 30.693 123.524 31.2676C123.524 30.7099 123.524 30.1521 123.524 29.5775C122.966 29.5775 122.408 29.5775 121.834 29.5775C121.555 30.1352 121.276 30.693 120.989 31.2676C120.71 30.1521 120.431 29.0366 120.144 27.8873C122.954 26.9506 124.894 27.1736 127.749 27.8873Z" fill="#E35358"/>
<path d="M135.354 35.4932C137.585 35.4932 139.816 35.4932 142.115 35.4932C142.115 36.0509 142.115 36.6087 142.115 37.1833C141 37.1833 139.884 37.1833 138.735 37.1833C139.014 39.4143 139.293 41.6453 139.58 43.9439C139.022 43.9439 138.464 43.9439 137.89 43.9439C137.89 41.7129 137.89 39.4819 137.89 37.1833C137.053 37.1833 136.216 37.1833 135.354 37.1833C135.354 36.6256 135.354 36.0678 135.354 35.4932Z" fill="#1F4A98"/>
<path d="M101.552 17.7466C102.11 17.7466 102.667 17.7466 103.242 17.7466C103.242 18.5832 103.242 19.4198 103.242 20.2818C104.636 20.2818 106.031 20.2818 107.467 20.2818C107.746 19.4452 108.025 18.6086 108.312 17.7466C108.788 19.3839 108.788 19.3839 109.157 21.1269C108.312 21.9719 108.312 21.9719 105.83 22.1304C103.242 21.9719 103.242 21.9719 101.552 20.2818C101.552 19.4452 101.552 18.6086 101.552 17.7466Z" fill="#30559A"/>
<path d="M165.777 37.1831C166.056 37.7409 166.335 38.2986 166.622 38.8732C168.758 39.4272 168.758 39.4272 170.848 39.7183C171.127 41.3916 171.406 43.0648 171.693 44.7887C170.056 44.1021 170.056 44.1021 168.313 43.0986C168.034 42.262 167.755 41.4254 167.467 40.5634C166.91 40.2845 166.352 40.0056 165.777 39.7183C165.777 38.8817 165.777 38.0451 165.777 37.1831Z" fill="#375A9D"/>
<path d="M159.861 37.1831C160.977 37.1831 162.092 37.1831 163.242 37.1831C163.347 42.0423 163.347 42.0423 162.397 43.9437C159.887 43.5254 159.887 43.5254 157.326 43.0986C158.163 42.5409 158.999 41.9831 159.861 41.4085C160.073 39.225 160.073 39.225 159.861 37.1831Z" fill="#5170A9"/>
<path d="M173.383 35.4932C175.918 38.8734 175.918 38.8734 175.918 41.4087C175.659 42.5409 175.382 43.6693 175.073 44.7889C174.515 44.7889 173.957 44.7889 173.383 44.7889C173.383 41.7213 173.383 38.6537 173.383 35.4932Z" fill="#204A97"/>
<path d="M146.341 35.4932C146.62 36.3298 146.898 37.1664 147.186 38.0284C147.743 38.0284 148.301 38.0284 148.876 38.0284C148.597 39.1439 148.318 40.2594 148.031 41.4087C146.915 41.4087 145.8 41.4087 144.651 41.4087C144.545 39.4016 144.545 39.4016 144.651 37.1833C145.208 36.6256 145.766 36.0678 146.341 35.4932Z" fill="#4F6FA8"/>
<path d="M130.284 15.2114C130.563 15.2114 130.842 15.2114 131.129 15.2114C131.165 17.1829 131.164 19.1554 131.129 21.1269C130.284 21.972 130.284 21.972 127.696 22.0248C126.877 22.0074 126.058 21.9899 125.214 21.972C125.214 21.4142 125.214 20.8565 125.214 20.2818C126.608 20.003 128.003 19.7241 129.439 19.4368C129.718 18.0424 129.997 16.648 130.284 15.2114Z" fill="#204996"/>
<path d="M157.326 34.6479C161.446 35.3874 161.446 35.3874 162.397 36.3381C162.431 38.0279 162.433 39.7188 162.397 41.4085C162.118 41.4085 161.839 41.4085 161.552 41.4085C161.552 40.0141 161.552 38.6198 161.552 37.1832C160.157 37.1832 158.763 37.1832 157.326 37.1832C157.326 36.3465 157.326 35.5099 157.326 34.6479Z" fill="#254C96"/>
<path d="M135.354 11.8311C137.446 12.2494 137.446 12.2494 139.58 12.6761C139.859 13.7916 140.138 14.9071 140.425 16.0564C138.752 15.4987 137.078 14.9409 135.354 14.3663C135.354 13.5296 135.354 12.693 135.354 11.8311Z" fill="#40629E"/>
</svg>
