<svg width="73" height="60" viewBox="0 0 73 60" fill="none" xmlns="http://www.w3.org/2000/svg">
<g clip-path="url(#clip0_2177_666)">
<path fill-rule="evenodd" clip-rule="evenodd" d="M36.4585 58.3419C36.4046 58.2411 36.3481 58.1433 36.2911 58.0425C33.7775 54.2307 29.0939 52.5571 23.0535 51.8848C17.0062 51.2055 9.63592 51.531 1.80111 51.6853L1.71289 51.6914V51.6005C2.03796 44.0026 3.29176 32.7071 6.28218 25.9427C9.10833 19.4095 15.9892 15.2274 22.0496 12.1301C23.944 11.161 26.2495 10.1697 28.4815 9.01061C30.711 7.85156 32.8583 6.52171 34.4528 4.87982C35.5458 3.73381 36.1551 2.68818 36.4963 1.85463L36.5784 1.66211L36.6575 1.85463C36.9978 2.68818 37.611 3.73381 38.7066 4.87026C40.2981 6.52171 42.4458 7.84765 44.6753 9.01061C46.9043 10.1697 49.2102 11.161 51.1081 12.1301C57.165 15.2274 64.0454 19.4095 66.8716 25.9427C69.8655 32.7071 71.1188 44.0026 71.4378 51.6005L71.4443 51.6914L71.3526 51.6853C63.5183 51.531 56.1476 51.2055 50.1037 51.8848C44.0595 52.5606 39.3733 54.2307 36.8626 58.0455C36.8057 58.1433 36.7492 58.2411 36.6953 58.3389C36.6888 58.3519 36.6827 58.3645 36.6766 58.3741C36.664 58.3962 36.6384 58.418 36.6071 58.4271L36.5714 58.4401L36.5406 58.4245C36.4993 58.4023 36.4741 58.371 36.4585 58.3419Z" fill="white"/>
<path fill-rule="evenodd" clip-rule="evenodd" d="M46.1309 13.6396L46.8666 14.1007L46.851 16.7409L46.1339 16.3841L46.1309 13.6396Z" fill="#102A83"/>
<path fill-rule="evenodd" clip-rule="evenodd" d="M38.8327 11.4233L39.5468 11.5493L39.5272 13.1786C39.5272 13.1786 37.8953 13.0148 36.1139 13.0813C34.4712 13.1412 33.0131 13.4633 32.3525 13.631V12.9709L32.9123 12.7718V10.1256H33.6759V12.6206L34.2378 12.5602V9.90137H34.9266V12.4624L36.6728 12.3581V11.1865H37.336V12.3612H37.7245V11.2495H38.4824V12.3833L38.8327 12.4024V11.4233Z" fill="#102A83"/>
<path fill-rule="evenodd" clip-rule="evenodd" d="M29.7821 11.0122V10.2986L31.6421 9.43639C31.6421 9.43639 31.9641 9.37641 31.9641 9.81231C31.9641 10.2482 31.9137 11.3977 31.9137 11.3977L28.9294 12.9388V13.2073L31.5096 12.083L31.9107 12.2786V13.6276C31.9107 13.6276 30.1706 14.4889 29.2419 14.9722C28.3171 15.4524 26.4696 16.472 26.4696 16.472L26.1406 16.4342V14.9818L26.7477 14.6058V15.6037C26.7477 15.6037 28.1241 14.8518 29.0876 14.3464C30.0885 13.8197 31.2062 13.2951 31.2062 13.2951V12.9766C31.2062 12.9766 29.2293 13.9109 28.6991 14.1891H28.3262V12.4933L31.311 10.9144V10.2638L29.779 11.0409L29.7821 11.0122Z" fill="#102A83"/>
<path fill-rule="evenodd" clip-rule="evenodd" d="M42.0501 13.4786L43.0483 13.9463V15.1114L42.6094 15.121L40.7267 14.4543V16.0175L40.001 15.7685V13.7155L41.3082 14.038V11.1201L41.984 11.4204V12.443L42.7863 12.7937V12.1179C42.7863 12.1179 42.748 11.6664 43.197 11.7072C43.642 11.7451 44.5194 12.3952 44.5194 12.3952L44.5133 13.2292L43.5346 12.7242V13.1783L44.5168 13.6082V14.559L45.1639 14.9284V13.8263L45.8745 14.1857V15.8467C45.8745 15.8467 45.8336 15.9767 45.5359 15.8885C45.2369 15.7998 43.8532 14.9402 43.8532 14.9402V14.1166L42.0536 13.2796L42.0501 13.4786Z" fill="#102A83"/>
<path fill-rule="evenodd" clip-rule="evenodd" d="M36.5272 15.2754L44.4346 27.3514L36.6094 41.1192L28.6611 27.4144L36.5272 15.2754Z" fill="#102A83"/>
<path fill-rule="evenodd" clip-rule="evenodd" d="M45.72 27.2505H64.8285L53.6339 41.5272H37.75L45.72 27.2505Z" fill="#102A83"/>
<path fill-rule="evenodd" clip-rule="evenodd" d="M27.3756 27.2505H8.27051L19.4651 41.5272H35.3464L27.3756 27.2505Z" fill="#102A83"/>
<path fill-rule="evenodd" clip-rule="evenodd" d="M36.5779 58.2916C36.6031 58.2824 36.6062 58.2637 36.6218 58.2446C36.6761 58.1403 36.7331 58.0451 36.7896 57.9474C41.8578 50.249 55.6765 51.2373 71.3556 51.5502C71.0332 43.9522 69.7768 32.6689 66.795 25.9241C63.9815 19.4217 57.1263 15.2505 51.0663 12.1528C47.2732 10.2136 41.8452 8.19536 38.6466 4.87683C37.5379 3.73385 36.9252 2.67562 36.5779 1.83251C36.2307 2.67562 35.6114 3.73385 34.5127 4.88334C31.3076 8.19536 25.8822 10.2136 22.0869 12.1528C16.0265 15.2505 9.1713 19.4217 6.36036 25.9241C3.37603 32.6689 2.12267 43.9522 1.80063 51.5502C17.4763 51.2373 31.2981 50.249 36.3632 57.9474C36.4232 58.0451 36.4806 58.1438 36.5336 58.2472C36.5432 58.2663 36.5562 58.2824 36.5779 58.2916ZM35.6336 58.3993C30.913 51.0665 13.9996 52.2251 0.910156 52.5002C0.910156 52.5002 1.05227 47.7414 1.69633 42.3134C2.33735 36.901 3.49641 30.2787 5.57723 25.5799C9.35426 16.8455 19.9361 12.2027 28.0456 8.29358C35.8769 4.51655 36.1329 0.386196 36.139 -0.00537109H37.0169C37.0234 0.386196 37.2789 4.51655 45.1098 8.29358C53.2167 12.2027 63.802 16.8455 67.5786 25.5799C69.6568 30.2787 70.8154 36.901 71.4565 42.3134C72.104 47.7414 72.2457 52.5002 72.2457 52.5002C59.1567 52.2251 42.2432 51.0665 37.5192 58.3993C37.2285 58.8348 36.9186 59.365 36.591 59.9943C36.591 59.9943 35.9273 58.8348 35.6336 58.3993Z" fill="#102A83"/>
<path fill-rule="evenodd" clip-rule="evenodd" d="M23.8679 48.7836V44.2773H22.917V49.6102H26.9435V48.7836H23.8679Z" fill="#102A83"/>
<path fill-rule="evenodd" clip-rule="evenodd" d="M32.9529 44.2773V47.9531C32.9529 48.1839 32.9364 48.3538 32.9055 48.4681C32.8577 48.6572 32.7599 48.7649 32.6022 48.8088C32.4062 48.8653 31.9833 48.894 31.3393 48.894C30.8999 48.894 30.6035 48.8814 30.4518 48.8562C30.215 48.8149 30.0568 48.7362 29.9812 48.6224C29.9368 48.5563 29.8899 48.386 29.8899 47.9531V44.2773H28.9395V47.9531C28.9395 48.3955 28.9959 48.7328 29.1129 48.9544C29.255 49.223 29.5135 49.4212 29.8799 49.5446C30.0411 49.5985 30.2276 49.6363 30.4388 49.655C30.6444 49.6711 30.9855 49.6797 31.4531 49.6797C32.1128 49.6797 32.5674 49.6519 32.8008 49.5985C33.2432 49.4942 33.5561 49.2764 33.7265 48.9544C33.8434 48.7428 33.9034 48.4047 33.9034 47.9531V44.2773H32.9529Z" fill="#102A83"/>
<path fill-rule="evenodd" clip-rule="evenodd" d="M41.5049 44.2773L39.5345 48.5846L37.5728 44.3091L37.5575 44.2773H36.1934V49.6106H37.1438V45.3603L39.1047 49.5763L39.1208 49.6106H39.9669L41.9343 45.3638V49.6106H42.8848V44.2773H41.5049Z" fill="#102A83"/>
<path fill-rule="evenodd" clip-rule="evenodd" d="M49.7047 47.1572C49.5405 46.8512 49.2341 46.6552 48.7917 46.5731C48.5809 46.5388 48.1793 46.5097 47.6018 46.4879C47.0868 46.4714 46.7708 46.4562 46.6669 46.4436C46.411 46.4149 46.2437 46.3419 46.1872 46.232C46.1302 46.1185 46.0985 45.9508 46.0985 45.73C46.0985 45.5592 46.1198 45.4206 46.1646 45.3193C46.2311 45.162 46.3953 45.0633 46.6513 45.026C46.7995 45.0038 47.1376 44.9912 47.6587 44.9912C48.0277 44.9912 48.2841 45.0099 48.4227 45.0412C48.6248 45.092 48.7356 45.1929 48.773 45.3602C48.7947 45.4519 48.8051 45.6227 48.8051 45.8591V45.9382H49.7556V45.8591C49.7556 45.654 49.7521 45.5153 49.7486 45.4519C49.7047 44.8582 49.411 44.4758 48.8773 44.3185C48.6248 44.242 48.1606 44.2046 47.4944 44.2046C47.1502 44.2046 46.8408 44.2142 46.5783 44.2324C46.1963 44.2615 45.8803 44.3623 45.6374 44.5292C45.3154 44.7509 45.1511 45.1807 45.1511 45.8056C45.1511 46.2411 45.2458 46.5731 45.4353 46.7878C45.653 47.0403 45.9912 47.1985 46.4462 47.255C46.5844 47.2706 46.9164 47.2893 47.4375 47.3089C47.9551 47.3276 48.2841 47.3432 48.4131 47.3562C48.6435 47.3849 48.7891 47.454 48.8425 47.5679C48.8868 47.6531 48.9086 47.7917 48.9086 47.9777C48.9086 48.4679 48.8399 48.6409 48.783 48.7048C48.7134 48.7739 48.5996 48.8243 48.4388 48.853C48.2645 48.8812 47.9586 48.8938 47.5353 48.8938C47.2197 48.8938 46.9447 48.8904 46.7204 48.8812C46.5279 48.8747 46.3858 48.8465 46.3006 48.796C46.2154 48.7426 46.1554 48.6665 46.1198 48.5657C46.0829 48.4549 46.0637 48.275 46.0607 48.032V47.7574H45.1094V47.8391C45.1198 48.1676 45.1294 48.3854 45.1476 48.5018C45.2237 49.0742 45.5301 49.4405 46.0607 49.5887C46.2784 49.6518 46.7078 49.6796 47.3367 49.6796C47.8516 49.6796 48.268 49.6678 48.5674 49.6387C48.9785 49.6044 49.3032 49.4714 49.5283 49.248C49.7486 49.0259 49.8595 48.6222 49.8595 48.0446C49.8595 47.6492 49.809 47.3532 49.7047 47.1572Z" fill="#102A83"/>
</g>
<defs>
<clipPath id="clip0_2177_666">
<rect width="71.3258" height="60" fill="white" transform="translate(0.90918)"/>
</clipPath>
</defs>
</svg>
